<svg xmlns="http://www.w3.org/2000/svg" width="48" height="48" viewBox="0 0 96 96">
  <path fill="#fff" d="M48.09 93.29A30.12 30.12 0 0 1 18 63.21V33.3a14.82 14.82 0 0 1 10.82-14.25 14.86 14.86 0 0 1 10.29-8.53 14.79 14.79 0 0 1 27.67 7.28v6.07a14.82 14.82 0 0 1 9.6 13.85v6.26a19.36 19.36 0 0 1 1.79 8.17v11.06a30.12 30.12 0 0 1-30.08 30.08Z"/>
  <path fill="#3A3A4E" d="M68.58 45.93v-8.21a7 7 0 0 0-9.6-6.5V17.8a7 7 0 0 0-14 0v.65a7 7 0 0 0-9.59 6.5v1.85a7 7 0 0 0-9.6 6.5v29.91a22.29 22.29 0 0 0 44.57 0V52.16c0-2.2-.61-4.36-1.78-6.23Zm-7-10.81a2.61 2.61 0 0 1 2.6 2.6v4.13c-.68-.36-1.39-.66-2.12-.88l-3.08-.93v-2.32a2.61 2.61 0 0 1 2.6-2.56v-.04ZM49.39 17.8a2.6 2.6 0 0 1 5.19 0v20.91l-5.19-1.55V17.8Zm16.58 45.41a17.89 17.89 0 0 1-35.77 0V33.3a2.6 2.6 0 0 1 5.2 0v17.19a2.2 2.2 0 1 0 4.4 0V24.95a2.6 2.6 0 1 1 5.19 0v11a3.78 3.78 0 0 0-3.94 2.66 10.23 10.23 0 0 0 6.82 12.74l9.58 2.89a2.2 2.2 0 1 0 1.27-4.21l-9.57-2.89a5.84 5.84 0 0 1-4-6.65l15.64 4.67a7.24 7.24 0 0 1 3.8 2.71v.07a7.23 7.23 0 0 1 1.31 4.17l.07 11.1Z"/>
  <path fill="#3A3A4E" d="M57.28 56.78A13.82 13.82 0 0 0 40.08 66a2.2 2.2 0 0 0 3.41 2.4c.38-.28.66-.68.8-1.13a9.41 9.41 0 0 1 11.72-6.28 2.2 2.2 0 1 0 1.27-4.21Z"/>
</svg>
