<svg xmlns="http://www.w3.org/2000/svg" viewBox="0 0 155 36" width="155" height="36" fill="currentColor">
  <path d="M0 6.58v7.15c0 .77.77 1.32 1.55 1.11.78-.2 1.56.35 1.56 1.12v.24c0 .52-.37.97-.9 1.11l-1.32.36c-.53.14-.89.6-.89 1.11v.24c0 .77.77 1.33 1.55 1.12l5.22-1.4c.78-.2 1.56.35 1.56 1.12v.24c0 .52-.37.98-.9 1.12L.9 22.96c-.53.14-.89.6-.89 1.12v.24c0 .76.77 1.32 1.55 1.11L12 22.65c.78-.21 1.55.35 1.55 1.11V24c0 .52-.36.98-.89 1.12L.9 28.25c-.53.14-.89.6-.89 1.12v.24c0 .77.77 1.32 1.55 1.11l15.66-4.17c.78-.2 1.55.35 1.55 1.11v.24c0 .52-.36.98-.89 1.12L.9 33.55c-.53.14-.89.6-.89 1.11 0 .89.9 1.53 1.8 1.29l17.91-4.82a2.02 2.02 0 0 0 1.53-1.92V2.01c0-1.34-1.33-2.3-2.68-1.93L1.54 4.65A2.02 2.02 0 0 0 0 6.58Zm48.93 20.6h3.94V16.5h-3.94v10.68Zm4.26-13.96a2.22 2.22 0 0 1-2.29 2.17c-1.27 0-2.3-.96-2.3-2.17s1.07-2.2 2.3-2.2c1.28 0 2.3.99 2.3 2.2Zm5.89 8.63c0 1.5.84 2.35 2.12 2.35 1.25 0 2.07-.88 2.07-2.17v-.39c0-1.3-.82-2.17-2.07-2.17-1.28 0-2.12.86-2.12 2.38Zm4.4-4.66v-.7h3.73v10.95c0 3.1-2.3 5.17-5.89 5.17-3.78 0-5.62-1.72-6-4.29l3.93-.12c.06.76.71 1.25 1.92 1.25 1.28 0 2.1-.55 2.1-1.74v-1.05c-.58.41-1.54.74-2.75.74-3.22 0-5.42-2.27-5.42-5.55 0-3.3 2.2-5.58 5.42-5.58 1.41 0 2.4.45 2.97.92Zm12.68-.92a3.7 3.7 0 0 0-2.55.82v-5.84h-3.94v15.93h3.94v-5.74c0-1.09.6-1.68 1.53-1.68.95 0 1.47.55 1.47 1.66v5.76h3.94V20.5c0-2.74-1.77-4.24-4.39-4.24Zm11.83 6.42c0 .94.75 1.37 1.51 1.37.43 0 .7-.04.93-.08v3.3l-.12.01c-.47.06-.9.11-1.78.11-2.68 0-4.5-1.17-4.48-3.73l.02-3.98h-2.03v-3.2h2.05l.03-3.44h3.93l-.02 3.45h2.4v3.2h-2.42l-.02 2.99Zm11.05-6.42a3.7 3.7 0 0 0-2.55.82v-5.84h-3.94v15.93h3.94v-5.74c0-1.09.6-1.68 1.53-1.68.95 0 1.47.55 1.47 1.66v5.76h3.94V20.5c0-2.74-1.78-4.24-4.4-4.24Zm10.48 5.58c0 1.47.85 2.35 2.12 2.35 1.32 0 2.14-.88 2.14-2.35 0-1.5-.82-2.38-2.14-2.38-1.27 0-2.12.88-2.12 2.38Zm8.24 0c0 3.34-2.55 5.55-6.12 5.55-3.54 0-6.1-2.21-6.1-5.55 0-3.35 2.56-5.58 6.1-5.58 3.57 0 6.12 2.23 6.12 5.58Zm8.93 4.59v.74h3.72V16.5h-3.93v5.96c0 .98-.5 1.46-1.39 1.46-.95 0-1.3-.46-1.3-1.5V16.5h-3.93v6.84c0 2.67 1.56 4.06 4.2 4.06 1.38 0 2.18-.43 2.63-.96Zm15.36-6.66-3.94.2c.02-.6-.21-1.09-.89-1.09-.51 0-.82.23-.82.64 0 .51.64.67 1.7.94l.25.06c2.16.56 3.78 1.21 3.78 3.16 0 2.21-1.68 3.71-4.84 3.71-3.1 0-4.78-1.17-5-3.5l3.96-.2c-.02.58.22 1.08 1.04 1.08.6 0 .89-.27.89-.7 0-.39-.24-.6-1.63-.94-2.5-.6-4.08-1.13-4.08-3.36 0-2.18 1.81-3.51 4.75-3.51 3.08 0 4.66 1.44 4.83 3.5Zm8.97.88h-3.18c.06-1 .63-1.64 1.6-1.64 1.04 0 1.53.63 1.58 1.64Zm-1.54 3.87c-1.16 0-1.64-.72-1.64-1.68H155v-1.2c0-3.45-2.25-5.38-5.52-5.38-3.46 0-5.83 2.15-5.83 5.58 0 3.42 2.37 5.55 5.94 5.55 2.66 0 4.93-1.33 5.3-3.5l-3.96-.19c-.2.51-.67.82-1.45.82ZM46.82 27.18v-3.5h-6.43V11.83h-4.17v15.34h10.6Z" />
</svg>
