<svg xmlns="http://www.w3.org/2000/svg" width="48" height="48" viewBox="0 0 96 96">
  <path fill="#fff" d="M45.83 79.49a14.82 14.82 0 0 1-14.31-11c0-.16-.08-.32-.11-.47-1.2-.91-2.25-2-3.12-3.22l-7.7 2A14.81 14.81 0 0 1 6.76 41.65 14.79 14.79 0 0 1 20.6 16.5L41.42 22a19.46 19.46 0 0 1 12.4-4.45h11.06a30.09 30.09 0 0 1 0 60.17H54.42l-4.82 1.27c-1.23.33-2.5.5-3.77.5Z"/>
  <path fill="#3A3A4E" d="M64.9 25.36H53.86A11.64 11.64 0 0 0 44 30.75l-25.4-6.7a7 7 0 1 0-3.55 13.55l15.46 4.08-15.46 4.08a7 7 0 1 0 3.57 13.53l14.8-3.91a7 7 0 0 0 5.6 7.73 7 7 0 0 0 8.6 8.37l5.8-1.53h11.5a22.29 22.29 0 0 0 0-44.57l-.02-.02Zm-48.74 8a2.55 2.55 0 0 1-1.58-1.2 2.6 2.6 0 0 1 2.9-3.82l24.86 6.56-1.6 5.3c-.27-.3-.62-.51-1-.63l-23.58-6.21Zm1.33 21.7a2.6 2.6 0 0 1-1.33-5l23.48-6.2-1.76 5.84-20.4 5.36Zm23.53 3.7a2.6 2.6 0 0 1-2.94-3.81c.2-.34.48-.63.8-.85.4.33.86.58 1.35.73a10.16 10.16 0 0 0 11.21-3.72 2.59 2.59 0 0 1 0 5h-.3l-6.41 1.69h-.1c-.2 0-.38.03-.56.08l-3.05.89Zm5.47 8.48a2.58 2.58 0 0 1-3.02-3.59 2.6 2.6 0 0 1 1.22-1.25c.16-.01.32-.03.48-.07l7.08-1.87a2.6 2.6 0 0 1 2.26 4.58c-.27.2-.58.36-.91.44l-.21.09h-.23c-.2 0-.38.02-.56.07l-6.11 1.6Zm18.42-1.67h-5.5a7 7 0 0 0-2.6-8.41 7 7 0 0 0-3.53-10.06l2.6-8.65a2.2 2.2 0 0 0-4.2-1.27l-2.9 9.57a5.8 5.8 0 0 1-6.64 4.04l4.74-15.7c.08-.24.17-.5.27-.73.1-.24.06-.2.09-.28a7.26 7.26 0 0 1 6.6-4.26h11.07a17.89 17.89 0 0 1 0 35.77v-.02Z"/>
  <path fill="#3A3A4E" d="M68.97 51.55a9.42 9.42 0 0 1-6.28-11.72 2.2 2.2 0 0 0-4.21-1.27 13.81 13.81 0 0 0 9.22 17.2 2.2 2.2 0 1 0 1.27-4.21Z"/>
</svg>
