<svg xmlns="http://www.w3.org/2000/svg" width="48" height="48" viewBox="0 0 96 96">
  <path fill="#fff" d="M42.04 88.55A30.08 30.08 0 0 1 19.67 38.4l23.9-26.56a11.57 11.57 0 0 1 16.34-.87 18.09 18.09 0 0 1 5 19.26h4a14.79 14.79 0 0 1 12.32 23 14.67 14.67 0 0 1-2.01 8.97 14.76 14.76 0 0 1-2.86 10.91v.68a14.82 14.82 0 0 1-14.79 14.8l-19.53-.04Z"/>
  <path fill="#3A3A4E" d="M75.92 44.98a7 7 0 0 0-7-7h-19.6l6.14-6.83a10.23 10.23 0 0 0-.77-14.43 3.78 3.78 0 0 0-5.33.28L25.47 43.57a22.28 22.28 0 0 0 16.57 37.18h19.58a7 7 0 0 0 6.14-10.35 7 7 0 0 0 2.7-10.05 7 7 0 0 0 2.08-9.38 7 7 0 0 0 3.38-5.99Zm-7 2.6H64.1a2.2 2.2 0 0 0 0 4.4h2.43a2.6 2.6 0 0 1 0 5.18H62.3a2.21 2.21 0 0 0 0 4.41h2.3a2.6 2.6 0 0 1 0 5.2h-4.5a2.2 2.2 0 0 0 0 4.4h1.54a2.6 2.6 0 0 1 0 5.18h-19.6A17.89 17.89 0 0 1 28.7 46.51l23.5-26.1a5.84 5.84 0 0 1 0 7.77l-9.46 10.5a2.2 2.2 0 0 0 1.64 3.67h24.55a2.6 2.6 0 0 1 0 5.2v.02Z"/>
</svg>
