<svg width="188" height="34" fill="none" xmlns="http://www.w3.org/2000/svg">
  <path d="M61.65 27.48V17.16l-5.17 10.12H53.9l-5.2-10.12v10.32h-3.9V8.38h3.44l6.94 13.13 6.88-13.13h3.42V27.5h-3.84Zm18.05-8.15v8.16h-3.55v-1.08a4.49 4.49 0 0 1-3.31 1.36c-2.62 0-4.33-1.36-4.33-3.91 0-2.94 2.44-3.88 5.2-4.01l2.32-.13v-.5c0-1.34-.55-2.05-1.67-2.05-1.26 0-1.81.87-1.81 1.74l-3.68-.15c0-2.33 2.08-4.73 5.43-4.73 3.49-.01 5.4 1.83 5.4 5.3Zm-5.63 2.97c-1.1.05-1.89.43-1.89 1.38 0 .86.63 1.2 1.51 1.2 1.34 0 2.34-.74 2.34-2.15v-.56l-1.96.13Zm21.18-2.9v8.08h-3.67v-7.36c0-1.7-.88-2.63-2.29-2.63-1.46 0-2.41 1.08-2.41 2.66v7.33H83.2v-13.2h3.47v1.36c.57-.92 1.73-1.61 3.5-1.61 3-.01 5.08 1.95 5.08 5.38ZM98.67 34l3.33-7.7-5.09-12.02h4.05l2.99 7.87 2.96-7.87H111L102.67 34h-4Zm25.86-6.52v-8.05h-7.61v8.05h-3.89V8.38h3.9v7.56h7.61V8.37h3.88v19.12h-3.89Zm18.05-8.15v8.16h-3.55v-1.08a4.49 4.49 0 0 1-3.32 1.36c-2.61 0-4.32-1.36-4.32-3.91 0-2.94 2.44-3.88 5.2-4.01l2.32-.13v-.5c0-1.34-.56-2.05-1.67-2.05-1.26 0-1.81.87-1.81 1.74l-3.68-.15c0-2.33 2.08-4.73 5.43-4.73 3.48-.01 5.4 1.83 5.4 5.3Zm-5.64 2.97c-1.1.05-1.88.43-1.88 1.38 0 .86.63 1.2 1.51 1.2 1.34 0 2.34-.74 2.34-2.15v-.56l-1.97.13Zm21.19-2.9v8.08h-3.68v-7.36c0-1.7-.88-2.63-2.28-2.63-1.46 0-2.42 1.08-2.42 2.66v7.33h-3.68v-13.2h3.47v1.36c.58-.92 1.74-1.61 3.5-1.61 3-.01 5.1 1.95 5.1 5.38Zm12.92 8.08v-1.36c-.67.9-2.04 1.64-3.87 1.64-3.68 0-6.26-2.72-6.26-6.87s2.59-6.88 6.26-6.88c1.67 0 3 .61 3.68 1.4V7.64h3.64v19.85h-3.45Zm-6.41-6.59c0 2.35 1.3 3.65 3.14 3.65s3.07-1.22 3.07-3.37v-.58c0-2.13-1.26-3.38-3.07-3.38-1.8 0-3.14 1.33-3.14 3.68Zm23.2-2.61-3.65.2c-.05-.94-.53-1.6-1.67-1.6-.98 0-1.48.4-1.48 1.12 0 .92.98 1.05 2.53 1.46 2.6.68 4.43 1.5 4.43 3.91 0 2.68-1.94 4.4-5.33 4.4-3.31 0-5.25-1.54-5.53-4.3l3.68-.2c.05.97.63 1.63 1.88 1.63 1 0 1.64-.43 1.64-1.2s-.48-1.05-2.36-1.5c-2.77-.72-4.6-1.3-4.6-4.02 0-2.53 1.93-4.16 5.2-4.16 3.27 0 5.03 1.81 5.26 4.26ZM28.88 15.37a3.4 3.4 0 0 0-1.07-.75l.64-.65a3.49 3.49 0 0 0 .93-3.11 3.5 3.5 0 0 0-2-2.54l.22-.22a3.5 3.5 0 0 0-1.36-5.73 3.36 3.36 0 0 0-2.26.04A3.48 3.48 0 0 0 21.53.1a3.36 3.36 0 0 0-3.22.92l-8 8.13.15-.57c.34-1.3.16-2.68-.5-3.85a5 5 0 0 0-3.03-2.35 1.82 1.82 0 0 0-1.4.19c-.42.25-.73.65-.85 1.13L.36 20.1c-.6 2.35-.44 4.84.47 7.08a11 11 0 0 0 4.61 5.34 10.73 10.73 0 0 0 13.12-1.75l10.32-10.5a3.5 3.5 0 0 0 0-4.9Zm-1.52 3.36-10.31 10.5A8.67 8.67 0 0 1 6.5 30.68a8.83 8.83 0 0 1-3.7-4.3 9.01 9.01 0 0 1-.36-5.71L6.66 4.58c.65.26 1.2.75 1.5 1.38.33.64.4 1.37.22 2.05l-1.18 4.5a1.1 1.1 0 0 0 .5 1.23 1.06 1.06 0 0 0 1.3-.18l10.83-11a1.29 1.29 0 0 1 1.79 0 1.29 1.29 0 0 1 .27 1.4c-.06.15-.15.3-.27.42l-8.14 8.27a1.1 1.1 0 0 0 0 1.55 1.06 1.06 0 0 0 1.52 0l8.14-8.28 1.15-1.16a1.27 1.27 0 0 1 .92-.48 1.25 1.25 0 0 1 .97.37 1.3 1.3 0 0 1 .23 1.5c-.08.16-.2.3-.33.42l-2.46 2.5-7.7 7.82a1.1 1.1 0 0 0 .8 1.85 1.04 1.04 0 0 0 .75-.32l7.7-7.8a1.27 1.27 0 0 1 1.38-.28 1.27 1.27 0 0 1 .68.7 1.3 1.3 0 0 1-.27 1.4l-2.91 2.93-5.93 6.03a1.1 1.1 0 0 0 .03 1.5 1.07 1.07 0 0 0 1.48.04l5.93-6.03a1.26 1.26 0 0 1 1.8 0 1.3 1.3 0 0 1 0 1.82Z" fill="#3A3A4E"/>
  <path d="M8.62 15.67a1.1 1.1 0 0 0 0 1.55 5.07 5.07 0 0 1 0 7.1 1.1 1.1 0 0 0 0 1.55 1.06 1.06 0 0 0 1.51 0 7.28 7.28 0 0 0 0-10.2 1.07 1.07 0 0 0-1.51 0Z" fill="#3A3A4E"/>
</svg>
