<svg xmlns="http://www.w3.org/2000/svg" width="48" height="48" viewBox="0 0 96 96">
  <path fill="#fff" d="M36.09 88.59a30.08 30.08 0 0 1-22.37-50.2l23.89-26.55a11.57 11.57 0 0 1 16.35-.87 18.06 18.06 0 0 1 5 19.26h2a14.82 14.82 0 0 1 14 19.59 15 15 0 0 1 .13 9.19h.22a14.8 14.8 0 0 1 0 29.59l-39.22-.01Z"/>
  <path fill="#3A3A4E" d="M75.33 66.84h-7.86a6.84 6.84 0 0 0 .5-2.6 7 7 0 0 0-1.9-4.8 7 7 0 0 0 0-9.59 7 7 0 0 0-5.09-11.79H43.37l6.14-6.83a10.24 10.24 0 0 0-.76-14.43 3.8 3.8 0 0 0-5.34.28L19.52 43.64a22.28 22.28 0 0 0 16.57 37.2h39.24a7 7 0 1 0 0-14Zm0 9.59H36.09a17.91 17.91 0 0 1-13.3-29.88l23.45-26.08a5.83 5.83 0 0 1 0 7.78l-9.45 10.5a2.2 2.2 0 0 0 1.64 3.67h22.55a2.6 2.6 0 0 1 0 5.19H57.4a2.2 2.2 0 0 0 0 4.4h3.58a2.6 2.6 0 0 1 0 5.19h-3.3a2.2 2.2 0 1 0 0 4.4h3.3a2.6 2.6 0 0 1 0 5.2H57.4a2.2 2.2 0 1 0 0 4.4h17.93a2.6 2.6 0 0 1 0 5.19v.04Z"/>
</svg>
