<svg xmlns="http://www.w3.org/2000/svg" width="48" height="48" fill="none" viewBox="0 0 96 96">
  <path fill="#fff" d="M44 92.4a30.1 30.1 0 0 1-30-30.1v-30a14.8 14.8 0 0 1 27.3-8l1.5-.6v-5.5a14.8 14.8 0 1 1 29.6 0v11.3A18.2 18.2 0 0 1 83 32a11.6 11.6 0 0 1 4.3 15.8L70 77.3a30.2 30.2 0 0 1-26 15Z"/>
  <path fill="#3A3A4E" d="M80.9 41a3.7 3.7 0 0 0-1.8-2.3 10.2 10.2 0 0 0-14 3.7l-.6 1V18.2a7 7 0 1 0-14 0v12.9a7 7 0 0 0-9 3.5 7.2 7.2 0 0 0-5.8-.3v-2a7 7 0 1 0-14 0v30a22.3 22.3 0 0 0 41.6 11.1l17.1-29.6A3.7 3.7 0 0 0 81 41Zm-35.5-3.4a2.6 2.6 0 1 1 5.2 0v10.8a2.6 2.6 0 0 1-5.2 0V37.6Zm-7 .6a2.6 2.6 0 0 1 2.6 2.6v10.9a2.6 2.6 0 1 1-5.2 0v-11a2.6 2.6 0 0 1 2.6-2.5Zm21.1 33a17.9 17.9 0 0 1-33.3-9v-30a2.6 2.6 0 1 1 5.2 0v19.4a7 7 0 0 0 13.3 3A7 7 0 0 0 55 48.4V18.2a2.6 2.6 0 1 1 5.2 0v33.4a2.2 2.2 0 0 0 4.1 1.1l4.7-8.1a5.8 5.8 0 0 1 7.4-2.4l-16.9 29Z"/>
</svg>
