<svg xmlns="http://www.w3.org/2000/svg" width="48" height="48" viewBox="0 0 96 96">
  <path fill="#fff" d="M44.06 92.36A30.13 30.13 0 0 1 14 62.27v-29.9a14.8 14.8 0 0 1 27.27-8c.49-.25 1-.47 1.51-.67v-5.52a14.8 14.8 0 1 1 29.59 0v11.34a18.2 18.2 0 0 1 10.65 2.35 11.59 11.59 0 0 1 4.23 15.81L70.1 77.34a30.17 30.17 0 0 1-26 15l-.04.02Z"/>
  <path fill="#3A3A4E" d="M80.86 40.96a3.73 3.73 0 0 0-1.75-2.3 10.2 10.2 0 0 0-14 3.73l-.6 1V18.22a7 7 0 1 0-14 0V31.1a7 7 0 0 0-8.92 3.51 7.24 7.24 0 0 0-5.87-.3v-1.93a7 7 0 1 0-14 0v29.9a22.28 22.28 0 0 0 41.57 11.16l17.13-29.6a3.72 3.72 0 0 0 .44-2.87ZM45.37 37.6a2.6 2.6 0 1 1 5.19 0v10.85a2.6 2.6 0 0 1-5.19 0V37.6Zm-7 .6a2.6 2.6 0 0 1 2.6 2.6v10.86a2.6 2.6 0 1 1-5.2 0V40.8a2.6 2.6 0 0 1 2.6-2.6Zm21.17 33a17.88 17.88 0 0 1-33.36-9V32.3a2.6 2.6 0 1 1 5.19 0v19.28a7 7 0 0 0 13.32 3A7 7 0 0 0 55 48.44V18.22a2.6 2.6 0 1 1 5.19 0v33.4a2.2 2.2 0 0 0 4.11 1.1l4.69-8.13a5.81 5.81 0 0 1 7.4-2.4l-16.85 29Z"/>
</svg>
