<svg xmlns="http://www.w3.org/2000/svg" width="48" height="48" viewBox="0 0 96 96">
  <path fill="#fff" d="M53.66 94.9c-5.04 0-9.98-1.28-14.38-3.71l-.38-.2a29.7 29.7 0 0 1-7.84-6.5l-16.5-19.32a14.8 14.8 0 0 1 .35-19.64c-.08-.34-.14-.68-.2-1a14.73 14.73 0 0 1 2.58-11 29.89 29.89 0 0 1 17.4-11.61 14.81 14.81 0 0 1 21.76-18.4A14.81 14.81 0 0 1 72.1 8.08a14.81 14.81 0 0 1 11.83 18.87l-4.18 13.9 3.28 19.34a29.77 29.77 0 0 1-24.35 34.33c-1.67.27-3.35.4-5.03.39Z"/>
  <path fill="#3A3A4E" d="M76.45 24.67A7 7 0 0 0 67.59 16a7 7 0 0 0-12.51-2.44l-1-1.61a7 7 0 1 0-11.8 7.55l6.89 10.74a22 22 0 0 0-25.56 7.84 7 7 0 0 0 3.07 10.58h-.35a7 7 0 0 0-5.86 11.42l10.28 12 6.22 7.28a22 22 0 0 0 5.84 4.83l.17.09A22 22 0 0 0 75.34 61.4l-2.78-16.45-.8-4.61 4.69-15.68Zm-5.95-4.5a2.6 2.6 0 0 1 1.74 3.24l-2.16 7.17-1.6-9.41-.11-.7a2.56 2.56 0 0 1 2.13-.3Zm-11.83-4.1c.4-.55 1-.94 1.68-1.05a2.62 2.62 0 0 1 3 2.13l.48 2.86.32 1.86 1.36 8-7.18-11.21-.1-.63a2.57 2.57 0 0 1 .44-1.95ZM68 75.28a17.57 17.57 0 0 1-22.9 5.18l-.14-.08c-1.76-1-3.32-2.3-4.63-3.84L25.43 59.1l-1.62-1.9a2.6 2.6 0 0 1 3.95-3.38l4.29 5A12.36 12.36 0 0 0 51.49 58l.07-.1A12.36 12.36 0 0 0 31.4 43.59a2.62 2.62 0 0 1-4.33-.14 2.61 2.61 0 0 1 .1-2.9 17.58 17.58 0 0 1 28.87.49l.19.3c1.27 2 2.13 4.25 2.52 6.6a2.19 2.19 0 0 0 2.17 1.84h.36a2.2 2.2 0 0 0 1.8-2.52 21.77 21.77 0 0 0-3.16-8.28l-.22-.33-13.75-21.5a2.6 2.6 0 0 1 4.38-2.8l4.05 6.34L64.83 37a23.3 23.3 0 0 1 3.36 8.7l2.8 16.5a17.44 17.44 0 0 1-3 13.1v-.02Zm-39.6-26.2a7 7 0 0 0 6.58-2.85A8 8 0 1 1 47.9 55.5v.07a7.84 7.84 0 0 1-7.03 3.22 7.94 7.94 0 0 1-5.43-2.76l-4.3-5a6.89 6.89 0 0 0-2.74-1.96Z"/>
</svg>
