<svg xmlns="http://www.w3.org/2000/svg" viewBox="0 0 100 100">
  <path d="M29.16 25.08a22.15 22.15 0 0 1 34.85 4.58l12.62 21.8a8.52 8.52 0 0 1-3.1 11.65 13.2 13.2 0 0 1-7.86 1.73v9.83a10.9 10.9 0 0 1-21.8 0l-.02-5.52c-1.06-.4-2.05-.95-2.94-1.66h-.29c-2.57 0-5.06-.91-7.03-2.57a10.9 10.9 0 0 1-10.9-10.9V40.77a22.04 22.04 0 0 1 6.47-15.69Z" fill="#fff"/>
  <path d="M33.57 59.16c.8 0 1.6-.2 2.32-.56a5.16 5.16 0 0 0 7.15 2.53 5.16 5.16 0 0 0 6.57 2.59v10.95a5.16 5.16 0 1 0 10.31 0V54.64l.44.76a7.54 7.54 0 0 0 10.28 2.74 2.78 2.78 0 0 0 1.01-3.8L59.07 32.56a16.45 16.45 0 0 0-22.35-6.04l-.07.07a16.44 16.44 0 0 0-8.2 14.2v13.25a5.16 5.16 0 0 0 5.16 5.16l-.04-.05ZM31.66 54V40.75a13.26 13.26 0 0 1 6.5-11.36l.06-.06a13.18 13.18 0 0 1 18 4.8l12.37 21.4a4.3 4.3 0 0 1-5.45-1.77l-3.45-5.98a1.62 1.62 0 0 0-3.03.81v26.04a1.91 1.91 0 1 1-3.82 0l.02-15.7v-2.08a1.62 1.62 0 0 0-3.24 0v2.08a1.91 1.91 0 0 1-3.83 0V54.5a1.62 1.62 0 0 0-3.24 0v2.08a1.92 1.92 0 0 1-3.82 0v-4.65a1.62 1.62 0 1 0-3.25 0v2.08a1.92 1.92 0 0 1-3.82 0Z" fill="#3A3A4E"/>
</svg>
