<svg xmlns="http://www.w3.org/2000/svg" width="48" height="48" viewBox="0 0 96 96">
  <path fill="#fff" d="M41.06 93.28A30.08 30.08 0 0 1 11 63.2V33.3a14.82 14.82 0 0 1 10.82-14.28 14.86 14.86 0 0 1 10.33-8.5 14.78 14.78 0 0 1 22.24-4.16h.23a14.8 14.8 0 0 1 14.79 14.8v9.33a18.2 18.2 0 0 1 10.65 2.35 11.57 11.57 0 0 1 4.22 15.82l-17.13 29.6a30.17 30.17 0 0 1-26.09 15.02Z"/>
  <path fill="#3A3A4E" d="M77.88 41.88a3.72 3.72 0 0 0-1.75-2.3 10.23 10.23 0 0 0-14 3.73l-.6 1v-23.2a7 7 0 0 0-10.2-6.2 7 7 0 0 0-13.38 2.85v.65a7 7 0 0 0-9.6 6.5v1.85a7 7 0 0 0-9.59 6.5v29.91a22.34 22.34 0 0 0 11.12 19.28 22.32 22.32 0 0 0 30.45-8.14l17.13-29.6a3.68 3.68 0 0 0 .42-2.83ZM56.56 72.15A17.88 17.88 0 0 1 23.2 63.2V33.3a2.6 2.6 0 1 1 5.19 0v17.18a2.2 2.2 0 1 0 4.4 0V24.94a2.6 2.6 0 1 1 5.2 0v22.24a2.2 2.2 0 0 0 4.4 0V17.8a2.6 2.6 0 0 1 5.19 0v27a2.2 2.2 0 1 0 4.4 0V21.2a2.6 2.6 0 0 1 5.19 0v31.4a2.2 2.2 0 0 0 4.11 1.1l4.7-8.13a5.82 5.82 0 0 1 7.39-2.4l-16.81 29Z"/>
  <path fill="#3A3A4E" d="M52.52 53.9a14.55 14.55 0 0 0-14.53 14.53 2.2 2.2 0 0 0 4.4 0A10.15 10.15 0 0 1 52.52 58.3a2.2 2.2 0 1 0 0-4.4Z"/>
</svg>
