<svg xmlns="http://www.w3.org/2000/svg" width="48" height="48" viewBox="0 0 96 96">
  <path fill="#fff" d="M52.22 88.63a11.6 11.6 0 0 1-8.61-3.84L19.7 58.2A30.08 30.08 0 0 1 42.09 8h19.58A14.82 14.82 0 0 1 76.5 22.82v.69a14.7 14.7 0 0 1 2.86 10.91 14.67 14.67 0 0 1 2.01 8.97 14.8 14.8 0 0 1-12.32 23h-4a18.06 18.06 0 0 1-5 19.26 11.6 11.6 0 0 1-7.83 2.98Z"/>
  <path fill="#3A3A4E" d="M72.57 45.61a6.93 6.93 0 0 0 .19-6.89 7 7 0 0 0-2.26-2.52 6.87 6.87 0 0 0 .08-7.44 7 7 0 0 0-2.78-2.56 7 7 0 0 0-6.14-10.36H42.08A22.27 22.27 0 0 0 25.5 53.01l23.89 26.57a3.74 3.74 0 0 0 2.6 1.24h.2c.94 0 1.84-.36 2.53-1a10.23 10.23 0 0 0 .77-14.43l-6.15-6.83h19.62a7 7 0 0 0 3.59-13l.02.05Zm-3.6 8.59H44.44a2.2 2.2 0 0 0-1.64 3.67l9.44 10.5a5.81 5.81 0 0 1 0 7.78L28.78 50.07A17.89 17.89 0 0 1 42.1 20.23h19.58a2.6 2.6 0 1 1 0 5.19h-1.53a2.2 2.2 0 1 0 0 4.4h4.5a2.6 2.6 0 0 1 0 5.19h-2.28a2.2 2.2 0 0 0 0 4.4h4.22a2.6 2.6 0 1 1 0 5.2h-2.43a2.2 2.2 0 1 0 0 4.4H69a2.6 2.6 0 0 1 0 5.19h-.03Z"/>
</svg>
