<svg fill="#3A3A4E" xmlns="http://www.w3.org/2000/svg" viewBox="0 0 63 70">
  <path d="m61.31 41.33-8.82-33a3.78 3.78 0 0 0-4.62-2.68 10.23 10.23 0 0 0-7.24 12.51l.31 1.14-16.4-16.4A7 7 0 0 0 12.9 5.67a7 7 0 0 0-7.43 11.5l.45.45a6.9 6.9 0 0 0-3.7 3.75A7 7 0 0 0 3.73 29l1.31 1.31a6.9 6.9 0 0 0-3.7 3.75 7 7 0 0 0 1.51 7.63L24 62.83a22.28 22.28 0 0 0 37.28-21.5h.03Zm-6 14.7a17.73 17.73 0 0 1-10.86 8.32 17.93 17.93 0 0 1-17.26-4.63L6 38.57a2.6 2.6 0 1 1 3.67-3.67l12.16 12.16a2.2 2.2 0 0 0 3.11-3.1L12.78 31.78 6.9 25.9a2.6 2.6 0 0 1 3.67-3.68L26.3 37.94c.42.42.98.65 1.56.65a2.2 2.2 0 0 0 1.55-3.76L13.67 19.1l-5-5a2.6 2.6 0 0 1 3.67-3.67l2.37 2.37L31.4 29.48a2.19 2.19 0 0 0 3.7-1.98 2.21 2.21 0 0 0-.59-1.13L17.81 9.7a2.61 2.61 0 0 1 0-3.68 2.67 2.67 0 0 1 3.68 0l22.2 22.2a2.2 2.2 0 0 0 3.67-2.12l-2.47-9.12a5.84 5.84 0 0 1 3.53-6.93l8.65 32.42a17.74 17.74 0 0 1-1.8 13.57h.04Z"/>
</svg>
