<svg xmlns="http://www.w3.org/2000/svg" width="268" height="268" viewBox="0 0 268 268"><path fill="#F1FFBC" d="M0 0h268v268H0z"/><path fill="#fff" d="M112.8 235.9a72.3 72.3 0 0 0 51.4-21.3l51-51a35.8 35.8 0 0 0 6-43 35.9 35.9 0 0 0-3-32.1 35.7 35.7 0 0 0-31-45.1l-.3-.4a35.7 35.7 0 0 0-50.6 0l-16 16c-5.7-7-13.4-12-22.1-14.3a28 28 0 0 0-34.4 19.8l-21.4 80a72.7 72.7 0 0 0 70.3 91.4Z"/><path fill="#3A3A4E" d="m60.7 149.3 21.4-79.7A9.1 9.1 0 0 1 93.2 63a24.7 24.7 0 0 1 17.5 30.2L110 96l39.6-39.7a17 17 0 0 1 28.2 6.7 17 17 0 0 1 18 27.8l-1.2 1.1a16.7 16.7 0 0 1 9 9 17 17 0 0 1-3.7 18.5l-3.2 3.2a16.7 16.7 0 0 1 9 9 17 17 0 0 1-3.7 18.5l-51 51a53.8 53.8 0 0 1-90.2-51.9Zm14.5 35.5a42.8 42.8 0 0 0 48.6 20.1c7.4-2 14-5.8 19.4-11.2l51.2-51a6.3 6.3 0 1 0-8.8-9l-29.4 29.5a5.3 5.3 0 0 1-7.5-7.6l29.3-29.3 14.3-14.3a6.3 6.3 0 0 0-9-8.9l-38 38c-1 1-2.3 1.6-3.7 1.6a5.3 5.3 0 0 1-3.7-9.1l38-38 12-12.1a6.3 6.3 0 0 0-8.8-8.9l-5.7 5.8-40.3 40.3a5.3 5.3 0 0 1-9-4.8c.2-1 .7-2 1.4-2.7L166 72.8a6.3 6.3 0 0 0 0-8.9 6.5 6.5 0 0 0-9 0l-53.5 53.7a5.3 5.3 0 0 1-9-5.1l6-22A14.1 14.1 0 0 0 92 73.6l-21 78.3a42.9 42.9 0 0 0 4.5 32.8h-.2Z"/><path fill="#3A3A4E" d="M101.6 127.8a5.3 5.3 0 0 1 7.5 0 35.2 35.2 0 0 1 0 49.6 5.3 5.3 0 0 1-7.5-7.5 24.5 24.5 0 0 0 0-34.6 5.3 5.3 0 0 1 0-7.6Z"/></svg>
