<svg fill="currentColor" xmlns="http://www.w3.org/2000/svg" viewBox="0 0 108 31">
  <path d="M28.08 0h4.97v30.67h-4.97V0Zm22.25 20.95c0 4.75-3.89 5.19-5.19 5.19-3.02 0-3.45-2.81-3.45-4.32V9.94h-4.97V21.6c0 2.8.86 5.4 2.6 6.91 1.5 1.51 3.45 2.16 5.82 2.16 1.73 0 3.9-.43 5.19-1.73v1.73h4.97V9.94h-4.97v11.01Zm9.72-18.57h4.97v7.56h3.67v4.75h-3.67v15.98h-4.97V14.7h-3.67V9.94h3.67V2.38Zm24.2 22.03a6.82 6.82 0 0 1-4.11 1.51c-3.46 0-5.84-2.6-5.84-6.05a5.56 5.56 0 0 1 5.84-5.83 5.7 5.7 0 0 1 4.1 1.51l.65.65 3.45-3.24-.86-.65a11.08 11.08 0 0 0-7.34-2.8 10.34 10.34 0 0 0-10.59 10.58c0 6.05 4.54 10.58 10.59 10.58 2.8 0 5.4-1.08 7.34-2.8l.86-.65-3.45-3.46-.65.65Zm16.2-14.9c2.37 0 3.88.64 5.4 2.15 1.5 1.52 2.15 4.1 2.15 6.92v11.88h-4.97V18.07c.02-1.55.04-4.03-2.8-4.03-1.3 0-4.54.43-4.54 5.18v11.45h-4.97V0h4.97v11.23a6.5 6.5 0 0 1 4.75-1.73ZM21.16 23.1a10.13 10.13 0 0 1-7.13 2.81c-5.4 0-9.29-4.32-9.29-10.15s3.89-10.15 9.5-10.15c2.6 0 5.19 1.08 7.13 3.02l.65.65 3.24-3.24-.65-.65a14.55 14.55 0 0 0-10.36-4.32C6.05.86 0 7.34 0 15.77c0 8.42 6.05 14.9 14.04 14.9 3.89 0 7.78-1.51 10.37-4.32l.65-.65-3.24-3.24-.65.65Zm62.2-3.02a3.46 3.46 0 1 1-6.9 0 3.46 3.46 0 0 1 6.9 0Z"/>
</svg>
