<svg xmlns="http://www.w3.org/2000/svg" width="312" height="52" viewBox="0 0 468 78">
  <circle cx="38.5" cy="38.5" r="38" fill="currentColor" stroke="currentColor"/>
  <path fill="#fff" d="M13 13h11.6c8.9 0 13.9 3.7 13.9 11.5v.1c0 2.6-.6 4.7-1.6 6.4-2.3 3.4-6.4 5-12 5h-12V13Zm7.6 6.5v10h3.7c4.6 0 6.3-1.5 6.3-5 0-3.6-1.7-5-6.4-5h-3.6Zm28.6 11V36h-7.4V13H54c8.6 0 12 3 12 9 0 5.7-3.7 8.5-11.8 8.5h-5Zm0-11.1v5.1h4.9c3.4 0 4.4-.6 4.4-2.5 0-2.2-1.3-2.6-4.5-2.6h-4.8ZM20.4 58.5V64H13V41h12.2c8.7 0 12.1 3 12.1 9 0 5.7-3.7 8.5-11.8 8.5h-5Zm0-11.1v5.1h4.9c3.3 0 4.4-.6 4.4-2.5 0-2.2-1.3-2.6-4.5-2.6h-4.8Zm22.4 17c-1.1 0-2 0-2.7-.2-1.3-.5-1.8-1.6-1.8-3.8 0-3.2 1.4-4 4.5-4 3.2 0 4.6.8 4.6 4s-1.3 4-4.6 4Z"/>
  <path fill="currentColor" d="M104.8 51.4c-1.1 0-2.1-.3-3-.7-.8-.4-1.5-1-2-1.7l-.4 2h-3.5V29.4h3.9v8.9a5.7 5.7 0 0 1 5-2.5 7 7 0 0 1 6.3 3.8c.7 1.1 1 2.5 1 4s-.3 2.8-1 4c-.6 1.2-1.5 2-2.6 2.8-1 .6-2.3 1-3.7 1ZM104 48a4 4 0 0 0 3-1.2c.8-.8 1.2-2 1.2-3.2 0-1.3-.4-2.4-1.2-3.2a4 4 0 0 0-3-1.3 4 4 0 0 0-3.1 1.3c-.8.8-1.2 1.9-1.2 3.2 0 1.3.4 2.3 1.2 3.2a4 4 0 0 0 3 1.2Zm12 9.6 3.5-7.6h-1l-5.7-13.9h4.2l4.1 10.5 4.4-10.5h4l-9.4 21.5h-4Zm23.3-6.6V30h7.2c2.4 0 4.5.4 6 1.3a8 8 0 0 1 3.6 3.7c.8 1.5 1.2 3.4 1.2 5.5s-.4 4-1.2 5.5c-.8 1.6-2 2.8-3.6 3.7-1.5.9-3.6 1.3-6 1.3h-7.2Zm3.9-3.3h3.1c1.8 0 3.2-.3 4.2-.8a5 5 0 0 0 2.2-2.5c.4-1 .6-2.4.6-3.9s-.2-2.8-.6-3.9a5 5 0 0 0-2.2-2.5c-1-.5-2.4-.8-4.2-.8h-3.1v14.4Zm19.4-13.9c-.7 0-1.3-.2-1.7-.6a2 2 0 0 1-.7-1.6c0-.7.2-1.2.7-1.6.4-.4 1-.6 1.7-.6s1.3.2 1.7.6c.5.4.7 1 .7 1.6a2 2 0 0 1-.7 1.6c-.4.4-1 .6-1.7.6ZM160.7 51V36.1h3.8V51h-3.8Zm14.1-4.4a8 8 0 0 1-2-.3l-1 1.1c.3.2.7.4 1.3.5l2.8.3c2 .2 3.4.7 4.3 1.4 1 .8 1.4 1.9 1.4 3.2 0 .9-.2 1.7-.7 2.5a5 5 0 0 1-2.2 2c-1 .4-2.3.7-3.9.7-2.1 0-3.8-.4-5.1-1.2a4 4 0 0 1-2-3.6c0-1.3.7-2.5 2-3.5l-1-.5a6 6 0 0 1-.8-.7V48l2.6-2.8a5 5 0 0 1-1.7-4c0-1 .2-1.9.7-2.7.5-.8 1.2-1.4 2-2 1-.4 2-.6 3.3-.6a6 6 0 0 1 2.4.3h5.6v2.4l-2.5.1c.4.8.6 1.6.6 2.6s-.3 1.9-.7 2.7a5 5 0 0 1-2.1 2c-1 .4-2 .7-3.3.7Zm0-3c.8 0 1.5-.2 2-.6.5-.4.7-1 .7-1.8s-.2-1.4-.7-1.8c-.5-.4-1.2-.6-2-.6a3 3 0 0 0-2 .6c-.4.4-.7 1-.7 1.8s.3 1.4.8 1.8a3 3 0 0 0 2 .6Zm-3.6 9.2c0 .8.4 1.3 1 1.7.8.4 1.6.5 2.6.5s1.8-.1 2.4-.5c.6-.4.9-1 .9-1.6 0-.5-.2-1-.6-1.4-.4-.3-1.2-.5-2.4-.6-.8 0-1.5-.2-2.2-.3-.6.3-1 .7-1.3 1-.2.4-.4.8-.4 1.2Zm16.5-19c-.7 0-1.3-.2-1.7-.6a2 2 0 0 1-.7-1.6c0-.7.2-1.2.7-1.6.4-.4 1-.6 1.7-.6s1.3.2 1.7.6c.5.4.7 1 .7 1.6a2 2 0 0 1-.7 1.6c-.4.4-1 .6-1.7.6Zm-2 17.2V36.1h4V51h-4Zm14.6 0c-1.6 0-2.9-.4-3.8-1.1-1-.8-1.4-2.1-1.4-4v-6.6h-2.6v-3.2h2.6l.4-4h3.4v4h4v3.2h-4v6.5c0 .8.2 1.3.5 1.5.3.3.8.4 1.6.4h1.9V51h-2.6Zm11 .4c-1.2 0-2.2-.2-3-.6-.9-.5-1.5-1-1.9-1.7-.4-.7-.6-1.4-.6-2.2a4 4 0 0 1 1.6-3.4c1.1-.9 2.7-1.3 4.9-1.3h3.8v-.4c0-1-.3-1.7-1-2.2-.5-.5-1.2-.7-2-.7s-1.5.2-2.1.6c-.6.3-1 .9-1 1.6h-3.8c0-1.1.4-2 1-2.9.7-.8 1.5-1.4 2.5-1.8a9 9 0 0 1 3.4-.6c2 0 3.8.5 5 1.6 1.2 1 1.8 2.5 1.8 4.5V51h-3.3l-.3-2.4a5.4 5.4 0 0 1-4.9 2.8Zm1-3c1 0 1.9-.4 2.5-1.1.6-.7 1-1.6 1.2-2.7h-3.3c-1 0-1.7.2-2.2.6-.4.3-.6.8-.6 1.3 0 .6.2 1 .6 1.4.5.3 1 .5 1.8.5Zm11.3 2.6V29.4h3.8V51h-3.8Zm15 0V30h7.7c1.7 0 3.1.3 4.2.8 1.1.6 2 1.4 2.5 2.3a7.2 7.2 0 0 1 0 6.6c-.5 1-1.3 1.7-2.4 2.3a9 9 0 0 1-4.3.9h-3.9V51h-3.8Zm3.8-11.3h3.7c1.3 0 2.3-.2 2.9-.8.6-.6.9-1.4.9-2.4s-.3-1.9-1-2.5c-.5-.6-1.5-.9-2.8-.9h-3.7v6.6ZM256.7 51V36.1h3.4l.4 2.8a6.1 6.1 0 0 1 5.5-3.1v4h-1.1c-.8 0-1.6.1-2.3.4-.6.3-1.1.7-1.5 1.3-.4.7-.6 1.6-.6 2.7V51h-3.8Zm18.8.4c-1.5 0-2.8-.4-4-1a7.4 7.4 0 0 1-3.6-6.8c0-1.6.3-3 1-4a7.4 7.4 0 0 1 6.6-3.8 7 7 0 0 1 3.8 1c1.2.6 2.1 1.5 2.8 2.7.7 1.2 1 2.5 1 4a8 8 0 0 1-1 4.1 7.5 7.5 0 0 1-6.6 3.8Zm0-3.4c1 0 1.8-.3 2.6-1 .7-.8 1-2 1-3.4 0-1.5-.3-2.6-1-3.4a3.6 3.6 0 0 0-5.2 0c-.8.8-1.1 1.9-1.1 3.4 0 1.4.3 2.6 1 3.3.8.8 1.7 1.1 2.7 1.1Zm17.9 3.4a7 7 0 0 1-6.4-3.9 8.5 8.5 0 0 1 0-8 7 7 0 0 1 6.4-3.7c1 0 2 .2 3 .6.7.4 1.4 1 2 1.8v-8.8h3.8V51h-3.4l-.5-2.1c-.4.6-1 1.2-1.9 1.7-.8.5-1.8.8-3 .8Zm.8-3.4a4 4 0 0 0 3-1.2c.8-.9 1.2-2 1.2-3.2 0-1.3-.4-2.4-1.2-3.2a4 4 0 0 0-3-1.3 4 4 0 0 0-3 1.3c-.9.8-1.3 1.8-1.3 3.1s.4 2.4 1.2 3.2a4 4 0 0 0 3 1.3Zm17.5 3.4c-1.9 0-3.3-.6-4.3-1.8-1-1.1-1.5-2.8-1.5-5V36h3.8v8c0 1.3.2 2.3.7 3 .6.7 1.4 1 2.5 1 1 0 2-.4 2.6-1.1.7-.8 1-1.8 1-3.2V36h4v15H317l-.3-2.5c-.4.9-1.1 1.6-2 2-.9.6-1.9.9-3 .9Zm20 0a8 8 0 0 1-4-1 7.7 7.7 0 0 1-3.8-6.8c0-1.6.3-3 1-4a7.3 7.3 0 0 1 2.7-2.9 8 8 0 0 1 4-1c2 0 3.5.6 4.8 1.6 1.3 1 2.2 2.3 2.5 4h-4c-.2-.7-.6-1.2-1.2-1.6a3 3 0 0 0-2-.7c-1.2 0-2 .4-2.8 1.2-.7.8-1.1 2-1.1 3.4s.4 2.5 1.1 3.3c.7.8 1.6 1.2 2.7 1.2.8 0 1.5-.2 2-.6.7-.4 1-1 1.3-1.7h4c-.3 1.7-1.2 3-2.5 4a7.5 7.5 0 0 1-4.8 1.6Zm17-.4c-1.5 0-2.7-.4-3.7-1.1-1-.8-1.4-2.1-1.4-4v-6.6h-2.5v-3.2h2.5l.5-4h3.3v4h4v3.2h-4v6.5c0 .8.2 1.3.5 1.5.3.3.9.4 1.6.4h1.9V51h-2.6Zm13.3 0V30h7.8c1.6 0 3 .3 4.1.8 1.1.6 2 1.4 2.5 2.3a7.2 7.2 0 0 1 0 6.6c-.5 1-1.3 1.7-2.4 2.3a9 9 0 0 1-4.2.9h-4V51H362Zm3.8-11.3h3.7c1.4 0 2.3-.2 3-.8.5-.6.8-1.4.8-2.4s-.3-1.9-.9-2.5c-.6-.6-1.5-.9-2.9-.9h-3.7v6.6Zm20.8 11.7c-1.5 0-2.8-.4-4-1a7 7 0 0 1-2.7-2.7 8 8 0 0 1-1-4c0-1.6.3-3 1-4.1a7.1 7.1 0 0 1 2.6-2.8 8 8 0 0 1 4.1-1 7 7 0 0 1 3.9 1 6 6 0 0 1 2.6 2.6 7.2 7.2 0 0 1 1 4.3v.8h-11.4a3.8 3.8 0 0 0 3.9 3.7c.7 0 1.4-.2 2-.5a3 3 0 0 0 1.1-1.4h4a7.1 7.1 0 0 1-7.1 5Zm0-12.5a4 4 0 0 0-2.5.8c-.7.5-1.1 1.3-1.3 2.4h7.4c0-1-.5-1.8-1.1-2.4-.7-.5-1.5-.8-2.5-.8Zm17.8 12.5c-1.4 0-2.7-.4-3.9-1a7.4 7.4 0 0 1-3.7-6.8c0-1.6.4-3 1-4a7.4 7.4 0 0 1 6.7-3.8 7 7 0 0 1 3.8 1c1.2.6 2 1.5 2.7 2.7.7 1.2 1 2.5 1 4a8 8 0 0 1-1 4.1 6.6 6.6 0 0 1-2.7 2.8c-1.2.6-2.4 1-3.9 1Zm0-3.4c1 0 2-.3 2.6-1 .8-.8 1.2-2 1.2-3.4 0-1.5-.4-2.6-1.2-3.4a3.6 3.6 0 0 0-5.2 0c-.7.8-1 1.9-1 3.4 0 1.4.3 2.6 1 3.3.8.8 1.6 1.1 2.6 1.1Zm11 9.6V36.1h3.5l.4 2.1a5.7 5.7 0 0 1 5-2.5 7 7 0 0 1 6.4 3.9 8.5 8.5 0 0 1 0 8c-.7 1.2-1.5 2-2.6 2.8a8 8 0 0 1-3.8 1c-1.1 0-2-.3-3-.7-.8-.4-1.4-1-2-1.7v8.6h-3.8Zm8.1-9.6a4 4 0 0 0 3-1.2c.8-.8 1.2-2 1.2-3.2 0-1.3-.4-2.4-1.2-3.2a4 4 0 0 0-3-1.3 4 4 0 0 0-3 1.3c-.8.8-1.2 1.9-1.2 3.2a5 5 0 0 0 1.1 3.2 4 4 0 0 0 3.1 1.2Zm11.6 3V29.4h3.8V51h-3.8Zm15 .4c-1.5 0-2.9-.4-4-1a7 7 0 0 1-2.8-2.7 8 8 0 0 1-1-4c0-1.6.4-3 1-4.1a7.1 7.1 0 0 1 2.7-2.8 8 8 0 0 1 4-1c1.5 0 2.8.3 4 1a7.2 7.2 0 0 1 3.5 7v.7h-11.3c0 1.1.4 2 1.2 2.7.7.7 1.6 1 2.6 1a4 4 0 0 0 2-.5c.5-.4 1-.8 1.2-1.4h3.9a7.1 7.1 0 0 1-7 5Zm0-12.5a4 4 0 0 0-2.5.8c-.7.5-1.2 1.3-1.4 2.4h7.4c0-1-.4-1.8-1-2.4-.7-.5-1.5-.8-2.5-.8Z"/>
</svg>
