<svg width="42" height="61" viewBox="0 0 42 61" fill="none" xmlns="http://www.w3.org/2000/svg">
<path fill-rule="evenodd" clip-rule="evenodd" d="M9.49743 13.8736C8.46893 10.2776 10.5517 6.52826 14.1494 5.49928C17.7471 4.47031 21.4973 6.55131 22.5258 10.1473L27.4918 27.5105C28.5203 31.1065 26.4376 34.8558 22.8399 35.8848C19.2422 36.9137 15.4919 34.8327 14.4634 31.2367L9.49743 13.8736ZM12.9079 1.1585C6.91171 2.87346 3.44047 9.12229 5.15463 15.1157L10.1206 32.4788C11.8348 38.4722 18.0852 41.9405 24.0814 40.2255C30.0776 38.5106 33.5488 32.2618 31.8347 26.2684L26.8686 8.90525C25.1545 2.91188 18.904 -0.556457 12.9079 1.1585ZM5.78005 33.7213C5.43722 32.5226 4.18713 31.829 2.98789 32.172C1.78866 32.515 1.09441 33.7647 1.43724 34.9634C2.91894 40.144 6.3989 44.5235 11.1116 47.1386C15.161 49.3856 19.8357 50.1716 24.3595 49.4079L25.6352 53.8683L19.1207 55.7315C17.9215 56.0745 17.2274 57.3247 17.5703 58.524C17.9133 59.7232 19.1636 60.4173 20.3628 60.0743L37.734 55.106C38.9332 54.763 39.6274 53.5128 39.2844 52.3136C38.9414 51.1143 37.6912 50.4202 36.4919 50.7632L29.978 52.6262L28.7023 48.166C32.9468 46.4224 36.4997 43.2831 38.749 39.234C41.3662 34.5226 42.0042 28.9653 40.5225 23.7847C40.1796 22.586 38.9296 21.8923 37.7303 22.2353C36.5311 22.5783 35.8368 23.8281 36.1797 25.0267C37.3321 29.0561 36.8359 33.3784 34.8003 37.0429C32.7724 40.6935 29.3821 43.3933 25.3709 44.5536C25.3616 44.556 25.3524 44.5585 25.3432 44.561C25.3367 44.5628 25.3303 44.5646 25.3238 44.5665C25.3082 44.5709 25.2928 44.5756 25.2774 44.5803C21.2597 45.7158 16.9555 45.2168 13.3045 43.1909C9.63912 41.157 6.93248 37.7507 5.78005 33.7213Z" fill="#3A3A4E"/>
<path d="M31.8347 26.2684L31.3539 26.4059L31.8347 26.2684ZM26.8686 8.90525L27.3494 8.76776L26.8686 8.90525ZM11.1116 47.1386L10.869 47.5758L11.1116 47.1386ZM24.3595 49.4079L24.8402 49.2704C24.7702 49.0255 24.5273 48.8724 24.2762 48.9148L24.3595 49.4079ZM25.6352 53.8683L25.7727 54.349C26.0382 54.2731 26.1919 53.9963 26.1159 53.7308L25.6352 53.8683ZM19.1207 55.7315L18.9832 55.2508L19.1207 55.7315ZM29.978 52.6262L29.4973 52.7637C29.5732 53.0292 29.85 53.1829 30.1155 53.107L29.978 52.6262ZM28.7023 48.166L28.5124 47.7035C28.2768 47.8003 28.1516 48.0587 28.2216 48.3035L28.7023 48.166ZM38.749 39.234L38.3119 38.9912L38.749 39.234ZM34.8003 37.0429L35.2374 37.2857L34.8003 37.0429ZM25.3709 44.5536L25.4982 45.0372L25.5098 45.0339L25.3709 44.5536ZM25.3432 44.561L25.2099 44.0791L25.2098 44.0792L25.3432 44.561ZM25.2774 44.5803L25.4134 45.0616L25.4249 45.058L25.2774 44.5803ZM13.3045 43.1909L13.0619 43.6281L13.3045 43.1909ZM14.0119 5.01856C10.1489 6.12341 7.91221 10.1493 9.0167 14.0111L9.97815 13.7361C9.02565 10.4058 10.9545 6.93311 14.2869 5.98001L14.0119 5.01856ZM23.0066 10.0098C21.9021 6.14811 17.8749 3.91371 14.0119 5.01856L14.2869 5.98001C17.6193 5.02691 21.0926 6.95451 22.0451 10.2848L23.0066 10.0098ZM27.9726 27.373L23.0066 10.0098L22.0451 10.2848L27.0111 27.648L27.9726 27.373ZM22.9774 36.3655C26.8404 35.2606 29.0771 31.2347 27.9726 27.373L27.0111 27.648C27.9636 30.9783 26.0348 34.4509 22.7024 35.404L22.9774 36.3655ZM13.9827 31.3742C15.0872 35.2359 19.1144 37.4703 22.9774 36.3655L22.7024 35.404C19.37 36.3571 15.8967 34.4295 14.9442 31.0992L13.9827 31.3742ZM9.0167 14.0111L13.9827 31.3742L14.9442 31.0992L9.97815 13.7361L9.0167 14.0111ZM5.63535 14.9782C3.99719 9.25051 7.31449 3.27831 13.0454 1.63922L12.7704 0.677776C6.50894 2.46861 2.88375 8.99407 4.6739 15.2532L5.63535 14.9782ZM10.6014 32.3413L5.63535 14.9782L4.6739 15.2532L9.63992 32.6163L10.6014 32.3413ZM23.9439 39.7448C18.213 41.3839 12.2395 38.069 10.6014 32.3413L9.63992 32.6163C11.4301 38.8754 17.9575 42.4971 24.2189 40.7063L23.9439 39.7448ZM31.3539 26.4059C32.9921 32.1335 29.6748 38.1057 23.9439 39.7448L24.2189 40.7063C30.4803 38.9154 34.1055 32.39 32.3154 26.1309L31.3539 26.4059ZM26.3879 9.04275L31.3539 26.4059L32.3154 26.1309L27.3494 8.76776L26.3879 9.04275ZM13.0454 1.63922C18.7762 0.000141824 24.7497 3.31508 26.3879 9.04275L27.3494 8.76776C25.5592 2.50868 19.0318 -1.11306 12.7704 0.677776L13.0454 1.63922ZM3.12539 32.6527C4.05933 32.3856 5.03249 32.9258 5.29932 33.8588L6.26077 33.5838C5.84194 32.1194 4.31492 31.2724 2.8504 31.6912L3.12539 32.6527ZM1.91797 34.8259C1.65113 33.8929 2.19144 32.9198 3.12539 32.6527L2.8504 31.6912C1.38588 32.1101 0.537691 33.6365 0.956518 35.1009L1.91797 34.8259ZM11.3542 46.7014C6.75746 44.1507 3.36318 39.8789 1.91797 34.8259L0.956518 35.1009C2.4747 40.409 6.04035 44.8964 10.869 47.5758L11.3542 46.7014ZM24.2762 48.9148C19.8636 49.6598 15.304 48.8931 11.3542 46.7014L10.869 47.5758C15.0181 49.8781 19.8077 50.6834 24.4427 49.9009L24.2762 48.9148ZM26.1159 53.7308L24.8402 49.2704L23.8788 49.5454L25.1545 54.0058L26.1159 53.7308ZM19.2582 56.2123L25.7727 54.349L25.4977 53.3876L18.9832 55.2508L19.2582 56.2123ZM18.0511 58.3865C17.784 57.4527 18.3245 56.4793 19.2582 56.2123L18.9832 55.2508C17.5185 55.6697 16.6707 57.1967 17.0896 58.6615L18.0511 58.3865ZM20.2253 59.5936C19.2916 59.8607 18.3181 59.3202 18.0511 58.3865L17.0896 58.6615C17.5085 60.1262 19.0356 60.974 20.5003 60.5551L20.2253 59.5936ZM37.5965 54.6253L20.2253 59.5936L20.5003 60.5551L37.8715 55.5867L37.5965 54.6253ZM38.8036 52.4511C39.0707 53.3848 38.5302 54.3582 37.5965 54.6253L37.8715 55.5867C39.3362 55.1678 40.184 53.6408 39.7651 52.1761L38.8036 52.4511ZM36.6294 51.2439C37.5632 50.9769 38.5366 51.5173 38.8036 52.4511L39.7651 52.1761C39.3462 50.7113 37.8192 49.8636 36.3544 50.2825L36.6294 51.2439ZM30.1155 53.107L36.6294 51.2439L36.3544 50.2825L29.8405 52.1455L30.1155 53.107ZM28.2216 48.3035L29.4973 52.7637L30.4587 52.4888L29.1831 48.0285L28.2216 48.3035ZM38.3119 38.9912C36.118 42.9407 32.6525 46.0028 28.5124 47.7035L28.8923 48.6285C33.2412 46.8421 36.8815 43.6256 39.1861 39.4768L38.3119 38.9912ZM40.0418 23.9221C41.487 28.9752 40.8648 34.3957 38.3119 38.9912L39.1861 39.4768C41.8677 34.6494 42.5214 28.9553 41.0032 23.6472L40.0418 23.9221ZM37.8678 22.716C38.8018 22.4489 39.7749 22.9892 40.0418 23.9221L41.0032 23.6472C40.5844 22.1828 39.0573 21.3357 37.5928 21.7546L37.8678 22.716ZM36.6604 24.8892C36.3936 23.9563 36.9339 22.9831 37.8678 22.716L37.5928 21.7546C36.1283 22.1734 35.2801 23.6998 35.699 25.1642L36.6604 24.8892ZM35.2374 37.2857C37.3374 33.5053 37.8493 29.0462 36.6604 24.8892L35.699 25.1642C36.8149 29.066 36.3345 33.2516 34.3632 36.8001L35.2374 37.2857ZM25.5098 45.0339C29.6479 43.8369 33.1453 41.0518 35.2374 37.2857L34.3632 36.8001C32.3995 40.3352 29.1164 42.9496 25.2319 44.0733L25.5098 45.0339ZM25.4765 45.043C25.4838 45.0409 25.491 45.039 25.4981 45.0371L25.2436 44.07C25.2323 44.073 25.2211 44.0761 25.2099 44.0791L25.4765 45.043ZM25.4613 45.0472C25.4663 45.0458 25.4714 45.0444 25.4766 45.0429L25.2098 44.0792C25.2021 44.0813 25.1942 44.0835 25.1863 44.0858L25.4613 45.0472ZM25.4249 45.058C25.437 45.0543 25.4491 45.0507 25.4613 45.0472L25.1863 44.0858C25.1674 44.0912 25.1485 44.0968 25.1298 44.1026L25.4249 45.058ZM13.0619 43.6281C16.8284 45.7181 21.2687 46.2328 25.4133 45.0615L25.1414 44.0992C21.2508 45.1987 17.0826 44.7155 13.5471 42.7537L13.0619 43.6281ZM5.29932 33.8588C6.48824 38.0157 9.28056 41.5298 13.0619 43.6281L13.5471 42.7537C9.99767 40.7841 7.37672 37.4856 6.26077 33.5838L5.29932 33.8588Z" fill="#3A3A4E"/>
</svg>
