<svg width="609" height="89" viewBox="0 0 609 89" fill="none" xmlns="http://www.w3.org/2000/svg">
<path d="M0.217653 22.0635L7.89097 37.5916L17.502 23.1823L0.217653 22.0635ZM353.675 60.7499L353.076 59.3748L353.675 60.7499ZM6.87894 28.1772C8.53614 29.2124 10.2505 30.2585 12.0205 31.313L13.556 28.7358C11.8037 27.6917 10.1073 26.6566 8.46834 25.6328L6.87894 28.1772ZM17.1911 34.3264C18.8822 35.2908 20.6174 36.2603 22.3954 37.2331L23.8354 34.6013C22.0726 33.6368 20.3528 32.6759 18.6773 31.7204L17.1911 34.3264ZM27.6785 40.0662C29.428 40.9858 31.2144 41.9069 33.0367 42.828L34.39 40.1506C32.5818 39.2366 30.8096 38.3228 29.0744 37.4107L27.6785 40.0662ZM38.3586 45.4673C40.1298 46.3293 41.9317 47.19 43.7636 48.0482L45.0364 45.3316C43.2179 44.4796 41.4292 43.6252 39.6713 42.7698L38.3586 45.4673ZM49.2224 50.5579C51.0107 51.3646 52.8251 52.1681 54.6648 52.9673L55.8601 50.2157C54.0332 49.422 52.2316 48.6242 50.456 47.8233L49.2224 50.5579ZM60.1904 55.3222C62.0081 56.0822 63.8487 56.8372 65.7116 57.5865L66.8311 54.8032C64.9808 54.059 63.1528 53.3091 61.3475 52.5544L60.1904 55.3222ZM71.2767 59.7814C73.1253 60.4962 74.9942 61.2047 76.883 61.9061L77.9273 59.0938C76.0512 58.3971 74.1948 57.6933 72.3586 56.9833L71.2767 59.7814ZM82.4876 63.9452C84.3618 64.6131 86.2543 65.2735 88.1644 65.9256L89.1337 63.0864C87.2362 62.4387 85.3564 61.7827 83.4946 61.1193L82.4876 63.9452ZM93.8093 67.8112C95.701 68.4292 97.6089 69.0388 99.5327 69.6391L100.426 66.7753C98.5154 66.179 96.6201 65.5735 94.741 64.9595L93.8093 67.8112ZM105.231 71.3759C107.137 71.9431 109.058 72.501 110.994 73.0487L111.811 70.1621C109.888 69.618 107.98 69.0639 106.087 68.5005L105.231 71.3759ZM116.744 74.6347C118.665 75.1507 120.599 75.6563 122.545 76.1511L123.284 73.2435C121.351 72.7521 119.43 72.2499 117.522 71.7375L116.744 74.6347ZM128.341 77.5822C130.275 78.046 132.221 78.4986 134.179 78.9396L134.838 76.0129C132.894 75.575 130.961 75.1255 129.04 74.6649L128.341 77.5822ZM140.013 80.2116C141.961 80.622 143.919 81.0206 145.887 81.4067L146.464 78.4629C144.51 78.0794 142.566 77.6836 140.632 77.2761L140.013 80.2116ZM151.755 82.5152C153.714 82.871 155.683 83.2142 157.661 83.5442L158.155 80.5852C156.191 80.2575 154.236 79.9167 152.291 79.5635L151.755 82.5152ZM163.558 84.4847C165.528 84.7843 167.507 85.0706 169.494 85.3432L169.902 82.371C167.929 82.1005 165.965 81.8162 164.009 81.5188L163.558 84.4847ZM175.414 86.1109C177.393 86.3527 179.381 86.5806 181.376 86.7941L181.695 83.8111C179.715 83.5993 177.743 83.3731 175.778 83.133L175.414 86.1109ZM187.314 87.3842C189.301 87.5665 191.294 87.7342 193.294 87.8868L193.523 84.8955C191.538 84.7441 189.559 84.5777 187.588 84.3968L187.314 87.3842ZM199.249 88.2949C201.239 88.4157 203.235 88.5214 205.237 88.6115L205.372 85.6145C203.386 85.5252 201.405 85.4203 199.431 85.3004L199.249 88.2949ZM211.208 88.8326C213.199 88.8905 215.196 88.9327 217.198 88.9586L217.237 85.9589C215.251 85.9331 213.271 85.8913 211.295 85.8339L211.208 88.8326ZM223.18 88.9875C225.171 88.9809 227.166 88.958 229.166 88.9184L229.107 85.919C227.123 85.9583 225.144 85.981 223.17 85.9876L223.18 88.9875ZM235.153 88.7498C237.141 88.6772 239.133 88.5878 241.128 88.4812L240.968 85.4855C238.99 85.5912 237.014 85.6798 235.043 85.7518L235.153 88.7498ZM247.114 88.1101C249.096 87.9702 251.082 87.813 253.071 87.6381L252.808 84.6496C250.836 84.823 248.868 84.9789 246.903 85.1176L247.114 88.1101ZM259.047 87.06C261.022 86.8515 262.999 86.6253 264.979 86.381L264.612 83.4036C262.649 83.6457 260.689 83.8699 258.732 84.0766L259.047 87.06ZM270.925 85.5936C272.894 85.315 274.865 85.0181 276.838 84.7027L276.365 81.7403C274.409 82.0529 272.456 82.3471 270.504 82.6232L270.925 85.5936ZM282.745 83.7038C284.706 83.3537 286.669 82.9851 288.633 82.5973L288.052 79.6541C286.106 80.0383 284.161 80.4036 282.217 80.7504L282.745 83.7038ZM294.49 81.3854C296.442 80.9629 298.394 80.5213 300.348 80.0602L299.659 77.1404C297.723 77.5972 295.789 78.0347 293.855 78.4533L294.49 81.3854ZM306.146 78.635C308.079 78.1406 310.013 77.6269 311.947 77.0934L311.15 74.2014C309.234 74.7298 307.318 75.2387 305.402 75.7285L306.146 78.635ZM317.695 75.4505C319.604 74.8852 321.514 74.3004 323.423 73.6956L322.517 70.8356C320.626 71.4346 318.734 72.0139 316.843 72.5739L317.695 75.4505ZM329.122 71.8316C331.003 71.1962 332.885 70.5412 334.766 69.8662L333.753 67.0425C331.89 67.711 330.026 68.3599 328.162 68.9892L329.122 71.8316ZM340.408 67.7809C342.26 67.0763 344.111 66.352 345.961 65.6077L344.841 62.8244C343.009 63.5617 341.175 64.2791 339.341 64.977L340.408 67.7809ZM351.505 63.3162C352.428 62.9242 353.351 62.5271 354.274 62.125L353.076 59.3748C352.162 59.7731 351.247 60.1664 350.333 60.5547L351.505 63.3162ZM354.274 62.125C355.202 61.7205 356.128 61.3186 357.051 60.9194L355.86 58.1659C354.935 58.5662 354.006 58.9692 353.076 59.3748L354.274 62.125ZM362.561 58.5551C364.392 57.7754 366.214 57.006 368.026 56.2469L366.866 53.48C365.049 54.2413 363.222 55.0129 361.386 55.7948L362.561 58.5551ZM373.592 53.9338C375.437 53.1735 377.272 52.4239 379.096 51.685L377.969 48.9045C376.14 49.6457 374.3 50.3975 372.449 51.16L373.592 53.9338ZM384.668 49.4477C386.53 48.7065 388.381 47.9765 390.221 47.2575L389.13 44.4632C387.284 45.1845 385.427 45.9168 383.558 46.6603L384.668 49.4477ZM395.793 45.1011C397.671 44.3808 399.538 43.6721 401.393 42.9748L400.338 40.1667C398.477 40.8662 396.604 41.5772 394.719 42.2999L395.793 45.1011ZM406.971 40.8992C408.865 40.2017 410.747 39.5163 412.615 38.8428L411.598 36.0205C409.723 36.6964 407.835 37.3842 405.935 38.084L406.971 40.8992ZM418.208 36.8485C420.116 36.1758 422.009 35.5158 423.889 34.8681L422.912 32.0317C421.025 32.6817 419.125 33.3442 417.21 34.0192L418.208 36.8485ZM429.505 32.9564C431.424 32.311 433.329 31.6786 435.218 31.0591L434.284 28.2084C432.387 28.8303 430.475 29.4651 428.549 30.1129L429.505 32.9564ZM440.865 29.2322C442.793 28.6164 444.706 28.0143 446.603 27.4254L445.713 24.5603C443.809 25.1515 441.888 25.7561 439.952 26.3744L440.865 29.2322ZM452.286 25.6865C454.222 25.1031 456.14 24.5338 458.041 23.9783L457.199 21.0987C455.29 21.6566 453.364 22.2283 451.42 22.8141L452.286 25.6865ZM463.769 22.3317C465.707 21.7836 467.627 21.2502 469.529 20.7311L468.739 17.837C466.829 18.3585 464.9 18.8943 462.953 19.4449L463.769 22.3317ZM475.307 19.1826C477.245 18.673 479.163 18.1786 481.061 17.699L480.326 14.7904C478.419 15.2724 476.491 15.7692 474.544 16.2812L475.307 19.1826ZM486.893 16.2561C488.845 15.7839 490.774 15.3276 492.681 14.8869L492.006 11.9639C490.089 12.4069 488.149 12.8656 486.188 13.3403L486.893 16.2561ZM498.514 13.5721C500.49 13.138 502.441 12.721 504.368 12.3206L503.757 9.38339C501.82 9.78609 499.858 10.2055 497.871 10.642L498.514 13.5721ZM510.191 11.1454C512.178 10.7566 514.137 10.386 516.067 10.033L515.528 7.0819C513.585 7.4372 511.614 7.81012 509.615 8.20123L510.191 11.1454ZM521.962 8.99422C523.953 8.65672 525.913 8.33844 527.841 8.03868L527.38 5.07431C525.438 5.37618 523.465 5.69665 521.461 6.03639L521.962 8.99422ZM533.71 7.16867C535.726 6.88473 537.705 6.62169 539.647 6.3787L539.274 3.40192C537.317 3.64686 535.323 3.91192 533.292 4.19798L533.71 7.16867ZM545.584 5.68448C547.606 5.46497 549.585 5.26802 551.519 5.0925L551.248 2.10477C549.296 2.2819 547.3 2.48061 545.26 2.70199L545.584 5.68448ZM557.457 4.60989C559.492 4.46427 561.473 4.34342 563.4 4.24583L563.249 1.24967C561.3 1.34833 559.298 1.47047 557.243 1.61754L557.457 4.60989ZM569.349 4.01208C571.402 3.95554 573.385 3.92682 575.299 3.92372L575.294 0.923724C573.354 0.926865 571.344 0.955984 569.267 1.01322L569.349 4.01208ZM581.237 4.0001C583.3 4.05805 585.267 4.14784 587.139 4.26594L587.328 1.27189C585.42 1.1515 583.418 1.06017 581.321 1.00128L581.237 4.0001ZM593.066 4.76401C595.161 4.98771 597.101 5.25014 598.887 5.544L599.374 2.58378C597.527 2.27996 595.531 2.01017 593.385 1.78098L593.066 4.76401ZM604.638 6.72118C605.64 6.97465 606.562 7.23871 607.405 7.51042L608.326 4.65503C607.415 4.36166 606.431 4.08023 605.373 3.81275L604.638 6.72118Z" fill="#3A3A4E"/>
</svg>
