<svg xmlns="http://www.w3.org/2000/svg" width="79" height="29" fill="none" xmlns:v="https://vecta.io/nano"><g clip-path="url(#A)"><path d="M38.634 4.368l.173.133v.475c-.016.012-.029.026-.041.042-.009.027-.017.054-.022.082l-.212.211c.021.059-.035.082-.057.122v.104l-.047.048v.381l-.056.071c-.015.05.017.126-.058.164v.277l-.057.064v.219l-.057.062v.109l-.047.048c-.022.072.004.154-.01.228l.047.048c.016.061.016.125 0 .186l-.041.042v.237l.047.048v.28l-.053.058v.164l-.057.062v.333l-.041.04c-.006.016-.011.033-.013.05v.3l.05.051v.625l-.053.053v.392l-.051.051v.777l-.114.121v.329l-.053.054v.121c0 .018 0 .048.006.052.091.045.006.17.101.214v.395l-.05.058v.219l-.057.062a.18.18 0 0 0 .053.113v.278l-.047.049v.345l.045.056c.023.068-.05.082-.051.13s.031.06.053.092v.164c-.062.04-.045.135-.107.174v.278l.047.048v.124l-.044.044v.346l.054.055v.223l.049.051v.112l-.054.059v.164l-.057.062v.891l-.047.048v.18l.044.044v.514l-.047.048v.329l-.113.12c-.021.058.036.082.053.113v.279l-.048.049v.187l.045.044v1.074l-.048.048V20l-.114.201v1.272l-.041.041c-.033.051 0 .108-.021.159l.063.092c0 .072-.097.117-.05.214l-.116.09v.13c-.065.032-.041.119-.105.16v.463l.042.043c.005.058-.011.138.021.179.032.05.047.11.041.169l-.111.087v.353l.057.061v.111l.053.062v.246l-.132.266-.065.015c-.028.017-.021.047-.022.074a.58.58 0 0 1-.314.209l-.127.133v.164l-.057.062v.159l-.193.204h-.167l-.195.199c-.007.007-.014.019-.019.018-.046-.001-.089.022-.114.061-.073-.03-.096.088-.169.059-.028.039-.081.039-.111.063a2.32 2.32 0 0 0-.217.214h-.056l-.094.091c-.054.037-.135-.017-.174.067h-.668l-.052-.044c-.047.049-.132.038-.171.104h-.109l-.058.054c-.06.022-.081-.039-.118-.054h-.146l-.066-.052h-.162c-.037-.036-.069-.092-.114-.108a.22.22 0 0 1-.111-.064h-.277c-.033-.082-.146-.027-.162-.112h-.155c-.046-.021-.081-.07-.137-.067-.035-.063-.094-.042-.155-.046-.071-.117-.221-.125-.32-.211a.2.2 0 0 1-.168-.121c-.061-.129-.169-.209-.258-.315v-.109a.2.2 0 0 1-.063-.113c-.012-.039-.06-.068-.093-.1-.02-.017-.042-.03-.066-.04-.104-.064-.166-.18-.162-.304l-.057-.062v-.108l-.104-.105v-.226l-.125-.076c.048-.12-.053-.174-.047-.257-.062-.054-.071-.138-.109-.205l.062-.1c-.036-.082-.119-.127-.173-.2 0-.039 0-.073-.037-.082-.01-.014-.018-.021-.018-.029v-.252c0-.008 0-.02-.006-.025l-.162-.164v-.164l-.057-.062v-.221c-.062-.054-.063-.145-.134-.198-.058-.037-.106-.087-.14-.147-.01-.061.032-.075.053-.105v-.112l-.156-.156c-.04-.035-.067-.083-.077-.136-.086-.039-.01-.139-.075-.195a.28.28 0 0 1-.075-.164.48.48 0 0 0-.143-.276c-.074-.075-.121-.174-.133-.279-.007-.049-.068-.06-.06-.116.011-.036.003-.075-.02-.104-.025-.035-.045-.073-.06-.114a.42.42 0 0 0-.041-.094c-.025-.038-.062-.066-.106-.078-.039-.007-.071-.051-.103-.076v-.172c-.062-.025-.04-.098-.081-.136l-.118-.118c-.037-.036-.018-.11-.081-.135v-.114a.65.65 0 0 1-.175-.29l-.175-.178-.075-.02c-.015-.077-.081-.132-.076-.222 0-.048-.043-.093-.066-.137-.032-.061-.097-.103-.112-.177a.19.19 0 0 1-.139-.109v-.044l-.216-.218v-.107c-.025-.039-.076-.062-.057-.119l-.381-.385v-.219c-.06-.082-.147-.116-.169-.199s-.11-.113-.141-.179l-.067.017c-.005.007-.014.015-.014.022v.475l.106.205v.15l-.049.058v.164l.052.058v.109l-.055.062v.108l-.041.041a.18.18 0 0 0-.013.05v.188l.049.05v1.62l-.049.077c-.009.048.027.067.052.096v.275l.057.063v.333c-.07.035-.034.138-.114.164l.05.05c.015.061.015.125 0 .186l-.043.044v.393l.05.058v.106l.057.062v.164l-.054.059.042.043c.045.118-.047.194-.096.32v.137l.05.058v.446l-.053.058v.502l-.039.039c-.008.016-.013.032-.016.049v.472c.073.029.033.127.101.156.004.07.025.139.061.199.021.035.004.091.004.141l.053.062v.164l.057.062v.279l.058.062v.108l.047.048v.396l-.044.058v.508l.047.048v.168l-.051.058v.426l-.167.318v.15l-.275.279c.001.021-.002.041-.007.061s-.025.027-.048.05v.284c-.093.049-.188.072-.257.144l-.209.214c-.105 0-.147.082-.194.145s-.144.071-.196.136h-.218l-.062.058h-.107l-.058.053H25.2c-.043-.075-.11-.046-.162-.054l-.048.049c-.008.004-.016.007-.024.008h-.865l-.062-.053h-.103l-.063-.057h-.162l-.062-.058h-.106l-.061-.055h-.253c-.048-.013-.081-.057-.135-.071-.037-.01-.077-.031-.119-.044-.118-.036-.239-.087-.284-.214-.024-.069-.081-.096-.115-.149v-.054l-.274-.278c.036-.076-.094-.095-.058-.171l-.097-.099c-.005-.007-.009-.015-.011-.023 0-.036.006-.096-.011-.104-.07-.034-.01-.141-.097-.148v-.288l-.057-.063v-.559l-.109-.103c-.008-.131 0-.269-.005-.402l-.052-.053v-.335l-.053-.053v-.282l.049-.058v-.109l-.053-.058v-.164l-.049-.045v-.227l-.055-.056v-.243l.046-.057c.011-.053-.021-.075-.056-.109v-.504l-.051-.052v-.84l.053-.058v-.107l.104-.103v-.176c-.005-.007-.02-.028-.044-.058v-.73l.053-.054v-.223l.051-.051v-.279c-.012-.03-.062-.04-.054-.082-.007-.047.043-.056.053-.086v-.223l-.041-.042c-.074-.107.085-.177.022-.302l-.144-.136v-.419l-.041-.041c-.028-.04-.011-.082-.011-.131l.045-.045v-.482l.107-.197c-.047-.043-.035-.13-.099-.17v-.11c.022-.029.057-.045.057-.09 0-.023.024-.046.041-.074 0-.006-.006-.025-.015-.03-.081-.041-.072-.144-.137-.196v-.89l-.049-.053c-.017-.082 0-.187-.008-.288l-.098-.099c-.028-.053.019-.133-.068-.174v-.342l-.05-.052v-.553l-.058-.063v-.164l.053-.058v-.112c-.014-.014-.032-.025-.039-.041-.026-.064-.006-.141-.067-.197-.018-.017 0-.072 0-.109v-.362l-.11-.202v-.596l-.057-.062v-.109l-.054-.058v-.113l.041-.042a.38.38 0 0 0 .006-.187l-.101-.102v-.111l.05-.069c.011-.061-.032-.075-.053-.104v-.11l-.057-.062v-.389c-.015-.015-.038-.028-.039-.041 0-.116-.087-.212-.073-.335a2.99 2.99 0 0 0 0-.349l.052-.053v-.493c.062-.048.046-.14.113-.179v-.279c-.063-.055-.07-.14-.112-.207l.057-.088c-.007-.07-.093-.117-.054-.202l-.055-.063v-.164c.06-.033.053-.108.092-.157s0-.146.073-.192v-.14l.108-.2v-.264l-.052-.058v-.11l.053-.058v-.671c-.081-.034-.022-.151-.107-.164-.005-.045 0-.071.026-.089s.029-.065.026-.1.028-.065.054-.094v-.218c.063-.044.047-.138.113-.178-.029-.082.055-.136.049-.2-.007-.082.07-.122.065-.201s.05-.127.086-.185.011-.089.023-.137l.108-.115V6.12a.58.58 0 0 1 .162-.241v-.164c.063-.046.036-.146.114-.171v-.122l.057-.062v-.102l.058-.067c-.032-.094.038-.171.046-.255s.098-.138.062-.223l.264-.266h.037l.324-.336h.09a1.11 1.11 0 0 0 .239-.154 1.1 1.1 0 0 1 .255-.124h.182c.039-.015.048-.066.094-.058.045-.008.055.043.103.061l.256-.131.071.124h.148l.058-.055h.22c.028-.068.12-.037.162-.108h.225l.053-.053h.287l.046.048.059-.052h.162l.059.055h.162c.079.064.174.103.274.113a.48.48 0 0 0 .202.144c.072.025.128.092.216.082.053-.007.081.082.14.059.032.042.09.064.081.136 0 .022.04.031.067.026.186.136.167.191.336.441.023.049.037.103.04.158.081.041.093.145.162.214v.159l.057.065v.44l.166.186c-.015.055.06.075.053.116-.017.096.092.159.057.259l.055.062v.164l.056.062v.143a.94.94 0 0 0 .081.158c.055.063.113.123.174.179l.213.216.117.232c.023.068.064.128.119.173.081.062.081.184.177.229v.17c.075.089.094.208.167.296v.14c.008.016.017.03.027.044l.117.119c.006.007.019.014.019.02-.009.09.096.112.109.177.011.05.057.076.058.116 0 .082.095.098.102.152s.062.087.067.142c.006.072.081.093.11.15v.056c0 .019 0 .048.006.052.081.043.027.136.075.195.04.046.067.1.081.159.015.074.102.093.109.15.012.063.051.119.106.151.054.043.047.118.096.156s.062.109.101.153.029.099.07.142.032.102.081.131.032.103.081.135c.028.019.023.047.024.082.142.094.183.283.329.38v.14l.168.135v.125c.028.029.089.062.099.107.019.06.055.113.103.154.035.039.008.114.075.127v.173c.02.032.049.027.074.027a.59.59 0 0 1 .2.277c-.027.072.039.115.058.172a.48.48 0 0 0 .135.223h.041l.263.266v.082c.023.062.081.095.123.142s.091.093.135.137l.149.319.302.306a.66.66 0 0 0 .156.27c.088.076.103.214.238.274.045.007.07-.051.111-.082v-.846l.041-.046c.035-.055.008-.122.016-.182l.053-.058v-.112l-.047-.048v-.676l.045-.058v-.493l.058-.07v-.164l-.05-.052v-.109l.055-.06v-.562l.049-.049c.019-.127-.006-.265.01-.402l.045-.046v-.772l.063-.082v-.274l.051-.052v-.616l-.051-.058c0-.007-.004-.018 0-.025l.112-.227v-.363l.047-.048v-.445l-.053-.082.114-.219v-.487l.038-.041c.006-.007.017-.013.017-.021v-.329l.041-.042c.027-.052.009-.108.015-.173l.049-.066v-.117l-.046-.047V5.93l.05-.058v-.105l.057-.063v-.109l.057-.062v-.11l.021-.021c.007-.007.016-.012.02-.021.023-.065 0-.145.069-.195v-.202l.052-.064v-.155c.022-.035.053-.064.055-.094 0-.046.041-.058.058-.096v-.105l.052-.051c0-.031 0-.076.007-.116.019-.023.054-.051.05-.065-.028-.082.045-.132.059-.201.018-.082.108-.082.162-.123.021-.017.04-.039.058-.057v-.114l-.041-.041c-.018-.06-.022-.124-.011-.186.036-.046.087-.011.151-.039l.12-.138-.109-.077v-.19l.081-.082h.11c.034.018.051.082.129.037l.063-.067v-.103l.092-.098c.075.04.157.049.212.114h.277l.058-.054h.109c.03-.034.06-.07.114-.059l.102-.104h.617l.053.055h.277l.05.051h.218l.062.058h.102l.062.058h.256l.195.11c.081-.039.131.042.196.062s.094.082.14.127c.013.012.028.024.041.035h.053c.036.039.02.109.081.136-.006.077.045.113.104.14.016.007.041.005.048.016.047.072.132.087.192.138.029.024.055.051.077.082s.023.066.042.094a.58.58 0 0 0 .076.082c.042.07-.031.17.059.228.015.061.015.125 0 .186l-.057.057zm21.831-1.592c-.029-.021-.05-.05-.033-.119l.155-.131V2.34c-.028-.029-.06-.05-.049-.104l.049-.061v-.329l.057-.066v-.164l.057-.062v-.143l-.114-.076v-.291c-.049-.045-.088-.108-.144-.128-.093-.032-.164-.108-.191-.203-.022-.039-.058-.069-.101-.082-.11-.044-.215-.104-.342-.169h-.162c-.065-.041-.135-.076-.207-.104-.071-.018-.091-.106-.148-.11-.088-.007-.106-.095-.174-.117-.053 0-.112.013-.151-.06h-.281l-.049-.049c-.061-.011-.125-.007-.184.012l-.04.041h-.162l-.061.058h-.384l-.217.219h-.062l-.073.082a.58.58 0 0 1-.143.306h-.225l-.081.089v.105l-.057.07v.276c-.053.145-.186.221-.275.335v.164c-.052.05-.095.109-.126.175s-.102.1-.174.164l.131.09v.212l-.121.16c-.066.012-.117-.016-.15.034v.094l-.171.329v.142l-.104.106v.053l-.057.062v.278l-.275.279v.053l-.057.062v.104c-.095.114-.11.258-.162.384-.01.024 0 .067-.014.076-.06.038-.028.129-.096.158v.278c-.077.076-.094.186-.152.274-.03.046-.016.122-.023.179l-.054.07v.213l-.054.055v.223l-.05.05v.082l-.114.082V6.6c-.125.071-.131.224-.218.329v.104l.053.059c-.251.389-.187.279-.235.463l-.039.039v.334l-.057.062v.225l-.047.048v.29l.044.057-.054.054v.228c-.123.09-.132.237-.221.343v.214l-.052.053v.335l-.059.06v.223l-.051.052c-.002.027-.002.055 0 .082.005.046-.057.064-.052.088.013.067-.075.089-.058.145.022.075-.058.108-.058.173 0 .035.007.071-.025.102-.016.016-.018.048-.03.07s-.039.058-.054.082v.264c-.067.057-.048.14-.11.172v.11l.056.062c-.01.044.02.096-.025.13-.067.049.009.154-.081.191 0 .045-.008.091-.008.136v.335c-.002.018-.005.035-.011.052l-.099.099v.053l-.114.122v.223c-.042.023-.063.072-.052.118.012.056-.048.073-.062.141v.246l-.047.048v.108l-.057.063v.276l-.057.062v.164l-.058.064v.215l-.048.059-.013.174c-.081.053-.036.135-.048.204 0 .015-.02.026-.032.04-.027 0-.055.006-.073-.025l-.011-.121-.049-.05v-.222c-.063-.033-.046-.114-.096-.157s.006-.103-.038-.152a.88.88 0 0 1-.094-.171v-.147l-.108-.109c.029-.056-.028-.075-.053-.114v-.143l-.166-.164a.52.52 0 0 0-.109-.247v-.223c-.045-.029-.066-.084-.053-.136l-.118-.082c.011-.076.013-.131-.043-.164.017-.071-.081-.1-.062-.17-.05-.032-.049-.091-.075-.136l-.095-.169v-.262l-.114-.113v-.227c-.122-.09-.132-.238-.214-.335 0-.059-.007-.114-.011-.169-.069-.043-.043-.113-.048-.175-.003-.019-.007-.038-.011-.057l-.155-.151v-.057l-.212-.214a.22.22 0 0 0-.024-.078c-.026-.029-.049-.054-.038-.098l.053-.058c-.066-.041-.055-.13-.113-.182v-.154c-.072-.03-.031-.13-.101-.157.006-.088-.075-.118-.115-.175.026-.072-.086-.097-.057-.173.01-.024-.008-.048-.021-.074-.071-.133-.126-.276-.253-.36v-.087l-.105-.076-.006-.142c-.108-.023-.091-.146-.162-.204 0-.122-.131-.145-.162-.238v-.027c-.055-.068-.074-.158-.142-.222-.044-.063-.077-.133-.099-.207l-.256-.257v-.315l-.125-.246-.739-.748c-.054.02-.071-.042-.121-.061h-.133l-.199-.108h-.138l-.072.053c-.061.01-.072-.046-.103-.051a.86.86 0 0 1-.279-.128c-.081-.046-.172-.077-.252-.129s-.187-.082-.273-.139-.173-.115-.264-.164h-.304c-.007 0-.014-.009-.021-.014l-.041-.04h-.054l-.058.054h-.162l-.063-.058h-.217l-.047-.048h-.408l-.051.052h-.387l-.053.055h-.849c-.017-.002-.034-.007-.049-.014l-.04-.04h-.111c-.032.039-.095.06-.081.134l.047.054-.062.087-.128.007-.162.164c-.048.053-.153.056-.191.138v.11l.053.058v.195l-.105.071c0 .063-.005.099-.007.141a.28.28 0 0 0-.081.015c-.023.016-.043.034-.061.055h-.157l-.085.082v.336l-.057.062v.144l-.22.417v.371c-.036.028-.058.07-.062.116 0 .028-.056.044-.05.09s-.009.091-.04.124c-.023.03-.008.089-.026.127s-.049.05-.045.094 0 .09 0 .123l-.053.053v.275l-.057.064v.164l-.055.061v.164l.052.058v.178c-.081.034-.051.102-.045.164.011.023.047.028.036.062l-.041.042v.159c-.073.094-.097.209-.17.301v.439l-.048.048v.458l.063.063c.019.021.032.041.041.052.01.06-.031.075-.053.104v.445l-.057.062v.385l-.057.065v.329l-.051.053v.504l-.109.109a1.81 1.81 0 0 0 0 .24l.105.095v.283l-.057.065v.443c-.072.046-.055.11-.043.173l.102.104c-.02.053.023.078.054.11-.068.039-.053.132-.114.181v.214l-.043.043c-.037.065.03.149-.038.208s.011.154-.081.19v.168c.061.041.046.131.1.17l-.103.198v.43c-.033.027-.059.053-.049.098.054.039.127.053.162.119v.111l-.053.057v.11l.049.058v.178c-.081.039-.054.104-.041.164l.098.099v.112l-.054.058v.222l.053.058v.224l-.049.049-.007.171-.047.059v.451l.104.106v.111l-.054.06v.22l-.053.058v.11l.047.058-.044.057v1.014c.055.039.071.115.036.173l-.04.039.053.059v.172c-.09.05-.108.156-.158.226v.358l.265.269v.095c-.037.038-.081.066-.097.105-.008.044-.031.084-.064.113l.057.063v.111l.057.065v.214l.073.034c.059.106.031.15-.019.189v.067c.006.082.064.082.053.131.008.048-.042.057-.057.095v.101l-.057.066v.329l-.047.048v.5c.058.09.075.186.162.227v.284l-.053.058v.697l.111.077c-.012.098-.11.156-.045.246l.041.04v.113l-.053.058v.131c.081-.019.123.043.162.1.008.044-.01.088.025.131a.4.4 0 0 1 .081.159c.016.053.051.098.097.127.052.043.057.112.096.155.099.111.203.216.313.315.065.044.137.077.212.099.015.007.027.024.042.037h.221c.036.069.123.058.178.115h.262l.047.049h.547l.065.058h.105l.061.057h.162l.053.048.194-.109h.146l.047-.048h.444l.058.052h.105l.06.057h.221l.137-.139v-.113l.139-.138c.058-.011.123.014.187-.02l.032-.038h.111c.028-.021.044-.06.089-.056s.061-.062.115-.058c.028 0 .056-.041.088-.051s.091.017.12-.032v-.109l-.05-.058v-.168l.217-.22v-.061l.191-.088.308-.311v-.21l.057-.067v-.554l.053-.053v-.216l.054-.073v-.15c.017-.039.075-.058.054-.117l-.054-.059v-.334c.022-.029.063-.044.053-.104l-.049-.07v-.893l.043-.044c.015-.061.015-.126 0-.187l-.042-.043v-.28l.053-.06c0-.033.015-.088 0-.104-.058-.05-.046-.137-.11-.181v-.605c-.02-.021-.038-.045-.051-.071-.01-.034 0-.076-.012-.107s-.043-.051-.048-.093-.036-.058-.052-.082v-.986c0-.007-.009-.015-.042-.067l-.062-.113.048-.053v-.225c-.07-.045-.056-.109-.045-.172l.103-.104v-.411c-.002-.017-.007-.034-.014-.049l-.039-.039c-.007-.082.005-.164 0-.226l-.053-.057v-.279c.063-.055.071-.139.109-.206l-.062-.098v-1.212l-.045-.046a.39.39 0 0 1 .009-.186l.041-.041-.055-.061v-.219l-.051-.058v-.334l.109-.111v-.501c.015-.023.043-.033.069-.026l.149.136v.061l.219.222c-.02.052.023.082.054.111v.224c.065.03.042.116.096.157.016.012.015.049.02.07.054.066.121.115.162.168v.155l.202.205h.047l.135.144v.137l.171.329v.149a.9.9 0 0 1 .144.194 2.05 2.05 0 0 0 .211.22.4.4 0 0 1 .028.044v.157c.088.011.029.129.109.164v.169l.209.205c.081.196.081.196.332.453a.87.87 0 0 0 .081.193c.039.05.04.115.092.16a.8.8 0 0 1 .116.182v.209c.067.053.055.164.162.194h.088c.009.034.023.067.041.098.028.03.022.074.041.095.043.065.078.135.105.209a.68.68 0 0 0 .11.176c.063.058.053.154.132.2.031.018.034.082.063.111s.018.086.028.128c.014.03.032.058.054.082v.346c.003.022.009.044.016.065l.151.14v.145l.194.221h.108l.081.082v.188l.114.088c-.028.11.067.177.054.272-.005.039.067.061.052.117l.162.18c.021.06-.042.077-.051.105v.493c.05.111.173.091.217.184v.282c.081.042.093.148.157.208s.081.187.174.231c.008.057-.017.117.04.156a.84.84 0 0 0 .253.37c.082.075.16.154.234.237.08.082.179.142.287.177l.373.378h.537l.197.116h.538l.058.052h.607c.162-.109.162-.109.216-.219h.104c.041-.023.062-.082.118-.058l.213-.216c.086 0 .122-.073.175-.119h.052l.197-.196v-.189l.105-.082v-.294l-.041-.043c-.053-.107.081-.18.036-.308l.234-.194v-.528c.058-.049.064-.119.096-.173l-.045-.045v-.278l.056-.062v-.108c.032-.033.076-.06.052-.11l-.053-.064a.91.91 0 0 0 0-.201c-.018-.082.09-.12.058-.201a.55.55 0 0 0 .066-.217l.045-.045v-.222l.055-.06v-.082l.111-.082v-.347l.053-.054v-.234c.038-.014.06-.054.052-.095l.113-.12v-.232c.113-.023 0-.164.099-.2l.016-.179.049-.065v-.172l.167-.135v-.257c.112-.017.029-.12.075-.183.081-.108.007-.246.044-.372l.049-.049v-.335l.055-.047v-.723c.065-.043.048-.136.114-.178v-.22l.05-.051v-.28l.049-.049c.013-.178.013-.178.127-.357v-.277l.048-.045v-.448l.057-.063v-.444l.051-.051v-.28l.058-.059v-.559l.058-.06v-.279l.046-.046c.019-.082-.012-.164.014-.246l.047-.042v-.559l.053-.058v-.168l-.047-.048v-.241l.216-.213v-.278l.054-.062c-.01-.066.012-.132.059-.179v-.272c.037-.018.057-.059.05-.099l-.054-.064v-.575c.002-.017.007-.034.014-.049l.04-.04v-.278l.057-.062v-.164l.057-.064v-.329l.051-.052v-.341c.127-.082.139-.229.224-.336v-.663l.057-.064v-.338c.087-.043.093-.149.168-.221v-.222l.05-.05V7.66l.057-.062v-.233c.113-.016.03-.12.075-.182.081-.109.01-.246.043-.372.068-.029.028-.127.097-.155.012-.136-.004-.274.007-.398l.052-.053v-.222l.054-.059v-.164l-.041-.041c-.005-.007-.013-.015-.013-.022V5.48l.026-.025c.062-.048-.006-.151.081-.193.009-.004.007-.034.007-.051v-.116l.054-.062v-.164l.057-.062v-.164l.058-.062v-.149l.104-.188v-.67l-.047-.048v-.116c.018-.027.067-.051.049-.111l-.052-.057v-.164c.075-.094.177-.168.199-.301zm18.522 21.902v.153l-.068.075-.127.016c-.032.018-.019.049-.024.082-.118.088-.198.224-.337.307a2.45 2.45 0 0 1-.4.218h-.137l-.094.126-.276-.144-.146.186c-.052 0-.081 0-.1.028v.283l-.081.072c-.092-.017-.162.089-.272.065l-.059-.054h-.324l-.062-.058h-.108l-.04-.041c-.104-.069-.178.069-.264.044l-.162.164h-.365l-.024-.027c-.019-.016-.026-.027-.032-.027h-.613c-.035-.095-.144-.093-.204-.164s-.179-.082-.243-.143-.162-.077-.217-.154-.177-.055-.2-.159h-.062l-.199-.196v-.064c-.091-.051-.123-.183-.251-.191l-.235-.237c.01-.076-.081-.113-.07-.196.007-.066-.081-.119-.05-.201-.067-.082-.089-.188-.162-.287v-.441c-.042-.043-.086-.071-.104-.11s-.02-.087-.064-.113v-.226l-.269-.261c-.011-.077-.023-.142.045-.186v-.169l-.053-.057.04-.041a.4.4 0 0 0 .011-.186l-.106-.099v-.236l-.225-.187v-.179c-.053-.075-.062-.187-.162-.228v-.286l-.058-.064v-.151l-.115-.21c.028-.064.075-.113.052-.214l-.101-.065v-.191l-.057-.064v-.108l-.057-.062v-.095l-.194-.207-.051.052h-.773l-.053.054h-.378l-.067.056-.058-.049h-.104l-.06-.058h-.385l-.039-.04c-.015-.008-.032-.013-.049-.016h-.465l-.049.049h-.568l-.049-.049h-.552l-.052-.053h-.232l-.064.082c-.086.059-.062.127-.114.164-.034.026.016.108-.042.148-.038.026-.017.082-.055.117s-.035.098-.076.134v.146l-.049.067v.431l-.057.071v.157l-.057.067v.217l-.057.063v.108l-.058.062v.107l-.057.065v.219l-.062.062c-.029.022-.047.056-.049.093 0 .022-.03.043-.05.068v.164l-.057.062v.164l-.049.048v.225l-.114.115-.005.104-.149.138c-.036.099.017.122.038.156v.164l-.053.062v.256c-.126.22-.126.22-.276.299v.222l-.058.062v.341c-.129.066-.125.226-.217.323.029.074-.088.096-.058.171l-.11.111v.082l-.162.164v.09a1.11 1.11 0 0 0-.112.058c-.044.029-.063.082-.133.082-.035 0-.059.07-.114.05l-.139.14v.304l-.138.007c-.088-.102-.142-.246-.284-.329h-.207a.69.69 0 0 0-.162.103c-.046.049-.055.132-.12.171h-.111c-.024-.062-.095-.042-.133-.082l-.081-.082c-.064-.013-.081.021-.11.047s-.052.053-.081.082v.236l-.096.077h-.146l-.072-.054h-.164l-.052-.053h-.232l-.047.048h-.162l-.058-.053h-.139l-.135-.164h-.122l-.047.048h-.72l-.058-.049h-.103l-.062-.057h-.219l-.405-.418c.023-.07-.086-.094-.062-.164l-.086-.077a.46.46 0 0 1-.024-.212v-.164l.05-.05v-.224c-.007-.008-.023-.03-.044-.056v-.454l.047-.048v-.605c.021-.035.053-.063.054-.095 0-.047.045-.055.059-.108v-.146l.057-.063v-.108l.036-.043c.004-.008.012-.016.011-.023-.024-.095.044-.172.052-.257s.07-.122.075-.194c.081-.05.091-.151.153-.219v-.164l.104-.105.008-.176.049-.049v-.164c.068-.042.036-.145.114-.168v-.176l.041-.042c.019-.035-.023-.037-.037-.076v-.422l.268-.541v-.312l.108-.109v-.237l-.047-.047.053-.06v-.164c.064-.052.057-.152.136-.195s.088-.131.139-.207v-.204l.057-.062v-.226c.067-.03.037-.121.104-.158v-.192l.171-.172v-.317l.162-.153v-.501l.057-.074v-.2l.114-.205v-.205l.058-.062v-.164l.057-.063v-.275l.051-.052v-.279l.109-.112v-.274l.057-.064v-.164l.057-.062v-.11l.109-.111c-.008-.068-.008-.138 0-.206.023-.056.041-.114.057-.172a.64.64 0 0 1 .105-.194v-.097l-.053-.058a.09.09 0 0 1 .049-.102v-.234c.081-.042.048-.118.067-.174l.044-.044v-.329c.061-.061.063-.154.142-.208l.108-.004.071-.066c.019-.062.022-.127.009-.19l-.101-.103v-.169l.05-.058v-.217c.066-.042.053-.13.109-.181.024-.023-.007-.068-.045-.095v-.297c.074-.037.034-.115.057-.169l.043-.043v-.329c.061-.048.045-.14.114-.18v-.111l.058-.062v-.107l.057-.066v-.272a.2.2 0 0 0 .052-.152l-.058-.087c.043-.068.051-.153.113-.207v-.164l.039-.039c.006-.007.015-.015.015-.021v-.274l.162-.164c.01-.06-.011-.131.06-.171l-.054-.06v-.164c.067-.029.054-.108.093-.159s.028-.13.066-.196c.029-.047.006-.127.006-.218l.215-.177c.012-.082 0-.112-.043-.131v-.229c.05-.071.068-.176.162-.227v-.17l.057-.062v-.108l.057-.063v-.329l.047-.048v-.201l.092-.168h.055l.081-.082v-.112l.101-.097a1.03 1.03 0 0 0 .01-.218c.049-.082.081-.18.162-.237v-.228c.122-.07.123-.226.212-.324 0-.082.07-.122.119-.177V4.65l.057-.062v-.111l.095-.094c.037-.056-.017-.139.066-.177v-.237l.111-.077c0-.044 0-.062.005-.078.017-.044.061-.028.091-.043.043-.058 0-.127.024-.181l-.058-.064v-.113c.008-.008.015-.021.021-.021h.271c.044-.069.144-.039.169-.12l.063.057h.112c.045-.04.015-.09.027-.142l.086-.074.123-.014c.027-.082 0-.164.019-.264l-.114-.077c-.015-.086.04-.103.059-.136.012-.007.021-.018.027-.016.095.03.162-.082.274-.051l.076-.102c0-.011.005-.036-.005-.047l-.162-.164c0-.082.053-.108.096-.138.044-.01.066.022.094.052h.162c.067-.063.179-.071.222-.164.081-.018.122.101.207.054.055.023.108.053.157.087.057.049.153-.013.19.082h.44c.007 0 .014-.011.027-.021v-.142c.039-.114.146-.113.211-.169.033-.016.072-.013.102.007.036.033.081.036.115.058.037.029.071.061.101.098h.273l.06.057h.276l.049-.05.119-.009c.027-.024.045-.061.097-.05s.081.119.167.112c.026 0 .025.044.038.061.058.082.053.219.195.222.032.041.022.108.081.135-.008.067.038.127.104.137s.081.068.127.096.103.026.133.082.076.04.112.062a.61.61 0 0 1 .118.116c.007.009.012.019.016.029v.099c.041.044.09.014.132.024.081.039.075.142.138.193-.009.058.026.114.081.131.074.022.131.104.225.067l.195.209v.039l.057.062v.11c.035.031.067.064.096.1s.012.091.07.117v.241c.105.019.157.095.221.164v.109l.048.048.011.123c.032.082.117.082.174.116s.114.046.151.104v.059a1.32 1.32 0 0 1 .153.155c.034.048.039.115.071.164a1.16 1.16 0 0 0 .127.143c.1-.012.099.088.128.138.038.065.068.139.105.206.024.045.02.108.075.136s.051.09.081.135c.063.104.093.231.195.31 0 .073.071.117.067.198.004.062.029.12.072.164.045.049.023.104.037.154.066.043.092.144.192.137.031.042.091.063.081.135 0 .018.033.04.053.062v.325c.099.068.117.202.216.272.011.082 0 .164.005.229l-.054.055v.164c.035.06.101.007.148.041.035.037.006.086.007.09l.171.334v.139l.057.068v.213c.075.091.096.209.17.3v.16l.218.221v.164l.054.06v.391c-.063.055-.072.139-.115.216l.171.173c-.012.09.081.113.106.164s-.042.082-.049.127a.57.57 0 0 0 0 .098l.051.053v.27c.064.048.037.147.114.172v.122l-.04.039c-.019.06-.024.125-.013.187l.157.159c.01.063.022.128-.047.172v.223c.062.041.052.127.106.179.024.024-.008.068-.042.092a1.08 1.08 0 0 0 .056.133c.031.053.094.076.105.154.007.045.069.082.107.123v.217l.053.063v.264l.05.066v.316c.046.049.068.116.059.182l-.054.062c0 .013-.007.043 0 .049.066.042.036.143.109.164v.151l.106.205v.307l.057.069v.159l.055.062-.052.058v.112l.217.22v.281l-.052.058v.109l.055.061v.06l.096.034c.043.043-.01.105.036.154a.39.39 0 0 1 .081.159c.014.051-.006.112.056.146v.164l.057.063v.22l.057.062v.164l.057.064v.329c.016.017.041.03.04.043-.007.101.088.177.066.296l.113.087v.297c.019.031.058.043.057.09 0 .023.022.046.05.097v.203l.054.054v.143l.171.329v.149l.057.062v.11c.071.039.047.112.06.172.074.038.02.131.062.164s.024.131.096.159v.222l.057.062v.121l.049.049v.224l.055.056v.151l.062.092c.008.044-.023.067-.052.093v.227c.032.063.101.082.162.115v.056l.104.105v.31l.114.212v.199l.058.094c.044.075.058.172.135.221s.071.145.135.196c0 .073.063.119.067.198s.062.139.104.222v.458l.108.204zM70.76 16.16l-.055-.064v-.164l-.052-.053v-.143l-.162-.323v-.149c-.067-.029-.053-.108-.093-.158s-.006-.142-.072-.191v-.154l-.058-.058v-.336l-.107-.108v-.278l-.056-.061v-.09l-.171-.329v-.256c-.118-.082-.131-.232-.217-.336v-.633l-.114-.082c.028-.115-.081-.181-.049-.277-.073-.087-.092-.206-.167-.295v-.278c-.104-.084-.168-.208-.177-.343-.036-.025-.051-.082-.109-.071-.069.022-.038.116-.101.144v.164l-.056.064v.388c-.101.071-.119.205-.217.273-.007.082.006.164-.005.229l-.053.056v.668l-.057.062v.167c-.086.057-.112.155-.17.246v.481l-.047.048v.108l-.057.063v.208c-.015.046-.056.056-.058.102 0 .03-.033.059-.055.094v.155l-.046.058.05.063v.152l-.053.063v.11l.052.058v.109l-.055.06v.329c-.019.036-.064.049-.052.111l.049.069v.334c-.066.036-.049.096-.051.137l.2.201c.037-.032.118-.025.157-.09l.058.054h.33l.058-.053h.162l.047.048h1.116l.049-.049h.162l.058-.059h.227a.39.39 0 0 0 .019-.193zM19.212 26.578c-.005.011-.011.02-.019.029l-.183.146v.082c-.023.025-.061.029-.089.009s-.058-.035-.092-.03c-.067.041 0 .104-.037.153-.057.014-.115.019-.174.013l-.057.041h-.133c-.066.024-.13.054-.19.09-.056.044-.068.105-.118.149v.104c.044.047.079.103.103.164l-.07.082c-.087-.012-.133-.071-.21-.045-.071-.046-.169-.061-.217-.125h-.149c-.055.033-.102.076-.14.128-.033.042-.053.094-.056.148l-.058.046c-.054.027-.116 0-.176.016-.045-.082-.182-.077-.231-.159v-.104c.029-.063.127-.087.157-.154.001-.007.001-.014 0-.02-.019-.047-.105-.01-.121-.061-.049 0-.06.073-.118.031l-.075.135c.011.038.081.058.042.106-.065.05-.087-.019-.119-.027h-.104l-.081.059v.082l-.047.038c0 .018-.004.044-.007.082a.81.81 0 0 1-.14.115l-.231-.094c-.062.034-.123.062-.101.127h-.236l-.091.082a2.01 2.01 0 0 1-.222 0l-.056-.039c-.07-.008-.147.023-.197-.036l-.178-.011-.071-.078h-.332l-.058-.044h-.104l-.047-.038h-.085c-.059.034-.128.047-.195.037l-.061-.076h-.349c-.024-.053-.051-.105-.081-.154-.025-.03-.056-.056-.092-.074a.9.9 0 0 0-.107-.044v-.082l.093-.074c.012-.01 0-.016-.011-.03s-.022-.034-.029-.053c-.009-.011-.018-.021-.028-.031-.081-.01-.102.067-.162.082s-.081-.042-.118-.066v-.082c.058-.045.138.005.196-.03.004-.055.004-.055-.071-.115h-.101l-.076-.061v-.122c-.049-.049-.114-.015-.188-.027l-.116-.122h-.095c-.057-.043-.102-.099-.132-.164-.011-.045.087-.056.053-.108l.26-.207v-.129l-.051-.044v-.375l.093-.075c-.028-.044-.039-.096-.092-.132l.05-.044v-.164l-.052-.045v-.021l.1-.158v-.225l.053-.053v-.123l-.047-.044v-.082l-.108-.09v-.123l-.045-.035v-.149l-.111-.164c.035-.07-.081-.1-.049-.17l-.193-.007-.02-.039c-.007-.012 0-.017 0-.021.071-.05.126-.121.158-.202l-.05-.048.046-.044v-.12l.036-.031c.006-.012.017-.024.017-.036v-.145l-.037-.03c-.029-.039-.01-.082-.015-.12a.45.45 0 0 0-.151-.177v-.174l.045-.035v-.088l-.081-.056c-.036-.058-.018-.106-.021-.154s0-.082 0-.121l-.047-.037v-.105l-.162-.246v-.234l-.106-.089c0-.023-.01-.051 0-.063.077-.082.087-.181.152-.283v-.101c.02-.033.075-.048.054-.091l-.053-.045v-.082l-.054-.047v-.246l-.045-.035v-.134l.043-.035v-.329c-.051-.032-.029-.104-.101-.125v-.213l-.052-.045v-.125l.037-.029c.007-.012.011-.025.014-.038v-.164l-.101-.152v-.178l-.259-.206h-.136l-.055.041h-.255l-.049.039a2.1 2.1 0 0 1-.216 0l-.041-.034-.184.077c-.042.006-.058-.024-.081-.041h-.104l-.056.042h-.208l-.038.03c-.015.005-.03.009-.046.011h-.279l-.059-.039-.045.035h-.306c-.049.035-.11.051-.17.044l-.057-.04h-.208l-.056.041h-.418l-.047.038-.095.006-.076-.044c-.035-.004-.069.011-.09.039h-.151l-.064.043h-.467l-.053-.039-.057.041h-.468l-.131.104v.208l-.052.044c0 .041.006.082-.037.117-.029.029-.051.064-.065.102s.009.082-.058.113v.296l-.048.038v.164c-.057.051-.091.112-.141.164-.053.059-.093.128-.119.204v.432l-.115.065c.027.058-.025.074-.047.104v.454c-.081.055-.074.149-.152.211v.204l.049.043v.082l-.052.044v.458l-.092.074c-.035.057 0 .102.045.15l-.108.164v.154l.051.044v.082l-.052.038v.164l-.158.127c.004.037-.02.072-.055.082v.082l-.053.044v.246l.099.082v.211l-.044.044v.082l-.112.067c.021.054-.024.072-.049.1v.246l-.047.038v.164l-.081.068h-.054c-.053.021.006.094-.076.091v.343l-.054.047v.067l-.053.082c-.019.029-.035.044-.052.066v.112l.052.055v.15c0 .012-.015.024-.027.033-.053.039.01.114-.075.142v.211l.05.043-.077.06h-.313c-.049-.019-.069-.072-.135-.082s-.095-.047-.162-.045c-.051 0-.097-.05-.191-.031l-.109.131c.042.062-.081.125-.06.208l-.13.193h-.792l-.068.082h-.131l-.054-.039h-.103l-.055.04h-.101c-.023-.015-.047-.042-.061-.039-.097.021-.162-.077-.264-.037l-.041.032h-.211l-.055-.038h-.154l-.054.04h-.419l-.075-.062v-.082l-.075-.063H.966l-.045.035H.568l-.306-.246c-.059.007-.117-.021-.149-.072v-.214l.097-.051v-.104c-.034-.043-.084-.069-.139-.072-.006-.005-.015-.01-.015-.016v-.191l.147-.228-.041-.039v-.082l-.052-.045c-.017-.041.021-.062.05-.082v-.109l.162-.246v-.187l.048-.038v-.247l.054-.046c-.016-.108.099-.176.126-.266l.081-.013v-.168l.054-.053v-.089l-.101-.053v-.233l.036-.029c.007-.011.012-.024.015-.037v-.185c-.067-.034-.055-.082-.046-.13l.037-.03c.004-.012.007-.026.009-.039l.01-.184c.081-.034.006-.126.092-.158 0-.046-.01-.098.055-.127-.011-.06.075-.076.088-.116.02-.057.097-.099.065-.174L.9 22.402v-.131l.102-.057v-.145l-.049-.039a1 1 0 0 1 0-.171l.205-.164-.051-.044c-.019-.044.034-.058.05-.082v-.126l-.045-.035v-.112l.046-.058c.018-.043-.054-.051-.052-.095l.162-.246v-.316l.045-.035v-.228l.216-.337v-.191c.09-.03.014-.123.093-.157 0-.062.066-.091.114-.132v-.082c-.015-.029-.054-.021-.081-.025-.041-.031-.013-.068-.022-.1l.054-.046v-.082l.051-.046v-.44l.101-.15v-.094l.074-.117.067-.014c.006-.012.019-.024.019-.036v-.605l.045-.034v-.252l.053-.042v-.19l.108-.164v-.227c.061-.034.036-.109.108-.127v-.339l.054-.046v-.082l.054-.048v-.246l.045-.036v-.191c.04-.09.17-.076.214-.147v-.247l-.049-.039c-.004-.057-.004-.115 0-.172.068-.03.028-.094.061-.125s.046-.07.042-.112v-.136l.055-.044v-.292l.048-.038v-.123l.054-.046v-.416l.037-.03c.024-.146.143-.258.223-.407V13.2l.053-.045v-.125l-.047-.038-.007-.076.053-.058v-.16l.055-.044v-.331l.049-.039v-.164c.058-.034.044-.103.108-.134v-.329c.018-.014.035-.03.05-.048.008-.011 0-.026.006-.04l.15-.12v-.246l.054-.048v-.329c.062-.03.053-.096.103-.135.017-.013 0-.053 0-.076l.106-.082v-.375l.049-.039v-.154l.155-.246v-.145l.054-.052c.011-.039-.018-.056-.046-.077v-.169l.049-.045c0-.021-.015-.061 0-.074.05-.039.041-.104.103-.135v-.205c.019-.018.053-.037.049-.048-.024-.073.081-.121.055-.191.04-.047.074-.099.101-.154.019-.052.081-.068.105-.109l-.037-.03c-.037-.057 0-.102.039-.145-.027-.067.042-.113.07-.164s.097-.077.142-.111v-.214c.067-.021.03-.094.098-.117v-.329c.088-.082.093-.205.216-.26v-.385c.081-.031.091-.108.152-.164v-.115c.058-.036.044-.105.108-.135V6.06l.047-.037v-.171c.102-.061.183-.153.231-.264.076-.03 0-.104.071-.145.039-.024.053-.078.069-.121.027-.089.082-.166.157-.22V5.02l-.051-.044v-.082c.037-.017.05-.061.1-.06.033.001.064-.015.081-.044.048-.066.092-.135.132-.206.013-.024-.009-.052.016-.078.054-.057.075-.13.14-.205v-.209c.081-.022.162 0 .243-.014.02-.024.067-.036.075-.076 0-.054-.075-.07-.105-.11.021-.04-.034-.055-.047-.082.035-.034.081-.006.118-.02l.061.045h.102l.057.041h.051c.031-.05.109-.03.15-.071.037-.021.082-.021.119 0 .059.04.127.065.197.071.071 0 .113.053.188.048.054.004.107.024.15.058.049.035.095.019.144.016l.046-.038h.267c.02-.046.045-.089.074-.13.042-.045.032-.107.066-.144s.023-.098.087-.119c-.006-.039.019-.066.056-.082.062-.032.055-.094.101-.135.018-.016-.004-.058.011-.078.081-.111.149-.229.223-.343a.58.58 0 0 1 .037-.071c.037-.043.096-.071.112-.131.01-.036.07-.053.093-.094a3.75 3.75 0 0 1 .253-.397c.015-.021 0-.055.009-.082.014-.023.032-.044.053-.061-.011-.058-.081-.075-.107-.117.008-.032-.019-.07.024-.098l.108.082.157-.124.128-.204c-.043-.067-.062-.149-.154-.187v-.09l.349-.138c.039.027.085.04.132.035l.21-.181.021.021.276-.108.136-.108h.096l.056.042h.081a.59.59 0 0 1 .147.062c.046.035.114 0 .141.029.045.052.123.012.162.044s.093.029.146.031l.109.082h.103c.047-.016.004-.072.06-.082.081-.01.097.072.144.082.04.007.081-.007.109-.037h.105l.054.04h.626l.058.043h.102l.13.105c.041.037.11.006.12.059h.422c.052.028.092.072.116.127h.046l.133.106c.004.017-.012.041.034.057h.186c.045.014.062.059.122.042l.13.114.086.018c.025.033.024.078.071.101-.015.053.055.066.074.101s.075.086.081.14c.004.027 0 .053.031.073s.006.087.075.094v.214l.051.044c.032.053-.068.064-.05.11s-.028.074-.053.108c0 .053.09.088.043.164l.169.12c.059.038.054.114.13.145s.076.102.129.154v.074l.049.039c0 .037.005.082.007.129l.05.046c-.015.087-.13.144-.1.246.057.039.104.092.135.154.014.032.022.066.024.1l.098.078v.164l.049.039v.411l.054.048v.205l.053.045v.918l-.038.03c-.026.03-.011.064-.01.098l.043.034v.15l.108.157v.317l.053.048v.123l-.049.044.053.047v.082l.099.082v.575c.042.031.063.083.056.135l-.051.045v.291l.052.045v.29l.041.032c.03.058-.004.119.015.173l-.05.039v.255l.049.039v.289l.048.039v.664l.054.048v.082l.054.047v.539l.05.044c.011.041-.028.091.049.11v.512l-.049.049v.121l-.049.039v.251l.049.043v.329l.054.047v.082l.049.044v.292l-.045.036.041.042c0 .076 0 .076-.043.127v.122l-.053.048v.082c.059.024.037.089.089.113.006.008.014.013.014.019v.271l.101.15v.149l.054.05v.12l.054.047v.082l-.051.043v.246l.045.036v.116l.058.061v.12l.056.044v.292l.048.039v.246l.053.046v.292l.091.071c.035.041-.016.103.062.132v.157a.15.15 0 0 1 .057.134c-.054.035-.143.04-.157.113.008.044.063.061.093.093s0 .073.065.082v.345l.05.039v.121l.053.049v.749l-.05.044v.123c.018.016.041.03.05.048s-.004.041.024.054l.12.008a.23.23 0 0 1 .008.146l-.041.034v.246l-.052.049c0 .011-.004.024-.005.037s-.006.037 0 .04c.077.034.033.101.067.146l.081.116-.036.029-.011.038c-.024.061.07.09.063.146.054.05.066.126.148.156v.086l.037.03c.005.005.014.011.014.016v.411c.081.056.074.15.154.209v.127l-.049.044v.082l-.055.047c.011.082.125.141.106.235l-.052.066c-.017.047.077.06.052.108.105.063.122.17.204.259v.227l.05.049c-.05.056-.061.136-.148.164v.09l.158.127v.209l.048.038v.493c.023.03.074.046.054.09l.081.06h.086c.093.027.081.106.152.149v.21l.048.039v.247l.105.088v.459l-.045.035v.302l.043.034c-.048.051-.114.092-.156.13.001.046.033.086.077.095.07.001.13.05.145.119 0 .012.023.02.039.032v.131l.108.059v.104l.05.039a1.11 1.11 0 0 1 0 .171l-.094.076a.22.22 0 0 0 0 .139c.07.011.07.011.2-.093v-.04l.101-.082c0-.02 0-.047.006-.096l.081-.046.07.055v.082l.052.045c-.066.021-.032.092-.098.117v.329l-.051.052c-.013.044-.012.092.004.136l.04.032v.196l.108.15v.199c.075.029.041.1.104.124zm-7.829-11.307c-.101-.011-.049-.093-.123-.112v-.54c0-.006-.009-.011-.014-.016l-.037-.03v-.164c-.018-.015-.052-.032-.05-.045.007-.053-.049-.069-.081-.1-.096.005-.12-.071-.191-.107v-.164l-.098-.139v-.147l.108-.153v-.195l.042-.034v-.134l-.046-.038v-.391a.11.11 0 0 1 .013-.037l.038-.03v-.124l.052-.045v-.246c-.062-.031-.053-.097-.1-.13v-.203l.044-.045-.048-.038v-.493c-.001-.014-.001-.028 0-.042 0-.006.008-.011.022-.027l.081-.06v-.322l-.151-.229v-.361c.012-.03.053-.032.035-.058l-.041-.031v-.54c0-.006-.01-.011-.022-.022l-.03-.022v-.338c-.066-.039-.117-.098-.146-.169.069-.058.072-.147.146-.203.004 0 0-.013 0-.021v-.061c.02-.022.059-.034.049-.082-.075-.037-.058-.133-.131-.186s-.088-.147-.178-.188c-.01-.036.018-.073-.024-.101h-.023l-.105.052c-.008.048-.004.078-.019.099s-.049.039-.038.075l.05.044v.164c-.023.025-.071.043-.051.082.02.022.059.033.054.057-.009.05-.081.068-.055.118s-.053.055-.05.087c.004.046-.061.061-.06.108 0 .025-.058.048-.081.076s-.029.076-.074.102v.246c-.088.031-.011.124-.094.157l-.015.136-.044.035v.371l-.054.048v.164l-.179.136-.136.216v.063c.024.027.071.044.053.082l-.054.047v.145c-.041.069-.057.136-.106.171-.072.052-.01.14-.101.178v.117l-.108.148v.114l-.048.038v.214c-.071.018-.036.078-.081.103s.006.094-.054.129c-.039.022-.022.082-.075.099v.164l-.054.047v.082l-.054.049v.315l-.108.159v.149l-.045.035v.206l-.054.046v.082l-.054.046v.122l-.048.038v.233l-.114.164v.193c-.062.028-.036.096-.099.117v.208l-.052.049v.082l-.054.049v.204l-.045.035v.187l.122.129.071-.045h.304l.042-.034c.008-.002.016-.003.024-.004h.706c.007 0 .014-.007.021-.011l.037-.03.055.04h.103l.058-.043h.153l.045-.035h.221c.038.031.075.063.125.014v-.041l.075-.06h.367l.054.04.056-.041c.11.011.186-.047.282-.087h.096l.188-.113z" fill="#959595"/></g><defs><clipPath id="A"><path fill="#fff" d="M0 0h79v29H0z"/></clipPath></defs></svg>