<svg xmlns="http://www.w3.org/2000/svg" width="193" height="42" viewBox="0 0 193 42">
  <path fill="#D8D8D8" d="M21 42a21 21 0 1 0 0-42 21 21 0 0 0 0 42Z"/>
  <path fill="#959595" d="M70.03 10.03v18.71H67v-18.7h3.02ZM124.47 21v7.72h-3.01V21.5c-.04-1.9-1.35-3.11-3.05-3.11a2.97 2.97 0 0 0-3.02 2.92v7.4h-3.01V21.5c0-1.94-1.32-3.11-3.05-3.11a3 3 0 0 0-3.02 3.05v7.3h-3.01V15.88h3.01v1.49a5.1 5.1 0 0 1 3.85-1.75c1.73-.03 3.37.8 4.33 2.2a5.58 5.58 0 0 1 4.53-2.2c2.95 0 5.42 1.97 5.45 5.37Zm9.95-5.37v3.18c-2.92-.2-4.4 1.3-4.4 3.27v6.67h-3.01V15.88h3.01v1.8a5.45 5.45 0 0 1 4.4-2.06Zm13.7 7.75h-10.24a3.8 3.8 0 0 0 3.88 2.96 3.97 3.97 0 0 0 3.63-2.07l2.53 1.05a6.56 6.56 0 0 1-6 3.69c-4.13 0-6.99-2.96-6.99-6.67a6.52 6.52 0 0 1 6.45-6.68h.26a6.43 6.43 0 0 1 6.48 7.72Zm-10.2-2.28h7.47a3.77 3.77 0 0 0-3.66-2.83 3.86 3.86 0 0 0-3.82 2.83Zm25.5-5.24V28.7h-3.02V27a5.54 5.54 0 0 1-4.36 1.97c-3.63 0-6.32-2.74-6.32-6.68 0-3.93 2.7-6.67 6.32-6.67 1.67-.03 3.27.7 4.36 1.97v-1.71l3.02-.03Zm-3.02 6.44c0-2.19-1.6-3.97-3.81-3.97-2.22 0-3.79 1.78-3.79 3.97 0 2.2 1.57 3.98 3.79 3.98a3.85 3.85 0 0 0 3.81-3.98Zm5.14 0a6.7 6.7 0 0 1 6.8-6.67 6.74 6.74 0 0 1 6.22 4.13l-2.79.96a3.87 3.87 0 0 0-3.46-2.3c-2.28 0-3.76 1.76-3.76 3.92a3.75 3.75 0 0 0 3.6 3.9 3.82 3.82 0 0 0 3.72-2.44l2.72 1.05a6.61 6.61 0 0 1-6.31 4.16 6.56 6.56 0 0 1-6.74-6.36v-.35ZM193 21.28v7.46h-3.02v-6.99a3.18 3.18 0 0 0-3.33-3.36 3.29 3.29 0 0 0-3.37 3.2v7.15h-3.02v-18.7h3.02v7.49a5.39 5.39 0 0 1 4.17-1.9 5.36 5.36 0 0 1 5.55 5.65ZM54.05 16.77V10h-3.02v18.71h3.02v-.92a6.9 6.9 0 0 0 6.22.57 6.64 6.64 0 0 0-.03-12.17 6.28 6.28 0 0 0-2.53-.44 6.64 6.64 0 0 0-3.66 1.02Zm3.34 9.43a3.7 3.7 0 0 1-3.34-1.97 4.14 4.14 0 0 1 0-3.87c.64-1.24 1.96-2 3.34-1.97a3.92 3.92 0 0 1 0 7.82Zm14.88-3.9a6.83 6.83 0 0 1 6.74-6.9 6.84 6.84 0 0 1 6.96 6.67 6.83 6.83 0 0 1-6.74 6.9h-.1a6.66 6.66 0 0 1-6.86-6.39v-.29Zm6.84 3.9a3.93 3.93 0 0 0 4.07-3.78 3.92 3.92 0 0 0-3.82-4.03 3.93 3.93 0 0 0-4.07 3.78v.12A3.81 3.81 0 0 0 79 26.2h.1Zm8.37-3.9a6.81 6.81 0 0 1 6.74-6.9 6.82 6.82 0 0 1 6.96 6.67 6.81 6.81 0 0 1-6.74 6.9h-.1a6.63 6.63 0 0 1-6.83-6.39.87.87 0 0 1-.03-.29Zm6.83 3.9a3.93 3.93 0 0 0 4.08-3.78 3.92 3.92 0 0 0-3.82-4.03 3.93 3.93 0 0 0-4.07 3.78v.12a3.81 3.81 0 0 0 3.72 3.91h.1ZM25.6 16.45l-1.02 2.57a3.8 3.8 0 0 1 1.76 3.24 3.68 3.68 0 0 1-3.82 3.56 3.68 3.68 0 0 1-3.6-3.78 3.71 3.71 0 0 1 3.54-3.56l.96-2.63c-3.85-.51-7.41 2.22-7.41 6.22v6.64h2.92v-1.05a6.9 6.9 0 0 0 3.69 1.05 6.47 6.47 0 0 0 2.98-12.26Zm-9.6-.32a9.62 9.62 0 0 1 2.92-1.97V10H16v6.13Z"/>
</svg>
