<svg xmlns="http://www.w3.org/2000/svg" width="321" height="60" fill="none" xmlns:v="https://vecta.io/nano"><g clip-path="url(#A)" fill="#959595"><path d="M310.659 10.41l-8 15.49-7.94-15.49h-10.09l13.52 23.15v15.72h9.13V33.56l13.52-23.15h-10.14zm-36.34 12c.049.776-.111 1.55-.462 2.243a4.35 4.35 0 0 1-1.538 1.697c-1.13.85-2.6 1.07-4.68 1.07h-3.61v-10h3.61c2.08 0 3.55.17 4.68 1 .651.425 1.178 1.014 1.529 1.707s.514 1.467.471 2.243m1.57 10.81c2.88-.9 7.61-3.77 7.61-11.15.049-1.717-.314-3.422-1.058-4.97a10.76 10.76 0 0 0-3.222-3.93c-2.54-1.86-5.92-2.76-10.26-2.76h-13.96v38.91h9.13V34.41h2.87l8.17 14.87h10.59l-9.87-16.1zm-28.84-22.77h-9.19v22.65c0 2.76-.22 4.9-1.52 6.47a7.61 7.61 0 0 1-5.575 2.43c-1.046 0-2.081-.216-3.041-.634a7.61 7.61 0 0 1-2.534-1.796c-1.3-1.57-1.52-3.71-1.52-6.47V10.41h-9.19v22.65c0 5.46 1 9.24 3.66 12.22s6.93 4.62 12.62 4.62 9.86-1.69 12.57-4.62 3.72-6.76 3.72-12.22V10.41zm-37.19 0h-29.18v7.21h10v31.66h9.12V17.62h10l.06-7.21zm-34.09 0h-8.9V28c0 4.11.17 8.51.17 8.51l-16.68-26.1h-9.74v38.87h8.9V31.7c0-4.11-.17-8.79-.17-8.79l17.07 26.37h9.35V10.41zm-41.91 31.49h-16.63v-9h15.22v-7.28h-15.22v-7.95h16.12v-7.26h-25.19v38.87h25.7V41.9zm-34-4.34a14.31 14.31 0 0 1-10.48 4.12c-6.36 0-11.66-4.34-11.66-11.95s5.07-12 11.66-12a14.88 14.88 0 0 1 10 4.06l2.82-7.55c-1-1.07-5.35-4.4-13.35-4.4-11.33 0-20.4 7.5-20.4 20.06S77.399 50 88.839 50c7.94 0 12.06-3.27 14-5.3l-2.98-7.14zm-42.358-1.62V23.21a1.51 1.51 0 0 0 .78-1.31 1.5 1.5 0 0 0-1.5-1.5h-.11l-5.34-9.16a1.46 1.46 0 0 0 .35-.95 1.5 1.5 0 0 0-1.5-1.5 1.44 1.44 0 0 0-.84.26l-11.46-7.4a.75.75 0 0 0 0-.15A1.5 1.5 0 0 0 36.767.092a1.5 1.5 0 0 0-1.666.668l-12 .86a1.46 1.46 0 0 0-1.1-.52 1.5 1.5 0 0 0-1.5 1.5 1.37 1.37 0 0 0 0 .19l-11.2 7a1.48 1.48 0 0 0-.9-.29 1.49 1.49 0 0 0-1.11 2.5l-5.58 9.73h-.21a1.51 1.51 0 0 0-1.655 1.345 1.51 1.51 0 0 0 1.345 1.655l.81 12.16a1.49 1.49 0 0 0 .48 2.91 1.55 1.55 0 0 0 .43-.07l5.5 11.81a1.52 1.52 0 0 0-.21.76 1.5 1.5 0 0 0 1.5 1.5 1.48 1.48 0 0 0 .83-.25l11.7 3.9.68.58a1.5 1.5 0 0 0 2.95.09h10.57a1.47 1.47 0 0 0 1.17.58 1.5 1.5 0 0 0 1.5-1.5v-.14l10.2-6.27a1.51 1.51 0 0 0 .91.31 1.5 1.5 0 0 0 1.08-2.54l5.31-9.87h.11a1.5 1.5 0 0 0 1.5-1.5 1.48 1.48 0 0 0-.71-1.25zm-.42-.19a1.61 1.61 0 0 0-.38 0 1.51 1.51 0 0 0-1.5 1.46l-2.92.15a1.5 1.5 0 0 0-.73-1.1l5.37-12.82h.16v12.31zm-22 13.56a1.64 1.64 0 0 0-.08-.31l7.12-4.94 6.67 5a1.62 1.62 0 0 0-.1.54l-13.61-.29zm-19.56 1.87l3.56-1.12.81 1.25a1.53 1.53 0 0 0-.29.89 1.23 1.23 0 0 0 .06.39l-2.66-.13-1.48-1.28zm.78 1.24l-4.09-.2 2.8-.88 1.29 1.08zM2.821 23.91l8.92 4.46a1.49 1.49 0 0 0-.14.63 1.52 1.52 0 0 0 .17.68l-3.58 3.26-5.69-8.62a1.57 1.57 0 0 0 .32-.41zm19.29-15.18a1.5 1.5 0 0 0 1.49 1.37 1.13 1.13 0 0 0 .26 0l1.6 3.53a1.52 1.52 0 0 0-.79.73L9.901 11v-.15l12.21-2.12zm12.89-6.81a1.49 1.49 0 0 0 1.4 1.08 1.48 1.48 0 0 0 1-.42l5.4 6.33a1.37 1.37 0 0 0-.35.37l-5.56-2.43a1.46 1.46 0 0 0 .11-.55 1.5 1.5 0 1 0-3 0 1.54 1.54 0 0 0 .2.74l-2.13 1.8-7-.61a1.57 1.57 0 0 0-.25-.52l10.18-5.79zm14 46.75l-6.51-4.89 4.32-3 2.65 7.51a1.4 1.4 0 0 0-.46.38zm-6.86-5.17l-2.64-2a1.5 1.5 0 0 0 .1-.52 1.53 1.53 0 0 0-.33-.93l4.61-5.5a1.45 1.45 0 0 0 .89.33l1.92 5.44-4.55 3.18zm-8.54 4.5a1.53 1.53 0 0 0-1.08.46l-2.13-1.41a1.42 1.42 0 0 0 .11-.55v-.12l6.5-4.38a1.49 1.49 0 0 0 2.269-.11l2.47 1.85-7 4.83A1.5 1.5 0 0 0 33.6 48zm-11.09 3.71a1.5 1.5 0 0 0-.82-.89l.25-1.66 5.81-1.83a1.54 1.54 0 0 0 .24.27l-5.48 4.11zM10.901 46l-.67-8.75a1.77 1.77 0 0 0 .45-.18l3.81 5.93-2.49 3.56a1.5 1.5 0 0 0-1.1-.56zm-1.08-34.53l14.7 3.29a1.45 1.45 0 0 0 0 .48l-3.93 3.34a1.52 1.52 0 0 0-1-.38 1.48 1.48 0 0 0-1.15.55l-4-1.53a1.5 1.5 0 0 0-1.5-1.5 1.48 1.48 0 0 0-.78.22l-2.7-3.83a1.45 1.45 0 0 0 .36-.64zm15.27-2.79l6.5.57-5.11 4.34a1.28 1.28 0 0 0-.48-.09h-.09l-1.62-3.57a1.51 1.51 0 0 0 .8-1.25zM55.311 22a1.6 1.6 0 0 0 .15.57L50.601 25a1.52 1.52 0 0 0-1.2-.6 1.93 1.93 0 0 0-.34 0l-1-2.89 7.25.49zm-6.67 2.61a1.5 1.5 0 0 0-.74 1.29v.13l-3.11.8-2.49-4.55a1.5 1.5 0 0 0 .29-.88c.005-.063.005-.127 0-.19l5 .31 1.05 3.09zm-5.08 9.64l-4.56 5.52a1.46 1.46 0 0 0-.85-.27 1.43 1.43 0 0 0-.86.28l-4.19-3.25a1.47 1.47 0 0 0-.38-1.91l.93-3.24h.15a1.51 1.51 0 0 0 1.31-.77l8.29 2.26a1.45 1.45 0 0 0-.1.51 1.55 1.55 0 0 0 .26.87zm-29.94-6.65l2.72-3.42 6.26 2.08 1.3 3.25a1.47 1.47 0 0 0-.55.84l-8.76-1.46a1.49 1.49 0 0 0-.97-1.29zm12.38-11.1a1.39 1.39 0 0 0 .67-.17l2 4-7.6-.62a1.44 1.44 0 0 0-.22-.77l3.8-3.23a1.5 1.5 0 0 0 1.35.79zm17.26-5l-1.86 8.4c-.1-.01-.2-.01-.3 0a1.49 1.49 0 0 0-1.48 1.34l-5.36-.45 8.79-9.35a1 1 0 0 0 .21.09v-.03zm-3.63 10.19a1.58 1.58 0 0 0 .21.52l-5.58 6.27a1.36 1.36 0 0 0-.29-.06l-.3-7 .2-.21 5.76.48zM29.001 45h-.11l-3.62-12.88a1.51 1.51 0 0 0 .76-.57l4.47 3.51a1.54 1.54 0 0 0-.2.74 1.51 1.51 0 0 0 1.18 1.47L29.251 45c-.083-.01-.167-.01-.25 0zm-2.76-14.69a1.4 1.4 0 0 0-.34-.62l1.67-1.77 4.79 1.6a.28.28 0 0 0 0 .13l-6.12.66zm7.09-1.83l-2.2-4.35 2.11-2.26.29 6.56-.2.05zm-.4.2a1.49 1.49 0 0 0-.37.38l-3.56-2.64 1.82-1.94 2.11 4.2zm-1.78-.09l-3.21-1.07.73-.77 2.48 1.84zm-3.68-1.23l-4.56-1.52-1.91-4.79 7.31 5.43-.84.88zm-.38.4l-1.54 1.65a1.48 1.48 0 0 0-.75-.21 1.64 1.64 0 0 0-.5.09l-1.14-2.84 3.93 1.31zm4.71 6.54a1.51 1.51 0 0 0-1 .41l-4.55-3.58a1.21 1.21 0 0 0 .06-.38l6-.65a1.5 1.5 0 0 0 .89 1.18l-.9 3.12a1.45 1.45 0 0 0-.5-.1zm1.42-13.06l-2.31 2.46-1.44-2.85 3.74.31.01.08zm-2.64 2.81l-2 2.1-7.68-5.72a1.39 1.39 0 0 0 .12-.28l7.92.66 1.64 3.24zM18.861 21a1.54 1.54 0 0 0 .74.2 1.46 1.46 0 0 0 .85-.27l1.9 4.72-5.68-1.89 2.19-2.76zm-4.3 8.34l8.75 1.46a1.23 1.23 0 0 0 0 .19l-7.6 2.61-2.13-3.19a1.49 1.49 0 0 0 .98-1.07zm8.93 2.08c.041.076.091.147.15.21l-4.31 5.21a1.46 1.46 0 0 0-.63-.14 1.48 1.48 0 0 0-.78.22L16.001 34l7.49-2.58zm-3.78 5.67l4.29-5.15.1.06-1.38 9.17-2.78-2.17a1.44 1.44 0 0 0 .26-.84 1.51 1.51 0 0 0-.49-1.07zm4.78-4.92c.103.01.207.01.31 0l3.62 12.91a1.47 1.47 0 0 0-.4.24l-5-3.86 1.47-9.29zm3.26 13.51a1.44 1.44 0 0 0-.25.82 1.84 1.84 0 0 0 .06.41l-5.56 1.75 1-6.66 4.75 3.68zm1.93-.51l2.32-7.88a1.56 1.56 0 0 0 .88-.4l4.08 3.2a1.54 1.54 0 0 0-.31.91 1.46 1.46 0 0 0 .16.66l-6.38 4.25a1.53 1.53 0 0 0-.75-.74zm5-16.48l5.46-6.15a1.48 1.48 0 0 0 1 .36 1.5 1.5 0 0 0 .88-.29l2.37 4.33-9.17 2.37a1.51 1.51 0 0 0-.54-.62zm7.77-7.94l3.42-4.56 1.6 4.87-5.02-.31zm-.27-.39a1.45 1.45 0 0 0-.35-.26l1.87-8.5a1.51 1.51 0 0 0 .61-.13l1.39 4.19-3.52 4.7zm.49-9.17l-9 9.56-.1-1.75a1.49 1.49 0 0 0 .26-2.91l1.09-6.52 7.29.64a1.49 1.49 0 0 0 .46.98zm-.42-1.45l-7.25-.64.23-1.33a1.27 1.27 0 0 0 .28 0 1.5 1.5 0 0 0 1.16-.56l5.6 2.45s-.02.06-.02.08zm-7.77-2.35a1.34 1.34 0 0 0 .31.22l-.24 1.45-1.85-.16 1.78-1.51zm0 2.12L33.391 16c-.398-.036-.794.088-1.1.344a1.51 1.51 0 0 0-.535 1.021c-.036.398.088.794.344 1.1a1.51 1.51 0 0 0 1.021.535l.08 1.74-4-.33-2.18-4.31a1.5 1.5 0 0 0-.14-2.26l5.31-4.5 2.29.17zm-21.58 9.19a1.5 1.5 0 0 0 1.42-1l3.89 1.47a1.47 1.47 0 0 0-.11.56 1.49 1.49 0 0 0 .41 1l-2.29 2.89-3.16-1.05-.29-3.87h.13zm3 5.33l-2.5 3.14-.3-4.07 2.8.93zm-2.8 6.47l2.17 3.26-4 1.38a1.41 1.41 0 0 0-.34-.45l1.93-4.22a1.12 1.12 0 0 0 .24.03zm-2.1 6.28a1.47 1.47 0 0 0 .37-1 1.96 1.96 0 0 0 0-.24l4.15-1.42 2 3.08a1.47 1.47 0 0 0-.21 1.64l-2.6 3.7-3.71-5.76zm6.6 2.47a1.48 1.48 0 0 0 1.07.45 1.5 1.5 0 0 0 .93-.33l3 2.31-1.07 7.13-2.27.71-4.26-6.52 2.6-3.75zm3.83 10.06l-.21 1.41h-.15a1.5 1.5 0 0 0-.88.29l-.69-1.07 1.93-.63zm23.79-14.48a1.49 1.49 0 0 0 .801-2.265 1.49 1.49 0 0 0-2.401-.086l-8.35-2.28c.01-.1.01-.2 0-.3a.75.75 0 0 0 0-.15l9.29-2.4 5 9.23a1.49 1.49 0 0 0-.32.92 1.55 1.55 0 0 0 .26.85l-2.49 1.72-1.79-5.24zm-.2-7.6l3-.77a1.49 1.49 0 0 0 1.28.93l1.24 8.61a1.34 1.34 0 0 0-.58.23l-4.94-9zm5.98 8.77l-1.26-8.66a1.5 1.5 0 0 0 1.16-1.44 1.64 1.64 0 0 0-.09-.5l4.91-2.46a1.48 1.48 0 0 0 .73.41L51.131 36h-.13zm4.34-14.47l-7.34-.44-1.8-5.34 1.4-1.87 8.13 7a1.52 1.52 0 0 0-.39.67v-.02zm-9.34-6.3l-1.23-3.76 2.46 2.12-1.23 1.64zm-37.6-2.73a1.59 1.59 0 0 0 .65-.15l2.73 3.87a1.48 1.48 0 0 0-.38 1 1.51 1.51 0 0 0 .91 1.38l.28 3.82-3.7-1.24a1.51 1.51 0 0 0-1.26-1.34l.74-7.32.03-.02zm.45 9.18l3.78 1.26.37 4.57a1.53 1.53 0 0 0-.37.08l-4-5.37a1.55 1.55 0 0 0 .22-.54zm3.15 8.37a1.59 1.59 0 0 0 .37.27l-1.88 4.12a1.44 1.44 0 0 0-.62-.14 1.52 1.52 0 0 0-.7.18l-.76-1.16 3.59-3.27zm-3.16 4.69a1.51 1.51 0 0 0-.44 1.06 1.75 1.75 0 0 0 0 .33l-4.22 1.07 3.92-3.57.74 1.11zm-5 3l4.73-1.19a1.47 1.47 0 0 0 1.17.74l.71 8.71a1.67 1.67 0 0 0-.51.23l-6.2-7.15a1.44 1.44 0 0 0 .26-.78 1.47 1.47 0 0 0-.12-.56h-.04zm8.37 9.26l2.54-3.64 4.07 6.3-3.71 1.17-3-2.56a1.47 1.47 0 0 0 .22-.77 1.59 1.59 0 0 0-.12-.5zm7.66 6a1.5 1.5 0 0 0 2.73-.84l5.69-4.27-3.57 8.4a1.12 1.12 0 0 0-.32 0 1.51 1.51 0 0 0-1.39.93l-.55-.18-4.85-4.11 2.26.07zm5.49 3.61l-.22-.16 3.62-8.45h.24a1.48 1.48 0 0 0 1.16-.56l2.11 1.39a1.39 1.39 0 0 0-.17.67 1.54 1.54 0 0 0 .3.9l-7.04 6.21zm24.76-8.55h-.21l-2.68-7.62 2.65-1.84a1.42 1.42 0 0 0 .47.25l-.23 9.21zm6-27.53l-8.23-7.06 1.48-2a1.55 1.55 0 0 0 .85.26 1.51 1.51 0 0 0 .81-.24l5.22 9-.13.04zm-7.12-11.17a1.46 1.46 0 0 0 0 1.86l-1.5 2-2.59-2.22a1.5 1.5 0 0 0-1.21-2.4 1.45 1.45 0 0 0-.51.1l-5.48-6.48.06-.11 11.23 7.25zm-14.07-8.14a1.47 1.47 0 0 0 0 .21l-10.45 6a1.43 1.43 0 0 0-.86-.28h-.16L22.591 4a1.49 1.49 0 0 0 .91-1.4 1.42 1.42 0 0 0-.11-.55l11.54-.83zM22.001 4.1h.16l.84 3.12a1.49 1.49 0 0 0-.87 1l-12.35 2.19a1.23 1.23 0 0 0-.14-.25l11-6.94a1.48 1.48 0 0 0 1.36.88zm-14.38 8.17a1.17 1.17 0 0 0 .3.14l-.74 7.41a1.5 1.5 0 0 0-1.028.517 1.51 1.51 0 0 0-.362 1.093c.029.398.215.768.517 1.029a1.5 1.5 0 0 0 1.093.361 1.55 1.55 0 0 0 .85-.26l3.95 5.27a1.8 1.8 0 0 0-.2.17l-9-4.52a1.24 1.24 0 0 0 0-.27 1.51 1.51 0 0 0-.85-1.35l5.47-9.59zm-6 12.42a1.31 1.31 0 0 0 .48-.12l5.72 8.68-4.35 4a1.46 1.46 0 0 0-1-.4l-.85-12.16zm1.82 14.76l6.18 7.13a1.5 1.5 0 0 0 1.18 2.42 1.51 1.51 0 0 0 1-.39l2.81 2.39-3.42 1.08a1.49 1.49 0 0 0-2.45-.91l-5.42-11.62.12-.1zm7.46 13.75a1.4 1.4 0 0 0 .27-.58l5.69.28 4.45 3.77-10.41-3.47zm15 4.48a1.49 1.49 0 0 0-.23-.69l7.06-6.28a1.5 1.5 0 0 0 .88.29 1.27 1.27 0 0 0 .39-.06l2.63 5.13a1.49 1.49 0 0 0-.52 1.13 1.51 1.51 0 0 0 .08.48h-10.29zm11.71-2a1.54 1.54 0 0 0-.6.13l-2.6-5.07a1.47 1.47 0 0 0 .67-1l13.72.33a1.22 1.22 0 0 0 .18.36l-9.98 6.17a1.5 1.5 0 0 0-1.4-.9l.01-.02zm13.31-7.41a1.44 1.44 0 0 0-.34-.14l.22-9.13a1.49 1.49 0 0 0 1.47-1.24l3-.16a1.52 1.52 0 0 0 .88 1l-5.23 9.67z"/></g><defs><clipPath id="A"><path fill="#fff" d="M0 0h320.8v59.3H0z"/></clipPath></defs></svg>