<svg xmlns="http://www.w3.org/2000/svg" width="162" height="43" fill="none" xmlns:v="https://vecta.io/nano"><g clip-path="url(#A)" fill="#959595"><path d="M6.47 20.56c0 2.547.353 4.397 1.06 5.55a4.78 4.78 0 0 0 4.28 2.47 4.68 4.68 0 0 0 3.72-1.85 8.61 8.61 0 0 0 1.54-5.56c0-2.747-.497-4.727-1.49-5.94a4.71 4.71 0 0 0-3.81-1.82A4.76 4.76 0 0 0 8 15.21a8.09 8.09 0 0 0-1.52 5.35m16.9 12.49h-5.89v-3.52A9.46 9.46 0 0 1 14 32.59a9 9 0 0 1-4 1 9.12 9.12 0 0 1-7.07-3.33C.977 28.053 0 24.967 0 21s.953-7.053 2.86-9.26a9.34 9.34 0 0 1 7.24-3.17A9 9 0 0 1 17 11.9V0h6.34l.04 33.05zm1.06-23.941h6.74l5.73 17 5.59-17h6.56l-8.46 23-1.51 4.17a16.26 16.26 0 0 1-1.59 3.2 6.88 6.88 0 0 1-1.73 1.79 7.48 7.48 0 0 1-2.42 1.07 12.27 12.27 0 0 1-3.23.39c-1.204.002-2.405-.129-3.58-.39l-.57-5a13.73 13.73 0 0 0 2.68.3 4 4 0 0 0 3.27-1.3 9.11 9.11 0 0 0 1.63-3.3l-9.11-23.93zm47.5 23.94H65.6v-12.22a19.07 19.07 0 0 0-.4-5 3.59 3.59 0 0 0-1.32-1.83 3.78 3.78 0 0 0-2.2-.63 5.07 5.07 0 0 0-3 .9 4.59 4.59 0 0 0-1.8 2.39 21 21 0 0 0-.48 5.51v10.88h-6.29V9.109H56v3.51a9.83 9.83 0 0 1 11.72-3.3 6.54 6.54 0 0 1 2.63 1.93 7.15 7.15 0 0 1 1.24 2.66 19.94 19.94 0 0 1 .35 4.26v14.88zm16.68-11.5a37.97 37.97 0 0 1-3.86 1 11.4 11.4 0 0 0-3.45 1.11 2.65 2.65 0 0 0-1.24 2.23 3.1 3.1 0 0 0 1 2.3 3.48 3.48 0 0 0 2.52 1 5.51 5.51 0 0 0 3.27-1.19 3.94 3.94 0 0 0 1.51-2.1c.214-1.015.298-2.053.25-3.09v-1.26zm-8.48-5.14l-5.75-1a9 9 0 0 1 3.34-5.14c1.58-1.113 3.913-1.667 7-1.66a15.2 15.2 0 0 1 6.32 1 6.27 6.27 0 0 1 2.95 2.51c.573 1.033.857 2.923.85 5.67l-.07 7.39a24.95 24.95 0 0 0 .31 4.66 13.24 13.24 0 0 0 1.14 3.21H90c-.17-.42-.37-1-.61-1.87l-.23-.75a11.35 11.35 0 0 1-3.47 2.37c-1.245.531-2.586.8-3.94.79a8.15 8.15 0 0 1-5.83-2 6.64 6.64 0 0 1-2.13-5.07 6.79 6.79 0 0 1 1-3.62 6.24 6.24 0 0 1 2.72-2.43 20.78 20.78 0 0 1 5-1.48c2.097-.325 4.159-.844 6.16-1.55v-.64a3.29 3.29 0 0 0-.9-2.6 5.41 5.41 0 0 0-3.41-.78 4.6 4.6 0 0 0-2.64.67 4.61 4.61 0 0 0-1.53 2.33m21.03-7.31h5.63v3.27a8.94 8.94 0 0 1 3.119-2.761c1.242-.662 2.623-1.021 4.031-1.049a7.52 7.52 0 0 1 3.85.94c1.143.689 2.071 1.683 2.68 2.87.885-1.171 2.002-2.148 3.28-2.87a7.83 7.83 0 0 1 3.76-.94 8.11 8.11 0 0 1 4.31 1.07 6.5 6.5 0 0 1 2.63 3.14c.508 1.616.721 3.309.63 5v15.27h-6.11v-13.69c0-2.373-.21-3.903-.63-4.59a2.86 2.86 0 0 0-2.61-1.36 4.09 4.09 0 0 0-2.42.81 4.62 4.62 0 0 0-1.63 2.38 17.93 17.93 0 0 0-.5 4.95v11.5h-6.1v-13.12c.073-1.511-.038-3.026-.33-4.51a2.91 2.91 0 0 0-1-1.51 3.13 3.13 0 0 0-1.86-.5 4.37 4.37 0 0 0-2.54.79 4.28 4.28 0 0 0-1.62 2.28 17.37 17.37 0 0 0-.49 4.94v11.63h-6.11l.03-23.94zm42.36 11.971a7.91 7.91 0 0 0 1.69 5.45 5.52 5.52 0 0 0 1.877 1.401 5.51 5.51 0 0 0 4.576 0 5.53 5.53 0 0 0 1.877-1.401 8 8 0 0 0 1.68-5.5 7.91 7.91 0 0 0-1.68-5.41c-.519-.594-1.159-1.071-1.878-1.397s-1.498-.495-2.287-.495-1.569.169-2.287.495-1.359.803-1.878 1.397a7.93 7.93 0 0 0-1.69 5.46zm-6.49-.34a12.93 12.93 0 0 1 1.55-6.11 10.72 10.72 0 0 1 4.41-4.51 13.14 13.14 0 0 1 6.37-1.55 11.94 11.94 0 0 1 4.818.829c1.532.606 2.922 1.522 4.082 2.691a12.23 12.23 0 0 1 2.642 4.102c.596 1.531.878 3.166.828 4.808.05 1.658-.234 3.31-.835 4.856A12.36 12.36 0 0 1 158.29 30a11.85 11.85 0 0 1-4.041 2.71 11.86 11.86 0 0 1-4.789.86 14 14 0 0 1-6.28-1.49 10.19 10.19 0 0 1-4.54-4.36 14.51 14.51 0 0 1-1.55-7m-37.09.59a1.91 1.91 0 0 1-3.26 1.361 1.91 1.91 0 0 1 1.36-3.261 1.9 1.9 0 0 1 1.9 1.9z"/></g><defs><clipPath id="A"><path fill="#fff" d="M0 0h161.79v42.77H0z"/></clipPath></defs></svg>