<svg width="656" height="162" viewBox="0 0 656 162" fill="none" xmlns="http://www.w3.org/2000/svg">
<g clip-path="url(#clip0_5496_16978)">
<mask id="mask0_5496_16978" style="mask-type:alpha" maskUnits="userSpaceOnUse" x="0" y="0" width="656" height="162">
<path fill-rule="evenodd" clip-rule="evenodd" d="M198.126 106.362V122.01H153.287V53.563H170.948V106.362H198.126Z" fill="white"/>
<mask id="mask1_5496_16978" style="mask-type:luminance" maskUnits="userSpaceOnUse" x="0" y="0" width="656" height="162">
<path fill-rule="evenodd" clip-rule="evenodd" d="M0 0.664307H655.995V161.412H0V0.664307Z" fill="white"/>
</mask>
<g mask="url(#mask1_5496_16978)">
<path fill-rule="evenodd" clip-rule="evenodd" d="M207.1 122.01H223.755V74.3346H207.1V122.01ZM225.128 59.693C225.128 65.091 220.826 69.3925 215.427 69.3925C210.028 69.3925 205.727 65.091 205.727 59.693C205.727 54.2934 210.212 49.9004 215.427 49.9004C220.826 49.9004 225.128 54.2934 225.128 59.693V59.693Z" fill="white"/>
<path fill-rule="evenodd" clip-rule="evenodd" d="M250.02 98.2173C250.02 104.898 253.589 108.74 258.989 108.74C264.295 108.74 267.773 104.807 267.773 99.0409V97.3021C267.773 91.538 264.295 87.6026 258.989 87.6026C253.589 87.6026 250.02 91.4464 250.02 98.2173M268.688 77.4455V74.3339H284.426V123.199C284.426 137.017 274.727 146.259 259.536 146.259C243.524 146.259 235.744 138.573 234.099 127.134L250.752 126.585C251.027 129.971 253.772 132.166 258.896 132.166C264.295 132.166 267.773 129.697 267.773 124.39V119.723C265.302 121.552 261.275 123.016 256.152 123.016C242.517 123.016 233.182 112.859 233.182 98.2173C233.182 83.4842 242.517 73.3271 256.152 73.3271C262.099 73.3271 266.309 75.3406 268.688 77.4455" fill="white"/>
<path fill-rule="evenodd" clip-rule="evenodd" d="M311.52 76.9881C313.442 75.2492 316.646 73.3273 322.318 73.3273C333.392 73.3273 340.895 80.0066 340.895 92.2703V122.009H324.24V96.2971C324.24 91.3551 322.044 88.8823 318.017 88.8823C314.083 88.8823 311.52 91.5381 311.52 96.387V122.009H294.865V50.9082H311.52V76.9881Z" fill="white"/>
<path fill-rule="evenodd" clip-rule="evenodd" d="M372.381 101.969C372.381 106.179 375.584 108.101 378.787 108.101C380.616 108.101 381.714 107.917 382.721 107.735V122.467C380.526 122.741 378.694 123.016 374.669 123.016C363.322 123.016 355.636 117.801 355.726 106.362L355.817 88.6091H347.216V74.3353H355.91L356 58.96H372.655L372.564 74.3353H382.721V88.6091H372.472L372.381 101.969Z" fill="white"/>
<path fill-rule="evenodd" clip-rule="evenodd" d="M408.348 76.9881C410.27 75.2492 413.473 73.3273 419.146 73.3273C430.218 73.3273 437.723 80.0066 437.723 92.2703V122.009H421.068V96.2971C421.068 91.3551 418.871 88.8823 414.846 88.8823C410.911 88.8823 408.348 91.5381 408.348 96.387V122.009H391.693V50.9082H408.348V76.9881Z" fill="white"/>
<path fill-rule="evenodd" clip-rule="evenodd" d="M463.535 98.2173C463.535 104.807 467.104 108.74 472.504 108.74C478.085 108.74 481.561 104.807 481.561 98.2173C481.561 91.538 478.085 87.6026 472.504 87.6026C467.104 87.6026 463.535 91.538 463.535 98.2173M498.401 98.2173C498.401 113.133 487.601 123.016 472.504 123.016C457.496 123.016 446.697 113.133 446.697 98.2173C446.697 83.3012 457.496 73.3271 472.504 73.3271C487.601 73.3271 498.401 83.3012 498.401 98.2173" fill="white"/>
<path fill-rule="evenodd" clip-rule="evenodd" d="M536.199 122.009V118.715C534.278 121.094 530.893 123.016 525.036 123.016C513.872 123.016 507.282 116.795 507.282 104.897V74.3342H523.937V100.78C523.937 105.446 525.402 107.459 529.429 107.459C533.179 107.459 535.284 105.356 535.284 100.963V74.3342H551.938V122.009H536.199Z" fill="white"/>
<path fill-rule="evenodd" clip-rule="evenodd" d="M601.177 88.9759L584.522 89.8911C584.613 87.237 583.606 85.0405 580.769 85.0405C578.574 85.0405 577.293 86.0473 577.293 87.8777C577.293 90.347 580.405 90.9877 585.528 92.3605C594.68 94.8332 601.543 97.7601 601.543 106.453C601.543 116.335 594.406 123.016 581.044 123.016C567.96 123.016 560.821 117.8 559.906 107.368L576.653 106.453C576.561 109.107 577.568 111.303 581.044 111.303C583.606 111.303 584.796 110.114 584.796 108.192C584.796 106.453 583.789 105.538 577.934 103.984C567.319 101.329 560.638 98.9499 560.638 88.9759C560.638 79.2748 568.326 73.3276 580.769 73.3276C593.763 73.3276 600.444 79.7324 601.177 88.9759" fill="white"/>
<path fill-rule="evenodd" clip-rule="evenodd" d="M625.707 92.9098H639.157C638.976 88.427 636.871 85.5899 632.478 85.5899C628.361 85.5899 625.981 88.427 625.707 92.9098V92.9098ZM625.707 102.701C625.707 107.002 627.719 110.205 632.661 110.205C635.955 110.205 637.969 108.833 638.793 106.545L655.537 107.368C653.983 117.069 644.374 123.017 633.118 123.017C618.019 123.017 607.954 113.5 607.954 98.2163C607.954 82.9358 618.019 73.3262 632.661 73.3262C646.479 73.3262 655.997 81.9291 655.997 97.3027V102.701H625.707Z" fill="white"/>
<path fill-rule="evenodd" clip-rule="evenodd" d="M-0.000244141 30.028V61.9668C-0.000244141 65.393 3.27284 67.874 6.57256 66.9455C9.8706 66.017 13.1437 68.4964 13.1437 71.9242V72.9975C13.1437 75.3138 11.6028 77.3472 9.37307 77.9745L3.77204 79.5503C1.54062 80.1776 -0.000244141 82.2127 -0.000244141 84.529V85.6023C-0.000244141 89.0301 3.27284 91.5095 6.57256 90.581L28.6605 84.3693C31.9602 83.4408 35.2333 85.9201 35.2333 89.3463V90.4196C35.2333 92.7375 33.6924 94.7709 31.461 95.3983L3.77204 103.186C1.54062 103.815 -0.000244141 105.848 -0.000244141 108.166V109.238C-0.000244141 112.666 3.27284 115.145 6.57256 114.216L50.7501 101.791C54.0481 100.864 57.3212 103.344 57.3212 106.77V107.843C57.3212 110.16 55.7804 112.195 53.5506 112.822L3.77204 126.821C1.54062 127.45 -0.000244141 129.484 -0.000244141 131.802V132.873C-0.000244141 136.301 3.27284 138.78 6.57256 137.852L72.838 119.215C76.1377 118.287 79.4108 120.766 79.4108 124.194V125.265C79.4108 127.583 77.87 129.618 75.6385 130.246L3.77204 150.458C1.54062 151.086 -0.000244141 153.119 -0.000244141 155.437C-0.000244141 159.399 3.78868 162.263 7.59924 161.181L83.4161 139.687C87.2599 138.597 89.914 135.088 89.914 131.093V9.60242C89.914 3.67525 84.2464 -0.609553 78.5439 1.00785L6.49601 21.4335C2.65217 22.5234 -0.000244141 26.0328 -0.000244141 30.028" fill="white"/>
</g>
</mask>
<g mask="url(#mask0_5496_16978)">
<rect y="-2" width="662" height="175" fill="url(#paint0_linear_5496_16978)"/>
<rect y="-2" width="662" height="175" fill="url(#paint1_linear_5496_16978)"/>
</g>
</g>
<defs>
<linearGradient id="paint0_linear_5496_16978" x1="18.5" y1="12" x2="665.5" y2="161" gradientUnits="userSpaceOnUse">
<stop stop-color="#FC9C7F"/>
<stop offset="1" stop-color="#FF59A6"/>
</linearGradient>
<linearGradient id="paint1_linear_5496_16978" x1="0" y1="-2" x2="662" y2="173" gradientUnits="userSpaceOnUse">
<stop stop-color="#FF2692"/>
<stop offset="1" stop-color="#FC895B"/>
</linearGradient>
<clipPath id="clip0_5496_16978">
<rect width="656" height="162" fill="white"/>
</clipPath>
</defs>
</svg>
