<svg xmlns="http://www.w3.org/2000/svg" width="326" height="120" fill="none" xmlns:v="https://vecta.io/nano"><g clip-path="url(#A)" fill="#959595"><path d="M0 74.958h15.302V49.907h4.813c10.2 0 17.131-1.16 22.52-4.352 5.867-3.483 10.009-9.672 10.009-18.28a20.33 20.33 0 0 0-2.915-10.99 20.19 20.19 0 0 0-8.349-7.677c-5.482-2.9-12.412-3.676-20.688-3.676H0v70.026zm15.302-37.529V18.376H20.5c5.388 0 9.142.19 11.932 1.45 3.176 1.452 4.91 4.256 4.91 8.222a8.26 8.26 0 0 1-1.065 4.45 8.2 8.2 0 0 1-3.266 3.19c-2.6 1.452-6.064 1.741-12.127 1.741h-5.582zm84.671 17.604a39.32 39.32 0 0 0 .284-5.03c0-15.958-10.97-23.695-22.616-23.695-13.088 0-24.825 9.865-24.825 25.05 0 14.894 11.263 24.663 26.85 24.663 6.256 0 13.378-1.45 17.997-4.352V59.385c-4.73 3.279-10.319 5.095-16.073 5.223-6.736 0-12.126-2.998-13.762-9.575h32.145zm-32.24-9.285c1.25-5.416 5.196-8.22 9.72-8.22 4.715 0 8.47 3.094 9.335 8.22H67.733zm41.315 29.21h14.628V42.943c2.597-2.031 6.159-3.966 9.912-3.966.933-.057 1.867.095 2.733.447s1.642.893 2.271 1.585c1.155 1.353 1.637 3.094 1.637 6.673v27.276h14.628V45.264c0-6.867-1.251-11.026-4.138-14.12A17.04 17.04 0 0 0 145 27.458a16.97 16.97 0 0 0-6.696-1.15 23.11 23.11 0 0 0-14.628 5.517l-.189-.095v-4.36h-14.439v47.588zm59.051 0h14.629v-35.4h10.971V27.371h-10.971v-8.028c0-4.062.961-6.964 5.489-6.964a30.27 30.27 0 0 1 6.353.872V1.354A23.28 23.28 0 0 0 186.481 0c-4.716 0-10.01 1.16-13.378 4.449-3.657 3.482-5.004 9.188-5.004 15.862v7.06h-6.737v12.187h6.74v35.4h-.003zm43.403-23.793c-.051-1.581.215-3.157.782-4.634a11.81 11.81 0 0 1 2.519-3.96c1.094-1.136 2.406-2.04 3.857-2.658a11.69 11.69 0 0 1 4.583-.935 11.7 11.7 0 0 1 4.583.935 11.75 11.75 0 0 1 3.857 2.658 11.81 11.81 0 0 1 2.519 3.96c.567 1.477.833 3.053.782 4.634.051 1.581-.215 3.157-.782 4.634a11.81 11.81 0 0 1-2.519 3.96c-1.094 1.136-2.406 2.041-3.857 2.659a11.69 11.69 0 0 1-4.583.935 11.7 11.7 0 0 1-4.583-.935 11.75 11.75 0 0 1-3.857-2.659 11.81 11.81 0 0 1-2.519-3.96c-.567-1.477-.833-3.053-.782-4.634zm-14.628 0c0 14.024 11.264 24.857 26.369 24.857s26.37-10.833 26.37-24.857-11.264-24.857-26.37-24.857-26.367 10.832-26.367 24.856l-.002.001zm58.947 23.793h14.627V1.063h-14.627v73.895zm55.645-2.514v2.514h14.34V1.063h-14.629v26.89l-.189.094a22.37 22.37 0 0 0-8.951-1.74c-14.146 0-25.021 10.832-25.021 25.823 0 14.605 10.297 23.89 22.231 23.89 4.29.025 8.486-1.257 12.03-3.675l.19.095-.001.004zm-.289-10.833a15.43 15.43 0 0 1-8.181 2.418c-7.218 0-11.263-5.517-11.263-12.574 0-7.157 4.138-12.96 11.837-12.96 2.642.012 5.245.641 7.603 1.838V61.61l.004.001zm-20.099 41.876a54.55 54.55 0 0 1 6.952.342 13.43 13.43 0 0 0 5.894-.566c1.052-.498 1.207-.907.993-2.566-.336-2.587-1.271-2.915-8.192-2.853h-6.301c-.265-.03-1.291-.086-2.307-.134-.812-.019-1.62-.118-2.413-.296-.338-.119-1.107.364-1.746 1.098-.731.84-.982.932-.702.258.563-1.35.251-1.487-3.438-1.523a7.25 7.25 0 0 1-3.251-.49 6.51 6.51 0 0 0-2.6-.413 6.5 6.5 0 0 0-2.551.652c-.147.31-.553.229-.948-.19a3.65 3.65 0 0 0-2.482-.625 10.71 10.71 0 0 1-3.059-.268 5.65 5.65 0 0 0-2.826.101c-.867.267-1.473.292-1.362.058s-.604-.372-1.517-.313a4.31 4.31 0 0 1-2.16-.288c-.554-.249-1.185-.268-1.754-.054a3.66 3.66 0 0 1-1.986.048c-.752-.322-2.977-.445-9.391-.509l-8.368-.479c-1.639-.26-3.311-.227-4.938.099a1.18 1.18 0 0 1-1.517-.163c-.259-.402-1.022-.503-1.81-.236a3.27 3.27 0 0 1-1.972.175 12.42 12.42 0 0 0-4.92-.247 6.95 6.95 0 0 1-2.574-.352c-.21-.118-.451-.171-.692-.153a1.24 1.24 0 0 0-.662.252 3.53 3.53 0 0 1-2.44-.02 14.38 14.38 0 0 0-3.898-.362c-1.075.078-5.745 0-10.331-.17s-10.086-.235-12.158-.144a25.7 25.7 0 0 1-4.906-.13c-4.397-.31-8.81-.31-13.207 0-.479.081-.97.062-1.441-.055a6.14 6.14 0 0 0-2.269.108 2.33 2.33 0 0 1-1.028.032 2.34 2.34 0 0 1-.943-.412c-.455-.453-.732-.31-.784.402-.049.642-.775 1.314-1.724 1.61-1.986.59-1.961.012.03-.688 1.834-.656.426-1.398-1.897-.996-.965.16-1.778.032-1.897-.3s-1.01-.303-1.899.016c-3.301 1.175-4.254 1.298-4.163.541.122-1.005-4.703-.752-5.192.274a.96.96 0 0 1-.582.493.96.96 0 0 1-.388.034c-.13-.015-.257-.058-.37-.124-.543-.257-.66-.623-.277-.87 1.078-.705-.173-.906-2.414-.393-.943.269-1.937.3-2.895.089-.491-.232-.857.038-.915.677-.052.566-.338.95-.603.82a1.04 1.04 0 0 1-.365-.482 1.05 1.05 0 0 1-.038-.603c.051-.573-.808-.764-2.818-.59a11.32 11.32 0 0 1-3.62-.092 6.32 6.32 0 0 0-2.756.109 3.65 3.65 0 0 1-2.667-.24c-.373-.392-.829-.283-1.089.262-.023.088-.064.17-.121.241a.65.65 0 0 1-1.025-.009 1.16 1.16 0 0 0-1.408-.256 2.31 2.31 0 0 1-.966.142c-.328-.022-.649-.114-.939-.269-.654-.316-1.165-.258-1.115.129s-.527.853-1.206 1.025c-1.075.276-1.141.202-.429-.5.746-.737.507-.833-2.279-.898a21.84 21.84 0 0 0-4.602.33c-.853.232-1.577.188-1.694-.1s-.378-.141-.579.281-.471.52-.58.202-.613-.487-1.102-.379a24.18 24.18 0 0 1-4.321-.122c-2.482-.242-3.435-.024-3.524.774-.086.847-.227.845-.623-.014-.523-1.136-2.615-1.643-3.058-.736-.136.29-.682.342-1.166.112a198.01 198.01 0 0 0-21.9.04 57.39 57.39 0 0 1-5.923.035 57.83 57.83 0 0 0-7.674.245 18.23 18.23 0 0 1-4.31.13c-1.208-.136-2.256-.023-2.38.243-.202.402-1.871.347-4.301-.151-1.082-.065-2.168.016-3.229.239-1.016.239-2.072.255-3.095.048-.532-.207-1.116-.237-1.666-.086a73.18 73.18 0 0 1-8.448.388c-8.344.1-10.14 1.002-9.84 4.96.285 3.768 3.39 4.112 24.767 2.77a47.52 47.52 0 0 0 7.588-.839.92.92 0 0 1 1.005-.102c.86.688 6.99.201 6.91-.543-.054-.501.12-.53.42-.069.471.722 21.841.507 24.72-.245a44.53 44.53 0 0 1 7.301-.085 34.5 34.5 0 0 0 7.286-.2 3.71 3.71 0 0 1 2.516.086c.666.316 1.304.295 1.467-.046s.649-.431 1.134-.202c1.388.66 4.759.332 4.526-.442-.121-.403.01-.376.32.066.583.839 8.034.79 9.359-.06.463-.298 1.04-.282 1.248.038s1.375.457 2.564.294a20.93 20.93 0 0 1 4.327-.059c1.195.135 2.225-.096 2.323-.525.093-.402.505-.432.853-.076.261.208.569.347.898.404s.665.032.981-.074c1.207-.354 1.78-.312 4.369.322a11.06 11.06 0 0 0 3.492-.097c1.289-.22 2.373-.175 2.472.1s1.207.363 2.458.202c3.621-.453 4.238-.783 4.136-2.213-.135-1.856.569-1.283 1.092.891l.424 1.758 2.032-1.005c1.301-.64 2.313-.704 2.816-.175.446.46.927.545 1.096.187s.65-.278 1.05.128c.152.158.349.266.563.31a1.09 1.09 0 0 0 .64-.063 1.07 1.07 0 0 0 .356-.247.95.95 0 0 1 .477-.327.94.94 0 0 1 .577.013.93.93 0 0 1 .334.198c2.605.594 5.28.817 7.947.663 4.07.013 7.538.075 7.751.141a42.31 42.31 0 0 0 8.822-.2c.193-.082.401-.119.61-.11a1.39 1.39 0 0 1 .597.166 51.13 51.13 0 0 0 8.062.422l11.824.064a30.18 30.18 0 0 1 5.155.302 2.66 2.66 0 0 0 1.732-.29c.616-.3 1.328-.307 1.525-.016.057.078.129.144.213.192s.176.08.272.09.193.002.285-.027.178-.076.25-.14a2.25 2.25 0 0 1 .912-.132 2.24 2.24 0 0 1 .888.245 3.58 3.58 0 0 0 2.321.106 15.3 15.3 0 0 1 4.852 0 7.46 7.46 0 0 0 3.947-.123c.164-.346.434-.32.675.061.966.498 2.067.67 3.138.491 1.519-.079 2.537-.453 2.289-.84-.119-.249-.182-.521-.185-.797s.054-.549.167-.801c.378-.805.495-.73.94.519.539 1.516 1.48 2.186 1.882 1.339.141-.3.739-.15 1.324.332.638.527 1.207.575 1.424.121.201-.423.443-.519.549-.219.201.579 4.904.909 6.668.466.608-.168 1.25-.168 1.857 0 1.788.761 6.531.974 6.463.29-.046-.445.219-.475.622-.068.899.913 3.395.861 3.298-.069-.046-.444.191-.652.554-.479.085.038.161.093.224.162a.7.7 0 0 1 .143.235c.031.087.045.18.039.273s-.031.183-.073.266c-.173.364.031.603.475.561.214-.034.406-.15.536-.323s.188-.389.162-.604c-.046-.533.223-.543.72-.028a1.29 1.29 0 0 0 .634.445c.251.081.522.082.774.005a1.3 1.3 0 0 1 .746-.006c.244.072.461.214.624.408a2.98 2.98 0 0 0 1.247.399c.44.038.883-.022 1.296-.177.659-.266 1.377-.348 2.078-.236.816.775 3.419.889 3.773.165.229-.48.742-.472 1.324.018 1.217 1.026 6.181 1.344 6.617.423.173-.364.521-.35.765.03a1.53 1.53 0 0 0 .764.43c.292.066.596.045.875-.06s.584-.124.875-.058.556.215.763.43c.257.403.577.423.75.061s.724-.433 1.207-.202a6.01 6.01 0 0 0 2.182.407zm-162.653-5.695c-.282.115-.68-.283-.904-.909-.305-.867-.201-.913.507-.201.501.503.678.998.397 1.11zm9.552-1.388c-.283.115-.68-.285-.903-.909-.308-.867-.201-.913.505-.201.501.503.678.998.398 1.11zm3.603-.251c-1.286.28-1.296.24-.085-.374 1.288-.646 1.897-.712 1.644-.181a3.81 3.81 0 0 1-1.559.555zm3.303 1.237c-.485-.231-.614-.561-.302-.772s.644-.324.79-.256.264.378.298.772-.306.485-.786.256zm120.577 1.217a.63.63 0 0 1-.36-.373.62.62 0 0 1-.036-.263.63.63 0 0 1 .076-.254.67.67 0 0 1 .88-.293.67.67 0 0 1 .327.868c-.05.124-.139.229-.253.299a.63.63 0 0 1-.381.091c-.088-.007-.175-.032-.253-.074zm31.446 20.035c-.218-.338-.773-.153-1.278.424-.68.777-2.444.777-7.408 0-6.344-1.006-6.525-1.064-6.807-2.569-.304-1.627.459-2.635 1.163-1.538.243.38.826.187 1.361-.449s1.272-.951 1.722-.736a2.84 2.84 0 0 0 1.972-.175c.633-.292 1.255-.36 1.329-.147 1.238.25 2.514.245 3.75-.014 3.842-.445 7.482.917 6.768 2.532a4.38 4.38 0 0 0-.257 1.954 1.28 1.28 0 0 1-.264.733c-.162.211-.386.367-.64.445s-.526.076-.779-.006a1.28 1.28 0 0 1-.632-.454zm-33.955-7.443c-.935-.06-1.621.232-1.579.67.026.081.026.168 0 .248a.41.41 0 0 1-.146.201.4.4 0 0 1-.237.076c-.085 0-.167-.028-.236-.078-.511-.242-.614 0-.386.929.342 1.374 2.037 2.064 3.896 1.583 1.068-.274 1.316-.662 1.181-1.839-.189-1.653-.189-1.653-2.493-1.8v.01zm.28 2.295c-.083-.035-.159-.087-.222-.152a.66.66 0 0 1-.144-.227c-.033-.084-.048-.174-.045-.265a.67.67 0 0 1 .063-.261c.173-.362.402-.553.559-.475s.304.439.348.906-.203.635-.559.464v.01zm-4.779 1.408c-1.082.276-1.177.141-.66-.947.346-.726.33-1.408-.032-1.571s-.35-.483.028-.728c.978-.63 1.81.048 1.326 1.074-.23.485-.065.867.352.821 1.265-.161.42.969-1.014 1.333v.018zm-2.237-1.917c-.507.513-.754.421-1.161-.442s-.645-.825-1.19.322c-.517 1.09-.713 1.152-.833.271-.059-.26-.056-.53.009-.789a1.69 1.69 0 0 1 .365-.699c.308-.201.139-.527-.402-.785a1 1 0 0 0-.393-.11 1.01 1.01 0 0 0-.404.056c-.13.046-.249.118-.349.212a.99.99 0 0 0-.236.333c-.258.543-.119.905.334.863s.631.225.458.589c-.45.948-1.623.117-1.901-1.349-.215-1.141-.402-1.245-1.54-.843-.309.13-.645.183-.98.153a2.05 2.05 0 0 1-.937-.324c-.352-.354-.755-.364-.916-.028-.344.726.749 3.146 1.107 2.454.147-.284.416.122.571.865.294 1.392 3.291 2.673 3.142 1.343-.038-.348.726-.424 1.72-.175 1.852.467 4.87-.889 4.425-1.985-.133-.336-.541-.304-.889.05v.018zm-6.222-1.329c-.039.082-.094.154-.162.214a.68.68 0 0 1-.233.135c-.086.028-.177.038-.268.03a.67.67 0 0 1-.258-.077c-.364-.171-.358-.485.014-.733s.759-.38.921-.301.157.352-.014.714v.018zm-6.235-.698c1.587.092 1.609.058.402-.549-.329-.18-.702-.261-1.076-.235a1.95 1.95 0 0 0-1.032.384 1.08 1.08 0 0 1-.745.358 1.09 1.09 0 0 1-.782-.27c-.74-.484-1.615-.718-2.498-.668-.84.058-1.679-.13-2.414-.541-.768-.722-1.219.225-.742 1.563s-.26 1.016-1.428-.583c-.712-.98-.952-.958-1.469.132-.567 1.189-.388 1.362 2.09 2.066 1.895.539 2.489.911 1.972 1.235s-.238.503 1.116.604c2.714.217 4.309-.535 4.626-2.181.23-1.102.688-1.412 1.988-1.339l-.008.024zm-5.134 2.227c-.619-.051-.927-.626-.766-1.439.308-1.559 1.076-1.382 1.507.346.231.875.052 1.139-.733 1.074l-.008.019zm6.479 1.408c-1.283.454-3.107-1.256-2.562-2.414.269-.565.975-.646 1.883-.217.786.374 1.152.889.804 1.122s-.318.589.105.79c.553.256.485.453-.221.707l-.009.012zm-11.192-1.32c-.273.09-.562.122-.848.094a2.08 2.08 0 0 1-.815-.257l-1.563-.927c-.372-.219-.33-.897.117-1.501 1.116-1.506.37-1.701-6.658-1.726a23.44 23.44 0 0 1-6.224-.468c-.09-.256-.585.018-1.155.635s-1.18.805-1.426.427c-.557-.855-4.413-1.624-4.328-.863.04.358-.364.372-.946.032-.71-.414-1.15-.213-1.466.672-.25.696-.441.875-.425.402.043-1.094-1.325-1.943-2.027-1.261-.262.253-1.298.179-2.39-.173-1.117-.355-2.282-.534-3.454-.531-1.492.088-1.512.133-.991 2.086.454 1.7.432 1.792-.149.625-.336-.781-.87-1.461-1.549-1.973s-1.479-.837-2.323-.945c-1.036-.161-1.187 0-.724.742.402.64-.214.603-1.873-.113-1.408-.603-1.931-.68-1.217-.171.311.194.552.48.691.819s.167.712.081 1.068c-.374.785-.555.771-.857-.072-.752-1.021-1.771-1.814-2.946-2.291-1.935-.922-2.881-.994-3.822-.3-.672.495-1.473.587-1.724.201-.473-.726-3.906-.839-5.154-.171-.47.252-.603.119-.374-.364.274-.579-.074-.7-1.492-.523-1.024.127-1.971-.074-2.12-.453s-.489.137-.755 1.125-.734 1.685-1.032 1.547c-.327-.157-.515.05-.468.517s-.348.575-.891.315c-.765-.36-.724-.639.191-1.313 1.162-.857 1.054-2.213-.141-1.772-.453.127-.934.111-1.378-.046-1.901-.68-3.95-.574-4.331.223-.229.483-.583.563-.828.187-.604-.921-3.854-1.434-3.764-.593.044.402-.585.39-1.432-.013a3.82 3.82 0 0 0-2.655-.261c-.351.119-.726.15-1.092.092s-.713-.204-1.01-.426c-.533-.436-1.099-.493-1.276-.123s-.828.419-1.434.131a2.98 2.98 0 0 0-1.786-.292c-.351.141-.739.163-1.104.063a34.23 34.23 0 0 0-8.791-.525c-2.689.046-5.62-.014-6.567-.137s-3.999-.241-6.875-.268l-11.383-.215c-15.07-.402-19.14-.201-18.772.962.296.929.177.895-.643-.183-1.322-1.74-1.773-1.877-1.901-.582-.08.805-.403.823-1.308.083a2.31 2.31 0 0 0-1.157-.559c-.431-.074-.873-.025-1.277.142-.62.324-1.34.396-2.011.202-1.448-.69-11.124-.616-11.047.082.042.38-.252.463-.636.181-1.154-.845-3.963-.975-3.88-.179.044.402-.25.364-.692-.105-.742-.513-1.653-.72-2.543-.577a60.27 60.27 0 0 1-8.448-.537 40.27 40.27 0 0 0-7.193-.452 11.91 11.91 0 0 1-3.259.303c-1.48 0-2.836.34-2.949.749s-.508.527-.893.241a3.57 3.57 0 0 0-2.512.139c-.982.35-1.991.382-2.184.074s-1.125-.09-1.994.459c-1.207.76-1.484 1.207-1.046 1.651.328.34.038.384-.644.103-1.05-.437-1.142-.358-.617.521.46.77.96.863 1.94.366 1.16-.59 1.176-.513.146.625-.453.601-1.087 1.04-1.81 1.25-.348-.025-.511.462-.352 1.054.233.891.903 1.206 3.491 1.697 1.77.33 3.28.286 3.38-.098s.633-.314 1.217.171 1.178.561 1.364.167c.172-.362.514-.413.716-.103s1.005.382 1.71.145 1.407-.201 1.514.09.348.202.521-.16a.93.93 0 0 1 1.237-.264 31.63 31.63 0 0 0 8.41.231 24.34 24.34 0 0 1 2.983-.04 10.88 10.88 0 0 0 4.011-.873c1.22-.531 1.788-.658 1.282-.282-.769.57-.709.628.38.369.752-.181 1.384-.067 1.502.269s.588.201 1.044-.247a1.68 1.68 0 0 1 1.712-.403 1.62 1.62 0 0 0 1.641-.333c.165-.189.387-.32.632-.374a1.16 1.16 0 0 1 .73.078c.819.615 15.366.577 16.004-.044a1.38 1.38 0 0 1 .68-.19 1.39 1.39 0 0 1 .685.171 7.4 7.4 0 0 0 3.251.027c1.291-.226 2.265-.244 2.168-.045s.805.332 2.086.288 2.316-.272 2.39-.529c.362-1.237.805-1.442 1.239-.559.344.714 2.346.995 6.877.969l9.601.067c11.092.362 28.312.225 28.801-.228.211-.201.666-.028 1.058.403.459.489.805.307 1.038-.545.201-.723.69-1.117 1.134-.906.491.234.475.672-.038 1.167-.666.646-.603.75.372.547 1.05-.118 2.112-.063 3.144.163a11.05 11.05 0 0 0 3.997-.064c1.082-.254 2.251-.151 2.488.219.288.445.417.344.354-.278s-.736-1.098-1.822-1.309c-1.491-.294-1.563-.42-.527-.917.774-.374.965-.69.537-.893a.79.79 0 0 1-.361-.439c-.061-.186-.052-.388.027-.567.185-.39.618.024.992.953a3.23 3.23 0 0 0 .799 1.175 3.21 3.21 0 0 0 1.228.716c.751.133 1.346.499 1.318.805s1.142.559 2.556.547 2.927.012 3.309.054l2.639.292c1.055.119 1.895-.159 1.845-.604-.06-.533.308-.488 1.05.129.638.531 1.257.712 1.408.402s.925-.227 1.71.145c1.571.749 3.657.109 3.319-1.018-.115-.38.249-.257.804.276 1.022.968 1.022.968.274-.499-.422-.827-.457-1.327-.08-1.15.58.225 1.189.365 1.81.414.855.07.935.294.318.891-.982.949-.457 1.273 2.576 1.591 1.207.127 2.358-.125 2.563-.555.495-1.044 1.903-.885 3.661.402.768.565 1.748.843 2.122.604a1.2 1.2 0 0 1 1.408.301c.402.413.847.479 1.006.145.267-.565 2.967-.474 3.864.129.237.159.509.022.682-.34s.465-.485.736-.302c1.177.805 2.048.775 1.949-.05-.066-.539.165-.581.604-.117a5.89 5.89 0 0 0 3.118.849c2.106.091 2.353-.064 2.053-1.281-.314-1.275-.259-1.251.71.3 1.006 1.609 1.278 1.675 6.345 1.46 3.705-.159 5.382-.551 5.588-1.31a1.62 1.62 0 0 1 .398-.736 1.61 1.61 0 0 1 .714-.438c.471-.053.688.096.509.352-.746 1.052-1.145 2.939-.499 2.357a.65.65 0 0 1 .401-.227c.157-.024.317.011.45.098a.65.65 0 0 1 .213.226.84.84 0 0 0 1.157.217 3.6 3.6 0 0 1 2.307-.016c.365.131.756.173 1.14.124a2.47 2.47 0 0 0 1.072-.408c.363-.458.296-.617-.162-.412l-.009.012zm-192.665-2.41a2.57 2.57 0 0 1-.984-.542c-.284-.251-.509-.562-.659-.91-.244-.78-.187-.877.201-.348.117.198.307.342.53.401a.88.88 0 0 0 .659-.093c.432-.29.8-.053 1.106.71.39.971.262 1.09-.853.782zm114.324-2.162a1.37 1.37 0 0 1-.649-.098 1.38 1.38 0 0 1-.53-.389c-.402-.426-.201-.497.537-.189.624.256.929.575.642.676zm41.01 2.267c-.402-.402-.694-.877-.631-1.006s.537-.042 1.019.189.781.698.636 1.006-.618.217-1.018-.189h-.006zm8.223-.354c-.402.402-.847.535-.933.298s.173-.658.573-.916c1.064-.672 1.295-.269.366.618h-.006zm14.328 1.474c-.451-.456-.706-1.084-.565-1.38.366-.77.672-.496 1.054.946.291 1.078.217 1.144-.487.434h-.002z"/></g><defs><clipPath id="A"><path fill="#fff" d="M0 0h326v120H0z"/></clipPath></defs></svg>