<svg width="96" height="96" viewBox="0 0 96 96" fill="none" xmlns="http://www.w3.org/2000/svg">
<path d="M48.08 91.3547C40.1038 91.3441 32.4574 88.1702 26.8184 82.5292C21.1793 76.8883 18.0079 69.2409 18 61.2647V41.8847C18.0053 37.962 19.5666 34.2017 22.3413 31.4289C25.116 28.6561 28.8773 27.0973 32.7999 27.0947C33.2099 27.0947 33.61 27.0947 34.01 27.1447C36.4718 25.4405 39.3959 24.5297 42.39 24.5347C42.71 24.5347 43.04 24.5347 43.39 24.5347C44.4447 23.7772 45.5945 23.1619 46.8099 22.7047V19.1847C46.7586 17.2094 47.1033 15.2439 47.8237 13.4039C48.5442 11.564 49.6257 9.88698 51.0046 8.47174C52.3836 7.0565 54.032 5.9317 55.8525 5.1637C57.6731 4.39569 59.629 4 61.605 4C63.5809 4 65.5368 4.39569 67.3574 5.1637C69.178 5.9317 70.8264 7.0565 72.2053 8.47174C73.5842 9.88698 74.6658 11.564 75.3862 13.4039C76.1067 15.2439 76.4514 17.2094 76.4 19.1847V42.0347C77.5882 44.5978 78.2024 47.3895 78.2 50.2147V61.2647C78.1894 69.247 75.0117 76.8989 69.3645 82.5404C63.7173 88.1819 56.0623 91.352 48.08 91.3547Z" fill="white"/>
<path d="M68.5701 43.9948V19.2148C68.5701 17.3583 67.8326 15.5778 66.5199 14.2651C65.2071 12.9523 63.4266 12.2148 61.5701 12.2148C59.7136 12.2148 57.9331 12.9523 56.6204 14.2651C55.3076 15.5778 54.5701 17.3583 54.5701 19.2148V30.0848C53.0073 31.6537 51.0037 32.7094 48.826 33.1113C46.6484 33.5133 44.4 33.2425 42.3801 32.3348C41.9203 33.1344 41.307 33.8353 40.5754 34.3971C39.8439 34.9589 39.0085 35.3706 38.1173 35.6085C37.2261 35.8464 36.2967 35.9058 35.3824 35.7833C34.4682 35.6609 33.5873 35.3589 32.7902 34.8948C30.9336 34.8948 29.1531 35.6323 27.8403 36.9451C26.5276 38.2578 25.7902 40.0383 25.7902 41.8948V61.2748C25.7273 64.2411 26.2572 67.19 27.3489 69.9487C28.4406 72.7075 30.0721 75.2205 32.1477 77.3405C34.2233 79.4605 36.7011 81.1449 39.4362 82.2947C42.1712 83.4446 45.1082 84.0369 48.0751 84.0369C51.042 84.0369 53.979 83.4446 56.714 82.2947C59.449 81.1449 61.927 79.4605 64.0026 77.3405C66.0781 75.2205 67.7096 72.7075 68.8013 69.9487C69.893 67.19 70.4229 64.2411 70.3601 61.2748V50.2148C70.3679 48.0134 69.7468 45.8554 68.5701 43.9948ZM61.5701 16.6148C62.2579 16.6175 62.9167 16.8926 63.4021 17.3799C63.8875 17.8672 64.1602 18.527 64.1602 19.2148V39.9148C63.487 39.5511 62.7803 39.2531 62.05 39.0248L58.9701 38.0948V36.5848V19.2148C58.9727 18.5244 59.2488 17.863 59.738 17.3757C60.2272 16.8884 60.8896 16.6148 61.5801 16.6148H61.5701ZM51.9701 33.9848C52.6597 33.9848 53.321 34.2587 53.8086 34.7463C54.2962 35.2339 54.5701 35.8953 54.5701 36.5848V36.7548L49.7301 35.2948C49.9561 34.8972 50.2834 34.5666 50.6786 34.3365C51.0738 34.1065 51.5228 33.9851 51.9801 33.9848H51.9701ZM40.8901 37.2148C40.4165 39.2087 40.5531 41.299 41.2825 43.2142C42.0118 45.1294 43.3001 46.7811 44.9801 47.9548V48.4348C44.9391 49.0952 44.6478 49.7151 44.1656 50.1683C43.6835 50.6214 43.0468 50.8737 42.3851 50.8737C41.7235 50.8737 41.0866 50.6214 40.6045 50.1683C40.1223 49.7151 39.8312 49.0952 39.7902 48.4348V41.8848V39.3348C39.7902 38.9181 39.8912 38.5076 40.0845 38.1384C40.2778 37.7692 40.5577 37.4523 40.9001 37.2148H40.8901ZM32.7902 39.2948C33.4771 39.2948 34.1357 39.5677 34.6215 40.0534C35.1072 40.5391 35.3801 41.1979 35.3801 41.8848V48.4348C35.3801 49.1244 35.1061 49.7857 34.6185 50.2733C34.1309 50.7609 33.4697 51.0348 32.7801 51.0348C32.0906 51.0348 31.4292 50.7609 30.9416 50.2733C30.4541 49.7857 30.18 49.1244 30.18 48.4348V41.8948C30.18 41.5517 30.248 41.212 30.3799 40.8952C30.5118 40.5784 30.7052 40.291 30.9487 40.0493C31.1923 39.8076 31.4812 39.6164 31.7989 39.4869C32.1167 39.3575 32.4569 39.2922 32.8 39.2948H32.7902ZM65.9601 61.2948C66.0165 63.6791 65.5955 66.0506 64.722 68.2698C63.8486 70.4891 62.5403 72.5112 60.8739 74.2175C59.2075 75.9237 57.2169 77.2795 55.0189 78.2052C52.8209 79.1309 50.46 79.6077 48.0751 79.6077C45.6901 79.6077 43.3293 79.1309 41.1313 78.2052C38.9334 77.2795 36.9426 75.9237 35.2762 74.2175C33.6099 72.5112 32.3016 70.4891 31.4281 68.2698C30.5546 66.0506 30.1337 63.6791 30.1901 61.2948V54.9548C32.0583 53.8677 34.1983 53.3373 36.358 53.4258C38.5177 53.5144 40.6072 54.2184 42.3801 55.4548C44.0026 55.4552 45.5748 54.8918 46.8279 53.8613C48.081 52.8307 48.9372 51.3968 49.2501 49.8048L57.4401 52.2848C57.6448 52.3441 57.8569 52.3744 58.0701 52.3748C58.5947 52.3711 59.1008 52.18 59.4969 51.836C59.8931 51.492 60.1533 51.0177 60.2306 50.4987C60.3078 49.9798 60.197 49.4503 59.9182 49.0059C59.6394 48.5614 59.2109 48.2312 58.7101 48.0748L49.1401 45.1748C47.7742 44.7525 46.6115 43.8423 45.8738 42.6177C45.136 41.393 44.8749 39.9397 45.1401 38.5348L45.7001 38.7048L46.55 38.9548L60.7902 43.2648C62.3246 43.717 63.6628 44.6713 64.5901 45.9748L64.6501 46.0548C65.5066 47.2764 65.9641 48.7329 65.9601 50.2248V61.2948Z" fill="#3A3A4E"/>
<path d="M57.28 54.8346C53.7766 53.7821 49.9986 54.1616 46.7744 55.8899C43.5503 57.6182 41.1429 60.5543 40.08 64.0546C39.9937 64.331 39.9631 64.6218 39.9899 64.9101C40.0167 65.1984 40.1004 65.4785 40.2362 65.7342C40.372 65.99 40.5571 66.2163 40.7809 66.4C41.0047 66.5837 41.2628 66.7213 41.5401 66.8046C41.7484 66.8632 41.9635 66.8935 42.1799 66.8946C42.6526 66.8958 43.113 66.7446 43.4931 66.4636C43.8731 66.1826 44.1526 65.7868 44.2901 65.3346C45.0133 62.9489 46.6536 60.9477 48.851 59.7703C51.0483 58.5928 53.6231 58.3354 56.01 59.0546C56.5696 59.223 57.1732 59.1622 57.688 58.8856C58.2028 58.609 58.5866 58.1393 58.755 57.5796C58.9234 57.02 58.8626 56.4165 58.5859 55.9017C58.3093 55.3869 57.8396 55.0031 57.28 54.8346Z" fill="#3A3A4E"/>
</svg>
