<svg xmlns="http://www.w3.org/2000/svg" width="132" height="39" fill="none" xmlns:v="https://vecta.io/nano"><g clip-path="url(#A)"><path d="M124.037 19.704c1.36 0 2.474-.473 3.34-1.42s1.297-2.162 1.297-3.648-.432-2.691-1.297-3.617-1.98-1.389-3.34-1.389h-6.871c-.136 0-.246.115-.246.257v9.559c0 .142.11.257.246.257h6.871zM114.003 7.198c0-.169.13-.305.291-.305h9.743c1.38 0 2.649.351 3.806 1.053s2.071 1.644 2.742 2.824 1.007 2.472 1.007 3.877a7.72 7.72 0 0 1-1.472 4.594c-.921 1.286-2.083 2.202-3.489 2.748-.146.057-.202.245-.115.383l5.426 8.576c.039.082.058.143.058.183s-.019.082-.058.122-.098.061-.176.061h-2.741c-.137 0-.253-.061-.351-.183l-5.382-8.553c-.045-.072-.122-.116-.204-.116h-5.922c-.136 0-.246.115-.246.257v8.29c0 .168-.131.305-.293.305h-2.333c-.161 0-.291-.137-.291-.305V7.198zm-16.238 0c0-.169.131-.305.292-.305h2.334c.161 0 .292.137.292.305v21.11c0 .142.11.257.246.257h9.876c.16 0 .29.137.29.305v2.137c0 .168-.13.305-.29.305H98.057c-.161 0-.292-.137-.292-.305V7.198zM87.469 19.713c1.361 0 2.474-.473 3.34-1.419s1.298-2.162 1.298-3.648-.433-2.691-1.298-3.617-1.98-1.389-3.34-1.389h-6.871c-.136 0-.247.115-.247.258v9.557c0 .142.111.258.247.258h6.871zM77.434 7.198c0-.169.131-.305.292-.305h9.743c1.38 0 2.65.351 3.806 1.053s2.071 1.644 2.742 2.824 1.006 2.472 1.006 3.877c0 1.384-.335 2.676-1.006 3.877a7.75 7.75 0 0 1-2.742 2.869c-1.157.713-2.426 1.068-3.806 1.068h-6.871c-.136 0-.247.115-.247.258v8.289c0 .168-.13.305-.292.305h-2.333c-.16 0-.292-.137-.292-.305V7.198zM67.225 19.713c1.361 0 2.475-.473 3.34-1.419s1.299-2.162 1.299-3.648-.434-2.691-1.299-3.617-1.979-1.389-3.34-1.389h-6.87c-.137 0-.247.116-.247.259v9.556c0 .143.111.259.247.259h6.87zM57.191 35.739c0-.204.097-.305.292-.305h53.322c.193 0 .29.102.29.305v2.137c0 .203-.097.305-.29.305H57.483c-.195 0-.292-.102-.292-.305v-2.137zm0-28.541c0-.169.131-.305.292-.305h9.743a7.2 7.2 0 0 1 3.807 1.053c1.157.702 2.071 1.644 2.742 2.824s1.006 2.472 1.006 3.877c0 1.384-.335 2.676-1.006 3.877s-1.585 2.157-2.742 2.869a7.12 7.12 0 0 1-3.807 1.068h-6.87c-.136 0-.247.116-.247.258v8.289c0 .168-.131.305-.292.305h-2.334c-.161 0-.292-.137-.292-.305V7.198zm0-6.868c0-.203.097-.305.292-.305h53.322c.193 0 .29.102.29.305v2.137c0 .204-.097.305-.29.305H57.483c-.195 0-.292-.102-.292-.305V.33zM28.976 7.198c0-.169.131-.305.292-.305h5.309c.156 0 .263.081.321.244l5.87 21.243c.031.11.127.186.236.186h.33c.11 0 .206-.076.236-.186l5.87-21.243c.059-.163.165-.244.321-.244h5.309c.161 0 .292.137.292.305v23.809c0 .168-.131.305-.292.305h-2.334c-.161 0-.292-.137-.292-.305V9.898c0-.143-.111-.258-.247-.258h-.385c-.11 0-.207.076-.237.187l-5.87 21.242c-.058.163-.165.244-.321.244h-4.434c-.156 0-.263-.081-.321-.244l-5.87-21.242c-.03-.111-.127-.187-.237-.187h-.384c-.137 0-.247.116-.247.258v21.109c0 .168-.131.305-.292.305h-2.334c-.161 0-.292-.137-.292-.305V7.198zm-6.592-.305h2.334c.194 0 .292.102.292.305v23.809c0 .204-.098.305-.292.305h-2.334c-.195 0-.292-.102-.292-.305V7.198c0-.203.097-.305.292-.305zM.292 23.712h2.334c.194 0 .292.102.292.305.077 1.791.724 3.048 1.94 3.77s2.902 1.084 5.061 1.084c1.906 0 3.403-.371 4.492-1.114s1.633-1.796 1.633-3.159c0-.977-.194-1.735-.583-2.274s-1.041-.971-1.955-1.297-2.285-.641-4.113-.946c-2.062-.346-3.724-.778-4.988-1.297s-2.217-1.216-2.859-2.091-.963-2.004-.963-3.388c0-1.038.302-2.07.904-3.098s1.561-1.887 2.873-2.579 2.97-1.038 4.973-1.038 3.675.366 5.017 1.099 2.338 1.653 2.99 2.762 1.006 2.254 1.065 3.434c0 .204-.097.305-.292.305h-2.334c-.194 0-.292-.102-.292-.305a4.62 4.62 0 0 0-1.546-3.236c-.953-.875-2.489-1.313-4.609-1.313-2.1 0-3.598.387-4.492 1.16S3.5 12.204 3.5 13.303c0 .875.175 1.577.525 2.106s.972.967 1.867 1.313 2.217.671 3.967.977c2.139.366 3.845.789 5.119 1.267s2.256 1.16 2.946 2.045 1.036 2.081 1.036 3.587c0 1.404-.409 2.64-1.225 3.709s-1.911 1.888-3.282 2.457-2.883.855-4.536.855c-1.673 0-3.243-.239-4.711-.717s-2.689-1.287-3.661-2.427S.058 25.849 0 24.017c0-.203.097-.305.292-.305z" fill="#959595"/></g><defs><clipPath id="A"><path fill="#fff" d="M0 0h132v39H0z"/></clipPath></defs></svg>