<svg xmlns="http://www.w3.org/2000/svg" width="468" height="56" fill="none" xmlns:v="https://vecta.io/nano"><g clip-path="url(#A)" fill="#959595"><path d="M.95 50.59L0 55.29h466.27l.95-4.7H.95zm136.1-27.77h7v10h-7.41c-1.595.021-3.189-.106-4.76-.38a5.41 5.41 0 0 1-3-1.56c-.833-.989-1.373-2.191-1.56-3.47a31.99 31.99 0 0 1-.45-6v-4.94a35.45 35.45 0 0 1 .4-5.93A6.82 6.82 0 0 1 128.74 7a5.63 5.63 0 0 1 3.07-1.64 24.92 24.92 0 0 1 5.08-.36h4.05 2.86l3.84.08.9-5-5.4-.11h-5.88a25.86 25.86 0 0 0-8.18 1.08 11.28 11.28 0 0 0-4.95 3.15c-1.249 1.463-2.1 3.223-2.47 5.11a32.63 32.63 0 0 0-.66 6.9v5.39a32.17 32.17 0 0 0 .69 7.07c.375 1.869 1.222 3.611 2.46 5.06a10.88 10.88 0 0 0 4.84 3 24.74 24.74 0 0 0 7.79 1h9.16a3.17 3.17 0 0 0 2.8-1.21c.648-1.142.944-2.45.85-3.76V18.05h-11.53l-1.01 4.77zM174.06.109h-5.56v37.69h23.67l1.01-4.97h-19.12V.109zm-121.4 0H47.1v37.69h5.56V.109zm44.16 28.43L77.39.109h-4.93v37.69h5.56V9.529l19.32 28.27h5.04V.109h-5.56v28.43zm312.89 4.391a21.08 21.08 0 0 1-4.95-.47 5.57 5.57 0 0 1-3-1.8 7.79 7.79 0 0 1-1.58-3.66c-.314-2.024-.455-4.072-.42-6.12V17a42.27 42.27 0 0 1 .37-6.22 7.42 7.42 0 0 1 1.46-3.65 5.24 5.24 0 0 1 3-1.72 23.89 23.89 0 0 1 5-.42h2.17 2.35l2.3.05h1.91l1-5-5.48-.04h-4.18a28.54 28.54 0 0 0-7.39.82 10.12 10.12 0 0 0-4.85 2.81 11.74 11.74 0 0 0-2.67 5.24 33.73 33.73 0 0 0-.82 8.13v3.86a36.44 36.44 0 0 0 .74 7.92 11.5 11.5 0 0 0 2.58 5.22 10.64 10.64 0 0 0 4.87 3 26.54 26.54 0 0 0 7.6.93h3.6l5.3-.11 1-5-5.61.1-4.3.01zM358.83.109l-14.4 37.69H350l4-10.8h15.51l4 10.8h5.93L365 .109h-6.17zm-3.18 22.13l6-16.52 6 16.52h-12zM235.06 5.079l1-4.97h-25.84v37.69h24.84l1-4.97h-20.28v-11.92h17.95l1.01-4.97h-18.96V5.079h19.28zm213.2 12.87l17.1-17.84h-6.62l-15.99 16.51V.109h-5.56v37.69h5.56v-17.74l16.78 17.74h7.69l-18.96-19.85zm-121.96 1.24c1.315-1.996 1.953-4.363 1.82-6.75v-1.7c0-3.78-1.06-6.497-3.18-8.15s-5.38-2.48-9.78-2.48H301v37.69h5.56v-14.72h8.42l8.47 14.72h6.46l-9.21-15.25a9.39 9.39 0 0 0 5.64-3.36m-11.15-1.08h-8.63v-13h8.63a22 22 0 0 1 3.55.24 4.77 4.77 0 0 1 2.27.93 3.78 3.78 0 0 1 1.22 1.93c.275 1.064.4 2.161.37 3.26v.26a11.68 11.68 0 0 1-.4 3.27 4 4 0 0 1-1.22 2 4.65 4.65 0 0 1-2.27 1 21.93 21.93 0 0 1-3.55.24M264.45 37.8h5.6V9.02l-5.6 6.94V37.8z"/><path d="M251.22 5.079h31.34l1.01-4.97h-31.34l-1.01 4.97zM28.76 19.999a7.7 7.7 0 0 0-2.76-2 17.27 17.27 0 0 0-4.19-1.19l-7.36-1.22a11.89 11.89 0 0 1-2.65-.68 4 4 0 0 1-1.54-1.06 3.41 3.41 0 0 1-.72-1.54 10.65 10.65 0 0 1-.18-2.17 8.28 8.28 0 0 1 .32-2.46 3.07 3.07 0 0 1 1.2-1.59 5.75 5.75 0 0 1 2.38-.85 25.57 25.57 0 0 1 3.88-.24h5l6.41.11 1-5-3.81-.11h-2.89-5.24a26.05 26.05 0 0 0-6.48.69 11.25 11.25 0 0 0-4.23 2 7.45 7.45 0 0 0-2.34 3.11 11.12 11.12 0 0 0-.72 4.1v1a16.56 16.56 0 0 0 .37 3.67 6.72 6.72 0 0 0 1.35 2.81 7.74 7.74 0 0 0 2.7 2 16.18 16.18 0 0 0 4.37 1.24l7.14 1.17a14.83 14.83 0 0 1 2.8.74 4 4 0 0 1 1.62 1.08 3.51 3.51 0 0 1 .74 1.62c.133.769.193 1.549.18 2.33a8.39 8.39 0 0 1-.34 2.63 3 3 0 0 1-1.29 1.64 6.54 6.54 0 0 1-2.62.85 31.33 31.33 0 0 1-4.26.24h-5.18-3l-3.73-.07-1 5 8.07.11h4.79a30 30 0 0 0 6.73-.63 11.23 11.23 0 0 0 4.34-1.91 6.91 6.91 0 0 0 2.38-3.23c.483-1.429.717-2.931.69-4.44v-.9a15.71 15.71 0 0 0-.45-4 7.35 7.35 0 0 0-1.48-2.85z"/></g><defs><clipPath id="A"><path fill="#fff" d="M0 0h467.22v55.29H0z"/></clipPath></defs></svg>