<svg xmlns="http://www.w3.org/2000/svg" width="141" height="47" fill="#959595" viewBox="0 0 141 47">
  <path d="m32.04 25.06 2.45-1.29V4.17h-1.86l-4.54 6.11h-.51l.28-6.87h19.7l.28 6.88h-.54l-4.45-6.11h-1.91v19.54l2.47 1.33v.66H32.03v-.65m17.73-.86V2.47l-1.91-.78v-.4L54.75 0h.76v10.3l.17-.17a9.14 9.14 0 0 1 5.91-2.23c3.02 0 4.37 1.73 4.37 4.96v11.31l1.62.9v.62h-9.03v-.63l1.62-.9V12.83c0-1.77-.76-2.48-2.2-2.48a3.7 3.7 0 0 0-2.38.8V24.2l1.6.9v.59h-9.04v-.6l1.64-.92m22.7-6.67c.18 3.58 1.77 6.37 5.52 6.37 1.82 0 3.11-.85 4.3-1.5v.7a8.46 8.46 0 0 1-6.63 3.14c-5.82 0-8.8-3.28-8.8-8.97 0-5.55 3.26-9.02 8.52-9.02 4.93 0 7.51 2.51 7.51 9.12v.17H72.48m-.1-.83 5.14-.32c0-4.43-.75-7.4-2.26-7.4-1.6 0-2.88 3.44-2.88 7.73M0 34.4c0-9.44 6.17-12.82 13.04-12.82 2.92 0 5.67.49 7.2 1.12l.14 6.6h-.66l-4.03-6.39a5.82 5.82 0 0 0-2.55-.41c-3.65 0-5.53 4.28-5.46 11.3.06 8.39 1.5 12.2 4.86 12.2.68.03 1.37-.09 2-.33v-9l-2.2-1.27v-.77h10.69v.81l-2.18 1.24v8.87c-2.6.93-5.33 1.4-8.08 1.4C4.96 46.95 0 43.27 0 34.4M22.03 30v-.55l7.18-1.29.79.07V42.6c0 1.73.82 2.27 2.2 2.27a2.9 2.9 0 0 0 2.33-1.12V30.86l-1.97-.87v-.56l7.17-1.29.72.07V44.7l1.94.82v.52l-7.04.86-.72-.06v-2.17h-.2a7.94 7.94 0 0 1-5.38 2.3c-3.45 0-5.03-2.07-5.03-5.2V30.84l-1.99-.86m45.08-1.86.59.06v5.34h.16c.77-3.88 2.46-5.34 4.53-5.34.3 0 .6.04.89.14v5.4c-.49-.1-.98-.15-1.48-.13a8.91 8.91 0 0 0-3.91.8V44.9l1.64.92v.72H60.2v-.72l1.7-.92V30.56l-1.98-.6v-.48l7.2-1.34m18.04.44v-5.6l-1.97-.7v-.45l7.26-1.35.69.1v24.1l2 .73v.62l-7.17.97-.56-.07v-1.97h-.16a6.39 6.39 0 0 1-4.79 2.03c-3.9 0-6.76-3.03-6.76-9.22 0-6.53 3.32-9.74 8.34-9.74a7.03 7.03 0 0 1 3.12.56m0 15.43V29.6a2.64 2.64 0 0 0-1.99-.62c-1.94.07-3.14 3.04-3.14 8.34 0 4.76.85 7.43 3.45 7.34.62 0 1.21-.22 1.68-.63ZM101 28.14l.63.07v16.73l1.64.92v.72h-9.33v-.72l1.68-.93v-14.1l-2-.8v-.57l7.38-1.34m.66-4.51a3.14 3.14 0 0 1-3.19 3.06 3.04 3.04 0 0 1-2.76-1.52 3.15 3.15 0 0 1 1.18-4.34 3 3 0 0 1 1.58-.37 3.1 3.1 0 0 1 2.94 1.93c.16.38.24.8.25 1.22v.02m20.94 21.3V30.67l-1.97-.7v-.68l7.17-1.36.72.07v2.13h.2a9.37 9.37 0 0 1 6.1-2.3c3.13 0 4.5 1.5 4.5 4.85v12.2l1.68.98v.7h-9.34v-.72l1.68-.92V32.99c0-1.83-.8-2.57-2.27-2.57a3.88 3.88 0 0 0-2.46.8v13.7l1.64.92v.73h-9.34v-.72l1.68-.93m-10.15-8.95v-2.39c0-3.6-.77-4.77-2.97-4.77-.25 0-.5.02-.74.06l-3.9 5.37h-.57v-4.95a20.78 20.78 0 0 1 6.56-1.15c4.78 0 7.55 1.34 7.55 5.4v11.64l1.7.46v.45a7.14 7.14 0 0 1-3.51.82c-2.36 0-3.49-.78-4-2.09h-.17c-1 1.37-2.42 2.16-4.65 2.16-2.84 0-4.78-1.8-4.78-4.9 0-3.02 1.84-4.66 5.58-5.38l3.89-.73m0 8.05v-7.2l-1.2.1c-1.88.17-2.55 1.38-2.55 4.06 0 2.91.96 3.67 2.26 3.67a1.71 1.71 0 0 0 1.48-.62M51.9 35.98v-2.4c0-3.6-.78-4.77-2.97-4.77-.25 0-.5.03-.75.07l-3.9 5.35h-.54V29.3c2.1-.73 4.32-1.12 6.55-1.15 4.78 0 7.55 1.34 7.55 5.4v11.64l1.7.46v.45a7.14 7.14 0 0 1-3.51.82c-2.36 0-3.49-.78-4-2.1h-.17c-1 1.38-2.42 2.17-4.65 2.17-2.83 0-4.77-1.8-4.77-4.91 0-3.01 1.84-4.65 5.58-5.37l3.88-.73m0 8.05v-7.2l-1.2.1c-1.88.16-2.55 1.38-2.55 4.06 0 2.91.96 3.67 2.26 3.67a1.71 1.71 0 0 0 1.48-.62"/>
</svg>
