<svg xmlns="http://www.w3.org/2000/svg" width="564" height="122" fill="none" xmlns:v="https://vecta.io/nano"><g clip-path="url(#A)" fill-rule="evenodd" fill="#959595"><path d="M135.24 57.3a112.48 112.48 0 0 0-3.232 24.761c0 11.927 3.876 20.744 14.082 24.634 2.725 1.044 5.608 1.614 8.525 1.685 3.356 0 5.681-1.038 8.654-2.983 5.165-3.37 8.008-12.965 12.658-22.037 3.228-6.354 5.037-18.023 5.037-18.8 0-1.814-8.008-2.463-9.43-2.463a1.44 1.44 0 0 0-1.679 1.037c-2.84 7-12.012 34.226-19.374 34.226-4.65 0-5.813-5.7-6.329-9.334a89.88 89.88 0 0 1-.646-10.5c0-7 .646-13.612.9-16.335a1.74 1.74 0 0 0-.171-1.155c-.188-.354-.492-.633-.861-.789-1.55-.908-4.781-2.593-6.974-2.593-.119-.036-.244-.048-.368-.035a.93.93 0 0 0-.352.112.94.94 0 0 0-.28.241.93.93 0 0 0-.163.331m386.211 14c1.682-1.3 4.652-4.149 6.46-4.149.776 0 2.326.777 2.326 1.816a4.96 4.96 0 0 1-.261.778 29.75 29.75 0 0 1-4.389 5.314 12.32 12.32 0 0 1-8.138 3.111 3.57 3.57 0 0 1-1.163-.13c.128-.778 3.228-5.184 5.165-6.74zM352.113 83.364c-1.551 7-9.429 17.5-15.371 17.5-.16.033-.325.027-.482-.02a.99.99 0 0 1-.414-.247c-.116-.116-.2-.258-.247-.415a.97.97 0 0 1-.019-.482 32.19 32.19 0 0 1 3.359-12.318c1.162-2.073 3.874-4.538 5.682-6.351 2.325-2.206 3.875-4.02 6.846-4.02a1.24 1.24 0 0 1 .58.046 1.25 1.25 0 0 1 .495.304c.139.139.242.309.302.496a1.24 1.24 0 0 1 .044.58 29.31 29.31 0 0 1-.775 4.927zM282.36 86.6a117.1 117.1 0 0 1-9.815 10.111c-2.584 2.2-4.522 4.539-6.072 4.539a2.06 2.06 0 0 1-1.678-2.206c0-2.984 3.1-8.427 5.941-12.7 3.488-5.314 10.72-10.241 14.079-10.241a.52.52 0 0 1 .521.411c.018.078.016.16-.003.238 0 1.685-1.551 8.168-2.973 9.853m-180.7-5.316c-1.163 1.816-3.1 5.833-7.75 8.428-3.876 2.461-4.909 3.629-6.2 3.629-1.034 0-1.677-1.168-1.677-2.2a46.3 46.3 0 0 1 2.194-11.15c2.324-7.13 8.912-17.113 17.18-17.113.392.032.774.141 1.123.322a2.96 2.96 0 0 1 .911.73 2.95 2.95 0 0 1 .559 1.026c.117.375.157.77.12 1.162 0 3.111-4.006 11.15-6.459 15.169m373.549-11.93c-8.913 2.2-21.183 12.962-22.734 22.558-.243 1.282-.373 2.584-.387 3.889 0 6.74 1.421 9.335 7.75 12.315a19.58 19.58 0 0 0 8.485 2.444c2.978.157 5.952-.368 8.696-1.535 6.974-2.724 15.888-10.245 15.888-10.245s1.808-1.3 1.808-2.461c0-3.112-3.746-5.056-4.78-5.575-.273-.162-.583-.252-.9-.26-2.712 0-7.881 9.464-19.374 9.464-2.973 0-3.232-3.111-3.232-4.407 0-2.983 1.422-7.39 5.038-13.483 2.972-5.185 9.3-6.742 11.626-7.129.137-.013.271-.055.392-.121a1.01 1.01 0 0 0 .311-.267 1 1 0 0 0 .179-.369 1.01 1.01 0 0 0 .018-.41c0-3.111-3.1-4.539-7.362-4.539a6.23 6.23 0 0 0-1.422.131zm52.7 20.226a28.06 28.06 0 0 1-9.172 2.333 18.62 18.62 0 0 1-3.875-.52c-1.418-.518-1.936-2.074-1.936-3.5.1-1.727.585-3.409 1.421-4.924 1.113.154 2.234.239 3.358.256a29.33 29.33 0 0 0 12.142-2.849c4.909-2.463 10.333-7.779 10.721-10.242 0-.388.128-.909.128-1.426a9.14 9.14 0 0 0-4.133-7.13 16.17 16.17 0 0 0-6.845-2.076c-5.811 0-16.792 6.354-22.346 12.057-4 4.149-8.137 12.316-8.137 18.539 0 6.611 9.04 12.963 17.437 12.963 3.746 0 6.328-1.555 9.558-2.464 6.845-1.944 13.692-9.332 13.692-10.629 0-1.426-.516-2.076-1.809-2.982-.775-.517-2.325-1.556-3.1-1.556-1.29 0-4.39 2.852-7.1 4.15m-331.06-25.671c-.776 0-1.682.128-1.81 1.945-.259 3.111-1.163 9.852-1.679 15.3-.774 8.037-4.781 19.574-4.781 23.724a1.75 1.75 0 0 0 .124.861c.113.272.294.511.524.695 1.937 1.555 7.1 3.111 7.75 3.111.233.001.462-.059.666-.172a1.35 1.35 0 0 0 .496-.476c2.066-3.242 5.813-16.726 10.2-23.206 1.938-2.852 6.331-8.815 10.075-8.815 2.325 0 4.135 12.963 4.522 18.02.387 5.316.516 8.3 5.166 10.889 2.068 1.167 4.908 1.427 8.914 1.427 3.358 0 4.393-1.944 4.393-3.111a2.19 2.19 0 0 0-.171-1.001c-.135-.315-.342-.595-.605-.815-.775-.777-1.68-2.073-2.583-5.962-1.68-6.612-1.81-17.5-5.555-25.41-1.162-2.465-8.4-5.833-13.434-5.833a4.73 4.73 0 0 0-2.326.517c-7.49 3.5-12.14 10.5-12.14 10.5a25.36 25.36 0 0 1-1.422-7.389c0-2.983-1.938-4.407-2.84-4.539-1.152-.196-2.319-.283-3.487-.258m180.7 33.836c-1.809-1.038-2.971-2.075-4.909-2.075-1.161 0-3.227 2.464-6.715 2.464-2.326 0-3.229-5.056-3.229-7.91a23.38 23.38 0 0 1 .9-6.868c.389-2.077 1.164-5.317 1.55-6.744.23-.577.275-1.211.129-1.814a8.32 8.32 0 0 0-6.716-3.889 6.28 6.28 0 0 1-2.2 0c-1.7-.618-3.486-.969-5.294-1.038-5.944 0-9.56 1.038-13.7 4.927-1.806 1.685-4.778 3.759-6.844 5.964-5.3 5.573-6.588 14.778-6.588 19.445 0 3.761 2.195 8.168 8.912 8.168 10.981 0 18.858-9.6 18.858-9.6a30.14 30.14 0 0 0 2.326 4.278c2.842 3.242 5.684 5.187 10.98 5.187 8.782 0 13.82-7.131 13.82-8.555a2.12 2.12 0 0 0-1.292-1.946m14.6 7.648c1.147.48 2.374.744 3.617.778.338-.056.652-.208.904-.439s.432-.53.518-.861l9.556-22.818c2.971-6.869 2.713-7 5.425-10.37 2.069-2.722 4.781-5.056 7.623-5.056 1.55 0 2.325 1.813 2.325 3.111 0 3.758-2.2 19.186-2.2 23.725 0 4.666.905 9.722 3.746 12.445a7.65 7.65 0 0 0 2.732 1.745c1.025.38 2.119.535 3.209.455 6.331 0 12.919-2.723 12.919-5.057 0-1.036-2.973-4.794-4.007-4.794-1.806 0-2.712-.13-3.356-.65-1.423-1.167-1.551-2.722-1.551-5.574 0-4.8.257-12.055.517-15.556.259-3.112 1.162-6.094 1.162-11.019 0-4.8-6.716-9.854-14.726-9.854-3.486 0-6.715 1.686-10.333 5.056-1.808 1.687-3.1 2.595-5.037 4.667-.644-1.684-1.55-2.2-2.066-2.2-.9 0-5.941.779-6.976 2.593 0 0-1.422 2.2-2.064 8.688a66.19 66.19 0 0 1-1.3 9.723c-1.806 6.481-4 11.924-5.038 15.168a9.35 9.35 0 0 0-.644 2.723c0 1.167 3.876 2.981 5.037 3.37M35.391 62.23C25.444 66.64 17.05 74.936 13.174 79.6c-3.746 4.539-6.458 7.39-9.3 12.446C.775 97.493 0 100.864 0 105.144c0 8.423 4.132 12.314 9.428 12.314 4.263 0 11.238-1.684 19.116-8.687 2.576-2.48 4.993-5.121 7.234-7.907-.129 1.557-.129 2.852-.129 4.148 0 4.408.257 7.648 1.55 10.371 1.68 3.372 6.718 6.617 12.789 6.617 7.49 0 14.207-3.63 16.663-7.128.847-1.153 1.421-2.483 1.678-3.89 0-1.687-2.453-2.983-4.134-4.15-1.289-.804-2.75-1.293-4.263-1.426a1.11 1.11 0 0 0-1.032.388c-1.68 1.687-2.455 3.113-5.424 3.113-3.36 0-3.747-1.815-3.747-7.779 0-18.408 4.65-25.281 4.65-28 0-1.425-2.713-2.852-5.166-2.981-1.293-.131-2.585-.52-3.359-.52a1.05 1.05 0 0 0-1.034.52 51.37 51.37 0 0 0-3.488 5.834C38.1 82.2 34.876 88.159 28.932 93.6c-8.007 7.259-12.012 10.629-14.337 10.629-1.42 0-1.807-1.556-1.807-2.2 0-14.389 18.6-29.558 30.612-35.523.224-.066.42-.203.56-.389s.216-.413.216-.647c0-1.944-.907-4.666-2.973-4.666a17.3 17.3 0 0 0-5.812 1.423m269.057 42.782c-3.743 0-4.906-3.241-5.554-7.519-.266-3.321-.352-6.653-.259-9.983v-8.3c0-5.834 2.2-14.65 3.876-25.28.519-3.5 1.551-15.686 1.551-21.263.029-2.364-.274-4.72-.9-7a2.02 2.02 0 0 0-.405-1.027 2.01 2.01 0 0 0-.886-.658c-1.293-.649-4.263-2.073-6.071-2.073-2.066 0-4.78 8.3-6.071 12.445-1.163 3.5-2.842 20.482-2.842 26.315.07 3.001-.189 6.001-.774 8.946-3.037.113-6.06.46-9.043 1.038-12.663 2.08-19.77 14.398-21.962 19.324a25.65 25.65 0 0 0-2.326 9.852c0 2.983 1.291 5.706 5.554 7.39 2.498 1.053 5.171 1.625 7.881 1.686 3.341.042 6.606-1.004 9.3-2.981 3.23-2.465 9.947-7 9.947-7 1.809 13.613 10.722 16.725 14.208 16.725 4.91 0 10.721-1.038 14.853-5.447 2.326-2.593 3.1-3.5 3.488-4.276.147-.283.235-.592.26-.909-.003-.2-.051-.397-.14-.577s-.218-.336-.377-.458a9.3 9.3 0 0 0-3.068-2.113c-1.154-.491-2.396-.743-3.65-.741-1.807 0-3.488 3.889-6.588 3.889M80.6 102.938c1.937.518 2.454.26 2.969-.649.519-.777 1.81-2.59 2.714-2.59 1.292 0 5.036.777 8.523.777 1.628.037 3.249-.226 4.782-.777a32.52 32.52 0 0 0 9.687-7.651c6.457-7.26 8.913-20.353 8.913-26.707a8.42 8.42 0 0 0-.388-2.85c-1.293-3.761-7.75-6.483-12.659-6.483-5.165 0-10.85 2.722-13.046 4.8l3.23-30.079c1.42-12.314 2.326-25.02 2.326-27.354a1.52 1.52 0 0 0-.776-1.295C95.454 1.169 93.646 0 92.483 0 90.8 0 87.833 1.689 87.7 2.726c-.128.519-7.233 35.78-9.428 50.559-.9 6.353-1.162 12.834-2.971 23.336a120.01 120.01 0 0 0-1.551 18.928 24.22 24.22 0 0 0 .129 2.983c.131 2.332 2.844 3.368 6.718 4.406m475.977-1.257c5.755 0 6.981-3.463 7.6-7.631.823-5.522-3.413-7.907-7.6-7.63-4.857.32-7.6 3.416-7.6 7.63s1.781 7.631 7.6 7.631z"/></g><defs><clipPath id="A"><path fill="#fff" d="M0 0h564v122H0z"/></clipPath></defs></svg>