<svg xmlns="http://www.w3.org/2000/svg" width="197" height="15" fill="#959595" viewBox="0 0 197 15">
  <path d="M77.27 7.32c0-2.7-2.04-5.11-5.78-5.11-3.7 0-5.73 2.41-5.73 5.11v.33c0 2.7 2.03 5.14 5.73 5.14 3.72 0 5.78-2.44 5.78-5.14v-.33ZM71.49 15C66.35 15 63 11.43 63 7.73v-.46C63 3.49 66.35 0 71.49 0 76.65 0 80 3.51 80 7.27v.46c0 3.7-3.35 7.27-8.51 7.27Z"/>
  <path d="M8.69 3.18 5.6 9.04h6.26L8.7 3.18Zm6.1 11.23-1.88-3.47h-8.3L2.8 14.41H0L7.64.46h2.22l7.77 13.95H14.8Zm14.92.54c-5.06 0-7.43-2.73-7.43-6.35V.46h2.63v8.17c0 2.6 1.72 4.1 4.98 4.1 3.37 0 4.75-1.5 4.75-4.1V.46h2.66V8.6c0 3.45-2.25 6.35-7.6 6.35h.01ZM52.1 2.65V14.4h-2.66V2.64h-6.18V.46h15.03v2.18H52.1Zm51.32 11.76V3.36l-.7 1.2-5.93 9.84H95.5l-5.88-9.84-.7-1.2V14.4H86.3V.46h3.68L95.56 10l.66 1.18.65-1.18L102.4.46h3.65V14.4h-2.64Zm16.64-11.23-3.08 5.86h6.26l-3.19-5.86Zm6.1 11.23-1.88-3.47h-8.32l-1.8 3.47h-2.8L119 .46h2.2l7.77 13.95h-2.82ZM139.7 2.64v11.77h-2.66V2.64h-6.18V.46h15.03v2.18h-6.19Zm19.5 0v11.77h-2.67V2.64h-6.18V.46h15.02v2.18h-6.18Zm12.72 11.77V1.77c1.07 0 1.49-.56 1.49-1.3h1.12v13.96l-2.6-.02Zm23.42-10.02a8.32 8.32 0 0 0-5.68-2.22c-3.78 0-5.9 2.54-5.9 5.22v.25c0 2.65 2.14 5.12 6.1 5.12a8.4 8.4 0 0 0 5.54-2.22l1.6 1.66a10.57 10.57 0 0 1-7.3 2.8c-5.35 0-8.61-3.44-8.61-7.22v-.46c0-3.75 3.56-7.32 8.74-7.32 3 0 5.71 1.23 7.17 2.8l-1.65 1.59ZM73.17 4.8a1.02 1.02 0 0 1 .46.64 1 1 0 0 1-.15.77l-2.42 3.7c-.32.46-.94.62-1.44.31a1 1 0 0 1-.28-1.41l2.42-3.7c.32-.46.94-.62 1.41-.3Z"/>
</svg>
