<svg xmlns="http://www.w3.org/2000/svg" width="189" height="40" fill="none" xmlns:v="https://vecta.io/nano"><g clip-path="url(#A)" fill="#959595"><path d="M52.531 14.57a7.46 7.46 0 0 0-5.44 2.43V7h-1.61v22a14.53 14.53 0 0 0 5.35 1.13 8.35 8.35 0 0 0 6.17-2.19 8.06 8.06 0 0 0 2.31-6 7.5 7.5 0 0 0-1.89-5.29 6.27 6.27 0 0 0-4.89-2.08zm3.09 12.19a6.6 6.6 0 0 1-4.83 1.88 10.42 10.42 0 0 1-3.7-.71v-9.11c1.7-1.94 3.45-2.91 5.25-2.91a4.7 4.7 0 0 1 3.72 1.72 6.49 6.49 0 0 1 1.48 4.37 6.34 6.34 0 0 1-1.92 4.76zm30.06-12.19a5.7 5.7 0 0 0-5 2.91h-.07v-2.62h-1.61v15.05h1.61V19.36c1.293-2.147 2.94-3.22 4.94-3.22 2.733 0 4.1 1.733 4.1 5.2v8.57h1.61v-9.17a6.37 6.37 0 0 0-1.53-4.53 5.31 5.31 0 0 0-4.05-1.64zm53.769 15.34h1.62v-15h-1.62v15zm0-20h1.62V7.05h-1.62v2.86zm48 6.33a5.31 5.31 0 0 0-1.861-1.263c-.703-.283-1.461-.412-2.219-.377a5.7 5.7 0 0 0-5 2.911h-.07V7.06h-1.6v22.85h1.6V19.36c1.34-2.15 3-3.22 4.94-3.22 2.74 0 4.1 1.73 4.1 5.2v8.57H189V20.7c.093-1.639-.456-3.249-1.53-4.49l-.02.03zM73.351 28.59c-.24 0-.36-.26-.36-.77V18.5a3.42 3.42 0 0 0-1.33-2.92 5.43 5.43 0 0 0-3.38-1 9.23 9.23 0 0 0-4.87 1.6v1.65a7.77 7.77 0 0 1 4.59-1.92c2.233 0 3.35 1.027 3.35 3.08v1.91a13.66 13.66 0 0 0-6.52 1.63 4.35 4.35 0 0 0-2.28 3.87 3.59 3.59 0 0 0 1.18 2.69 4 4 0 0 0 2.89 1.12 7.65 7.65 0 0 0 4.73-1.87 4.16 4.16 0 0 0 .31 1.5.81.81 0 0 0 .74.37h.06a7.23 7.23 0 0 0 3-.77v-1.55a7.7 7.7 0 0 1-2.16.7h.05zm-2-1.65a6.39 6.39 0 0 1-4.2 1.94 3.2 3.2 0 0 1-2.15-.72 2.25 2.25 0 0 1-.85-1.76 3.52 3.52 0 0 1 2-3.07 9.39 9.39 0 0 1 5.15-1.09l.05 4.7zm59.33.55c-.083.429-.288.824-.59 1.14a2.39 2.39 0 0 1-.6-1.12L126 17c-.59-1.78-1.43-2.16-2-2.16s-1.43.38-2 2.16l-3.5 10.48a2.37 2.37 0 0 1-.6 1.12c-.296-.319-.5-.713-.59-1.14l-3.92-12.62h-1.57l4.06 13.07c.57 1.82 1.4 2.21 2 2.22.6 0 1.43-.38 2-2.17l3.5-10.48a2.26 2.26 0 0 1 .61-1.12 2.37 2.37 0 0 1 .6 1.12L128.08 28c.6 1.79 1.43 2.17 2 2.17.61 0 1.44-.4 2-2.22l4.06-13.07h-1.56l-3.9 12.61zM168 28c-.31-.913-.432-1.879-.36-2.84v-8.99h4.24v-1.31h-4.24v-5s-1.61 0-1.61 2.11v2.87H162v1.31h4.07V27a2.92 2.92 0 0 0 .229 1.295 2.93 2.93 0 0 0 .771 1.065 3.74 3.74 0 0 0 2.49.85 7.17 7.17 0 0 0 3.12-.77V27.9a6.71 6.71 0 0 1-2.76.74c-1.02 0-1.65-.23-1.92-.64zm-61-12.2a9.99 9.99 0 0 0-4.47-1.21 7.33 7.33 0 0 0-5.449 2.23 7.65 7.65 0 0 0-2.18 5.58 7.68 7.68 0 0 0 2.2 5.6 7.27 7.27 0 0 0 5.419 2.26 7.57 7.57 0 0 0 4.48-1.5v1.18h1.62V7.08H107v8.72zm0 11.49a7.08 7.08 0 0 1-4.07 1.37 6.08 6.08 0 0 1-4.51-1.81 6.17 6.17 0 0 1-1.82-4.55 6.07 6.07 0 0 1 1.69-4.41 5.77 5.77 0 0 1 4.3-1.73 8 8 0 0 1 4.4 1.41l.01 9.72zm50.28-11.49a10 10 0 0 0-4.46-1.21 7.31 7.31 0 0 0-2.959.542 7.33 7.33 0 0 0-2.491 1.688 7.64 7.64 0 0 0-1.658 2.568c-.375.959-.552 1.983-.522 3.012a7.69 7.69 0 0 0 .535 3.025A7.68 7.68 0 0 0 147.4 28c.697.733 1.539 1.313 2.472 1.702a7.27 7.27 0 0 0 2.948.558 7.54 7.54 0 0 0 4.46-1.47v1.18h1.63V7.08h-1.63v8.72zm0 11.49a7.06 7.06 0 0 1-4.07 1.37 6.11 6.11 0 0 1-4.51-1.81 6.19 6.19 0 0 1-1.367-2.09c-.31-.782-.457-1.619-.433-2.46-.031-.811.103-1.62.393-2.378s.732-1.449 1.297-2.032c.558-.57 1.229-1.019 1.969-1.317a5.74 5.74 0 0 1 2.331-.413 8 8 0 0 1 4.39 1.41v9.72zM27.18 10.13c-1.4-.3-1.56.43-1 1.76 3.17 7 .35 13.83-2.67 15.53a3.14 3.14 0 0 1-.08-.69c-.36-3.32-1.62-6.21-2.47-6.21-.68 0-.26 2.84-.44 5.35-1.12-.66-1.8-1.13-3-.92-1.71.3-4 3.93-4.07 3.41-.68-4.2.95-10.66 3.21-11.35.35-.14 1 .4 2.34.91 1.07.41.94-.66.45-1.06a5.19 5.19 0 0 0-5.45-.39c-3.4 1.66-4.94 9.22-3.11 12.31a4.79 4.79 0 0 0 3.41 2.36c2.28.26 3-.22 4.81-2.47a2.17 2.17 0 0 0 .87.42c-1.5 4.66-7.11 8.59-8.32 7.92-5.88-4-4.25-16.79-.1-28 .774-2.041 1.441-4.12 2-6.23.62-3-3.2-3.62-5.82-1.4C5.83 3 4 6.72 2.51 11.09-2.24 25-.22 36.7 8.28 39.25c9.78 2.92 14.44-3.18 15.16-9.31a11.68 11.68 0 0 0 1.8.09c3-.06 7.33-1.62 8.61-8.24.97-5-2.24-10.79-6.67-11.66z"/></g><defs><clipPath id="A"><path fill="#fff" d="M0 0h189v40H0z"/></clipPath></defs></svg>