<svg xmlns="http://www.w3.org/2000/svg" width="109" height="32" fill="none" xmlns:v="https://vecta.io/nano"><mask id="A" maskUnits="userSpaceOnUse" x="0" y="0" width="109" height="32"><path d="M108.113 0h-108v32h108V0z" fill="#fff"/></mask><g mask="url(#A)"><path d="M17.406 15.558c2.308-.782 4.029-3.089 4.029-5.945 0-4.304-3.052-7.471-8.449-7.471H.113v27.732h13.616c5.201 0 8.565-3.246 8.565-7.744 0-3.442-2.19-5.906-4.889-6.572zM5.433 6.68h6.691c2.623 0 3.991 1.328 3.991 3.442s-1.487 3.48-3.951 3.48H5.433V6.68zm7.279 18.696H5.433v-7.313h7.357c2.699 0 4.107 1.525 4.107 3.715 0 2.23-1.565 3.598-4.185 3.598zm59.018-4.89L60.191 2.142h-6.726v27.734h5.398V10.2l12.594 19.675h5.67V2.142H71.73v18.345zm-35.103 2.27L29.446 2.16 25.67 8.057l8.062 21.818h5.556L49.574 2.142h-5.71l-7.237 20.615zm68.646-20.614H98.75L87.329 15.853V2.142h-5.405v27.734h5.405V16.164L98.75 29.875h6.523L93.597 16.008l11.676-13.866z" fill="#959595"/></g></svg>