<svg xmlns="http://www.w3.org/2000/svg" width="240" height="36" fill="none" xmlns:v="https://vecta.io/nano"><g clip-path="url(#A)" fill-rule="evenodd"><path d="M185.8 27.2h-5v-9.4c0-.7-.1-1.3-.3-2-.2-.6-.5-1.1-1-1.4-.5-.4-1.2-.5-2.1-.5s-1.4.2-2 .5-1 .9-1.3 1.5c-.3.7-.5 1.4-.4 2.2v9.1h-5.1V9.8h5.1v2.6c.6-.8 1.3-1.5 2.2-2 1.1-.6 2.4-1 3.7-1s2.4.2 3.5.9a6.11 6.11 0 0 1 2.1 2.4c.5 1.1.7 2.4.7 3.6v10.9h-.1zM82.1 34.4V9.6h3.6v2.2c.5-.6 1.2-1.1 1.8-1.5 2.5-1.3 5.4-1.3 7.8 0 1.2.7 2.3 1.8 2.9 3.1.8 1.5 1.2 3.2 1.1 4.9 0 1.7-.3 3.5-1.1 5-.6 1.3-1.7 2.4-2.9 3.1s-2.6 1.1-4 1.1-2.6-.4-3.8-1a6.55 6.55 0 0 1-1.8-1.5v9.4h-3.6zm-30-7c-1.7 0-3.3-.4-4.8-1.1-1.4-.7-2.5-1.8-3.3-3.2-.8-1.5-1.2-3.2-1.2-4.8s.4-3.3 1.2-4.8c.8-1.3 1.9-2.4 3.3-3.1 1.5-.7 3.1-1.1 4.8-1.1s2.4.2 3.5.6a8.69 8.69 0 0 1 2.6 1.6c.7.6 1.2 1.4 1.6 2.2.4.7.6 1.5.6 2.4h-3.5v-.3c0-.6-.4-1.2-.8-1.7s-1-.9-1.6-1.2c-.8-.3-1.6-.5-2.4-.4-1 0-1.9.2-2.7.6-.9.5-1.6 1.1-2 2a7.64 7.64 0 0 0-.8 3.3c0 1.1.2 2.3.8 3.3.5.9 1.2 1.6 2 2 .8.5 1.8.7 2.8.7s1.8-.1 2.7-.5a5.09 5.09 0 0 0 1.6-1.3c.4-.6.6-1.2.6-1.8h3.5c0 .8-.2 1.6-.5 2.4-.4.8-.9 1.6-1.6 2.2-.8.7-1.6 1.2-2.6 1.6l-3.8.4zm93.1-26v25.8h-3.5V1.4h3.5zm-16.1 26.1a10.3 10.3 0 0 1-3.5-.6c-.9-.4-1.7-1-2.3-1.8s-.9-1.8-.8-2.8c0-1.1.3-2.1 1-2.9s1.6-1.5 2.6-1.8c1.2-.4 2.5-.7 3.7-.8 1.5-.1 2.9-.3 4.4-.6.9-.2 1.3-.5 1.3-1 0-.8-.4-1.6-1.1-2-.8-.5-1.8-.7-3.3-.7s-2.6.3-3.4.8-1.2 1.4-1.2 2.5H123c0-1.3.3-2.5 1.1-3.5s1.8-1.7 2.9-2.1c1.4-.5 2.8-.8 4.2-.7 1.4 0 2.7.2 4 .7 1.1.4 2.1 1.1 2.9 2 .7.9 1.1 2.1 1.1 3.3v11.9h-3.5v-2c0 .1-.1.1-.2.2-.2.3-.5.5-.8.7-.7.5-1.5.9-2.4 1.1h-3.2v.1zm.7-3c1 0 1.9-.2 2.8-.5.8-.3 1.5-.8 2-1.5s.8-1.6.8-2.5v-1.5c-.6.2-1.2.3-1.8.4-1 .2-2.1.3-3.2.4s-2.6.4-3.3.8c-.7.3-1.2 1.1-1.1 1.9 0 .8.3 1.5.9 1.9.7.4 1.6.6 2.9.6zm-12.7 2.9c-.6 0-1.2 0-1.7-.2-.6-.1-1.1-.4-1.6-.7s-.9-.8-1.1-1.4c-.3-.8-.5-1.6-.4-2.4V12.6H108v-3c1 0 2.4.1 3.3-.1.2 0 .4-.1.6-.3s.2-.5.3-.7V3.8h3.6v5.8h5.4v3h-5.4v9.1c0 2.6.9 2.8 2.7 2.8h2.7c.2.5.5 1.1.8 1.5.4.6.9 1.1 1.5 1.5h-6.4v-.1zm-14.8-.3V9.6h3.5v17.5h-3.5zM104.1 6c-.6 0-1.1-.2-1.6-.5a1.75 1.75 0 0 1-.7-1.4c0-.6.2-1.1.7-1.4a3.07 3.07 0 0 1 3.2 0c.4.3.7.9.7 1.4s-.2 1.1-.7 1.4-1 .5-1.6.5zM69.4 27.5a10.3 10.3 0 0 1-3.5-.6c-.9-.4-1.7-1-2.3-1.8s-.9-1.8-.8-2.8c0-1 .3-2.1.9-2.9.7-.8 1.6-1.4 2.6-1.8 1.2-.4 2.5-.7 3.7-.8 1.5-.1 2.9-.3 4.4-.6.9-.2 1.3-.5 1.3-1 0-.8-.4-1.6-1.1-2-.8-.5-1.8-.7-3.3-.7s-2.6.3-3.4.8-1.2 1.4-1.2 2.5h-3.5c0-1.2.3-2.4 1.1-3.4s1.8-1.7 2.9-2.1c1.4-.5 2.8-.8 4.2-.7 1.4 0 2.7.2 4 .7 1.1.4 2.1 1.1 2.9 2 .7.9 1.1 2.1 1.1 3.3v11.8h-3.5v-2l-.2.2c-.2.3-.5.5-.8.7-.7.5-1.5.9-2.4 1.1h-3.1v.1zm.8-3c1 0 1.9-.2 2.8-.5.8-.3 1.5-.8 2-1.5s.8-1.6.8-2.5v-1.5c-.6.2-1.2.3-1.8.4-1 .2-2 .3-3.1.4s-2.6.4-3.3.8-1.1 1-1.1 1.9.3 1.5.9 1.9c.5.4 1.5.6 2.8.6zm15.5-5.2v.2c0 .9.2 1.7.7 2.5.5.7 1.1 1.3 1.8 1.7s1.6.7 2.4.6c1.3 0 2.6-.5 3.6-1.4 1-1 1.4-2.5 1.4-4.5s-.5-3.5-1.4-4.5c-1-.9-2.2-1.4-3.6-1.4s-1.7.2-2.4.6-1.4 1-1.8 1.7c-.5.7-.7 1.6-.7 2.4v2.1zm109.8 2.1v-7.9h5.2v-4h-5.2V4.4h-5.1V6c0 .7 0 1.3-.1 2 0 .4-.2.7-.4 1.1-.2.2-.5.4-.9.4-.5.1-1 .1-1.6.1h-2.6c1.2 1 2 2.4 2.4 3.9h3.1v9.4c0 .9.2 1.8.6 2.6.3.6.8 1.1 1.5 1.5.6.3 1.3.6 1.9.7l2 .2h6.3c-1.5-.9-2.5-2.5-2.8-4.2h-2.7c-.9-.1-1.6-.2-1.6-2.3zM232 9.5c1.4 0 2.8.3 4 1.1 1.2.7 2.3 1.7 3 3 .8 1.3 1.1 3 1.1 4.8s-.4 3.7-1.1 5-1.7 2.4-2.9 3.1-2.6 1-4 1-2.6-.4-3.8-1.1c-.6-.4-1.1-.8-1.6-1.3v9.2h-5.1V9.8h5.1v2c.5-.5 1-.9 1.6-1.3 1-.7 2.3-1 3.7-1zm-5.4 8.2v1.5c0 .8.2 1.5.6 2.1s.9 1 1.5 1.4c.6.3 1.3.5 1.9.5 1.1 0 2.1-.4 2.9-1.2s1.2-1.9 1.2-3.6-.4-2.8-1.2-3.5-1.8-1.2-2.9-1.1c-.7 0-1.3.2-1.9.4-.6.3-1.1.8-1.5 1.4s-.6 1.3-.6 2.1zm-7.4 3.7v6.1h-4.8v-2.2l-.6.6c-.7.5-1.5.9-2.4 1.2-1 .3-2 .4-3 .4s-2.3-.2-3.3-.6c-.9-.3-1.7-.9-2.3-1.7s-.9-1.8-.8-2.8c0-1.1.3-2.2 1-3s1.7-1.4 2.7-1.8c1.2-.4 2.4-.7 3.6-.8l4-.5c.7-.1 1.1-.4 1.1-.8 0-.6-.3-1.2-.9-1.5-.8-.4-1.7-.6-2.6-.6s-2 .2-2.7.6c-.6.4-1 1.2-.9 1.9h-5a6.06 6.06 0 0 1 1.1-3.5c.8-1 1.9-1.7 3.1-2.2 1.4-.5 2.9-.8 4.4-.7 1.4 0 2.9.2 4.2.7 1.2.4 2.3 1.1 3.1 2.1s1.2 2.2 1.2 3.5l-.2 5.6zm-7.4 1.9c.7-.3 1.3-.8 1.7-1.4a3.48 3.48 0 0 0 .6-2.4v-.2l-1.2.3c-1 .2-1.9.3-2.8.4s-1.7.3-2.5.6c-.5.2-.9.8-.8 1.3 0 .5.2 1.1.7 1.4.7.3 1.4.5 2.1.4.8 0 1.5 0 2.2-.4zM157.1 9.5c1.7 0 3.4.4 4.9 1.1 1.4.7 2.5 1.8 3.3 3.2s1.2 3 1.2 4.7-.4 3.3-1.2 4.7-2 2.5-3.3 3.2a10.81 10.81 0 0 1-9.9 0c-1.4-.7-2.6-1.8-3.3-3.2-.8-1.4-1.2-3-1.2-4.7s.4-3.3 1.2-4.7c.8-1.3 2-2.4 3.3-3.2 1.5-.7 3.2-1.1 5-1.1zm3.8 11.6c.4-.8.6-1.7.5-2.6 0-.9-.2-1.8-.5-2.6-.3-.7-.9-1.3-1.5-1.7-.7-.4-1.5-.7-2.3-.6-.8 0-1.6.2-2.3.6a3.53 3.53 0 0 0-1.5 1.7c-.4.8-.6 1.7-.5 2.6 0 .9.2 1.8.5 2.6.3.7.9 1.3 1.5 1.8.7.4 1.5.6 2.3.6 1.6.1 3.1-.9 3.8-2.4z" fill="#959595"/><path d="M34.8 12.299c-3-9.4-13.1-14.5-22.5-11.4s-14.5 13.2-11.4 22.5 13.2 14.5 22.5 11.4a17.97 17.97 0 0 0 11.4-11.4H30c-3 6.8-11 9.7-17.7 6.6s-9.7-11-6.6-17.7 11-9.7 17.7-6.6a13.26 13.26 0 0 1 6.6 6.6h4.8zm-8 5.5c0-4.9-4-8.9-8.9-8.9s-8.9 4-8.9 8.9 4 8.9 8.9 8.9c4.9.1 8.9-3.9 8.9-8.9z" fill="#a8a8a8"/></g><defs><clipPath id="A"><path fill="#fff" d="M0 0h240v36H0z"/></clipPath></defs></svg>