<svg xmlns="http://www.w3.org/2000/svg" width="185" height="52" fill="none" xmlns:v="https://vecta.io/nano"><path d="M28.876 34.434L26.342 31.9l-2.709-2.709c-.874-.874-2.36-.874-3.234 0l-5.244 5.244c-3.758 3.758-3.758 9.876 0 13.634s9.876 3.758 13.634 0c3.845-3.758 3.845-9.876.087-13.634z" fill="#959595"/><path d="M13.32 33.124l15.556-15.556c3.758-3.758 3.758-9.876 0-13.634s-9.876-3.758-13.634 0l-8.739 8.739c-7.516 7.516-7.516 19.751 0 27.355l3.845 3.845c-.961-4.632.874-8.652 2.971-10.75z" fill="#adb0b1"/><path d="M39.626 24.558c0-7.341 4.807-10.05 9.963-10.05 3.234 0 5.855.35 8.303 1.223.612.175.787.437.787 1.049v3.496c0 .437-.262.612-.699.612h-.087c-1.486-.175-5.244-.349-7.341-.349-2.797 0-3.67 1.311-3.67 3.321v4.282c0 2.01.874 3.321 3.67 3.321 2.01 0 5.855-.175 7.341-.349h.175c.437 0 .699.175.699.612v3.496c0 .612-.175.874-.787 1.049-2.447.787-5.069 1.224-8.303 1.224-5.156 0-9.963-2.709-9.963-10.05v-2.884h-.087zm39.153 3.496H66.806v.087c0 2.01.874 3.321 3.671 3.321l7.341-.349h.175c.437 0 .699.175.699.612v3.496c0 .612-.175.874-.787 1.049-2.534.874-5.156 1.311-8.39 1.311-5.156 0-9.963-2.709-9.963-10.05v-2.534c0-6.729 3.933-10.487 10.225-10.487 6.729 0 9.876 4.282 9.876 10.487v2.272c-.087.437-.437.787-.874.787zm-6.292-4.195c0-2.272-.961-3.671-2.884-3.671-1.835 0-2.884 1.398-2.884 3.671v.087H72.4v-.087h.087zm24.47 13.372H81.576c-.612 0-1.049-.437-1.049-1.049v-3.234c0-.612.087-1.049.612-1.66l7.341-9.963c.087-.175.175-.262.175-.349 0-.175-.087-.262-.35-.262h-6.817c-.35 0-.612-.262-.612-.612v-4.457c0-.437.35-.787.787-.787h15.119c.612 0 .961.437.961 1.049v3.496c0 .874-.175 1.136-.612 1.748l-6.992 9.526c-.087.087-.175.262-.175.35 0 .175.087.262.35.262h6.817c.35 0 .699.262.699.612v4.632c-.087.35-.437.699-.874.699zm20.276-.613c-2.01.437-5.157.961-8.565.961-6.292 0-10.138-3.496-10.138-10.05V24.47c0-6.467 3.846-10.05 10.138-10.05a40.03 40.03 0 0 1 8.565.961c1.136.262 1.311.612 1.311 1.224v18.702c0 .699-.175.961-1.311 1.311zm-6.03-15.906c-.7-.087-1.486-.175-2.622-.175-2.185 0-2.797 1.573-2.797 3.933v2.971c0 2.272.612 3.933 2.797 3.933 1.136 0 1.922-.087 2.622-.175V20.712zm28.752 16.519h-5.768c-.437 0-.786-.437-.786-.874V22.985c0-1.486-.088-2.534-1.923-2.534h-1.486c-1.835 0-1.922 1.049-1.922 2.534v13.371c0 .437-.35.874-.787.874h-5.768c-.437 0-.786-.437-.786-.874V22.985c0-5.943 3.233-8.477 9.263-8.477h1.486c6.03 0 9.264 2.535 9.264 8.477v13.371c.087.437-.262.874-.787.874zm22.548 0h-5.768c-.437 0-.786-.437-.786-.874V22.985c0-1.486-.088-2.534-1.923-2.534h-1.486c-1.835 0-1.922 1.049-1.922 2.534v13.371c0 .437-.35.874-.787.874h-5.768c-.437 0-.787-.437-.787-.874V22.985c0-5.943 3.234-8.477 9.264-8.477h1.486c6.03 0 9.264 2.535 9.264 8.477v13.371c0 .437-.35.874-.787.874zm21.5-9.177h-11.974v.087c0 2.01.874 3.321 3.671 3.321l7.341-.349h.175c.437 0 .699.175.699.612v3.496c0 .612-.175.874-.786 1.049-2.447.786-5.069 1.223-8.303 1.223-5.156 0-9.963-2.709-9.963-10.05v-2.535c0-6.729 3.933-10.487 10.225-10.487 6.73 0 9.876 4.282 9.876 10.487v2.272c-.175.524-.524.874-.961.874zm-6.293-4.195c0-2.272-.961-3.671-2.884-3.671-1.835 0-2.884 1.398-2.884 3.671v.087h5.681v-.087h.087z" fill="#959595"/></svg>