<svg width="522" height="138" viewBox="0 0 522 138" fill="none" xmlns="http://www.w3.org/2000/svg">
<path fill-rule="evenodd" clip-rule="evenodd" d="M47.0149 96.7378L46.6751 97.0749C42.2789 101.471 37.2058 103.839 31.7955 103.839C20.6352 103.839 12.5171 95.7209 12.5171 84.2235C12.5171 72.3834 20.6352 64.2653 31.7955 64.2653C37.2058 64.2653 42.2789 66.6333 46.6751 71.0294L47.0149 71.3693L54.1162 62.9141V62.5742C48.029 55.4729 40.925 52.0881 32.1298 52.0881C23.3347 52.0881 15.2194 55.1331 9.46929 60.5433C3.04221 66.2934 0 74.4115 0 84.2235C0 93.69 3.04499 101.808 9.46929 107.561C15.2194 112.968 23.3375 116.016 32.1298 116.016C40.9222 116.016 48.029 112.631 54.1162 105.53V105.193L47.0149 96.7378ZM61.8973 114.66H74.4115V53.1022H61.8973V114.66ZM121.764 101.471C118.719 103.502 115.336 104.513 112.631 104.513C108.572 104.513 106.541 102.482 106.541 97.412V64.9395H119.393V53.1022H106.541V33.8237L94.3642 40.5879V53.1022H83.5409V64.9395H94.3642V99.7772C94.3642 109.244 99.7772 115.671 108.232 115.671C113.983 116.013 117.365 114.322 119.393 112.966H119.733V112.629L122.775 100.788L121.764 101.471ZM130.896 114.66H143.747V53.1022H130.896V114.66Z" fill="#959595"/>
<path fill-rule="evenodd" clip-rule="evenodd" d="M459.652 0H456.604L455.93 5.07313C405.533 6.4243 395.387 45.6582 395.387 45.6582C395.387 45.6582 404.522 39.9109 418.05 39.9109C431.921 39.9109 437.329 45.3211 437.329 45.3211C437.329 45.3211 446.121 38.2171 458.298 38.2171C470.475 38.2171 479.268 45.3211 479.268 45.3211C479.268 45.3211 484.675 39.9109 498.209 39.9109C512.074 39.9109 521.209 45.6582 521.209 45.6582C521.209 45.6582 510.723 6.4243 460.326 5.07313L459.652 0Z" fill="#959595"/>
<path fill-rule="evenodd" clip-rule="evenodd" d="M450.517 116.353C458.298 116.353 462.357 111.62 462.357 102.822V43.6357C460.666 42.9587 457.961 42.9587 456.267 43.6357V102.822C456.267 108.572 453.899 110.603 450.517 110.603C446.801 110.603 444.427 108.572 444.427 102.822C444.427 101.137 443.079 99.78 441.722 99.78C440.031 99.78 438.68 101.134 438.68 102.822C438.683 111.617 442.742 116.353 450.517 116.353Z" fill="#959595"/>
<path fill-rule="evenodd" clip-rule="evenodd" d="M194.144 97.0749C190.762 101.134 185.349 105.193 179.599 105.193C170.13 105.193 165.054 98.4233 165.054 82.5297C165.054 69.6755 169.79 62.9113 178.922 62.9113C185.349 62.9113 191.099 67.3075 194.144 71.0295V97.0749ZM206.319 109.247V53.1022H193.804V58.8523C190.422 55.1303 184.335 51.7482 177.905 51.7482C164.717 51.7482 152.54 61.8973 152.54 82.864C152.54 106.539 163.363 116.351 177.231 116.351C183.995 116.351 189.068 113.303 193.804 109.244V110.261C193.804 122.775 189.745 127.508 171.818 128.528L176.217 137.32C199.217 136.643 206.319 127.851 206.319 109.247ZM251.643 65.9563C248.937 64.6024 245.892 63.5883 241.833 63.5883C233.715 63.5883 229.319 69.0013 229.319 79.4847V114.662H216.805V53.1022H229.319V58.8523C232.024 54.7932 237.437 51.7482 243.862 51.7482C248.935 51.7482 252.32 52.7623 255.022 54.4533L251.643 65.9563ZM297.978 84.2207C297.978 95.3811 291.551 104.848 282.084 104.848C272.612 104.848 265.848 97.4092 265.848 83.8836C265.848 71.3666 271.938 63.2484 281.404 63.2484C291.551 63.2512 297.978 71.3666 297.978 84.2207ZM310.492 83.8836C310.492 64.2653 298.315 51.7482 282.084 51.7482C265.848 51.7482 253.334 63.5855 253.334 84.2207C253.334 103.499 265.511 116.351 281.747 116.351C298.315 116.353 310.492 104.173 310.492 83.8836ZM355.476 114.66V109.247C352.097 113.643 345.67 116.353 339.245 116.353C324.026 116.353 316.245 106.881 316.245 88.6197V53.1022H328.759V88.2742C328.759 100.789 333.83 105.19 341.948 105.19C350.403 105.19 355.473 99.4401 355.473 89.2911V53.1022H367.988V114.66H355.476ZM419.741 85.2348C419.741 98.4233 414.665 105.193 405.533 105.193C399.106 105.193 393.356 100.791 390.314 97.0749V70.6924C393.693 66.9732 399.106 62.9141 405.196 62.9141C414.328 62.9113 419.741 69.6755 419.741 85.2348ZM432.256 84.8977C432.256 61.5602 421.432 51.751 407.564 51.751C400.463 51.751 395.05 54.796 390.317 58.8551V53.105H378.139V137.663L390.317 131.236V109.247C394.039 112.969 400.126 116.353 406.89 116.353C420.078 116.353 432.256 106.204 432.256 84.8977Z" fill="#959595"/>
</svg>
