<svg width="126" height="32" viewBox="0 0 126 32" fill="none" xmlns="http://www.w3.org/2000/svg">
<path d="M21.7254 14.4797L29.9302 6.24901C30.0803 6.09845 29.9725 5.83594 29.7608 5.83594H24.5591C22.8573 5.83594 21.2287 6.51539 20.0274 7.71987L17.5209 10.237C17.467 10.291 17.467 10.3759 17.5209 10.4261L21.5367 14.4758C21.5906 14.5298 21.6753 14.5298 21.7254 14.4758V14.4797Z" fill="url(#paint0_linear_5855_17627)"/>
<path d="M29.8723 25.7524L12.0035 7.73145C10.8022 6.51925 9.16589 5.83594 7.46025 5.83594H2.30097C2.08921 5.83594 1.9814 6.09459 2.13156 6.24901L11.6262 15.8154C11.7186 15.908 11.7186 16.0625 11.6262 16.1551L2.06995 25.7524C1.9198 25.9029 2.0276 26.1654 2.23936 26.1654H10.0206C10.0553 26.1654 10.0899 26.15 10.1169 26.1268L15.8306 20.394C15.923 20.3013 16.077 20.3013 16.1733 20.394L20.0235 24.2738C21.2248 25.486 22.8572 26.1654 24.5629 26.1654H29.6991C29.9147 26.1654 30.0225 25.9068 29.8685 25.7524H29.8723Z" fill="#787878"/>
<path d="M44.2199 24.2381C42.7933 24.2381 41.5466 23.9314 40.4799 23.3181C39.4266 22.6914 38.6066 21.8114 38.0199 20.6781C37.4466 19.5448 37.1599 18.2114 37.1599 16.6781C37.1599 15.1581 37.4599 13.8314 38.0599 12.6981C38.6599 11.5648 39.4999 10.6848 40.5799 10.0581C41.6733 9.41813 42.9333 9.09813 44.3599 9.09813C45.5333 9.09813 46.5799 9.31813 47.4999 9.75813C48.4333 10.1848 49.1999 10.7914 49.7999 11.5781C50.4133 12.3514 50.7933 13.2648 50.9399 14.3181H48.0999C47.8599 13.4781 47.3999 12.8314 46.7199 12.3781C46.0533 11.9248 45.2399 11.6981 44.2799 11.6981C43.3999 11.6981 42.6399 11.8981 41.9999 12.2981C41.3599 12.6981 40.8666 13.2714 40.5199 14.0181C40.1733 14.7648 39.9999 15.6514 39.9999 16.6781C39.9999 17.6781 40.1733 18.5514 40.5199 19.2981C40.8799 20.0448 41.3799 20.6248 42.0199 21.0381C42.6599 21.4381 43.4133 21.6381 44.2799 21.6381C45.2533 21.6381 46.0866 21.4048 46.7799 20.9381C47.4733 20.4714 47.9399 19.8381 48.1799 19.0381H50.9799C50.7933 20.0781 50.3866 20.9914 49.7599 21.7781C49.1466 22.5514 48.3666 23.1581 47.4199 23.5981C46.4733 24.0248 45.4066 24.2381 44.2199 24.2381ZM58.2143 14.0581V16.4581H57.2943C56.4143 16.4581 55.7143 16.6914 55.1943 17.1581C54.6876 17.6114 54.4343 18.3248 54.4343 19.2981V23.9981H51.8743V14.1181H54.2943L54.4943 16.1781H54.2543C54.3876 15.5248 54.6943 14.9914 55.1743 14.5781C55.6676 14.1514 56.3143 13.9381 57.1143 13.9381C57.2876 13.9381 57.461 13.9448 57.6343 13.9581C57.821 13.9714 58.0143 14.0048 58.2143 14.0581ZM57.9701 19.0381C57.9701 17.9981 58.1967 17.0914 58.6501 16.3181C59.1167 15.5314 59.7501 14.9181 60.5501 14.4781C61.3634 14.0381 62.2834 13.8181 63.3101 13.8181C64.3367 13.8181 65.2501 14.0381 66.0501 14.4781C66.8501 14.9181 67.4767 15.5314 67.9301 16.3181C68.3967 17.0914 68.6301 17.9981 68.6301 19.0381C68.6301 20.0648 68.3967 20.9714 67.9301 21.7581C67.4767 22.5314 66.8501 23.1381 66.0501 23.5781C65.2501 24.0181 64.3367 24.2381 63.3101 24.2381C62.2834 24.2381 61.3634 24.0181 60.5501 23.5781C59.7501 23.1381 59.1167 22.5314 58.6501 21.7581C58.1967 20.9714 57.9701 20.0648 57.9701 19.0381ZM60.5501 19.0181C60.5501 19.5914 60.6701 20.1048 60.9101 20.5581C61.1501 20.9981 61.4701 21.3381 61.8701 21.5781C62.2834 21.8181 62.7634 21.9381 63.3101 21.9381C63.8567 21.9381 64.3367 21.8181 64.7501 21.5781C65.1634 21.3381 65.4834 20.9981 65.7101 20.5581C65.9367 20.1048 66.0501 19.5914 66.0501 19.0181C66.0501 18.4314 65.9367 17.9248 65.7101 17.4981C65.4834 17.0581 65.1634 16.7181 64.7501 16.4781C64.3367 16.2248 63.8567 16.0981 63.3101 16.0981C62.7634 16.0981 62.2834 16.2248 61.8701 16.4781C61.4701 16.7181 61.1501 17.0581 60.9101 17.4981C60.6701 17.9248 60.5501 18.4314 60.5501 19.0181ZM68.7827 20.9781H71.2027C71.2294 21.3914 71.3894 21.7181 71.6827 21.9581C71.9761 22.1848 72.3894 22.2981 72.9227 22.2981C73.4827 22.2981 73.9027 22.1981 74.1827 21.9981C74.4761 21.7981 74.6227 21.5314 74.6227 21.1981C74.6227 20.9714 74.5494 20.7714 74.4027 20.5981C74.2561 20.4248 73.9627 20.2848 73.5227 20.1781L71.7427 19.7781C70.8494 19.5781 70.1827 19.2581 69.7427 18.8181C69.3027 18.3648 69.0827 17.7314 69.0827 16.9181C69.0827 16.2648 69.2494 15.7048 69.5827 15.2381C69.9294 14.7714 70.4027 14.4181 71.0027 14.1781C71.6027 13.9248 72.2827 13.7981 73.0427 13.7981C73.7894 13.7981 74.4427 13.9314 75.0027 14.1981C75.5761 14.4648 76.0227 14.8381 76.3427 15.3181C76.6627 15.7981 76.8227 16.3714 76.8227 17.0381H74.3827C74.3827 16.6248 74.2561 16.2981 74.0027 16.0581C73.7494 15.8181 73.3961 15.6981 72.9427 15.6981C72.4894 15.6981 72.1361 15.7981 71.8827 15.9981C71.6294 16.1981 71.5027 16.4714 71.5027 16.8181C71.5027 17.3381 71.9161 17.6981 72.7427 17.8981L74.5427 18.2981C75.3694 18.4848 75.9894 18.7914 76.4027 19.2181C76.8294 19.6314 77.0427 20.2181 77.0427 20.9781C77.0427 21.6448 76.8627 22.2248 76.5027 22.7181C76.1561 23.2114 75.6627 23.5914 75.0227 23.8581C74.3961 24.1248 73.6694 24.2581 72.8427 24.2581C71.6027 24.2581 70.6161 23.9581 69.8827 23.3581C69.1494 22.7448 68.7827 21.9514 68.7827 20.9781ZM77.0991 20.9781H79.5191C79.5458 21.3914 79.7058 21.7181 79.9991 21.9581C80.2925 22.1848 80.7058 22.2981 81.2391 22.2981C81.7991 22.2981 82.2191 22.1981 82.4991 21.9981C82.7925 21.7981 82.9391 21.5314 82.9391 21.1981C82.9391 20.9714 82.8658 20.7714 82.7191 20.5981C82.5725 20.4248 82.2791 20.2848 81.8391 20.1781L80.0591 19.7781C79.1658 19.5781 78.4991 19.2581 78.0591 18.8181C77.6191 18.3648 77.3991 17.7314 77.3991 16.9181C77.3991 16.2648 77.5658 15.7048 77.8991 15.2381C78.2458 14.7714 78.7191 14.4181 79.3191 14.1781C79.9191 13.9248 80.5991 13.7981 81.3591 13.7981C82.1058 13.7981 82.7591 13.9314 83.3191 14.1981C83.8925 14.4648 84.3391 14.8381 84.6591 15.3181C84.9791 15.7981 85.1391 16.3714 85.1391 17.0381H82.6991C82.6991 16.6248 82.5725 16.2981 82.3191 16.0581C82.0658 15.8181 81.7125 15.6981 81.2591 15.6981C80.8058 15.6981 80.4525 15.7981 80.1991 15.9981C79.9458 16.1981 79.8191 16.4714 79.8191 16.8181C79.8191 17.3381 80.2325 17.6981 81.0591 17.8981L82.8591 18.2981C83.6858 18.4848 84.3058 18.7914 84.7191 19.2181C85.1458 19.6314 85.3591 20.2181 85.3591 20.9781C85.3591 21.6448 85.1791 22.2248 84.8191 22.7181C84.4725 23.2114 83.9791 23.5914 83.3391 23.8581C82.7125 24.1248 81.9858 24.2581 81.1591 24.2581C79.9191 24.2581 78.9325 23.9581 78.1991 23.3581C77.4658 22.7448 77.0991 21.9514 77.0991 20.9781ZM90.907 10.6181V23.9981H88.227V10.6181H90.907ZM83.967 11.8381V9.33813H95.167V11.8381H83.967ZM98.5218 24.2581C97.5485 24.2581 96.6818 24.0381 95.9218 23.5981C95.1618 23.1448 94.5618 22.5248 94.1218 21.7381C93.6951 20.9514 93.4818 20.0514 93.4818 19.0381C93.4818 18.0114 93.6885 17.1048 94.1018 16.3181C94.5285 15.5314 95.1151 14.9181 95.8618 14.4781C96.6218 14.0248 97.4885 13.7981 98.4618 13.7981C99.4618 13.7981 100.322 14.0114 101.042 14.4381C101.775 14.8514 102.342 15.4381 102.742 16.1981C103.142 16.9581 103.342 17.8581 103.342 18.8981V19.6381L94.8418 19.6781L94.8818 18.0381H100.802C100.802 17.3848 100.589 16.8648 100.162 16.4781C99.7485 16.0914 99.1818 15.8981 98.4618 15.8981C97.9018 15.8981 97.4285 16.0181 97.0418 16.2581C96.6685 16.4848 96.3818 16.8314 96.1818 17.2981C95.9951 17.7514 95.9018 18.3248 95.9018 19.0181C95.9018 20.0581 96.1218 20.8448 96.5618 21.3781C97.0151 21.8981 97.6885 22.1581 98.5818 22.1581C99.2351 22.1581 99.7685 22.0381 100.182 21.7981C100.609 21.5581 100.882 21.2114 101.002 20.7581H103.382C103.182 21.8381 102.649 22.6914 101.782 23.3181C100.915 23.9448 99.8285 24.2581 98.5218 24.2581ZM103.693 19.0181C103.693 18.0048 103.906 17.1048 104.333 16.3181C104.76 15.5314 105.346 14.9181 106.093 14.4781C106.84 14.0248 107.7 13.7981 108.673 13.7981C110.046 13.7981 111.166 14.1581 112.033 14.8781C112.913 15.5848 113.413 16.5381 113.533 17.7381H110.953C110.833 17.1914 110.58 16.7781 110.193 16.4981C109.82 16.2181 109.346 16.0781 108.773 16.0781C108.28 16.0781 107.84 16.2048 107.453 16.4581C107.08 16.6981 106.786 17.0381 106.573 17.4781C106.373 17.9048 106.273 18.4181 106.273 19.0181C106.273 19.6181 106.366 20.1381 106.553 20.5781C106.753 21.0181 107.033 21.3581 107.393 21.5981C107.766 21.8381 108.206 21.9581 108.713 21.9581C109.313 21.9581 109.806 21.8181 110.193 21.5381C110.593 21.2448 110.853 20.8314 110.973 20.2981H113.553C113.46 21.0848 113.193 21.7781 112.753 22.3781C112.326 22.9648 111.76 23.4248 111.053 23.7581C110.36 24.0914 109.58 24.2581 108.713 24.2581C107.7 24.2581 106.813 24.0381 106.053 23.5981C105.306 23.1581 104.726 22.5514 104.313 21.7781C103.9 20.9914 103.693 20.0714 103.693 19.0181ZM116.907 23.9981H114.347V9.07812H116.927V15.3381C117.234 14.8581 117.66 14.4848 118.207 14.2181C118.767 13.9381 119.4 13.7981 120.107 13.7981C121.32 13.7981 122.24 14.1648 122.867 14.8981C123.507 15.6181 123.827 16.6181 123.827 17.8981V23.9981H121.267V18.4981C121.267 17.9781 121.18 17.5448 121.007 17.1981C120.847 16.8381 120.614 16.5714 120.307 16.3981C120.014 16.2114 119.667 16.1181 119.267 16.1181C118.774 16.1181 118.354 16.2248 118.007 16.4381C117.66 16.6514 117.387 16.9448 117.187 17.3181C117 17.6781 116.907 18.0981 116.907 18.5781V23.9981Z" fill="#959595"/>
<defs>
<linearGradient id="paint0_linear_5855_17627" x1="5.21305" y1="22.7558" x2="29.7479" y2="6.27671" gradientUnits="userSpaceOnUse">
<stop offset="0.07" stop-color="#959595"/>
<stop offset="0.447917" stop-color="#959595"/>
<stop offset="0.76" stop-color="#959595"/>
</linearGradient>
</defs>
</svg>
