<svg xmlns="http://www.w3.org/2000/svg" width="262" height="72" viewBox="0 0 262 72">
  <path fill="#959595" d="M63.33.06v55.48l7.15.03V29.16h17.26v-6.99H70.48V7.05h22.47V.06H63.33Zm42.52 11.26a4.66 4.66 0 1 0 .02-9.31 4.66 4.66 0 0 0-.02 9.3Zm-3.63 6.99v37.23h7.15V18.31h-7.15Z"/>
  <path fill="#959595" d="M135.9 17.22c-9.5 0-16.14 8.02-16.14 17.54s6.63 17.54 16.15 17.54a14.3 14.3 0 0 0 10.56-4.4v4.92a11.2 11.2 0 0 1-11.22 11.31 11.4 11.4 0 0 1-6.35-2.12l-3.6 6.2a18.23 18.23 0 0 0 9.93 2.91 18.32 18.32 0 0 0 18.35-18.3V18.31h-7.12v3.32a14.29 14.29 0 0 0-10.55-4.4Zm-8.96 17.54c0-5.9 4.52-10.55 9.76-10.55s9.77 4.65 9.77 10.55-4.53 10.55-9.77 10.55c-5.24 0-9.76-4.65-9.76-10.55Z" clip-rule="evenodd"/>
  <path fill="#959595" d="M179.41 24.21a7.8 7.8 0 0 0-7.66 7.8v23.53h-7.15V18.31h7.15v3.4a11.3 11.3 0 0 1 9.22-4.49c5.02 0 8.86 2.48 11.1 6.28 2.48-3.67 6.52-6.28 11.4-6.28 8.15 0 13.23 6.56 13.25 14.66v23.66h-7.14V32a7.8 7.8 0 0 0-7.67-7.8 7.8 7.8 0 0 0-7.66 7.8v23.55h-7.15V32a7.82 7.82 0 0 0-7.69-7.78Zm75.44-1.69a17.3 17.3 0 0 0-12.6-5.3c-10.63 0-18.22 9-18.22 19.72 0 10.71 7.56 19.72 18.22 19.72a17.4 17.4 0 0 0 12.6-5.3v4.18H262V18.31h-7.15v4.21Zm-23.64 14.42c0-7.1 5.45-12.73 11.83-12.73 6.36 0 11.84 5.6 11.84 12.73 0 7.1-5.45 12.73-11.84 12.73-6.38-.03-11.83-5.63-11.83-12.73Zm-207.18-.93a12.02 12.02 0 0 1 24.06.01 12.03 12.03 0 0 1-24.06 0ZM0 59.97c0-6.6 5.37-11.99 12.03-11.99h12.03v12c0 6.6-5.38 11.99-12.03 11.99A12 12 0 0 1 0 59.97Z"/>
  <path fill="#D8D8D8" d="M24.03.06v23.96h12.03c6.62 0 12.03-5.36 12.03-12C48.09 5.43 42.7.04 36.06.04H24.03v.03Z"/>
  <path fill="#959595" d="M0 12.05c0 6.61 5.37 12 12.03 12h12.03V.06H12.03A12 12 0 0 0 0 12.06Z"/>
  <path fill="#D8D8D8" d="M0 36.01c0 6.61 5.37 12 12.03 12h12.03V24.02H12.03A12.01 12.01 0 0 0 0 36.02Z"/>
</svg>
