<svg xmlns="http://www.w3.org/2000/svg" width="177" height="26" fill="none" xmlns:v="https://vecta.io/nano"><g clip-path="url(#A)"><g fill="#959595"><path d="M39 21.646h2.726V14.49h6.978v-2.385h-6.978V7.72h7.53V5.335H39v16.311zM55.693 5.335h-2.736v16.311h9.853v-2.354h-7.116V5.335zm19.176 0h-3.097l-6.713 16.311h2.8l1.909-4.834h6.872l1.951 4.834h2.874L74.869 5.335zm-1.644 2.699l2.503 6.508h-5.069l2.567-6.508zm15.409-.282c1.124-.492 2.832-.534 3.988-.178.509.157.954.377 1.326.649s.689.596.954.963a6.46 6.46 0 0 1 .668 1.172l.042.094h2.8l-.064-.209a7.38 7.38 0 0 0-.954-2.072c-.414-.628-.944-1.182-1.559-1.653a7.24 7.24 0 0 0-2.185-1.099c-1.845-.596-4.454-.523-6.226.241-1.018.429-1.909 1.025-2.63 1.779s-1.283 1.664-1.676 2.689c-.795 2.03-.774 4.876.011 6.884.403 1.036.965 1.936 1.676 2.668a7.61 7.61 0 0 0 2.556 1.716c1.517.638 3.606.785 5.218.377.594-.157 1.124-.345 1.58-.586s.848-.502 1.177-.795l.509-.481-.011.764v.963h2.503V12.86h-8.379v2.365h5.897c-.053.492-.18.994-.382 1.486a4.89 4.89 0 0 1-.944 1.507c-.403.439-.923.806-1.548 1.078-1.209.544-3.192.555-4.423-.021-.647-.283-1.209-.701-1.676-1.245s-.827-1.203-1.082-1.956c-.509-1.486-.498-3.725.011-5.2.254-.753.626-1.412 1.103-1.936a4.98 4.98 0 0 1 1.718-1.182zm24.169 6.12c-.413-.356-.933-.659-1.527-.921a16.85 16.85 0 0 0-1.962-.701l-1.135-.335-1.241-.408a4.3 4.3 0 0 1-.986-.492c-.265-.188-.477-.418-.636-.691a1.93 1.93 0 0 1-.234-.963 1.81 1.81 0 0 1 .722-1.507c.488-.387 1.198-.586 2.11-.586.933 0 1.665.209 2.164.617s.816 1.004.944 1.768l.021.136h2.768l-.021-.178c-.159-1.412-.721-2.542-1.687-3.369S109.749 5 107.978 5c-.859 0-1.644.115-2.355.335a5.74 5.74 0 0 0-1.824.931 4.22 4.22 0 0 0-1.188 1.444c-.286.555-.424 1.182-.424 1.862 0 .659.117 1.245.34 1.737s.562.921.986 1.297c.413.366.933.691 1.538.963a15.57 15.57 0 0 0 1.994.743l1.06.335 1.294.44a5.24 5.24 0 0 1 1.007.481 1.93 1.93 0 0 1 .637.67c.148.262.233.607.233 1.004a2.24 2.24 0 0 1-.848 1.821c-.573.46-1.379.701-2.408.701-.551 0-1.05-.073-1.463-.22-.414-.136-.775-.345-1.05-.596a2.88 2.88 0 0 1-.69-.9c-.169-.345-.297-.732-.371-1.13l-.021-.136h-2.736l.01.178c.106 1.58.732 2.814 1.846 3.693 1.103.868 2.609 1.308 4.465 1.308.891 0 1.718-.115 2.46-.356.753-.241 1.4-.575 1.941-1.015a4.61 4.61 0 0 0 1.262-1.59c.308-.617.456-1.308.456-2.061 0-.691-.117-1.297-.361-1.789-.212-.492-.54-.921-.965-1.276zm3.48-6.152h4.401v13.926h2.715V7.72h4.391V5.335h-11.507V7.72zm27.097-.345c-.732-.743-1.622-1.329-2.641-1.737-1.993-.816-4.793-.827-6.787 0-1.018.408-1.909.994-2.63 1.737s-1.294 1.643-1.687 2.678c-.795 2.019-.795 4.876 0 6.895.403 1.036.965 1.936 1.687 2.668s1.612 1.318 2.63 1.726c1.994.816 4.815.816 6.809 0 1.018-.408 1.909-.994 2.64-1.726s1.305-1.632 1.687-2.678c.785-2.03.785-4.865-.011-6.895-.403-1.025-.976-1.925-1.697-2.668zm-.636 6.1c0 .9-.127 1.747-.382 2.501s-.604 1.412-1.071 1.956a4.76 4.76 0 0 1-1.697 1.276c-1.304.607-3.256.607-4.539-.01-.658-.303-1.23-.743-1.686-1.287s-.817-1.203-1.072-1.957c-.498-1.475-.498-3.474-.01-4.959.244-.753.594-1.402 1.06-1.946.456-.534 1.029-.963 1.687-1.266 1.294-.607 3.266-.596 4.571-.01a4.59 4.59 0 0 1 1.697 1.256c.456.544.816 1.193 1.071 1.946.244.764.371 1.601.371 2.501zm16.714.45l.043 3.808-1.729-2.971-5.557-9.427h-3.436v16.311h2.683v-8.621l-.021-3.798a1576.38 1576.38 0 0 0 1.94 3.348l5.42 9.071h3.341V5.335h-2.684v8.59zm9.63 5.367V14.49h7.212v-2.354h-7.212V7.72h7.753V5.335h-10.489v16.311H177v-2.354h-7.912zM26 0H0v26h26V0z"/></g><g fill="#616161"><path d="M13.961 11.377H5.557v2.847h8.404l1.555-1.429-1.555-1.418zm-6.369 5.807L5.326 19.45l2.266 2.266 2.266-2.266-2.266-2.266zM19.486 5.2H5.557v2.847h13.93l1.555-1.429L19.486 5.2z"/></g></g><defs><clipPath id="A"><path fill="#fff" d="M0 0h177v26H0z"/></clipPath></defs></svg>