<svg width="231" height="32" viewBox="0 0 231 32" fill="none" xmlns="http://www.w3.org/2000/svg">
<path d="M82.8868 15.4435C82.8868 10.8901 79.5739 6.99447 74.579 6.99447C69.5841 6.99447 66.1693 10.9407 66.1693 15.4435C66.1693 19.8956 69.4822 23.7913 74.4771 23.7913C76.5668 23.7913 78.1977 23.1842 79.6758 22.0205L81.8675 23.9937L83.0907 22.6277L80.8991 20.8569C82.1733 19.3391 82.8868 17.4166 82.8868 15.4435ZM79.5739 19.6427L76.5668 16.9613L75.3435 18.3273L78.3506 20.9075C77.3313 21.6158 76.0571 22.1217 74.63 22.1217C70.9093 22.1217 68.208 19.1367 68.208 15.3929C68.208 11.6996 70.9093 8.66403 74.63 8.66403C78.3506 8.66403 81.052 11.649 81.052 15.3929C81.052 17.0624 80.5423 18.5296 79.5739 19.6427ZM98.3811 16.6577C98.3811 20.1486 96.4953 22.0205 93.3862 22.0205C90.2772 22.0205 88.3914 20.0474 88.3914 16.5565V7.14624H86.5055V16.6577C86.5055 21.3122 89.3088 23.6901 93.3862 23.6901C97.4637 23.6901 100.267 21.2111 100.267 16.4553V7.14624H98.3811V16.6577ZM209.237 22.1217C205.618 22.1217 202.917 19.1367 202.917 15.3929C202.917 11.6996 205.618 8.66403 209.237 8.66403C211.428 8.66403 212.957 9.5747 214.435 10.9407L215.659 9.57469C213.977 8.00631 212.244 6.99447 209.237 6.99447C204.446 6.99447 200.929 10.7889 200.929 15.4435C200.929 20.098 204.446 23.7913 209.135 23.7913C212.142 23.7913 214.028 22.6783 215.71 20.9075L214.486 19.7945C213.008 21.2111 211.53 22.1217 209.237 22.1217ZM220.908 21.8182V16.1518H229.828V14.4822H220.908V8.91699H230.898V7.24743H219.023V23.5889H231V21.8182H220.908ZM176.26 7.29801H170.144V23.5889H172.03V17.8213H176.005C179.522 17.8213 182.427 15.9494 182.427 12.4585C182.427 9.22055 180.032 7.29801 176.26 7.29801ZM180.542 12.5597C180.542 14.7352 178.758 16.1518 176.056 16.1518H171.979V9.01818H176.158C178.758 8.917 180.542 10.1818 180.542 12.5597ZM57.8615 14.4822C54.2428 13.7739 53.3763 12.8126 53.3763 11.2949C53.3763 9.82767 54.7524 8.71462 56.8931 8.71462C58.5751 8.71462 60.1041 9.22055 61.6841 10.4854L62.7035 9.01818C61.0215 7.65217 59.3905 7.04505 56.995 7.04505C53.886 7.04505 51.5924 8.91699 51.5924 11.4972C51.5924 14.1787 53.3763 15.4435 57.097 16.253C60.5118 16.9613 61.3783 17.8213 61.3783 19.3391C61.3783 21.0087 59.9002 22.1217 57.7596 22.1217C55.466 22.1217 53.7841 21.4134 52.1531 19.8451L51.0318 21.2111C53.0195 22.9818 55.1092 23.7913 57.7086 23.7913C60.9196 23.7913 63.3151 21.9194 63.3151 19.1368C63.1622 16.5565 61.4802 15.3423 57.8615 14.4822ZM141.347 16.1518H150.267V14.4822H141.347V8.91699H151.337V7.24743H139.461V23.5889H151.439V21.8182H141.347V16.1518ZM161.123 14.4822C157.504 13.7739 156.638 12.8126 156.638 11.2949C156.638 9.82767 158.014 8.71462 160.154 8.71462C161.836 8.71462 163.365 9.22055 164.945 10.4854L165.965 9.01818C164.283 7.65217 162.652 7.04505 160.256 7.04505C157.147 7.04505 154.854 8.91699 154.854 11.4972C154.854 14.1787 156.638 15.4435 160.358 16.253C163.773 16.9613 164.64 17.8213 164.64 19.3391C164.64 21.0087 163.162 22.1217 161.021 22.1217C158.727 22.1217 157.045 21.4134 155.414 19.8451L154.293 21.2111C156.281 22.9818 158.371 23.7913 160.97 23.7913C164.181 23.7913 166.576 21.9194 166.576 19.1368C166.423 16.5565 164.742 15.3423 161.123 14.4822ZM110.155 7.19684L102.662 23.5889H104.548L106.536 19.2379H115.455L117.341 23.5889H119.329L111.837 7.19684H110.155ZM107.25 17.619L110.97 9.37232L114.691 17.619H107.25ZM190.226 7.19684L182.733 23.5889H184.619L186.607 19.2379H195.526L197.412 23.5889H199.4L191.907 7.19684H190.226ZM187.32 17.619L191.041 9.37232L194.762 17.619H187.32ZM135.537 12.1549C135.537 10.7889 135.027 9.67588 134.314 8.86639C133.294 7.85454 131.714 7.19684 129.625 7.19684H122.54V23.4877H124.426V17.2142H129.115L133.906 23.4877H136.199L131.205 16.8601C133.651 16.3542 135.537 14.8364 135.537 12.1549ZM124.375 15.5447V8.91699H129.472C132.071 8.91699 133.651 10.1312 133.651 12.1043C133.651 14.1786 131.867 15.3929 129.37 15.3929H124.375V15.5447ZM6.38375 17.4166C7.0973 18.1249 8.3715 18.1249 9.18699 17.4166L21.5722 5.12252C23.1522 3.55414 25.5477 3.55414 27.0768 5.12252C27.7903 5.83082 29.0645 5.83082 29.88 5.12252C30.5936 4.41422 30.5936 3.1494 29.88 2.33991C26.8729 -0.645066 21.878 -0.645066 18.8709 2.33991L6.38375 14.5834C5.56826 15.4435 5.56826 16.5565 6.38375 17.4166ZM25.5987 9.11936C26.3123 8.41106 26.3123 7.14624 25.5987 6.33675C24.8852 5.62845 23.611 5.62845 22.7955 6.33675L10.4612 18.732C8.88118 20.3004 6.48568 20.3004 4.95664 18.732C3.37663 17.1636 3.37663 14.7858 4.95664 13.268L17.138 1.17628C15.558 -0.392095 13.1625 -0.392095 11.6335 1.17628L2.25534 10.4854C-0.751779 13.4704 -0.751779 18.4285 2.25534 21.4134C5.26245 24.3984 10.2573 24.3984 13.2644 21.4134L25.5987 9.11936ZM27.0768 10.4854L14.5896 22.8806C13.8761 23.5889 13.8761 24.8538 14.5896 25.6632C15.3032 26.3715 16.5774 26.3715 17.3928 25.6632L29.7781 13.3692C31.3581 11.8008 33.7536 11.8008 35.2826 13.3692C36.8117 14.9375 36.8627 17.3154 35.2826 18.8332L23.1013 30.8237C24.6813 32.3921 27.0768 32.3921 28.6058 30.8237L38.0859 21.4134C41.093 18.4285 41.093 13.4704 38.0859 10.4854C34.9768 7.50039 30.0839 7.50039 27.0768 10.4854ZM33.9575 14.5834C33.2439 13.8751 31.9697 13.8751 31.1542 14.5834L18.769 26.9787C17.189 28.547 14.7935 28.547 13.2644 26.9787C12.5509 26.2704 11.2767 26.2704 10.4612 26.9787C9.74764 27.687 9.74764 28.9518 10.4612 29.7613C13.4683 32.7462 18.4632 32.7462 21.4703 29.7613L33.8555 17.4672C34.671 16.5565 34.671 15.4435 33.9575 14.5834Z" fill="#959595"/>
</svg>
