<svg width="122" height="27" viewBox="0 0 122 27" fill="none" xmlns="http://www.w3.org/2000/svg">
<path d="M79.1705 9.8319C77.1134 8.0541 74.6302 7.1853 71.759 7.1853C68.9273 7.1853 66.4441 8.0556 64.3854 9.8319C62.3283 11.5709 61.2828 13.9917 61.2828 17.0927C61.2828 20.1936 62.3283 22.613 64.3854 24.3906C66.4425 26.1298 68.9273 27 71.7589 27C74.6302 27 77.1134 26.1298 79.1705 24.3906C81.2672 22.613 82.3126 20.1936 82.3126 17.0926C82.3126 13.9916 81.2658 11.571 79.1705 9.8319ZM67.8804 21.0625C66.7954 20.0422 66.2493 18.7175 66.2493 17.0927C66.2493 15.4665 66.7912 14.1432 67.8804 13.16C68.9653 12.1397 70.2479 11.648 71.7575 11.648C73.2685 11.648 74.5892 12.1397 75.6757 13.16C76.7986 14.1432 77.3447 15.4665 77.3447 17.0927C77.3447 18.7189 76.803 20.0422 75.6756 21.0625C74.5906 22.0455 73.27 22.5372 71.7575 22.5372C70.2479 22.5372 68.9683 22.0456 67.8804 21.0625ZM89.6496 26.4693V0.5213H84.7608V26.4693H89.6496ZM105.43 7.7137V18.0669C105.43 20.5619 104.047 22.2153 101.412 22.2153C98.7345 22.2153 97.3874 20.5633 97.3874 18.0669V7.7137H92.4898V18.8614C92.4898 23.1799 95.2834 26.9982 101.412 26.9982H101.45C107.542 26.9982 110.331 23.0956 110.331 18.8614V7.7137H105.43ZM56.0785 7.7137L51.1896 20.419L46.3008 7.7137H41.1015L48.9026 26.4695H53.4825L61.2821 7.7137H56.0785ZM41.1267 16.5625C41.1267 13.8402 40.2351 11.6095 38.4885 9.8319C36.7415 8.0541 34.4941 7.1853 31.7385 7.1853C28.9069 7.1853 26.4997 8.1313 24.5201 9.9833C22.5787 11.8368 21.6109 14.1803 21.6109 17.0927C21.6109 20.005 22.5801 22.3872 24.4821 24.2392C26.4237 26.0926 28.7516 27 31.5057 27C35.7372 27 38.724 25.1852 40.544 21.5169L36.8982 19.4748C35.6976 21.7813 33.9495 22.9158 31.5834 22.9158C28.6741 22.9158 26.6169 21.1011 26.3064 18.2273H41.1254V16.5625H41.1267ZM31.5804 10.815C34.3346 10.815 36.1603 12.3269 36.6244 14.7477H26.3036C27.0429 12.517 29.0577 10.815 31.5804 10.815ZM21.611 26.4696L15.0516 15.2776C19.201 13.8029 21.2582 11.2321 21.2582 7.488C21.2626 2.9123 17.5348 0 11.5992 0H0V26.4696H5.12168V15.7306H9.46876L15.7529 26.4696H21.611ZM11.5992 4.3856C14.6256 4.3856 16.1396 5.5574 16.1396 7.8639C16.1396 10.1703 14.6242 11.3421 11.5992 11.3421H5.12168V4.3856H11.5992ZM118.619 26.9984C115.472 26.9984 112.92 24.5104 112.92 21.4394V2.6467H117.808V7.721H122V11.5779H117.808V21.1337C117.808 22.034 118.557 22.7627 119.482 22.7627H122V26.9984H118.619Z" fill="#959595"/>
</svg>
