<svg xmlns="http://www.w3.org/2000/svg" width="130" height="56" fill="#959595" viewBox="0 0 130 56">
  <path d="M0 27.54v-.08c0-7.86 6.15-14.51 14.82-14.51 4.31 0 7.18 1 9.8 2.85a2.51 2.51 0 0 1 1.03 2 2.39 2.39 0 0 1-.73 1.73 2.5 2.5 0 0 1-1.77.71c-.66 0-1.15-.28-1.55-.56a11.15 11.15 0 0 0-6.96-2.2c-5.31 0-9.33 4.54-9.33 9.9v.08c0 5.78 3.89 10.04 9.77 10.04 2.71 0 5.18-.84 6.94-2.13v-5.26h-5.67c-1.24 0-2.26-.93-2.26-2.13a2.2 2.2 0 0 1 2.26-2.16h8.01a2.48 2.48 0 0 1 2.55 2.49v7.5a3.4 3.4 0 0 1-1.76 3.13A18.5 18.5 0 0 1 14.93 42C5.9 41.97 0 35.7 0 27.54ZM31.4 14.4a2.35 2.35 0 0 1 .72-1.7 2.46 2.46 0 0 1 1.75-.71c1.4 0 2.5 1.08 2.5 2.41v24.87c0 1.36-1.1 2.41-2.5 2.41a2.5 2.5 0 0 1-1.75-.7 2.4 2.4 0 0 1-.72-1.71V14.4Zm8.83 16.62v-.07c0-6.07 4.92-11.08 11.56-11.08 6.65 0 11.54 4.94 11.54 11v.08c0 6-4.91 11.04-11.61 11.04-6.6-.03-11.49-4.96-11.49-10.97Zm18.13 0v-.07c0-3.73-2.76-6.84-6.64-6.84-4 0-6.52 3.06-6.52 6.73v.08c0 3.7 2.76 6.78 6.6 6.78 4.02.03 6.56-3.03 6.56-6.68ZM75.73 41.9h-.23c-1.37 0-2.26-.85-2.84-2.14l-7.23-16.15c-.13-.36-.29-.77-.29-1.2 0-1.21 1.1-2.34 2.47-2.34s2.05.77 2.47 1.77l5.58 14.05 5.67-14.13c.37-.85 1.03-1.7 2.34-1.7 1.37 0 2.42 1 2.42 2.34 0 .44-.16.93-.3 1.16l-7.22 16.2c-.58 1.26-1.47 2.14-2.84 2.14ZM87.9 31.03v-.07c0-6.07 4.92-11.08 11.56-11.08 6.65 0 11.54 4.94 11.54 11v.08c0 6-4.91 11.04-11.62 11.04-6.62-.03-11.48-4.96-11.48-10.97Zm18.13 0v-.07c0-3.73-2.76-6.84-6.65-6.84-3.99 0-6.51 3.06-6.51 6.73v.08a6.6 6.6 0 0 0 6.62 6.78c4 .03 6.54-3.03 6.54-6.68ZM119.99 0A9.86 9.86 0 0 0 110 9.74a9.4 9.4 0 0 0 1.88 5.67l.27.37 5.2 7.16s.65 1.03 2.02 1.03h1.26c1.38 0 2.02-1.03 2.02-1.03l5.2-7.16.27-.37A9.46 9.46 0 0 0 130 9.74 9.9 9.9 0 0 0 119.99 0Zm4.11 12.63-.27.36-3.82 5.28-3.85-5.28-.27-.4a4.91 4.91 0 0 1-.58-4.77 4.92 4.92 0 0 1 2.74-2.67 5.17 5.17 0 0 1 5.52 1.07 4.92 4.92 0 0 1 .53 6.4Zm-6.91 15.72a2.7 2.7 0 0 1 2.77-2.68 2.66 2.66 0 0 1 2.77 2.65v.03a2.7 2.7 0 0 1-2.8 2.65c-1.59-.03-2.74-1.2-2.74-2.65Z"/>
</svg>
