<svg width="320" height="93" viewBox="0 0 320 93" fill="none" xmlns="http://www.w3.org/2000/svg">
<g clip-path="url(#clip0_2536_9369)">
<path d="M0.0374756 17.2947H11.195V42.0345H34.7268V17.2947H45.8987V78.0233H34.7268V52.7639H11.195V78.0233H0.0374756V17.2947ZM81.2456 58.243C81.2456 63.3267 77.0956 67.4635 72.0031 67.4635C66.9087 67.4635 62.7612 63.3267 62.7612 58.243V32.0973H52.18V58.243C52.18 69.1508 61.0731 78.0233 72.0031 78.0233C82.9306 78.0233 91.8231 69.1508 91.8231 58.243V32.0973H81.2456V58.243ZM121.362 32.4035C116.113 32.4035 112.449 33.9237 108.911 37.3899V17.2947H98.2956V54.5366C98.2956 68.4765 108.394 78.0233 119.74 78.0233C132.353 78.0233 143.404 68.3062 143.404 55.214C143.404 42.2877 133.214 32.4035 121.362 32.4035ZM121.626 68.222C114.432 68.222 108.932 62.2264 108.932 55.214C108.932 48.2004 114.432 42.2029 121.626 42.2029C127.721 42.2029 133.224 48.2004 133.224 55.214C133.224 62.2264 127.721 68.222 121.626 68.222ZM161.234 35.0726C161.234 29.7469 164.789 28.0584 168.682 28.0584C171.816 28.0584 175.962 30.4237 178.669 33.2968L185.608 25.1872C182.14 20.5414 175.116 17.3302 169.359 17.3302C157.846 17.3302 149.551 24.0045 149.551 35.0726C149.551 55.6008 174.861 49.0936 174.861 60.5859C174.861 64.1301 171.392 67.2589 167.416 67.2589C161.149 67.2589 159.117 64.2175 156.24 61.0063L148.536 68.9462C153.448 74.945 159.541 77.9877 166.821 77.9877C177.74 77.9877 186.544 71.2292 186.544 60.6676C186.544 37.859 161.234 44.9562 161.234 35.0726ZM214.49 31.8085C203.146 31.8085 193.046 41.3496 193.046 55.2926V92.6306H203.661V72.4399C207.199 75.9037 210.861 77.4263 216.112 77.4263C227.963 77.4263 238.155 67.5434 238.155 54.6171C238.155 41.523 227.101 31.8085 214.49 31.8085ZM216.376 67.6282C209.184 67.6282 203.682 61.6245 203.682 54.6171C203.682 47.6035 209.184 41.6059 216.376 41.6059C222.47 41.6059 227.974 47.6035 227.974 54.6171C227.974 61.6245 222.47 67.6282 216.376 67.6282ZM316.293 68.222C310.032 68.222 308.254 65.5199 308.254 61.3787V43.0475H317.987V33.7559H308.254V21.5051L297.507 26.3193V63.6598C297.507 73.2072 304.107 78.0233 313.161 78.0233C314.515 78.0233 316.379 77.9359 317.396 77.6858L320.021 68.0561C318.836 68.1378 317.482 68.222 316.293 68.222Z" fill="#959595"/>
<path d="M288.299 43.5876C286.264 40.0933 283.401 37.292 279.823 35.183C277.148 33.6292 274.375 32.643 271.25 32.2195V21.1165C274.375 19.7922 276.314 16.8612 276.314 13.4417C276.314 8.78089 272.569 5.00399 267.903 5.00399C263.233 5.00399 259.423 8.78089 259.423 13.4417C259.423 16.8612 261.25 19.7922 264.375 21.1165V32.2245C261.875 32.585 259.283 33.3629 256.915 34.558C252.079 30.8928 236.223 18.8684 226.948 11.8454C227.168 11.0539 227.337 10.238 227.337 9.37721C227.337 4.21492 223.148 0.0307007 217.974 0.0307007C212.799 0.0307007 208.613 4.21492 208.613 9.37721C208.613 14.5389 212.804 18.7243 217.978 18.7243C219.743 18.7243 221.376 18.2091 222.784 17.362L224.742 18.8441L251.639 38.1858C250.218 39.4889 248.893 40.9709 247.834 42.6339C245.687 46.0241 244.375 49.7542 244.375 53.823V54.672C244.375 57.5282 244.919 60.2247 245.845 62.7578C246.661 64.9697 247.853 66.9807 249.33 68.799L240.403 77.7301C239.109 77.2495 237.704 77.1509 236.356 77.446C235.008 77.7411 233.773 78.4175 232.799 79.3943C232.125 80.0637 231.591 80.8599 231.228 81.7368C230.864 82.6138 230.679 83.554 230.682 84.5029C230.683 86.4323 231.436 88.2455 232.803 89.6097C233.473 90.2829 234.271 90.8167 235.149 91.1801C236.028 91.5435 236.97 91.7293 237.921 91.7268C238.872 91.7292 239.814 91.5433 240.693 91.1799C241.572 90.8166 242.369 90.2829 243.04 89.6097C243.714 88.9403 244.248 88.1444 244.611 87.2679C244.975 86.3914 245.161 85.4516 245.159 84.5029C245.159 83.7563 245.043 83.0277 244.826 82.3354L254.053 73.1255C255.318 73.9975 256.684 74.7317 258.153 75.3648C261.049 76.6148 264.247 77.3764 267.746 77.3764H268.388C272.256 77.3764 275.906 76.4695 279.336 74.6144C282.951 72.6539 285.781 69.9729 287.918 66.5503C290.067 63.1184 291.25 59.3265 291.25 55.1548V54.9464C291.25 50.8427 290.298 47.0564 288.299 43.5876ZM277.025 62.9075C274.521 65.6852 271.642 67.3962 268.388 67.3962H267.851C265.993 67.3962 264.174 66.8834 262.394 65.9509C260.388 64.9242 258.863 63.4596 257.615 61.6051C256.325 59.785 255.625 57.7977 255.625 55.6906V55.0506C255.625 52.9791 256.023 51.0148 257.027 49.1597C258.1 47.1319 259.549 45.555 261.477 44.3012C263.369 43.0562 265.391 42.4455 267.642 42.4455H267.851C269.893 42.4455 271.825 42.8472 273.649 43.7785C275.507 44.7716 277.025 46.1282 278.202 47.9128C279.345 49.6981 280.025 51.6236 280.244 53.7213C280.278 54.1574 280.296 54.604 280.296 55.0306C280.296 57.8775 279.206 60.5142 277.025 62.9075Z" fill="#D8D8D8"/>
</g>
<defs>
<clipPath id="clip0_2536_9369">
<rect width="320" height="93" fill="white"/>
</clipPath>
</defs>
</svg>
