<svg xmlns="http://www.w3.org/2000/svg" width="645" height="169" fill="none" xmlns:v="https://vecta.io/nano"><g clip-path="url(#B)"><mask id="A" maskUnits="userSpaceOnUse" x="0" y="0" width="645" height="169"><path d="M0 0H645V169H0V0Z" fill="#232323"/></mask><g mask="url(#A)"><path fill-rule="evenodd" d="M405.566 88.991V37.963h-22.212v51.029c0 11.197-9.096 20.307-20.278 20.307s-20.279-9.11-20.279-20.307V37.963h-22.211v51.029c0 23.461 19.061 42.547 42.49 42.547s42.49-19.086 42.49-42.547zm125.163-52.608c-26.241 0-47.514 21.301-47.514 47.578s21.273 47.577 47.514 47.577 47.514-21.301 47.514-47.577-21.273-47.578-47.514-47.578zm0 22.018c14.075 0 25.525 11.466 25.525 25.56s-11.45 25.559-25.525 25.559-25.524-11.466-25.524-25.559 11.449-25.559 25.524-25.559zM645 36.254l-1.531 21.301c-19.061 0-31.653 9.202-31.653 23.005v49.248h-23.145v-91.85h22.294l.34 12.27c7.318-9.032 18.89-13.973 33.695-13.973zm-177.554 74.308c-8.222 0-12.335-4.117-12.335-15.346V56.873h23.349v-18.91h-23.349V11.034h-23.173v26.929h-15.113v18.91h15.113v39.83c0 23.018 12.895 34.808 34.574 34.808 5.42 0 10.466-1.123 15.326-3.369l-.002-.006-8.165-18.622a18.78 18.78 0 0 1-6.225 1.048zM337.993 19.937h-38.46v109.871h-23.995V19.937h-38.29V0h100.745v19.937zM169.322 166.444l2.382-18.915c2.042 1.022 4.425 1.534 7.318 1.534 7.487 0 10.551-4.601 14.125-11.587l4.594-9.713-39.31-89.805h25.356l25.867 64.755 24.165-64.755h25.186L215.78 140.372C208.463 158.095 200.634 169 182.936 169c-5.275 0-10.211-1.022-13.614-2.556zm-42.303-36.636l-5.052-88.11-39.379 88.11h-13.59L29.62 42.048l-5.053 87.76H0L8.712 0h27.007l40.075 89.504L115.868 0h27.007l8.712 129.808h-24.568z" fill="#959595"/></g></g><defs><clipPath id="B"><path fill="#fff" d="M0 0h645v169H0z"/></clipPath></defs></svg>