<svg xmlns="http://www.w3.org/2000/svg" width="109" height="52" fill="#959595" viewBox="0 0 109 52">
  <path d="M105.54 42.85v8.36h1.32V41.2h-1.8l-2.87 6.62-2.86-6.62H97.5v10h1.33v-8.36h.03c.22.8.5 1.57.85 2.33l2.07 4.7h.77l2.1-4.68c.36-.75.64-1.53.86-2.33l.02-.02Zm-8.6-25.96-1 4.42h2.07l-1.03-4.42h-.03Zm-34.56 0-.94 4.42h2.07l-1.08-4.42h-.05Zm24.44.05v2.4h1.32c1.05 0 1.36-.62 1.36-1.25 0-.62-.39-1.16-1.4-1.16l-1.28.01Zm7.05 13.13v2.4h1.4c1.06 0 1.36-.61 1.36-1.25 0-.63-.38-1.16-1.38-1.16l-1.38.01Zm-6.92 3.07c0 2.13-.46 3.21-1.92 3.21s-1.92-1.08-1.92-3.21.46-3.22 1.92-3.22 1.92 1.09 1.92 3.22Zm-27.38-5.01h2.55v10.02h-2.55V28.12Zm21.07 18.33h4.19v-1.08h-4.2v-3.1h3.85c.77 0 1.07-.31 1.07-.9v-.19H79.3v10.03h6.46v-1.1h-5.12v-3.66Zm-10.42-2.7c0 3.48 5.43 2.32 5.43 4.86 0 1.12-.93 1.71-2.38 1.71a3.86 3.86 0 0 1-2.9-1.23l-.77.97a5.08 5.08 0 0 0 3.7 1.38c2.06 0 3.81-.92 3.81-2.93 0-3.52-5.54-2.53-5.54-4.87 0-.96.76-1.57 1.96-1.57a3.67 3.67 0 0 1 2.71 1.14l.82-.82a4.65 4.65 0 0 0-3.51-1.44c-2.15 0-3.33 1.16-3.33 2.8m-8.21-1.5c0-.74-.31-1.07-1.05-1.07h-.28v6.64c0 2.66 1.96 3.62 3.73 3.62s3.73-.96 3.73-3.62V41.2h-1.32v6.58c0 1.86-1.16 2.5-2.41 2.5-1.25 0-2.4-.64-2.4-2.5v-5.51Zm31.78 0c0-.74.3-1.07 1.05-1.07h.27v6.64c0 2.66-1.96 3.62-3.72 3.62-1.77 0-3.73-.96-3.73-3.62V41.2h1.32v6.58c0 1.86 1.16 2.5 2.4 2.5 1.26 0 2.42-.64 2.42-2.5v-5.51h-.01Zm8.8-17.23V14.99h2.48v8h3.55v2.04h-6.04.01Zm-33.73 0v-8h-2.35v-2.04h7.26v.48c0 1.09-.42 1.55-1.78 1.55h-.66v8h-2.47Zm6.09 13.12v-8h-2.5v-2.03h7.63v.48c0 1.09-.42 1.55-1.78 1.55h-.82v8h-2.53Zm29.43-5.76 1.84-4.26h2.79l-3.39 6.7v3.33h-2.52v-3.33l-3.4-6.7h2.78l1.85 4.26h.05ZM56.93 42.86v8.36h1.33V41.18h-1.82l-2.86 6.63-2.86-6.63H48.9v10.03h1.32v-8.36h.04c.23.8.51 1.57.85 2.33l2.08 4.7h.77l2.07-4.7c.35-.75.63-1.53.85-2.33h.05Zm10.79-4.48A6.32 6.32 0 0 1 63.64 37l1.04-1.73a4.6 4.6 0 0 0 2.93 1.16c.93 0 1.68-.23 1.68-.97 0-1.76-5.2-.93-5.2-4.49 0-2.09 1.78-3.1 3.73-3.1 1.3-.03 2.58.4 3.6 1.22l-.93 1.74a4.43 4.43 0 0 0-2.69-1.01c-.82 0-1.28.3-1.28.86 0 1.74 5.21.93 5.21 4.5 0 2-1.72 3.19-4.02 3.19m12.26-23.4h2.5v6.75c0 2.71-1.87 3.53-3.9 3.53-2.01 0-3.87-.82-3.87-3.53V15h.58c1.43 0 1.9.68 1.9 2.02v4.65c0 1.08.46 1.59 1.4 1.59.92 0 1.4-.5 1.4-1.6v-6.68Zm18.94 10.05-.4-1.74h-3l-.4 1.74h-2.49L95.32 15h3.36l2.79 10.03H98.9Zm-34.47 0L64 23.28h-2.97l-.39 1.74h-2.5L60.7 15h3.37l2.91 10.03h-2.54Zm-9.6 13.13v-4.19h-3.4v4.19H48.9V28.12h2.55V32h3.4v-3.88h2.54v10.03h-2.54Zm-.26-16.99c-.37-1-.83-1.95-1.37-2.87l-1.13-1.88c-.65-1.1-1.05-1.4-2.03-1.4H48.9v10.01h2.3v-6.25h.03c.4 1.02.88 2 1.44 2.95l1.2 2.05c.57.95 1 1.24 1.96 1.24h1.08V15H54.6v6.17h-.02Zm37.43 3.88c-.35.04-.7.06-1.05.06-1.39 0-1.72-.46-2.04-1.3l-.96-2.56h-1.13v3.8h-2.49V15h3.9c2.5 0 3.75 1.26 3.75 3.17 0 1.3-.6 2.28-1.7 2.74L92 25.02v.02Zm7.78 13.12c-.4.07-.8.1-1.2.1-1.36 0-1.84-.52-2.23-1.31l-1.25-2.58h-1.24v3.8h-2.55V28.12h4.13c2.5 0 3.74 1.25 3.74 3.15 0 1.3-.5 2.2-1.66 2.71l2.26 4.16v.02Zm-19.37-5.03c0 3.27 1.41 5.25 4.62 5.25 3.2 0 4.61-1.98 4.61-5.25 0-3.26-1.4-5.24-4.61-5.24-3.2 0-4.62 1.97-4.62 5.24ZM2.41 2.41h10.85l18.56 27.42V2.28h.44c4.57 0 7.63 2.04 8.64 5.96.29 1.28.4 2.6.36 3.9V48.8H30.57L11.84 21v27.96h-.45c-4.56 0-7.62-2.05-8.64-5.97-.28-1.29-.4-2.6-.34-3.93V2.41Zm41.25 48.82V11.94c.04-1.34-.07-2.68-.33-3.99C42.18 2.77 38.16 0 31.61 0h-2.18v22.02L14.55 0H0v39.27a17.9 17.9 0 0 0 .33 4c1.15 5.17 5.15 7.94 11.72 7.94h2.18V28.87L29.3 51.2h14.35"/>
</svg>
