<svg xmlns="http://www.w3.org/2000/svg" width="131" height="48" fill="none" xmlns:v="https://vecta.io/nano"><g clip-path="url(#A)"><path fill-rule="evenodd" d="M111.816 13.775c4.077 0 7.333 3.405 7.333 7.501 0 4.047-3.256 7.498-7.333 7.498s-7.33-3.451-7.33-7.498c0-4.096 3.253-7.501 7.33-7.501zm0-3.957c-6.416 0-11.456 4.969-11.456 11.458s5.04 11.45 11.456 11.45 11.451-4.965 11.451-11.45-5.036-11.458-11.451-11.458zm-46.114.64v2.46h-.149c-1.668-1.884-4.383-3.1-7.209-3.1-6.407 0-11.437 4.969-11.437 11.456s5.03 11.453 11.437 11.453c2.827 0 5.541-1.254 7.209-3.1h.149v2.405h4.113V10.457h-4.113zm-7.249 18.314c-4.071 0-7.316-3.449-7.316-7.497 0-4.095 3.245-7.5 7.316-7.5 4.076 0 7.321 3.405 7.321 7.5 0 4.048-3.245 7.497-7.321 7.497zM92.968 0v12.836h-.149c-1.663-1.893-4.378-3.113-7.207-3.113-6.403 0-11.434 4.989-11.434 11.504s5.031 11.499 11.434 11.499c2.828 0 5.544-1.26 7.207-3.113h.149v2.415h4.118V0h-4.118zm-7.242 28.755c-4.071 0-7.319-3.463-7.319-7.528 0-4.112 3.248-7.531 7.319-7.531s7.328 3.419 7.328 7.531c0 4.064-3.255 7.528-7.327 7.528h-.001zm-42.756-2.007c-1.344 1.467-3.23 2.401-5.348 2.401-4.092 0-7.349-3.473-7.349-7.541 0-4.122 3.257-7.547 7.349-7.547 2.124 0 4.016.928 5.348 2.394l2-3.786c-1.976-1.627-4.525-2.586-7.349-2.586-6.437 0-11.484 4.995-11.484 11.525 0 6.525 5.048 11.521 11.484 11.521 2.823 0 5.372-.963 7.349-2.587l-2-3.793zM11.482 14.035c4.095 0 7.358 3.424 7.358 7.545 0 4.071-3.262 7.542-7.357 7.542-4.085 0-7.35-3.472-7.35-7.542 0-4.12 3.264-7.546 7.35-7.546v.001zm0-3.981C5.048 10.054 0 15.052 0 21.58c0 6.522 5.048 11.517 11.482 11.517s11.487-4.995 11.487-11.517c0-6.528-5.056-11.526-11.487-11.526zm26.987 33.367c0-.709.1-1.346.301-1.911s.481-1.046.842-1.441a3.69 3.69 0 0 1 1.277-.909 4.05 4.05 0 0 1 1.617-.316c.607 0 1.112.114 1.518.343s.737.477.996.746l-.629.713a3.1 3.1 0 0 0-.768-.585c-.291-.157-.658-.236-1.104-.236a2.82 2.82 0 0 0-1.203.249 2.55 2.55 0 0 0-.91.713 3.39 3.39 0 0 0-.582 1.125c-.138.439-.207.933-.207 1.481 0 .555.066 1.056.194 1.5s.316.823.562 1.138a2.47 2.47 0 0 0 .91.727c.392.177.819.265 1.25.256a2.77 2.77 0 0 0 .889-.142c.28-.094.51-.222.688-.384v-2.301h-1.859v-.928h2.875v3.715c-.285.296-.662.541-1.13.733-.504.2-1.042.299-1.584.291-.546.006-1.087-.099-1.591-.31-.476-.202-.901-.508-1.243-.895-.365-.421-.642-.911-.815-1.441-.197-.57-.294-1.214-.294-1.931v-.001zm11.202-.228h1.47c.687 0 1.213-.143 1.578-.425s.549-.711.549-1.286c0-.583-.183-.991-.549-1.226s-.891-.349-1.578-.349h-1.47v3.285zm3.704 4.644l-2.112-3.729h-1.591v3.729h-1.109v-8.831h2.741c.446 0 .857.043 1.236.127s.705.227.977.425a2.02 2.02 0 0 1 .635.767c.151.315.227.7.227 1.158 0 .691-.179 1.243-.534 1.657s-.834.695-1.431.848l2.219 3.849h-1.256zm7.525-.821c.393 0 .747-.086 1.064-.256a2.41 2.41 0 0 0 .815-.735c.227-.317.403-.699.527-1.143s.188-.944.188-1.501c0-.547-.062-1.041-.186-1.481-.107-.401-.286-.78-.528-1.117-.215-.294-.495-.535-.816-.707a2.25 2.25 0 0 0-1.062-.249c-.393 0-.746.083-1.063.249a2.41 2.41 0 0 0-.815.707 3.4 3.4 0 0 0-.528 1.118c-.125.439-.187.933-.187 1.48 0 .557.061 1.057.187 1.501a3.66 3.66 0 0 0 .528 1.145c.227.318.499.564.815.734s.67.256 1.063.256h-.001zm0 .983c-.552 0-1.058-.109-1.517-.324s-.863-.53-1.183-.922c-.347-.431-.608-.925-.768-1.454-.191-.622-.283-1.269-.274-1.919 0-.708.091-1.344.274-1.905s.439-1.037.768-1.426a3.3 3.3 0 0 1 1.183-.895c.478-.21.995-.316 1.518-.309a3.59 3.59 0 0 1 1.517.316c.459.211.856.511 1.189.902s.594.867.777 1.427.274 1.192.274 1.892c0 .709-.092 1.349-.274 1.919s-.442 1.053-.777 1.454c-.324.391-.73.706-1.189.922-.475.219-.993.33-1.517.324h-.001zm6.939-8.993h1.108v5.21c0 .53.055.973.161 1.333s.252.645.434.861.398.37.647.464a2.25 2.25 0 0 0 .803.142c.294 0 .566-.047.815-.142a1.62 1.62 0 0 0 .655-.464c.187-.216.335-.504.441-.861s.16-.803.16-1.333v-5.21h1.07v5.183c0 .71-.08 1.306-.241 1.791s-.381.878-.662 1.178a2.4 2.4 0 0 1-.995.646 3.86 3.86 0 0 1-1.243.195c-.447 0-.862-.066-1.251-.195a2.39 2.39 0 0 1-1.002-.647c-.281-.3-.502-.692-.662-1.177s-.24-1.081-.24-1.791v-5.183zm13.054 4.63c.707 0 1.229-.145 1.569-.432s.512-.742.512-1.363c0-.63-.173-1.067-.518-1.311s-.867-.365-1.564-.365h-1.33v3.472h1.33zm-2.352-4.363h2.475c.442 0 .849.044 1.218.133s.684.233.943.432.459.463.604.791.215.732.215 1.212c0 .461-.071.859-.216 1.196a2.21 2.21 0 0 1-.609.84c-.263.221-.576.387-.941.498a4.16 4.16 0 0 1-1.213.166h-1.454v3.46h-1.02v-8.727h-.001zm49.53-26.769c.231 0 .414-.04.554-.121s.209-.212.209-.398c.003-.072-.009-.144-.037-.211a.51.51 0 0 0-.12-.177c-.104-.098-.291-.146-.562-.146h-.479v1.053h.435zm-.914-1.448h1.034c.15 0 .293.014.427.043a1.07 1.07 0 0 1 .367.147c.11.07.198.162.262.274s.097.258.097.436-.06.352-.171.493a.8.8 0 0 1-.428.296l.735 1.207h-.555l-.584-1.068h-.705v1.069h-.479v-2.897zm1.019 3.81c.309 0 .603-.058.884-.176.27-.11.515-.273.721-.479s.369-.452.478-.722a2.36 2.36 0 0 0 .179-.928 2.4 2.4 0 0 0-.659-1.68c-.203-.212-.448-.38-.719-.492a2.28 2.28 0 0 0-.884-.176 2.27 2.27 0 0 0-.893.176c-.274.116-.511.281-.711.492a2.44 2.44 0 0 0-.659 1.68c-.004.305.052.608.165.891s.281.542.494.76a2.25 2.25 0 0 0 .736.488c.275.112.569.169.866.166h.002zm0 .408c-.711.004-1.397-.263-1.919-.746-.253-.239-.455-.528-.592-.849-.148-.354-.222-.735-.216-1.118 0-.413.072-.787.217-1.125a2.59 2.59 0 0 1 .585-.858 2.6 2.6 0 0 1 .874-.56 2.82 2.82 0 0 1 1.051-.197c.369 0 .72.066 1.056.197s.625.316.869.555a2.68 2.68 0 0 1 .585.864 2.86 2.86 0 0 1 .216 1.125c0 .413-.072.786-.216 1.118a2.6 2.6 0 0 1-.585.851c-.25.238-.546.424-.869.547-.336.132-.687.197-1.056.197z" fill="#959595"/></g><defs><clipPath id="A"><path fill="#fff" d="M0 0h131v48H0z"/></clipPath></defs></svg>