<svg xmlns="http://www.w3.org/2000/svg" width="120" height="34" fill="#959595" viewBox="0 0 120 34">
  <path d="M59.13.44c-2.89.54-4.47.98-4.58 1.3-.05.13.25.43.65.66.37.23.79.68.93 1 .11.33.2 4.8.2 10.35v9.78l-.69.4c-.37.2-.7.58-.7.8 0 .39.37.41 4.42.41 4.1 0 4.42-.02 4.42-.42 0-.23-.27-.51-.7-.67l-.72-.28.07-11.89C62.5.1 62.5-.02 62.03 0c-.25 0-1.55.21-2.9.44ZM.02 2.12c0 .5.19.63 1.12.91l1.1.33.04 9.9c.05 5.47-.02 10.04-.14 10.23-.12.18-.6.4-1.1.46-.7.12-.92.26-.97.68l-.07.51h11.68l-.07-.51c-.04-.44-.25-.56-1.16-.7a4.4 4.4 0 0 1-1.33-.3c-.16-.1-.25-1.4-.25-3.47v-3.34l3.32-.14c3.63-.14 5-.44 6.75-1.56a7.07 7.07 0 0 0 2.75-3.84c.16-.51.25-1.8.25-2.87 0-3.56-1.49-5.4-5-6.24-1.33-.3-3.23-.42-9.28-.51l-7.64-.1v.56Zm13.03 1.56a3.8 3.8 0 0 1 1.4 1.45c.54.93.58 1.26.58 3.93 0 2.64-.04 3.03-.58 4.06-.84 1.68-1.49 2.05-3.72 2.19l-1.86.12V2.94l1.67.16c.93.1 2.07.35 2.51.58Zm15.2 4.57c-3.72 1.05-5.72 4.08-5.72 8.64 0 4.62 2.32 7.58 6.47 8.25 1.55.26 3.93-.02 5.02-.6a7 7 0 0 0 3.03-3.22c.5-1.05.6-1.47.4-1.7-.22-.26-.33-.26-.75.05-2.4 1.77-5.54 1.72-7.2-.12a7.04 7.04 0 0 1-1.55-3.89v-.54h4.49c4.89 0 5.05-.04 5.05-1.28 0-2.33-1.51-4.68-3.45-5.36a12 12 0 0 0-5.79-.23Zm2.89 1.4c.6.42 1 1.68 1 3.21v1.12l-2.03-.07-2.05-.07.07-1.16c.21-2.7 1.54-4.06 3-3.03ZM71.81 8.2c-4.07 1.07-6.21 4.55-5.86 9.48.16 2.29.67 3.7 1.84 5.01 3.02 3.43 9.42 3.38 11.96-.11 1.58-2.17 1.6-3.9.04-2.75-1.97 1.49-5.14 1.49-6.77 0a5.98 5.98 0 0 1-1.49-3.45l-.14-1.26h4.54c3.5 0 4.6-.07 4.82-.3.16-.23.18-.75 0-1.77-.4-2.54-1.26-3.7-3.35-4.6-1.17-.48-4.17-.62-5.59-.25Zm2.68 1.33c.53.28.9 1.37.97 3.03l.07 1.28-2.07.07-2.07.07.14-1.42c.28-2.61 1.47-3.82 2.96-3.03Zm34.01-1.28a7.56 7.56 0 0 0-4.23 2.38c-2.97 3.38-2.63 10.67.63 12.97 1.35.94 2.35 1.29 4.52 1.54 4.84.56 8.6-1.28 10.03-4.87.7-1.8.74-6.05.09-7.92a6.2 6.2 0 0 0-3.72-3.73 15.7 15.7 0 0 0-7.31-.37Zm3.62 1.4c.27.18.7.84.93 1.44.35.96.42 1.82.42 6.01 0 4.48-.05 4.97-.47 5.69-.98 1.68-2.6 1.42-3.6-.56-.54-1.07-.59-1.44-.66-5.15-.1-4.52.17-6.38 1.03-7.22a1.8 1.8 0 0 1 2.35-.21ZM88.17 8.48a5.72 5.72 0 0 0-4.37 4.45c-.47 2.22.37 4.73 1.86 5.62l.7.4-1.21.6c-1.61.77-2.12 1.51-2.22 3.2-.06 1.02.03 1.55.35 2.16.47.88 1.94 1.86 2.77 1.86.93 0 .8.42-.2.58-1.5.26-2.29.75-2.68 1.68-.7 1.7.3 3.08 2.84 3.87 2.16.67 8.1.74 10.12.12 1.9-.61 3.35-1.61 4.12-2.92.56-.95.65-1.37.65-2.75-.02-1.88-.42-2.82-1.58-3.7-1.3-1-3.07-1.3-7.54-1.3-2.56 0-4.21-.1-4.61-.28-.77-.35-.98-1.2-.47-1.96.38-.56.47-.58 1.47-.42.6.12 2.14.2 3.42.19 2.93-.03 4.66-.61 6.1-2.1a4.93 4.93 0 0 0 1.46-3.9c0-1.18-.7-2.88-1.28-3.11-.65-.24-.11-.5.8-.38 1.44.19 2.09-.07 2.49-.98.18-.44.32-.88.32-.97 0-.33-12.1-.28-13.3.04Zm3.98 1.19c.9.65 1.19 1.7 1.19 4.57 0 3.4-.35 4.26-1.75 4.26-.77 0-1-.12-1.42-.77-1.3-1.9-.9-7.9.54-8.27.74-.19.88-.16 1.44.21Zm1.93 17.8c1.51.42 2.12 1.52 1.54 2.73-.68 1.44-4.14 2.14-6.8 1.37-1.49-.44-2.23-1.3-2.23-2.65 0-1.61.14-1.68 3.56-1.68 1.7 0 3.47.11 3.93.23ZM44.6 8.72c-2.8.48-5.02 1.07-5.02 1.35 0 .14.37.58.82 1l.81.74V23.8l-.7.26c-.42.16-.7.44-.7.67 0 .4.35.42 4.57.42h4.53l-.07-.51c-.04-.3-.25-.56-.53-.6-1.03-.22-1.05-.36-1.05-5.3V14l.89-.42c.5-.23 1.6-.44 2.72-.5 1.19-.08 2-.24 2.26-.45.88-.77.7-3.52-.28-4.03a3.16 3.16 0 0 0-2.52.1c-.95.48-1.79 1.48-2.58 3.1a6.3 6.3 0 0 1-.86 1.46c-.14 0-.02-1.7.28-3.92.16-1.14.3-1.09-2.56-.62Z"/>
</svg>
