<svg xmlns="http://www.w3.org/2000/svg" width="136" height="48" viewBox="0 0 136 48">
  <path fill="#959595" d="M36.79 9.36a.47.47 0 0 0-.42-.4l-3.86-.28-2.82-2.82c-.25-.29-.81-.2-1.03-.14l-1.43.45c-.85-2.47-2.36-4.73-5-4.73H22C21.24.46 20.31 0 19.53 0c-6.17.03-9.11 7.75-10.04 11.7l-4.31 1.32c-1.32.43-1.37.46-1.55 1.72L0 42.88 27.24 48 42 44.8 36.79 9.37ZM25.72 6.65c-.69.22-1.48.45-2.31.7v-.5c.03-1.28-.17-2.54-.56-3.75 1.38.21 2.3 1.77 2.87 3.55Zm-4.54-3.23c.45 1.34.68 2.74.62 4.15v.25l-4.76 1.49c.93-3.5 2.65-5.22 4.14-5.87v-.02ZM19.35 1.7c.29.01.56.1.8.26-2 .93-4.1 3.27-5 7.97l-3.76 1.16c1.06-3.57 3.54-9.4 7.96-9.4v.01Z"/>
  <path fill="#7E7E81" d="M36.27 9.26c-.17-.03-3.92-.29-3.92-.29l-2.86-2.8a.57.57 0 0 0-.4-.17L27 48l15-3.17-5.3-35.16a.51.51 0 0 0-.43-.42Z"/>
  <path fill="#DEDEE2" d="m22 17.73-1.86 5.35a8.74 8.74 0 0 0-3.59-.84c-2.91 0-3.05 1.79-3.05 2.23 0 2.44 6.53 3.38 6.53 9.12 0 4.51-2.94 7.41-6.87 7.41C8.42 41 6 38.13 6 38.13l1.26-4.1s2.48 2.09 4.59 2.09a1.9 1.9 0 0 0 1.37-.51 1.82 1.82 0 0 0 .57-1.33c0-3.2-5.36-3.35-5.36-8.58 0-4.4 3.25-8.7 9.78-8.7 2.56.04 3.79.73 3.79.73Z"/>
  <path fill="#959595" d="M55.56 25.58c-1.05-.56-1.6-1.05-1.6-1.71 0-.84.74-1.38 1.94-1.38.9.02 1.77.2 2.6.56l.96-2.92s-.89-.68-3.5-.68c-3.64 0-6.16 2.06-6.16 4.96 0 1.64 1.17 2.9 2.74 3.8 1.28.74 1.73 1.22 1.73 1.99 0 .76-.63 1.4-1.82 1.4-1.76 0-3.42-.9-3.42-.9L48 33.62s1.54 1.02 4.1 1.02c3.74 0 6.43-1.82 6.43-5.11.02-1.79-1.33-3.03-2.96-3.97l-.01.02Zm14.92-6.15c-1.84 0-3.3.86-4.4 2.2L66 21.6l1.6-8.28h-4.17L59.4 34.41h4.17l1.39-7.21c.55-2.72 1.97-4.4 3.3-4.4.92 0 1.29.61 1.29 1.51a9.3 9.3 0 0 1-.18 1.83l-1.58 8.25h4.17l1.63-8.53c.18-.88.29-1.78.3-2.68-.01-2.32-1.25-3.72-3.4-3.72l-.01-.03Zm12.82 0c-5.02 0-8.33 4.48-8.33 9.45 0 3.21 2 5.77 5.74 5.77 4.92 0 8.25-4.36 8.25-9.45 0-2.97-1.76-5.77-5.66-5.77ZM81.25 31.5c-1.41 0-2.02-1.2-2.02-2.68 0-2.36 1.23-6.22 3.5-6.22 1.48 0 1.97 1.26 1.97 2.48 0 2.54-1.24 6.42-3.45 6.42Zm18.36-12.07c-2.83 0-4.4 2.43-4.4 2.43h-.07l.25-2.19h-3.7l-.84 5.47-2.9 15.1h4.15l1.16-6.11h.08s.85.54 2.45.54c4.89 0 8.08-4.97 8.08-9.98.02-2.77-1.23-5.25-4.26-5.25v-.01Zm-3.98 12.13c-.63.01-1.24-.2-1.73-.6l.7-3.87c.49-2.56 1.83-4.28 3.29-4.28 1.27 0 1.65 1.16 1.65 2.26.01 2.69-1.58 6.5-3.9 6.5h-.01Zm14.21-18.06a2.4 2.4 0 0 0-1.7.7c-.45.45-.7 1.05-.67 1.69 0 1.21.79 2.06 1.97 2.06h.06a2.37 2.37 0 0 0 2.27-1.45c.13-.3.18-.62.18-.93 0-1.2-.81-2.07-2.09-2.07h-.02Zm-5.82 20.87h4.17l2.83-14.62h-4.18m14.8-.02h-2.92l.14-.68c.25-1.4 1.1-2.66 2.46-2.66.46 0 .9.07 1.34.2l.8-3.23s-.74-.36-2.26-.36a6.27 6.27 0 0 0-4.09 1.38c-1.41 1.2-2.08 2.93-2.42 4.67l-.13.68h-1.94l-.61 3.1h1.94l-2.21 11.54h4.18l2.21-11.54H121l.57-3.1h.06Zm10.02.02-3.78 10.06h-.06l-1.03-10.06h-4.4l2.52 13.42c.06.23.03.47-.08.68a7.12 7.12 0 0 1-2.27 2.49 9.5 9.5 0 0 1-2.34 1.16l1.15 3.5a9.57 9.57 0 0 0 4.07-2.25c1.9-1.76 3.66-4.49 5.47-8.2l5.09-10.8h-4.34Z"/>
</svg>
