<svg width="71" height="53" viewBox="0 0 71 53" fill="none" xmlns="http://www.w3.org/2000/svg">
<g clip-path="url(#clip0_5855_17637)">
<path d="M8.97198 23.8119C9.31698 28.3559 12.826 29.9119 16.852 29.9119C20.245 29.9119 22.431 28.7039 22.431 26.6909C22.431 24.5629 20.303 24.2179 17.542 23.6999L10.928 22.5499C5.00398 21.4569 0.862976 18.1209 0.862976 11.7949C0.862976 4.43291 6.61498 0.00390625 15.644 0.00390625C25.652 0.00390625 31.058 4.8929 31.231 12.9449L22.259 13.1179C21.971 9.3799 19.268 7.6539 15.53 7.6539C12.309 7.6539 10.469 8.9189 10.469 10.9319C10.469 12.5999 11.849 13.2319 14.093 13.6319L20.937 14.8399C28.529 16.1629 31.98 20.1319 31.98 26.0559C31.98 33.7629 25.308 37.6169 16.853 37.6169C7.01803 37.6169 0.000976562 32.8429 0.000976562 24.1009L8.97198 23.8119Z" fill="#959595"/>
<path d="M51.6481 37.616C41.1231 37.616 32.8401 29.966 32.8401 18.808C32.8401 7.65 41.1221 0 51.6481 0C62.1741 0 70.4551 7.65 70.4551 18.808C70.4551 29.966 62.1731 37.616 51.6481 37.616ZM51.6481 8.62801C46.2991 8.62801 42.9061 12.654 42.9061 18.808C42.9061 24.962 46.2991 28.988 51.6481 28.988C56.9971 28.988 60.39 24.962 60.39 18.808C60.39 12.654 56.9971 8.62801 51.6481 8.62801Z" fill="#959595"/>
<path d="M19.9791 46.4471V39.6641H23.011V51.9091H20.368L15.0811 44.6591V51.9091H12.0491V39.6641H15.2001L19.9791 46.4471Z" fill="#959595"/>
<path d="M42.743 51.9091C42.3932 51.1753 42.2202 50.3698 42.238 49.5571C42.138 48.1571 41.5381 47.847 40.4301 47.847H38.2301V51.9091H34.9841V39.6641H41.165C44.333 39.6641 45.9071 41.1641 45.9071 43.5511C45.9591 44.309 45.7184 45.058 45.2347 45.6438C44.7511 46.2296 44.0612 46.6077 43.3071 46.7001C43.8939 46.7691 44.4351 47.0503 44.8289 47.4907C45.2227 47.9311 45.4418 48.5003 45.4451 49.0911C45.6201 50.9181 45.6781 51.4621 46.0861 51.9091H42.743ZM40.5861 45.3011C41.9861 45.3011 42.686 44.9511 42.686 43.8241C42.686 42.8331 41.9861 42.308 40.5861 42.308H38.2341V45.3011H40.5861Z" fill="#959595"/>
<path d="M46.54 45.7881C46.5112 44.949 46.6547 44.1129 46.9615 43.3313C47.2683 42.5498 47.7318 41.8393 48.3237 41.2438C48.9155 40.6483 49.6231 40.1803 50.4028 39.8688C51.1824 39.5572 52.0177 39.4085 52.857 39.4321C56.457 39.4321 58.5519 41.3951 58.8239 44.4471L55.617 44.5641C55.5871 44.2429 55.4938 43.9307 55.3425 43.6458C55.1911 43.3609 54.9847 43.1088 54.7353 42.9042C54.4858 42.6995 54.1983 42.5465 53.8892 42.4538C53.5802 42.3611 53.2559 42.3306 52.935 42.3641C51.011 42.3641 49.942 43.7051 49.942 45.7851C49.942 47.9231 51.0689 49.3421 53.1879 49.3421C53.7106 49.3724 54.2314 49.2554 54.691 49.0046C55.1506 48.7537 55.5305 48.3791 55.7879 47.9231H53.088V45.5521H58.919V51.9081H56.0419V50.5471C55.6425 51.1031 55.1031 51.5435 54.4783 51.8235C53.8536 52.1034 53.1658 52.2131 52.4849 52.1412C49.1059 52.1432 46.54 49.5781 46.54 45.7881Z" fill="#959595"/>
<path d="M66.8892 39.6641H70.4462L65.7462 47.264V51.9091H62.5392V47.264L57.8391 39.6641H61.5122L64.2722 44.076L66.8892 39.6641Z" fill="#959595"/>
<path d="M33.7599 49.1899H27.5399V47.071H32.3399V44.389H27.5399V42.389H33.7599V39.668H24.2949V51.9109H33.7599V49.1899Z" fill="#959595"/>
<path d="M10.777 49.1899H4.55701V47.071H9.35706V44.389H4.55701V42.389H10.777V39.668H1.31201V51.9109H10.777V49.1899Z" fill="#959595"/>
</g>
<defs>
<clipPath id="clip0_5855_17637">
<rect width="70.456" height="52.144" fill="white"/>
</clipPath>
</defs>
</svg>
