<svg xmlns="http://www.w3.org/2000/svg" width="231" height="32" fill="#959595" viewBox="0 0 231 32">
  <path d="M82.89 15.44c0-4.55-3.32-8.45-8.31-8.45a8.3 8.3 0 0 0-8.41 8.45 8.17 8.17 0 0 0 8.3 8.35c2.1 0 3.73-.6 5.2-1.77l2.2 1.97 1.22-1.36-2.2-1.77a8.45 8.45 0 0 0 2-5.42Zm-3.32 4.2-3-2.68-1.23 1.37 3.01 2.58a6.53 6.53 0 0 1-3.72 1.21c-3.72 0-6.42-2.98-6.42-6.73 0-3.69 2.7-6.73 6.42-6.73 3.72 0 6.42 2.99 6.42 6.73 0 1.67-.5 3.14-1.48 4.25Zm18.81-2.98c0 3.49-1.88 5.36-5 5.36-3.1 0-4.99-1.97-4.99-5.46V7.15h-1.88v9.5c0 4.66 2.8 7.04 6.88 7.04 4.07 0 6.88-2.48 6.88-7.23V7.15h-1.89v9.5Zm110.86 5.46c-3.62 0-6.32-2.98-6.32-6.73 0-3.69 2.7-6.73 6.32-6.73 2.19 0 3.72.91 5.2 2.28l1.22-1.37A8.52 8.52 0 0 0 209.24 7c-4.8 0-8.31 3.8-8.31 8.45a8.15 8.15 0 0 0 8.2 8.35c3.01 0 4.9-1.11 6.58-2.88l-1.22-1.12c-1.48 1.42-2.96 2.33-5.25 2.33Zm11.67-.3v-5.67h8.92v-1.67h-8.92V8.92h9.99V7.25h-11.88v16.34H231v-1.77h-10.1ZM176.26 7.3h-6.12v16.29h1.89v-5.77H176c3.52 0 6.43-1.87 6.43-5.36 0-3.24-2.4-5.16-6.17-5.16Zm4.28 5.26c0 2.18-1.78 3.6-4.48 3.6h-4.08V9.01h4.18c2.6-.1 4.38 1.16 4.38 3.54ZM57.86 14.48c-3.62-.7-4.48-1.67-4.48-3.19 0-1.46 1.37-2.58 3.51-2.58 1.69 0 3.21.51 4.8 1.78l1.01-1.47A8.26 8.26 0 0 0 57 7.05c-3.11 0-5.4 1.87-5.4 4.45 0 2.68 1.78 3.94 5.5 4.75 3.41.71 4.28 1.57 4.28 3.09 0 1.67-1.48 2.78-3.62 2.78-2.3 0-3.98-.7-5.6-2.27l-1.13 1.36a9.47 9.47 0 0 0 6.68 2.58c3.21 0 5.6-1.87 5.6-4.65-.15-2.58-1.83-3.8-5.45-4.66Zm83.49 1.67h8.92v-1.67h-8.92V8.92h9.99V7.25h-11.88v16.34h11.98v-1.77h-10.1v-5.67Zm19.77-1.67c-3.62-.7-4.48-1.67-4.48-3.19 0-1.46 1.37-2.58 3.51-2.58 1.69 0 3.22.51 4.8 1.78l1.02-1.47a8.26 8.26 0 0 0-5.71-1.97c-3.11 0-5.4 1.87-5.4 4.45 0 2.68 1.78 3.94 5.5 4.75 3.41.71 4.28 1.57 4.28 3.09 0 1.67-1.48 2.78-3.62 2.78-2.3 0-3.98-.7-5.6-2.27l-1.13 1.36a9.47 9.47 0 0 0 6.68 2.58c3.21 0 5.6-1.87 5.6-4.65-.15-2.58-1.83-3.8-5.45-4.66ZM110.15 7.2l-7.49 16.39h1.89l1.99-4.35h8.91l1.9 4.35h1.98l-7.5-16.4h-1.67Zm-2.9 10.42 3.72-8.25 3.72 8.25h-7.44ZM190.23 7.2l-7.5 16.39h1.89l1.99-4.35h8.92l1.88 4.35h1.99l-7.5-16.4h-1.67Zm-2.91 10.42 3.72-8.25 3.72 8.25h-7.44Zm-51.78-5.47a4.9 4.9 0 0 0-1.23-3.28c-1.02-1.02-2.6-1.67-4.69-1.67h-7.08v16.29h1.89V17.2h4.69l4.79 6.28h2.29l-5-6.63c2.45-.5 4.34-2.02 4.34-4.7Zm-11.16 3.4V8.91h5.1c2.6 0 4.17 1.21 4.17 3.18 0 2.08-1.78 3.3-4.28 3.3h-5v.14Zm-118 1.87c.72.7 2 .7 2.8 0l12.4-12.3a3.8 3.8 0 0 1 5.5 0c.71.71 1.98.71 2.8 0 .71-.7.71-1.97 0-2.78-3-2.99-8-2.99-11 0L6.37 14.58a1.95 1.95 0 0 0 0 2.84Zm19.22-8.3c.71-.7.71-1.97 0-2.78-.71-.71-1.99-.71-2.8 0l-12.34 12.4a3.8 3.8 0 0 1-5.5 0 3.74 3.74 0 0 1 0-5.47l12.18-12.1a3.8 3.8 0 0 0-5.5 0L2.25 10.5a7.73 7.73 0 0 0 0 10.92c3 2.99 8 2.99 11 0L25.6 9.11Zm1.48 1.37-12.49 12.4c-.71.7-.71 1.96 0 2.77.71.71 1.99.71 2.8 0l12.39-12.3a3.8 3.8 0 0 1 5.5 0 3.78 3.78 0 0 1 0 5.47l-12.18 12a3.8 3.8 0 0 0 5.5 0l9.49-9.42c3-2.98 3-7.94 0-10.92a7.89 7.89 0 0 0-11.01 0Zm6.88 4.1c-.72-.71-1.99-.71-2.8 0l-12.4 12.39a3.8 3.8 0 0 1-5.5 0c-.7-.71-1.98-.71-2.8 0-.71.7-.71 1.97 0 2.78 3 2.99 8 2.99 11.01 0l12.39-12.3c.81-.9.81-2.02.1-2.88Z"/>
</svg>
