<svg xmlns="http://www.w3.org/2000/svg" width="646" height="144" fill="#959595" xmlns:v="https://vecta.io/nano"><path d="M408.464 123.586h-22.236V20.292h8.659l10.706.052c.773.026 1.783.504 2.245 1.112l45.39 59.8c.508.671 1.033 1.325 1.921 1.895V20.364h22.32v103.323h-4.821c-4.031 0-8.065-.101-12.09.046-1.772.063-2.794-.59-3.825-1.953l-47.031-62.029c-.302-.397-.635-.775-1.235-1.506l-.003 65.341zM27.675 108.599l13.33-16.022 8.031 5.57c8.025 5.055 16.742 7.667 26.256 6.581 2.55-.291 5.24-1.132 7.43-2.448 5.461-3.292 5.538-11.056-.014-14.149-4.017-2.238-8.527-3.66-12.926-5.118-6.05-2.007-12.22-3.649-18.298-5.567-1.794-.564-3.494-1.472-5.188-2.321-8.748-4.395-13.577-11.439-14.341-21.283-.864-11.105 2.294-20.532 11.295-27.518 5.225-4.058 11.266-6.307 17.767-7.03 16.365-1.82 31.292 1.947 44.45 12.102.181.138.345.3.701.611L94.419 49.141l-5.174-3.243c-6.408-3.807-13.167-6.748-20.729-6.849-2.92-.038-5.963.559-8.745 1.486-3.207 1.068-5.151 3.594-5.357 7.165-.21 3.649 1.169 6.653 4.502 8.07a121.24 121.24 0 0 0 13.936 4.948c7.183 2.065 14.459 3.816 21.14 7.318 6.894 3.614 12.409 8.565 14.2 16.468 2.443 10.791 1.105 20.934-6.526 29.508-5.067 5.694-11.705 8.807-19.047 10.066-20.241 3.467-38.292-1.573-54.095-14.726-.227-.178-.433-.377-.85-.754zm161.23-67.232h-31.261V20.43h85.137v20.871h-31.143v82.276h-22.733v-82.21zm398.303 82.217h-22.753V41.418h-31.264V20.42h85.134v20.909h-31.117v82.255zM325.501 20.293h-22.237v103.294h22.237V20.293z"/></svg>