<svg xmlns="http://www.w3.org/2000/svg" width="202" height="38" fill="#959595" viewBox="0 0 202 38">
  <path d="M60.33 10.05H48.36a.91.91 0 0 0-.96.89v.56a.91.91 0 0 0 .91.9h4.2a.53.53 0 0 1 .51.5v13.74a1 1 0 0 0 1.01.98h.67a1.01 1.01 0 0 0 1-.98V12.89a.53.53 0 0 1 .53-.5h4.17a.91.91 0 0 0 .91-.9v-.55a.94.94 0 0 0-.98-.89Zm37.32.97a.98.98 0 0 0-1-.97h-.6a.99.99 0 0 0-1 .97v9.72a4.25 4.25 0 0 1-8.51-.06v-9.72a.98.98 0 0 0-1-.97h-.63a.99.99 0 0 0-1 .97v9.9a6.9 6.9 0 0 0 13.81 0l-.07-9.84Zm34.41 14.24h-6a.51.51 0 0 1-.49-.31.5.5 0 0 1-.04-.2V11.03a1.01 1.01 0 0 0-1-.98h-.67a1.01 1.01 0 0 0-1.01.98v15.63a.97.97 0 0 0 .97.96H132a.88.88 0 0 0 .9-.86v-.57a.8.8 0 0 0-.84-.93Zm-56.85-4.72a5.62 5.62 0 0 0 3.65-5.13 5.34 5.34 0 0 0-5.4-5.36h-6.19a.99.99 0 0 0-.97.98v15.58a.98.98 0 0 0 .97.99h.6a1 1 0 0 0 .97-.99v-5.36a.5.5 0 0 1 .5-.5h3.06a.32.32 0 0 1 .27.14l3.19 6.23a1 1 0 0 0 1.32.39l.54-.3a1 1 0 0 0 .38-1.35l-2.89-5.32Zm-1.92-1.96H69.4a.5.5 0 0 1-.5-.47v-5.04a.5.5 0 0 1 .46-.5h3.85a3.04 3.04 0 1 1 .08 6.07v-.06Zm42.35 6.71h-7.2a.5.5 0 0 1-.49-.32.52.52 0 0 1-.04-.2V20.4a.52.52 0 0 1 .16-.37.52.52 0 0 1 .37-.14h5.97a.92.92 0 0 0 .92-.9v-.57a.92.92 0 0 0-.92-.9h-5.97a.51.51 0 0 1-.53-.51v-4.07a.52.52 0 0 1 .16-.37.52.52 0 0 1 .37-.14h7.2a.91.91 0 0 0 .92-.9v-.58a.9.9 0 0 0-.57-.84.91.91 0 0 0-.35-.06h-9.4a.95.95 0 0 0-.91.58.95.95 0 0 0-.08.38v15.66a.99.99 0 0 0 1 .96h9.39a.89.89 0 0 0 .9-.86v-.57a.87.87 0 0 0-.26-.64.88.88 0 0 0-.64-.26Zm66.6 0h-7.15a.53.53 0 0 1-.53-.51v-4.4a.53.53 0 0 1 .53-.5h5.96a.92.92 0 0 0 .85-.55.92.92 0 0 0 .07-.35v-.57a.93.93 0 0 0-.92-.9h-5.96a.51.51 0 0 1-.53-.51v-4.08a.5.5 0 0 1 .16-.36.5.5 0 0 1 .37-.14h7.2a.93.93 0 0 0 .92-.9v-.58a.9.9 0 0 0-.57-.84.91.91 0 0 0-.35-.06h-9.4a.96.96 0 0 0-.99.96v15.66a.95.95 0 0 0 .3.68.98.98 0 0 0 .69.28h9.4a.89.89 0 0 0 .9-.86v-.58a.9.9 0 0 0-.6-.84.9.9 0 0 0-.35-.05Zm-29.32.77-7.5-15.8a.58.58 0 0 0-.44-.26h-.3a.55.55 0 0 0-.42.27l-7.54 15.8a.9.9 0 0 0 .17 1 .9.9 0 0 0 .3.2l.55.24a1 1 0 0 0 1.28-.44l1.48-3.13a.32.32 0 0 1 .19-.09h8.16a.33.33 0 0 1 .25.15l1.49 3.1a.98.98 0 0 0 1.27.45l.56-.25a.95.95 0 0 0 .5-1.24Zm-5.28-4.36h-5.68a.28.28 0 0 1-.28-.27.08.08 0 0 1 0-.08l3-6.34a.12.12 0 0 1 .1 0 .12.12 0 0 1 .09 0l3.01 6.34.03.09c0 .03 0 .06-.02.1a.23.23 0 0 1-.13.12.24.24 0 0 1-.13 0l.01.04Zm18.94-11-.61-.46a.98.98 0 0 0-1.39.21l-4.47 6.07a.18.18 0 0 1-.13.05.18.18 0 0 1-.12-.05l-4.5-6.07a1.02 1.02 0 0 0-1.38-.2l-.62.44a.89.89 0 0 0 0 1.22l5.34 7.29v7.46a1 1 0 0 0 1 .98h.65a1 1 0 0 0 1-.98v-7.52l5.23-7.22a.88.88 0 0 0 0-1.23Zm31.77 9.85a5.63 5.63 0 0 0 3.65-5.13 5.34 5.34 0 0 0-5.36-5.37h-6.23a.99.99 0 0 0-.97.98v15.6a.98.98 0 0 0 .97.99h.59a.98.98 0 0 0 .97-.98v-5.41a.5.5 0 0 1 .5-.5h3.07a.29.29 0 0 1 .27.15L199 27.1a.98.98 0 0 0 .96.5.98.98 0 0 0 .36-.11l.53-.3a1 1 0 0 0 .38-1.34l-2.88-5.31Zm-1.94-1.96h-3.9a.5.5 0 0 1-.5-.47v-5.1a.5.5 0 0 1 .5-.52h3.84a3.06 3.06 0 0 1 .06 6.08v.01ZM2 28.65l15.45 8.62a2.07 2.07 0 0 0 2.43 0l16.4-9.21c.58-.37.98-.66.98-1.32a1.35 1.35 0 0 0-.79-1.14l-4.4-2.88 4.2-2.37a2.43 2.43 0 0 0 1.4-2v-6.4a2.36 2.36 0 0 0-1.43-2.42L20.14.47a2.62 2.62 0 0 0-3 0L1.02 9.65a1.74 1.74 0 0 0-.95 1.53c0 .78.83 1.37.95 1.47l4.2 2.43-4.44 2.64a1.58 1.58 0 0 0-.74 1.21v6.17A3.33 3.33 0 0 0 2 28.65Zm32.37-1.8-15.7 8.62L3.5 27.1l4.75-2.66 9.85 5.51a1.22 1.22 0 0 0 1.09 0l10.64-6.07 4.54 2.97Zm1.31-9.17-4.23-2.54 4.23-2.43v4.97ZM19.88 2.84l14.39 8.28-4.74 2.84-9.73-5.78.07-5.34Zm-1.22 7.14 8.76 5.22-8.76 4.95-8.95-5.07 8.98-5.1h-.03Zm-15.9 1.2 14.75-8.34v5.34L7.27 13.85l-4.5-2.67Zm4.66 5.19 10.68 5.99a1.22 1.22 0 0 0 1.13 0l10.24-6 4.62 2.77-15.45 8.6-15.7-8.85 4.48-2.51Zm-5.36 4.52 4.14 2.3-4.14 2.33v-4.63Z"/>
</svg>
