<svg xmlns="http://www.w3.org/2000/svg" width="69" height="25" fill="none" xmlns:v="https://vecta.io/nano"><g clip-path="url(#A)" fill="#959595"><path d="M5.855 23.768c-1.674 0-2.991-.48-3.951-1.44-.935-.96-1.403-2.265-1.403-3.914V.211H4.71v18.018c0 .566.172 1.034.517 1.403.345.345.8.517 1.366.517h3.951v3.618H5.855zM.5 8.556V4.937h10.081v3.618H.5zm13.925 15.212V10.291c0-1.674.468-2.978 1.403-3.914.96-.96 2.277-1.44 3.951-1.44h4.542v3.618h-3.766c-.591 0-1.058.172-1.403.517-.32.345-.48.812-.48 1.403v13.292h-4.246zm21.85.443c-1.822 0-3.409-.357-4.763-1.071-1.354-.738-2.4-1.748-3.138-3.028s-1.108-2.72-1.108-4.32V4.938h4.246v10.818c0 .96.209 1.809.628 2.548a4.98 4.98 0 0 0 1.735 1.698 5.02 5.02 0 0 0 2.4.591 4.81 4.81 0 0 0 2.363-.591 4.6 4.6 0 0 0 1.735-1.698c.443-.738.665-1.588.665-2.548V4.938h4.246v10.855c0 1.6-.381 3.04-1.145 4.32-.739 1.28-1.785 2.289-3.139 3.028-1.329.714-2.905 1.071-4.726 1.071zm22.189 0c-.985 0-1.871-.271-2.659-.812-.763-.541-1.317-1.268-1.661-2.178l-5.76-16.283H53l4.911 14.622c.074.172.16.295.258.369a.54.54 0 0 0 .332.111.54.54 0 0 0 .332-.111c.123-.074.209-.197.258-.369L64.04 4.938h4.541l-5.797 16.283a4.31 4.31 0 0 1-1.662 2.178 4.58 4.58 0 0 1-2.658.812z"/></g><defs><clipPath id="A"><path fill="#fff" d="M0 0h69v25H0z"/></clipPath></defs></svg>