<svg width="141" height="47" viewBox="0 0 141 47" fill="none" xmlns="http://www.w3.org/2000/svg">
<path d="M32.0358 25.0635L34.4932 23.7738V4.17082H32.6322L28.0895 10.2805H27.5777L27.8639 3.40872H47.556L47.8422 10.2862H47.2966L42.8497 4.17654H40.9365V23.7238L43.408 25.0478V25.7127H32.033V25.0635M49.7625 24.1999V2.46646L47.8492 1.69006V1.28971L54.7577 0H55.5135V10.2948L55.6756 10.1304C57.328 8.70624 59.4217 7.91698 61.5901 7.90411C64.6115 7.90411 65.9608 9.63421 65.9608 12.8599V24.1727L67.5766 25.0649V25.6855H58.5532V25.0649L60.1746 24.1684V12.8213C60.1746 11.0483 59.409 10.3391 57.9794 10.3391C57.1165 10.3205 56.2734 10.6022 55.5882 11.1398V24.2028L57.1814 25.095V25.6869H48.1538V25.095L49.7893 24.1742M72.4816 17.5026C72.6677 21.0771 74.2553 23.8696 78.0141 23.8696C79.8328 23.8696 81.1215 23.016 82.3171 22.3683V23.0761C81.5135 24.0697 80.4998 24.8672 79.351 25.4095C78.2022 25.9518 76.9477 26.225 75.6807 26.2088C69.8578 26.2088 66.8829 22.9259 66.8829 17.2438C66.8829 11.6874 70.1398 8.22439 75.3987 8.22439C80.3334 8.22439 82.9135 10.7309 82.9135 17.341V17.5126L72.4802 17.5083M72.3843 16.679L77.5192 16.3644C77.5192 11.9319 76.7691 8.96504 75.2634 8.96504C73.6561 8.96933 72.3843 12.3966 72.3843 16.6861V16.6818M0 34.4075C0 24.9706 6.16832 21.5919 13.0388 21.5919C15.9573 21.5919 18.7066 22.078 20.2434 22.7114L20.3773 29.3058H19.7217L15.6894 22.9245C14.8787 22.5956 14.0074 22.4526 13.1375 22.507C9.48582 22.507 7.61488 26.7893 7.67691 33.8055C7.74318 42.1986 9.18269 46.0163 12.5354 46.0163C13.2221 46.0392 13.9059 45.9233 14.5488 45.6774V36.6866L12.3352 35.4112V34.6448H23.0265V35.4498L20.8468 36.6866V45.5602C18.2526 46.4924 15.5174 46.9614 12.7681 46.9514C4.96003 46.9514 0.00141047 43.281 0.00141047 34.4075M22.0339 29.9993V29.4517L29.2061 28.1648L29.9956 28.232V42.6047C29.9956 44.3348 30.8176 44.8695 32.1951 44.8695C32.6421 44.8763 33.0848 44.7794 33.4892 44.5861C33.8936 44.3928 34.2491 44.1083 34.5285 43.7543V30.8601L32.5588 29.9922V29.4302L39.731 28.1434L40.4529 28.2106V44.6965L42.3887 45.5216V46.0449L35.3533 46.9028L34.6314 46.8356V44.6679H34.434C32.9903 46.0978 31.0503 46.9199 29.0454 46.9657C25.5982 46.9657 24.0205 44.8996 24.0205 41.7668V30.8429L22.0325 29.9793M67.1071 28.1176L67.6992 28.1848V33.5181H67.8614C68.6312 29.639 70.3245 28.1848 72.3942 28.1848C72.6948 28.1706 72.9952 28.2168 73.2782 28.3207V33.7226C72.7927 33.6184 72.2966 33.5742 71.8006 33.591C70.4556 33.5553 69.119 33.8255 67.8896 34.3817V44.8996L69.5251 45.8204V46.5425H60.2028V45.8247L61.8947 44.8981V30.5627L59.925 29.9664V29.4803L67.1212 28.1362M85.1609 28.5823V22.9717L83.1912 22.2739V21.8307L90.4494 20.478L91.1374 20.5781V44.6737L93.1395 45.41V46.0306L85.9673 47L85.4076 46.9328V44.9568H85.2454C84.6329 45.6155 83.8909 46.1367 83.0674 46.4867C82.2439 46.8366 81.3572 47.0076 80.4645 46.9886C76.5534 46.9886 73.6969 43.9573 73.6969 37.7747C73.6969 31.2433 77.0159 28.0333 82.0407 28.0333C83.1076 27.9782 84.173 28.1674 85.158 28.5866M85.158 44.0217V29.5947C84.8859 29.3604 84.5699 29.1843 84.229 29.077C83.8882 28.9696 83.5294 28.9331 83.1743 28.9698C81.2329 29.037 80.033 32.0096 80.033 37.31C80.033 42.0714 80.879 44.7394 83.4803 44.6451C84.0955 44.6487 84.6913 44.4282 85.158 44.0217ZM101.005 28.1391L101.626 28.2063V44.9353L103.265 45.8561V46.5782H93.9417V45.8604L95.6153 44.9339V30.83L93.6132 30.0293V29.4574L101.005 28.1234M101.661 23.6051C101.605 25.338 100.186 26.705 98.4746 26.6692C97.9215 26.6917 97.3727 26.5622 96.8861 26.2946C96.3996 26.0269 95.9933 25.631 95.7103 25.1486C95.4273 24.6662 95.2779 24.1152 95.2781 23.5538C95.2782 22.9925 95.4279 22.4416 95.7112 21.9594C95.994 21.477 96.4001 21.081 96.8865 20.8132C97.3729 20.5454 97.9216 20.4158 98.4746 20.438C98.8875 20.4325 99.2974 20.5096 99.6809 20.6648C100.064 20.82 100.414 21.0503 100.71 21.3425C101.006 21.6348 101.242 21.9832 101.405 22.368C101.568 22.7528 101.654 23.1663 101.66 23.5851V23.6051M122.597 44.9067V30.6727L120.627 29.975V29.2858L127.799 27.9332L128.521 28.0004V30.1337H128.718C130.422 28.6569 132.588 27.8425 134.829 27.836C137.952 27.836 139.326 29.3344 139.326 32.6831V44.8881L141 45.8576V46.561H131.662V45.8433L133.336 44.9167V32.9891C133.336 31.156 132.546 30.424 131.07 30.424C130.184 30.3989 129.316 30.6791 128.607 31.2189V44.9167L130.252 45.8375V46.5668H120.913V45.849L122.587 44.9225M112.441 35.9717V33.581C112.441 29.9836 111.666 28.8054 109.472 28.8054C109.224 28.8111 108.976 28.834 108.73 28.8726L104.825 34.2402H104.261V29.293C106.371 28.558 108.585 28.1691 110.817 28.1391C115.596 28.1391 118.367 29.4831 118.367 33.541V45.1798L120.078 45.6374V46.0949C118.991 46.6613 117.781 46.9429 116.559 46.9142C114.202 46.9142 113.074 46.1278 112.555 44.8195H112.386C111.385 46.1921 109.967 46.9785 107.739 46.9785C104.899 46.9785 102.959 45.1798 102.959 42.0714C102.959 39.0601 104.801 37.4244 108.543 36.7038L112.426 35.9746M112.426 44.0245V36.8239L111.23 36.9211C109.355 37.0855 108.681 38.298 108.681 40.9818C108.681 43.8915 109.637 44.6479 110.937 44.6479C111.216 44.674 111.497 44.6312 111.756 44.5231C112.015 44.415 112.244 44.2449 112.424 44.0274M51.8858 35.9774V33.5867C51.8858 29.9893 51.1103 28.8111 48.9165 28.8111C48.6681 28.8172 48.4204 28.8397 48.1749 28.8783L44.2709 34.233H43.7253V29.2915C45.8346 28.5572 48.0457 28.1677 50.2757 28.1377C55.0552 28.1377 57.8257 29.4817 57.8257 33.5396V45.1784L59.5373 45.6359V46.0935C58.45 46.6598 57.2402 46.9415 56.0182 46.9128C53.6608 46.9128 52.5329 46.1264 52.0141 44.8181H51.8519C50.8509 46.1907 49.4325 46.9771 47.2049 46.9771C44.3654 46.9771 42.4253 45.1784 42.4253 42.0699C42.4253 39.0587 44.2667 37.423 48.0085 36.7024L51.8858 35.9731M51.8858 44.0231V36.8225L50.6902 36.9197C48.815 37.0841 48.1411 38.2966 48.1411 40.9804C48.1411 43.8901 49.097 44.6465 50.3969 44.6465C50.6758 44.6726 50.9568 44.6297 51.2159 44.5217C51.4749 44.4136 51.7043 44.2435 51.8844 44.0259" fill="#959595"/>
</svg>
