<svg xmlns="http://www.w3.org/2000/svg" width="48" height="48" viewBox="0 0 96 96">
  <path fill="#fff" d="M48.85 94.37a30.12 30.12 0 0 1-30.09-30.08V53.81l-1.27-4.82a14.79 14.79 0 0 1 10.53-18.08l.47-.12a14.66 14.66 0 0 1 10.18-5.76l-1-2.24A14.8 14.8 0 0 1 58.31 3.82 14.8 14.8 0 0 1 73.4 24.53l-1.3 2.93 1.88 4.22c1.32 3 2 6.25 2 9.53v1.78a19.55 19.55 0 0 1 2.92 10.25v11.05a30.11 30.11 0 0 1-30.05 30.08Z"/>
  <path fill="#3A3A4E" d="M68.21 45.51v-4.3c0-2.2-.45-4.37-1.35-6.37l-3.27-7.38 2.7-6.09a7 7 0 0 0-9.66-9 7 7 0 0 0-11.8 7.27l3.46 7.83-3.19 7.2a7 7 0 0 0-11.69 3.72 6.88 6.88 0 0 0-7.67 3.24 7 7 0 0 0-.73 5.31l1.53 5.8v11.49a22.29 22.29 0 1 0 44.57 0V53.24c0-2.84-1.03-5.59-2.9-7.73Zm-7.27-29.35c.63.28 1.12.8 1.37 1.44a2.55 2.55 0 0 1 0 2l-1.12 2.46-2.55-5.75a2.61 2.61 0 0 1 2.3-.15Zm-12.14-.3a2.6 2.6 0 0 1 4.8-.11l.38.88 5.2 11.72 3.65 8.27c.65 1.44 1 3 1 4.59v1.2a9.81 9.81 0 0 0-1-.36l-14.28-4.31 2.14-4.85 2.28 5.14a2.2 2.2 0 0 0 4-1.78l-4.29-9.68-3.86-8.72a2.55 2.55 0 0 1-.02-1.99Zm-9.19 21.37a2.56 2.56 0 0 1 2 .27c.37.21.68.51.9.88-.3.38-.53.8-.67 1.27a10.22 10.22 0 0 0 3.65 11.16 2.64 2.64 0 0 1-1.85 1.85 2.61 2.61 0 0 1-3.17-1.85l-2-7.38-.8-3a2.6 2.6 0 0 1 1.94-3.2Zm-10.06 6.68a2.62 2.62 0 0 1 2.25-1.29 2.6 2.6 0 0 1 2.51 1.93l1.87 7.08a2.6 2.6 0 0 1-5.02 1.33l-.27-1-1.6-6.07a2.61 2.61 0 0 1 .26-1.98Zm37.18 20.38a17.88 17.88 0 0 1-35.76 0v-5.54a7 7 0 0 0 8.52-2.57 7 7 0 0 0 10.06-3.53l8.65 2.61a2.2 2.2 0 0 0 1.29-4.2l-9.57-2.89a6.09 6.09 0 0 1-3.51-3.03 5.82 5.82 0 0 1-.49-3.59l15.67 4.73c1.1.34 2.1.93 2.94 1.72a7.24 7.24 0 0 1 2.15 5.18l.05 11.11Z"/>
  <path fill="#3A3A4E" d="M58.04 57.86a13.82 13.82 0 0 0-17.2 9.22 2.19 2.19 0 0 0 2.11 2.84 2.2 2.2 0 0 0 2.1-1.57 9.42 9.42 0 0 1 11.72-6.29 2.2 2.2 0 0 0 1.27-4.21v.01Z"/>
</svg>
