<svg xmlns="http://www.w3.org/2000/svg" width="48" height="48" viewBox="0 0 96 96">
  <path fill="#fff" d="M48.3 82.4a30.11 30.11 0 0 1-30.08-30.08V32.94a14.81 14.81 0 0 1 16.01-14.75 14.73 14.73 0 0 1 8.38-2.61h1a14.72 14.72 0 0 1 8.63-2.78c3.12 0 4.76.79 4.76.79s1.43-.8 4.83-.8a14.81 14.81 0 0 1 14.8 14.8v5.46a19.36 19.36 0 0 1 1.8 8.17v11.06A30.11 30.11 0 0 1 48.3 82.4Z"/>
  <path fill="#3A3A4E" d="M57.27 46.09a13.81 13.81 0 0 0-17.2 9.22 2.2 2.2 0 0 0 4.21 1.27A9.41 9.41 0 0 1 56 50.3a2.2 2.2 0 1 0 1.27-4.21Z"/>
  <path fill="#3A3A4E" d="M68.57 35.24v-7.41s-3.95-4.81-22.74-3.34a7 7 0 0 0-9.51 2.61 7 7 0 0 0-10.52 6v19.38a22.28 22.28 0 0 0 44.56 0V41.44c0-2.2-.62-4.34-1.79-6.2Zm-7-10a2.6 2.6 0 0 1 2.6 2.59v3.33c-.67-.36-1.38-.66-2.11-.88l-3.08-.93v-1.52a2.59 2.59 0 0 1 2.59-2.59Zm-9.59 0a2.6 2.6 0 0 1 2.6 2.59v.19l-4.85-1.47a2.59 2.59 0 0 1 2.25-1.31Zm-12.19 5.34a2.6 2.6 0 0 1 1.14-2.14 10.23 10.23 0 0 0 4.08 10.75v.47a2.6 2.6 0 1 1-5.19 0v-9.1l-.03.02Zm-9.59 2.56a2.6 2.6 0 1 1 5.19 0v6.54a2.6 2.6 0 1 1-5.19 0v-6.54Zm35.73 19.38a17.88 17.88 0 1 1-35.76 0v-6.35c.82.34 1.7.51 2.59.51a7 7 0 0 1 9.6 0 7 7 0 0 0 6.86-5.65l8.19 2.47a2.2 2.2 0 1 0 1.27-4.21l-9.54-2.85a5.84 5.84 0 0 1-4-6.65l.56.17.88.27 14.23 4.3a7.25 7.25 0 0 1 3.81 2.71.2.2 0 0 1 0 .06 7.18 7.18 0 0 1 1.31 4.14v11.08Z"/>
  <path fill="#3A3A4E" d="M66.52 23.03a7 7 0 0 1 2.05 4.95h-4.4a2.6 2.6 0 0 0-5.2 0h-4.4a7 7 0 0 1 11.95-4.95Z"/>
  <path fill="#3A3A4E" d="M56.9 23.14a7 7 0 0 1 2.06 4.95h-4.41a2.6 2.6 0 1 0-5.2 0h-4.4a7 7 0 0 1 11.96-4.95ZM37.48 44.6a7.19 7.19 0 0 1-2.04-5.03h4.39c0 .7.27 1.37.75 1.86a2.53 2.53 0 0 0 3.65.01c.48-.5.76-1.17.76-1.87v-.77l4.38.77a7.2 7.2 0 0 1-2.04 5.03 6.89 6.89 0 0 1-9.85 0Z"/>
  <path fill="#3A3A4E" d="M27.84 44.64a7.07 7.07 0 0 1-2.04-4.97h4.38c0 .69.27 1.35.76 1.84.48.5 1.13.77 1.81.77a2.69 2.69 0 0 0 2.64-2.61v-.76l4.37.76a7.12 7.12 0 0 1-7 7.03 6.92 6.92 0 0 1-4.92-2.06Z"/>
</svg>
