<svg xmlns="http://www.w3.org/2000/svg" width="48" height="48" viewBox="0 0 96 96">
  <path fill="#fff" d="M48.09 85.82A30.12 30.12 0 0 1 18 55.74V25.83a14.8 14.8 0 0 1 27.27-8 14.79 14.79 0 0 1 11.51-.81 14.8 14.8 0 0 1 19.6 14v5.45a19.37 19.37 0 0 1 1.79 8.18v11a30.1 30.1 0 0 1-30.08 30.17Z"/>
  <path fill="#3A3A4E" d="M68.58 38.44v-7.41a7 7 0 0 0-11.8-5.08 6.92 6.92 0 0 0-8.37-.93 7 7 0 0 0-2.57 2.68 7.16 7.16 0 0 0-6-.41V25.8a7 7 0 1 0-14 0v29.93a22.29 22.29 0 0 0 44.57 0v-11c0-2.23-.63-4.42-1.83-6.3Zm-7-10a2.6 2.6 0 0 1 2.6 2.59v3.4a12.2 12.2 0 0 0-2.11-.88l-3.09-.93V31.1a2.6 2.6 0 0 1 2.6-2.66Zm-9.59 0a2.59 2.59 0 0 1 2.59 2.59v.19l-4.84-1.46a2.58 2.58 0 0 1 2.25-1.32ZM40.9 31.67a10.22 10.22 0 0 0 4.09 10.77v.47a2.6 2.6 0 1 1-5.19 0v-9.1a2.59 2.59 0 0 1 1.1-2.12v-.02Zm25.07 24a17.89 17.89 0 0 1-35.77 0V25.83a2.6 2.6 0 0 1 5.2 0V42.9a7 7 0 0 0 13.86 1.35l8.19 2.47a2.2 2.2 0 1 0 1.27-4.21l-9.57-2.9a5.83 5.83 0 0 1-4-6.63l.56.16.88.26 14.23 4.3a7.27 7.27 0 0 1 3.81 2.72v.06a7.28 7.28 0 0 1 1.32 4.19l.02 11Z"/>
  <path fill="#3A3A4E" d="M57.28 49.3a13.82 13.82 0 0 0-17.2 9.23 2.19 2.19 0 0 0 2.1 2.84 2.2 2.2 0 0 0 2.11-1.57 9.42 9.42 0 0 1 11.72-6.28 2.2 2.2 0 1 0 1.27-4.21Z"/>
</svg>
