<svg xmlns="http://www.w3.org/2000/svg" width="48" height="48" viewBox="0 0 96 96">
  <path fill="#fff" d="M48.08 93.28A30.11 30.11 0 0 1 18 63.2V33.3a14.81 14.81 0 0 1 10.87-14.26 14.85 14.85 0 0 1 10.28-8.53A14.79 14.79 0 0 1 61.4 6.35h.22a14.81 14.81 0 0 1 14.75 14.8v22.83a19.36 19.36 0 0 1 1.79 8.17v11.06a30.11 30.11 0 0 1-30.08 30.07Z"/>
  <path fill="#3A3A4E" d="M68.57 45.92V21.15a7 7 0 0 0-10.21-6.2 7 7 0 0 0-13.38 2.85v.65a7 7 0 0 0-9.59 6.5v1.85a7 7 0 0 0-9.59 6.5v29.91a22.28 22.28 0 1 0 44.56 0V52.15c0-2.2-.61-4.37-1.79-6.23Zm-7-27.37a2.6 2.6 0 0 1 2.6 2.6v20.7c-.67-.37-1.38-.67-2.11-.89l-3.08-.93V21.15a2.59 2.59 0 0 1 2.59-2.6Zm-12.19-.76a2.6 2.6 0 0 1 5.2 0V38.7l-5.2-1.57V17.8ZM65.96 63.2a17.88 17.88 0 0 1-35.76 0V33.3a2.6 2.6 0 1 1 5.19 0v17.18a2.2 2.2 0 1 0 4.4 0V24.94a2.6 2.6 0 1 1 5.19 0v11a3.79 3.79 0 0 0-3.94 2.66 10.23 10.23 0 0 0 6.83 12.7l9.57 2.88a2.2 2.2 0 1 0 1.27-4.21l-9.57-2.89a5.84 5.84 0 0 1-4-6.65l15.65 4.72a7.32 7.32 0 0 1 3.8 2.71l.05.07a7.23 7.23 0 0 1 1.31 4.17l.01 11.1Z"/>
  <path fill="#3A3A4E" d="M57.27 56.77A13.82 13.82 0 0 0 40.07 66a2.2 2.2 0 0 0 4.21 1.27A9.42 9.42 0 0 1 56 60.98a2.2 2.2 0 1 0 1.27-4.2Z"/>
</svg>
