<svg xmlns="http://www.w3.org/2000/svg" width="48" height="48" viewBox="0 0 96 96">
  <path fill="#fff" d="M48.08 89.16A30.11 30.11 0 0 1 18 59.08V29.17A14.82 14.82 0 0 1 28.82 14.9a14.79 14.79 0 0 1 28.35 5.35 14.83 14.83 0 0 1 19.2 14.13v5.46a19.32 19.32 0 0 1 1.79 8.17v11.06a30.11 30.11 0 0 1-30.08 30.08Z"/>
  <path fill="#3A3A4E" d="M68.57 41.8v-7.41a7 7 0 0 0-11.79-5.1 7 7 0 0 0-7.4-1.4v-7.07a7 7 0 1 0-14 0v1.85a7 7 0 0 0-9.59 6.5v29.9a22.29 22.29 0 0 0 44.57 0V48.03c0-2.2-.61-4.36-1.79-6.22Zm-7-10a2.6 2.6 0 0 1 2.6 2.6v3.33c-.67-.37-1.38-.66-2.11-.88l-3.08-.93V34.4a2.6 2.6 0 0 1 2.59-2.61Zm-9.59 0a2.61 2.61 0 0 1 2.6 2.6v.2l-4.85-1.47a2.61 2.61 0 0 1 2.25-1.34Zm14 27.29a17.88 17.88 0 1 1-35.76 0V29.17a2.6 2.6 0 1 1 5.19 0v17.19a2.2 2.2 0 1 0 4.4 0V20.82a2.6 2.6 0 1 1 5.19 0v10.95a3.8 3.8 0 0 0-3.94 2.66 10.24 10.24 0 0 0 6.83 12.74l9.57 2.89a2.2 2.2 0 1 0 1.28-4.21l-9.58-2.9a5.82 5.82 0 0 1-4-6.64l15.68 4.74a7.23 7.23 0 0 1 3.8 2.7v.07A7.18 7.18 0 0 1 65.96 48l.02 11.09Z"/>
  <path fill="#3A3A4E" d="M57.28 52.65a13.82 13.82 0 0 0-17.21 9.22 2.2 2.2 0 0 0 2.09 2.83 2.2 2.2 0 0 0 2.1-1.57 9.42 9.42 0 0 1 11.72-6.28 2.2 2.2 0 0 0 1.28-4.21h.02Z"/>
</svg>
