<svg xmlns="http://www.w3.org/2000/svg" width="48" height="48" viewBox="0 0 96 96">
  <path fill="#fff" d="M47.84 94.96a30.12 30.12 0 0 1-30.08-30.08V54.4l-1.27-4.82A14.8 14.8 0 0 1 27.02 31.5l.46-.12c.9-1.2 2-2.25 3.22-3.13l-2-7.68A14.8 14.8 0 0 1 53.85 6.73 14.78 14.78 0 0 1 79 20.57l-5.5 20.85a19.46 19.46 0 0 1 4.45 12.4v11.06a30.12 30.12 0 0 1-30.11 30.08Z"/>
  <path fill="#3A3A4E" d="M66.46 10.03a7 7 0 0 0-8.55 5l-4.08 15.46-4.08-15.46a7 7 0 1 0-13.53 3.57l3.9 14.8a7 7 0 0 0-7.72 5.61 7.08 7.08 0 0 0-3.4 0 7 7 0 0 0-5 8.55l1.54 5.8v11.49a22.29 22.29 0 0 0 44.57 0V53.82a11.67 11.67 0 0 0-5.4-9.84l6.7-25.4a7 7 0 0 0-4.95-8.55Zm-24.14 4.26a2.58 2.58 0 0 1 3.17 1.84l6.19 23.5-5.84-1.77-5.37-20.35a2.6 2.6 0 0 1 1.85-3.22Zm-5.3 24.73a2.6 2.6 0 0 1 3.56-.94c.37.22.68.53.9.9-.31.37-.54.8-.67 1.26a10.14 10.14 0 0 0 3.7 11.17 2.61 2.61 0 0 1-3.8 1.57 2.58 2.58 0 0 1-1.2-1.58v-.3l-1.87-7.08-.8-3a2.57 2.57 0 0 1 .19-2Zm-8.47 5.48a2.6 2.6 0 0 1 4.76.64l1.86 7.08a2.6 2.6 0 0 1-5.02 1.33 1.5 1.5 0 0 0-.2-.49c0-.18-.03-.35-.06-.52l-1.61-6.07a2.6 2.6 0 0 1 .27-1.97Zm37.18 9.32v11.06a17.89 17.89 0 0 1-35.77 0v-5.54a7 7 0 0 0 8.5-2.57 6.93 6.93 0 0 0 5.3.72 7 7 0 0 0 4.76-4.25l8.66 2.61a2.2 2.2 0 1 0 1.27-4.21l-9.58-2.89a5.82 5.82 0 0 1-4-6.64l15.68 4.73a7.28 7.28 0 0 1 5.18 6.98Zm1.46-36.36-6.56 24.82-5.3-1.6c.3-.27.51-.62.63-1l6.2-23.53a2.6 2.6 0 1 1 5 1.33l.03-.02Z"/>
  <path fill="#3A3A4E" d="M57.04 58.45a13.82 13.82 0 0 0-17.2 9.22 2.19 2.19 0 0 0 2.1 2.84 2.2 2.2 0 0 0 2.1-1.57 9.41 9.41 0 0 1 11.73-6.28 2.2 2.2 0 1 0 1.27-4.21Z"/>
</svg>
