<svg xmlns="http://www.w3.org/2000/svg" width="48" height="48" viewBox="0 0 96 96">
  <path fill="#fff" d="M44.08 91.92a30.07 30.07 0 0 1-29.06-37.84l8.82-33.05A11.57 11.57 0 0 1 38 12.83a17.9 17.9 0 0 1 9.2 5.88l9.44-9.44A14.8 14.8 0 0 1 77.57 30.2l-5.28 5.31c.64 1.4 1.05 2.9 1.22 4.42l.28.28c2.48 2.47 4 5.74 4.28 9.22a14.79 14.79 0 0 1 0 20.92l-12.7 12.72a29.92 29.92 0 0 1-21.29 8.85Z"/>
  <path fill="#3A3A4E" d="M72.56 54.98a7 7 0 0 0-2.76-1.7A7 7 0 0 0 65.37 44a7 7 0 0 0-3.83-8.79l10.51-10.52a7 7 0 1 0-9.89-9.89L42.93 34.02l.31-1.15A10.23 10.23 0 0 0 36 20.37a3.78 3.78 0 0 0-4.62 2.67l-8.83 33A22.33 22.33 0 0 0 38.21 83.3h.13a22.32 22.32 0 0 0 21.5-5.77L72.56 64.8a7 7 0 0 0 0-9.9v.08Zm-3.1 6.78L56.72 74.5a18 18 0 0 1-17.15 4.66h-.1a17.9 17.9 0 0 1-12.67-21.9l8.65-32.42A5.83 5.83 0 0 1 39 31.77l-2.42 9.06a2.2 2.2 0 0 0 3.68 2.12l25-25a2.6 2.6 0 1 1 3.67 3.67l-15.1 15.06-2 2a2.2 2.2 0 0 0 3.11 3.11l2-2a2.6 2.6 0 0 1 3.68 3.67l-2.27 2.27-2 2a2.2 2.2 0 0 0 3.11 3.11l2-2a2.6 2.6 0 0 1 3.67 3.67l-2.46 2.46-2 2a2.2 2.2 0 0 0 3.12 3.11l2-2a2.6 2.6 0 0 1 3.66 3.68Z"/>
</svg>
