<svg xmlns="http://www.w3.org/2000/svg" width="48" height="48" viewBox="0 0 96 96">
  <path fill="#fff" d="M48.08 91.35A30.12 30.12 0 0 1 18 61.26V41.88a14.81 14.81 0 0 1 16.01-14.74 14.68 14.68 0 0 1 8.38-2.6h1c1.05-.76 2.2-1.38 3.42-1.84v-3.52a14.8 14.8 0 1 1 29.59 0v22.85a19.41 19.41 0 0 1 1.8 8.18v11.05a30.13 30.13 0 0 1-30.12 30.1Z"/>
  <path fill="#3A3A4E" d="M57.28 54.83a13.82 13.82 0 0 0-17.2 9.22 2.19 2.19 0 0 0 3.41 2.41c.38-.28.66-.67.8-1.13a9.41 9.41 0 0 1 11.72-6.28 2.2 2.2 0 0 0 1.27-4.22Z"/>
  <path fill="#3A3A4E" fill-rule="evenodd" d="M68.57 19.21V44a11.56 11.56 0 0 1 1.79 6.22v11.06a22.3 22.3 0 1 1-44.57 0V41.9a7 7 0 0 1 10.52-6.12 7 7 0 0 1 9.48-2.53 7 7 0 0 1 8.78-3.2V19.21a7 7 0 1 1 14 0Zm-33.2 22.45v.16l.01.06v6.55a2.6 2.6 0 0 1-5.2 0v-6.61l.01-.16a2.6 2.6 0 0 1 2.61-2.37h-.01a2.59 2.59 0 0 1 2.58 2.37ZM63.4 17.38a2.6 2.6 0 0 0-4.43 1.83V38.1l3.08.93c.73.23 1.44.53 2.11.9v-20.7a2.6 2.6 0 0 0-.76-1.84Zm-9.6 17.37a2.6 2.6 0 0 0-3.12-.41c-.4.23-.72.56-.95.95l4.84 1.46v-.17a2.6 2.6 0 0 0-.76-1.83Zm-12.9 2.47a2.58 2.58 0 0 0-1.1 2.11v9.1a2.6 2.6 0 0 0 5.19 0v-.48a10.22 10.22 0 0 1-4.1-10.73Zm23.83 31.05c.88-2.22 1.3-4.6 1.24-6.98V50.22c0-1.49-.45-2.94-1.31-4.17l-.06-.08a7.14 7.14 0 0 0-3.8-2.7l-14.24-4.32-.85-.25-.56-.17a5.82 5.82 0 0 0 4 6.64l9.57 2.9a2.2 2.2 0 0 1-1.27 4.21l-8.19-2.48a7 7 0 0 1-6.87 5.65 11.34 11.34 0 0 0-12.19-.5v6.34a17.89 17.89 0 0 0 34.53 6.98Z" clip-rule="evenodd"/>
</svg>
