<svg xmlns="http://www.w3.org/2000/svg" width="72" height="48" viewBox="0 0 144 96">
  <path fill="#fff" d="M35.06 93.28A30.08 30.08 0 0 1 5 63.2V33.3a14.84 14.84 0 0 1 10.82-14.28 14.87 14.87 0 0 1 10.33-8.5 14.78 14.78 0 0 1 22.24-4.16h.23a14.81 14.81 0 0 1 14.79 14.8v9.33a18.06 18.06 0 0 1 10.65 2.35 11.59 11.59 0 0 1 4.23 15.81L61.15 78.26a30.18 30.18 0 0 1-26.09 15.02Z"/>
  <path fill="#fff" d="M108.36 93.28a30.18 30.18 0 0 1-26.06-15L65.15 48.65a11.59 11.59 0 0 1 4.22-15.82 18.1 18.1 0 0 1 9-2.42c.55 0 1.1 0 1.64.07v-9.34a14.81 14.81 0 0 1 14.8-14.79h.22a14.8 14.8 0 0 1 22.25 4.16 14.87 14.87 0 0 1 10.32 8.5 14.83 14.83 0 0 1 10.82 14.26v29.9a30.07 30.07 0 0 1-30.06 30.1v.01Z"/>
  <path fill="#3A3A4E" d="M123.63 26.3a7 7 0 0 0-2.6.5v-1.86a7.01 7.01 0 0 0-9.59-6.5v-.65a7 7 0 0 0-13.38-2.86 7 7 0 0 0-10.21 6.21v23.2l-.59-1a10.23 10.23 0 0 0-14-3.73 3.82 3.82 0 0 0-1.59 1.84 3.73 3.73 0 0 0-1.58-1.84 10.23 10.23 0 0 0-14 3.73l-.6 1v-23.2a7 7 0 0 0-10.21-6.22 7 7 0 0 0-13.38 2.86v.65a7 7 0 0 0-9.6 6.5v1.85a7 7 0 0 0-9.59 6.5V63.2a22.34 22.34 0 0 0 11.12 19.28 22.32 22.32 0 0 0 30.45-8.14l17.13-29.6c.08-.16.15-.3.21-.47.06.16.13.31.21.46l17.13 29.61a22.32 22.32 0 0 0 30.45 8.14 22.34 22.34 0 0 0 11.12-19.28V33.3a7 7 0 0 0-6.9-7ZM50.56 72.14A17.88 17.88 0 0 1 17.2 63.2V33.3a2.6 2.6 0 1 1 5.19 0v17.18a2.2 2.2 0 1 0 4.4 0V24.94a2.6 2.6 0 1 1 5.2 0v22.24a2.2 2.2 0 0 0 4.4 0V17.8a2.6 2.6 0 0 1 5.19 0v27a2.2 2.2 0 1 0 4.4 0V21.2a2.6 2.6 0 0 1 5.19 0v31.4a2.2 2.2 0 0 0 4.11 1.1l4.69-8.13a5.84 5.84 0 0 1 7.4-2.4l-16.81 29Zm75.66-8.95a17.88 17.88 0 0 1-33.36 8.95l-16.8-29a5.82 5.82 0 0 1 7.39 2.4l4.7 8.12a2.2 2.2 0 0 0 4.1-1.1V21.14a2.6 2.6 0 0 1 5.19 0v23.6a2.2 2.2 0 0 0 4.4 0v-27a2.6 2.6 0 1 1 5.2 0v29.4a2.2 2.2 0 0 0 4.4 0v-22.2a2.6 2.6 0 0 1 4.49-1.94 2.6 2.6 0 0 1 .7 1.94V50.5a2.2 2.2 0 0 0 4.4 0V33.3a2.6 2.6 0 0 1 4.49-1.94 2.6 2.6 0 0 1 .7 1.94v29.9Z"/>
  <path fill="#3A3A4E" d="M46.52 53.9a14.55 14.55 0 0 0-14.53 14.53 2.2 2.2 0 0 0 4.4 0A10.14 10.14 0 0 1 46.52 58.3a2.2 2.2 0 1 0 0-4.4Zm50.38 0a2.2 2.2 0 1 0 0 4.4 10.15 10.15 0 0 1 10.14 10.13 2.2 2.2 0 0 0 4.4 0A14.55 14.55 0 0 0 96.9 53.9Z"/>
</svg>
