<svg xmlns="http://www.w3.org/2000/svg" width="60" height="80" fill="currentColor" viewBox="0 0 66 80">
  <path d="M39.46 36.18c3.3-2.73 4.77-18.87 6.2-24.67C47.08 5.7 53 6 53 6s-1.54 2.66-.91 4.66c.62 1.99 4.91 3.77 4.91 3.77l-.92 2.44s-1.94-.25-3.09 2.05c-1.14 2.3.74 25.06.74 25.06s-6.9 13.62-6.9 19.37a24 24 0 0 0 2.72 10.57h-3.82s-5.6-6.67-6.75-10c-1.15-3.33-.7-6.66-.7-6.66s-6.09-.35-11.49 0c-5.4.34-9 4.98-9.65 7.58-.65 2.6-.92 9.08-.92 9.08H13.2c-1.84-5.67-3.3-7.7-2.5-10.57 2.19-7.93 1.76-12.43 1.25-14.44-.51-2-3.95-3.75-3.95-3.75 1.68-3.44 3.4-5.08 10.8-5.26 7.4-.17 17.36-1 20.66-3.73Z"/>
  <path d="M20.25 63.03s.78 7.22 4.93 10.9h3.55c-3.55-4.02-3.94-14.52-3.94-14.52-1.8.6-4.31 2.7-4.54 3.62Z"/>
</svg>
