<svg xmlns="http://www.w3.org/2000/svg" width="48" height="48" viewBox="0 0 96 96">
  <path fill="#fff" d="M39.22 90.16a29.9 29.9 0 0 0 21.27-8.8l21.14-21.13a14.81 14.81 0 0 0 2.48-17.75 15.02 15.02 0 0 0-1.27-13.32 14.78 14.78 0 0 0-12.8-18.67l-.15-.16a14.8 14.8 0 0 0-20.92 0l-6.61 6.61a17.92 17.92 0 0 0-9.2-5.89 11.59 11.59 0 0 0-14.2 8.18l-8.85 33.1a30.09 30.09 0 0 0 29.07 37.83h.04Z"/>
  <path fill="#3A3A4E" d="m17.69 54.33 8.82-33a3.78 3.78 0 0 1 4.62-2.68 10.23 10.23 0 0 1 7.24 12.51l-.31 1.14 16.4-16.4a7 7 0 0 1 11.65 2.77 7 7 0 0 1 7.43 11.5l-.45.45a6.91 6.91 0 0 1 3.7 3.75A7 7 0 0 1 75.27 42l-1.31 1.31a6.9 6.9 0 0 1 3.7 3.75 7 7 0 0 1-1.51 7.63L55 75.83a22.28 22.28 0 0 1-37.28-21.5h-.03Zm6 14.7a17.73 17.73 0 0 0 10.86 8.32 17.93 17.93 0 0 0 17.26-4.63L73 51.57a2.6 2.6 0 1 0-3.67-3.67L57.18 60.06a2.2 2.2 0 0 1-3.11-3.1l12.15-12.17 5.89-5.9a2.6 2.6 0 0 0-3.67-3.68L52.7 50.94a2.2 2.2 0 0 1-1.56.65 2.21 2.21 0 0 1-1.55-3.76L65.33 32.1l5-5a2.6 2.6 0 0 0-3.67-3.67l-2.37 2.37L47.6 42.48a2.19 2.19 0 0 1-3.7-1.98c.08-.42.28-.82.59-1.13l16.7-16.67a2.61 2.61 0 0 0 0-3.68 2.67 2.67 0 0 0-3.68 0l-22.2 22.2a2.2 2.2 0 0 1-3.67-2.12l2.47-9.12a5.84 5.84 0 0 0-3.53-6.93l-8.65 32.42a17.74 17.74 0 0 0 1.8 13.57h-.04Z"/>
  <path fill="#3A3A4E" d="M34.6 45.41a2.2 2.2 0 0 1 3.1 0 14.56 14.56 0 0 1 0 20.55 2.2 2.2 0 0 1-3.1-3.1 10.15 10.15 0 0 0 0-14.34 2.2 2.2 0 0 1 0-3.1Z"/>
</svg>
