<svg width="184" height="60" viewBox="0 0 184 60" fill="none" xmlns="http://www.w3.org/2000/svg">
<rect x="0.5" width="183" height="60" rx="5" fill="#0A66C2"/>
<path d="M52.4968 48H45.0431V36.3067C45.0431 33.5183 44.9934 29.9288 41.1665 29.9288C37.2842 29.9288 36.6902 32.9667 36.6902 36.1036V47.9991H29.2367V23.953H36.3921V27.2391H36.4924C37.9493 24.7437 40.6683 23.2477 43.5524 23.355C51.107 23.355 52.5 28.3327 52.5 34.8087L52.4968 48ZM20.8264 20.666C18.4535 20.666 16.5 18.7102 16.5 16.3331C16.5 13.956 18.4526 12 20.8255 12C23.1982 12 25.1506 13.9556 25.151 16.3322C25.151 18.7088 23.1989 20.6657 20.8264 20.666ZM24.5532 48H17.0918V23.953H24.5532V48Z" fill="white"/>
<path d="M77.348 13.328V12.032H69.94V24H71.412V18.544H76.356V17.248H71.412V13.328H77.348ZM82.2275 15.696C79.8595 15.696 78.0355 17.328 78.0355 19.92C78.0355 22.512 79.8595 24.16 82.2275 24.16C84.5955 24.16 86.4195 22.512 86.4195 19.92C86.4195 17.328 84.5955 15.696 82.2275 15.696ZM82.2275 16.896C83.8115 16.896 85.0275 18.016 85.0275 19.92C85.0275 21.824 83.8115 22.96 82.2275 22.96C80.6435 22.96 79.4275 21.824 79.4275 19.92C79.4275 18.016 80.6435 16.896 82.2275 16.896ZM90.0493 24V11.568H88.6733V24H90.0493ZM94.2211 24V11.568H92.8451V24H94.2211ZM100.665 15.696C98.297 15.696 96.473 17.328 96.473 19.92C96.473 22.512 98.297 24.16 100.665 24.16C103.033 24.16 104.857 22.512 104.857 19.92C104.857 17.328 103.033 15.696 100.665 15.696ZM100.665 16.896C102.249 16.896 103.465 18.016 103.465 19.92C103.465 21.824 102.249 22.96 100.665 22.96C99.081 22.96 97.865 21.824 97.865 19.92C97.865 18.016 99.081 16.896 100.665 16.896ZM115.34 24L118.444 15.84H116.956L114.748 21.76L112.524 15.84H111.548L109.34 21.76L107.148 15.84H105.644L108.748 24H109.852L112.044 18.16L114.236 24H115.34ZM130.486 24V15.84H129.11V20.608C129.11 21.808 128.342 22.864 127.046 22.864C125.814 22.864 125.126 22.016 125.126 20.688V15.84H123.75V20.88C123.75 22.832 124.902 24.16 126.726 24.16C128.086 24.16 128.87 23.44 129.174 22.784V24H130.486ZM135.779 15.712C133.859 15.696 132.787 16.672 132.787 18.096C132.787 19.696 133.971 20 135.555 20.368C137.027 20.72 137.571 20.912 137.571 21.744C137.571 22.56 136.867 22.96 135.891 22.96C134.803 22.96 134.131 22.48 134.003 21.584L132.627 21.68C132.835 23.248 134.019 24.16 135.859 24.16C137.747 24.16 138.947 23.248 138.947 21.632C138.947 20.176 137.843 19.696 136.115 19.28C134.947 19.008 134.179 18.944 134.179 18.08C134.179 17.36 134.691 16.88 135.731 16.896C136.771 16.88 137.299 17.424 137.395 18.24L138.771 18.16C138.595 16.752 137.603 15.696 135.779 15.712ZM148.712 15.696C146.344 15.696 144.52 17.328 144.52 19.92C144.52 22.512 146.344 24.16 148.712 24.16C151.08 24.16 152.904 22.512 152.904 19.92C152.904 17.328 151.08 15.696 148.712 15.696ZM148.712 16.896C150.296 16.896 151.512 18.016 151.512 19.92C151.512 21.824 150.296 22.96 148.712 22.96C147.128 22.96 145.912 21.824 145.912 19.92C145.912 18.016 147.128 16.896 148.712 16.896ZM159.014 15.696C157.718 15.696 156.87 16.32 156.47 17.056V15.84H155.158V24H156.534V19.232C156.534 18 157.43 16.976 158.726 16.976C159.958 16.976 160.79 17.856 160.79 19.216V24H162.182V19.04C162.182 16.992 160.854 15.696 159.014 15.696ZM72.868 45.056V29.048H70.66V47H81.868V45.056H72.868ZM85.8237 28.976C85.0797 28.976 84.4557 29.576 84.4557 30.344C84.4557 31.088 85.0557 31.688 85.8237 31.688C86.5677 31.688 87.1917 31.088 87.1917 30.344C87.1917 29.576 86.5677 28.976 85.8237 28.976ZM86.8317 47V34.76H84.7677V47H86.8317ZM96.8095 34.544C94.8655 34.544 93.5935 35.48 92.9935 36.584V34.76H91.0255V47H93.0895V39.848C93.0895 38 94.4335 36.464 96.3775 36.464C98.2255 36.464 99.4735 37.784 99.4735 39.824V47H101.562V39.56C101.562 36.488 99.5695 34.544 96.8095 34.544ZM107.715 40.136V28.352H105.651V47H107.715V42.896L109.035 41.6L113.595 47H116.234L110.499 40.088L115.659 34.76H113.091L107.715 40.136ZM128.756 41.672V40.544C128.756 36.92 126.644 34.544 123.14 34.544C119.66 34.544 117.116 36.896 117.116 40.88C117.116 44.864 119.684 47.24 123.188 47.24C126.02 47.24 128.132 45.584 128.636 43.376L126.572 43.256C126.164 44.624 124.94 45.44 123.14 45.44C120.98 45.44 119.42 44.024 119.3 41.672H128.756ZM123.116 36.344C125.444 36.344 126.644 37.856 126.692 39.992H119.3C119.444 37.616 121.004 36.344 123.116 36.344ZM143.487 47V28.352H141.423V36.608C140.751 35.432 139.239 34.544 137.199 34.544C133.839 34.544 131.295 36.944 131.295 40.904C131.295 44.84 133.839 47.24 137.199 47.24C139.287 47.24 140.847 46.28 141.543 45.008V47H143.487ZM137.487 36.344C139.743 36.344 141.423 37.76 141.423 40.52V41.24C141.423 44.024 139.743 45.44 137.487 45.44C135.159 45.44 133.383 43.832 133.383 40.88C133.383 37.952 135.159 36.344 137.487 36.344ZM149.977 47V29.048H147.769V47H149.977ZM159.997 34.544C158.053 34.544 156.781 35.48 156.181 36.584V34.76H154.213V47H156.277V39.848C156.277 38 157.621 36.464 159.565 36.464C161.413 36.464 162.661 37.784 162.661 39.824V47H164.749V39.56C164.749 36.488 162.757 34.544 159.997 34.544Z" fill="white"/>
</svg>
